<?xml version="1.0" encoding="UTF-8"?>
<svg version="1.1" viewBox="0 0 855.76 120.27" xml:space="preserve" xmlns="http://www.w3.org/2000/svg"><g transform="matrix(1.3333 0 0 -1.3333 0 120.27)"><g transform="scale(.1)"><path d="m0 902.02h1377.9v-891.88h-1377.9v891.88" fill="#254aa5"/><g fill="#fff200"><path d="m659.59 707.7 29.07 20.606 29.074-20.606-11.066 33.321 29.531 20.593h-36.394l-11.145 33.723-11.14-33.762-36.387 0.039 29.512-20.593-11.055-33.321"/><path d="m509.12 668.44 29.07 20.61 29.063-20.61-11.043 33.313 29.512 20.605h-36.407l-11.144 33.758-11.133-33.797-36.387 0.039 29.512-20.605-11.043-33.313"/><path d="m428.1 648.98-11.144-33.789-36.387 0.039 29.512-20.605-11.063-33.313 29.082 20.598 29.071-20.598-11.063 33.313 29.512 20.605h-36.387l-11.133 33.75"/><path d="m387.72 436.02 29.051-20.606-11.043 33.32 29.511 20.594h-36.379l-11.14 33.762-11.145-33.828-36.394 0.066 29.531-20.594-11.066-33.32 29.074 20.606"/><path d="m439.24 322.98-11.133 33.761-11.144-33.789-36.387 0.028 29.512-20.594-11.063-33.32 29.082 20.644 29.071-20.644-11.063 33.32 29.512 20.594h-36.387"/><path d="m549.55 215.89-11.145 33.722-11.121-33.761-36.406 0.039 29.512-20.606-11.047-33.308 29.082 20.593 29.054-20.593-11.046 33.308 29.511 20.606h-36.394"/><path d="m699.82 177.08-11.144 33.762-11.121-33.797-36.407 0.035 29.512-20.605-11.047-33.309 29.082 20.598 29.055-20.598-11.066 33.309 29.531 20.605h-36.395"/><path d="m850.09 215.89-11.113 33.722-11.16-33.761-36.368 0.039 29.493-20.606-11.047-33.308 29.082 20.593 29.074-20.593-11.086 33.308 29.531 20.606h-36.406"/><path d="m960.43 322.98-11.153 33.761-11.164-33.789-36.367 0.028 29.531-20.594-11.082-33.32 29.082 20.644 29.071-20.644-11.082 33.32 29.531 20.594h-36.367"/><path d="m1036.8 469.73h-36.41l-11.153 33.75-11.121-33.789-36.406 0.039 29.531-20.601-11.047-33.313 29.043 20.633 29.073-20.633-11.04 33.313 29.53 20.601"/><path d="m920.2 561.76 29.082 20.594 29.071-20.594-11.082 33.308 29.531 20.571h-36.367l-11.153 33.758-11.164-33.801-36.367 0.043 29.531-20.571-11.082-33.308"/><path d="m839.38 756.09-11.113-33.801-36.407 0.078 29.492-20.636-11.042-33.321 29.109 20.649 29.043-20.649-11.043 33.321 29.531 20.636h-36.445l-11.125 33.723"/></g><g transform="scale(10)"><text transform="matrix(1 0 0 -1 157.48 55.176)" fill="#231f20" font-family="Arial" font-size="35px" font-weight="bold"><tspan x="0 25.27 44.73 64.190002 83.650002 97.264999 116.725 138.11 157.57001 177.03 188.685 208.145 219.8 239.25999 258.72 268.45001 291.79501 313.17999 322.91 332.67078 356.01453 377.39441 391.01453 412.39441 433.77432 455.15323 474.61801" y="0">Kaasrahastatav ELi Euroopa </tspan><tspan x="0 21.385 42.77 62.23 83.614998 105 124.46 155.575 165.30499 184.765 204.22501 213.955 227.57001 247.03 268.41501 287.875 307.33499 318.9989 340.37778 359.84256" y="42">ühendamise rahastust</tspan></text>
</g></g></g></svg>
