<svg id="Layer_1" data-name="Layer 1" xmlns="http://www.w3.org/2000/svg" width="179" height="31" viewBox="0 0 179 31"><title>logo</title><path d="M102.228,20.228a8.241,8.241,0,0,1-2.963-.493l-3.975,4.2V13.222c0-3.631,1.926-7.017,6.938-7.017s6.95,3.386,6.95,7.017S107.252,20.228,102.228,20.228Zm-29.974,0c-5.024,0-6.95-3.374-6.95-7.006S67.23,6.2,72.254,6.2s6.95,3.386,6.95,7.017S77.279,20.228,72.254,20.228Zm-30.208,0c-5.024,0-6.95-3.374-6.95-7.006S37.022,6.2,42.046,6.2,49,9.591,49,13.222,47.071,20.228,42.046,20.228ZM102.228,0c-7.383,0-12.6,2.869-14.988,7.276C84.858,2.869,79.636,0,72.254,0c-7.5,0-12.777,2.967-15.11,7.5C54.824,2.967,49.552,0,42.046,0,31.726,0,25.6,5.614,25.6,13.222a13.3,13.3,0,0,0,.272,2.66c-1.136,1.908-3.58,4.346-9.432,4.346-5.024,0-6.95-3.374-6.95-7.006S11.419,6.2,16.443,6.2c2.889,0,4.74,1.145,5.79,2.8L26.27,2.265A20.3,20.3,0,0,0,16.443,0C6.111,0,0,5.614,0,13.222S6.11,26.445,16.443,26.445c6.284,0,10.4-1.773,13.123-4.1,2.827,2.56,7.073,4.1,12.48,4.1,7.506,0,12.777-2.967,15.1-7.51,2.333,4.543,7.6,7.51,15.11,7.51,7.259,0,12.444-2.783,14.876-7.08V31h8.16V25.435a22.583,22.583,0,0,0,6.938,1.01c10.332,0,16.443-5.614,16.443-13.223S112.56,0,102.228,0Z" fill="#0078d3"/><path d="M128,3.4H129.6V21.766H128Zm19.85,6.156a3.843,3.843,0,0,1-1.444,3.225,6.507,6.507,0,0,1-4.111,1.133h-1.63v5.441h-1.617V5.528h3.6C146.113,5.528,147.854,6.87,147.854,9.554Zm-7.185,2.979h1.457a5.362,5.362,0,0,0,3.1-.69,2.519,2.519,0,0,0,.962-2.2,2.39,2.39,0,0,0-.9-2.044,4.7,4.7,0,0,0-2.815-.677h-1.8v5.614Zm15.382,6.82-.309-1.465h-.086a4.472,4.472,0,0,1-1.543,1.318,4.684,4.684,0,0,1-1.926.344,3.5,3.5,0,0,1-2.432-.787,2.947,2.947,0,0,1-.876-2.266c0-2.1,1.679-3.2,5.036-3.3l1.766-.06V12.5a2.564,2.564,0,0,0-.531-1.8,2.138,2.138,0,0,0-1.68-.58,6.843,6.843,0,0,0-2.937.789l-.482-1.194a7.232,7.232,0,0,1,1.68-.665,7.765,7.765,0,0,1,1.839-.234,4.016,4.016,0,0,1,2.753.825,3.454,3.454,0,0,1,.9,2.634v7.08h-1.172ZM152.5,18.258a3.177,3.177,0,0,0,2.308-.813,2.956,2.956,0,0,0,.84-2.24v-.936l-1.58.061a5.632,5.632,0,0,0-2.7.58,1.751,1.751,0,0,0-.827,1.6,1.618,1.618,0,0,0,.518,1.305,2.158,2.158,0,0,0,1.445.443Zm14.233,1.095v-6.7a2.722,2.722,0,0,0-.58-1.9,2.352,2.352,0,0,0-1.815-.628,3,3,0,0,0-2.4.887,4.412,4.412,0,0,0-.753,2.9v5.43h-1.58V8.986h1.284l.247,1.416h.086a3.19,3.19,0,0,1,1.358-1.182A4.35,4.35,0,0,1,164.52,8.8a3.933,3.933,0,0,1,2.826.9,3.805,3.805,0,0,1,.951,2.894v6.758h-1.568Zm5.506-5.306a19.51,19.51,0,0,1,1.235-1.514l3.37-3.546H178.7l-4.21,4.42L179,19.353h-1.913l-3.667-4.9-1.185,1.022v3.878H170.68V4.63h1.555v7.818c0,.345-.025.874-.074,1.6h.074Z"/></svg>