<?xml version="1.0" encoding="UTF-8"?>
<svg width="176" height="62" version="1.1" viewBox="0 0 46.567 16.404" xmlns="http://www.w3.org/2000/svg">
 <defs>
  <clipPath id="clipPath3731">
   <path d="m0 60h120v-60h-120z"/>
  </clipPath>
 </defs>
 <g transform="translate(0 -280.6)">
  <g transform="translate(2.1167 -.80181)">
   <path d="m-2.1167 297.8h46.567v-16.404h-46.567z" fill="#287ac8"/>
   <g transform="matrix(.39647 0 0 -.39827 -2.6218 301.49)">
    <g clip-path="url(#clipPath3731)">
     <g transform="translate(89.898 30.243)">
      <path d="m0 0c0.949 0 1.529 0.591 1.529 1.54s-0.58 1.507-1.518 1.507h-1.607v-3.047zm-2.701 4.006h2.879c1.44 0 2.478-0.97 2.478-2.466 0-1.495-1.038-2.5-2.478-2.5h-1.774v-2.913h-1.105z" fill="#fff"/>
     </g>
     <g transform="translate(95.445 27.106)">
      <path d="m0 0c0.915 0 1.507 0.96 1.507 1.797v0.178h-0.279c-0.815 0-2.288-0.055-2.288-1.071 0-0.457 0.357-0.904 1.06-0.904m1.25 2.79h0.245v0.101c0 0.926-0.524 1.238-1.238 1.238-0.871 0-1.574-0.546-1.574-0.546l-0.446 0.792s0.814 0.669 2.109 0.669c1.429 0 2.232-0.781 2.232-2.209v-3.572h-1.004v0.536c0 0.257 0.022 0.447 0.022 0.447h-0.022s-0.458-1.116-1.808-1.116c-0.971 0-1.92 0.591-1.92 1.718 0 1.864 2.455 1.942 3.404 1.942" fill="#fff"/>
     </g>
     <g transform="translate(99.641 32.017)">
      <path d="m0 0h1.049v-0.748c0-0.223-0.022-0.413-0.022-0.413h0.022c0.223 0.491 0.893 1.295 2.121 1.295 1.328 0 1.942-0.725 1.942-2.165v-3.616h-1.083v3.37c0 0.793-0.167 1.418-1.071 1.418-0.86 0-1.552-0.57-1.786-1.384-0.067-0.223-0.089-0.48-0.089-0.759v-2.645h-1.083z" fill="#fff"/>
     </g>
     <g transform="translate(106.37 34.249)">
      <path d="m0 0h1.083v-4.308h0.792l1.54 2.076h1.228l-1.875-2.489v-0.022l2.087-3.136h-1.261l-1.697 2.656h-0.814v-2.656h-1.083z" fill="#fff"/>
     </g>
     <g transform="translate(66.131 26.337)">
      <path d="m0 0c-0.645 0-1.196 0.1-1.667 0.279l-2.23-2.364v6.029c0 2.041 1.081 3.945 3.897 3.945s3.896-1.904 3.896-3.945c0-2.04-1.08-3.944-3.896-3.944m-16.82 0c-2.816 0-3.896 1.904-3.896 3.944 0 2.041 1.08 3.945 3.896 3.945s3.898-1.904 3.898-3.945c0-2.04-1.082-3.944-3.898-3.944m-16.947 0c-2.817 0-3.897 1.904-3.897 3.944 0 2.041 1.08 3.945 3.897 3.945 2.815 0 3.896-1.904 3.896-3.945 0-2.04-1.081-3.944-3.896-3.944m33.767 11.382c-4.149 0-7.077-1.624-8.41-4.116-1.333 2.492-4.26 4.116-8.41 4.116-4.216 0-7.172-1.677-8.474-4.237-1.302 2.56-4.257 4.237-8.473 4.237-5.794 0-9.224-3.157-9.224-7.438 0-0.515 0.053-1.014 0.15-1.493-0.633-1.075-1.999-2.451-5.293-2.451-2.817 0-3.897 1.904-3.897 3.944 0 2.041 1.08 3.945 3.897 3.945 1.624 0 2.659-0.64 3.253-1.568l2.259 3.784c-1.458 0.805-3.306 1.277-5.512 1.277-5.794 0-9.223-3.157-9.223-7.438 0-4.28 3.429-7.437 9.223-7.437 3.534 0 5.841 0.994 7.369 2.312 1.585-1.44 3.963-2.312 6.998-2.312 4.216 0 7.171 1.676 8.473 4.236 1.302-2.56 4.258-4.236 8.474-4.236 4.081 0 6.982 1.57 8.345 3.992v-6.556h4.578v3.128c1.139-0.365 2.443-0.564 3.897-0.564 5.792 0 9.223 3.157 9.223 7.437 0 4.281-3.431 7.438-9.223 7.438" fill="#fff"/>
     </g>
     <path d="m80.721 35.611h0.909v-10.812h-0.909z" fill="#fff"/>
    </g>
   </g>
  </g>
 </g>
</svg>
