<?xml version="1.0" encoding="UTF-8"?>
<svg enable-background="new 0 0 88 31" version="1.1" viewBox="0 0 88 31" xml:space="preserve" xmlns="http://www.w3.org/2000/svg">
<rect x=".1" width="88" height="31" fill="#60CD18"/>
<path d="m59.9 10.9v2.8h3.6c0.8 0 1.5-0.7 1.5-1.4s-0.7-1.4-1.5-1.4h-3.6zm4.4 9c0.8 0 1.4-0.6 1.4-1.4s-0.6-1.5-1.4-1.5h-4.4v2.9h4.4zm-8.9 3.6v-16h9.4c2.7 0 4.9 1.6 4.9 4 0 1.9-1.2 3.1-2.3 3.5 1.9 0.7 3.2 2 3.2 4.1 0 2.6-2.2 4.3-5 4.3h-10.2v0.1zm-21.2 3.6h1v-23.2h-1v23.2zm17.9 0h1v-23.2h-1v23.2zm-20.1-17.3-2.9 2.1c-1.3-1.2-3.1-1.4-4-1.4-1 0-2 0.3-2.1 1-0.2 0.7 0.5 1.2 1.6 1.5 1.2 0.3 2.4 0.6 4.1 1.1 2.6 0.7 4.3 1.8 4.3 4.4 0 3.5-3.1 5.4-7.4 5.4-4.2 0-7.1-2.2-8-3.2l3-2.3c2.1 1.8 3.6 2.1 4.8 2.1 1.4 0 2.7-0.3 2.9-1.1 0.1-0.6-0.4-1.2-1.6-1.4-1.4-0.3-2.5-0.6-3.8-0.9-3.5-0.9-4.5-2.9-4.5-4.8 0-2.5 2.3-5.1 6.6-5.1 4.4 0.1 7 2.6 7 2.6zm18.2-2.3v3.6h-8.3v2.5h5.9v3.5h-5.9v2.6h8.5v3.7h-13v-15.9h12.8z" clip-rule="evenodd" fill="#fff" fill-rule="evenodd"/>
</svg>
