<?xml version="1.0" encoding="utf-8"?>
<!-- Generator: Adobe Illustrator 22.0.1, SVG Export Plug-In . SVG Version: 6.00 Build 0)  -->
<svg version="1.1" id="Layer_1" xmlns="http://www.w3.org/2000/svg" xmlns:xlink="http://www.w3.org/1999/xlink" x="0px" y="0px"
	 viewBox="-6.75 -18.5 264 93" style="enable-background:new -6.75 -18.5 264 93;" xml:space="preserve">
<style type="text/css">
	.bg0{fill:#481436;}
	.st0{fill:#FFFFFF;}
</style>
<g>
	<g>
		<rect class="bg0" x="-6.75" y="-18.5" width="100%" height="100%"/>
		<path class="st0" d="M238.9,55.1v-13c0-4.5,0.8-7.3,3.5-9.7c3.4-3.1,8.1-3,8.1-3v-9.6c-10.1,0-12.1,5.6-12.1,5.6l-2.9-4.7h-6.1V55
			L238.9,55.1L238.9,55.1z M50.1,56L50.1,56c9,0,11.3-5.6,11.3-5.6l2.9,4.7h6.1V20.8H61v17c0,4.5-1.4,7.3-3.6,8.7
			c-1.1,0.7-2.7,1-4.4,1c-5.4,0-6.8-3.1-6.8-8.2V20.8h-9.4v21.4C36.8,51.7,41.6,56,50.1,56 M171.7,19.9L171.7,19.9
			c-9,0-11.3,5.6-11.3,5.6l-2.9-4.7h-6.1v34.3h9.4v-17c0-4.5,1.4-7.3,3.6-8.7c1.1-0.7,2.7-1,4.4-1c5.4,0,6.8,3.1,6.8,8.2v18.6h9.4
			V33.7C184.9,24.2,180.2,19.9,171.7,19.9 M119.5,19.9c-8.7,0-11.2,5.2-11.2,5.2l-0.2,0.4l-0.2-0.4c-2.3-3.5-5.7-5.2-11.3-5.2
			c-8.7,0-11.2,5.2-11.2,5.2l-0.2,0.4l-2.9-4.7h-6.1v4.7v7.1v22.5h9.4v-17c0-6.6,2.3-9.7,7.2-9.7c4.3,0,6.3,2.6,6.3,8.1v18.7h9.4
			V37.9c0-6.5,2.2-9.5,7-9.5c2.8,0,6.5,0.8,6.5,8.2v18.6h9.4V33.7C131.5,24.2,127.8,19.9,119.5,19.9 M9.8,45.3V7H0v48.1h33.6v-9.8
			H9.8z M134.2,7l7,7l7-7l-7-7L134.2,7z M136.3,20.8h9.8v34.3h-9.8V20.8z M206.9,19.9c-5.5,0-10.3,1.9-13.7,5.3
			c-3.2,3.3-5,7.8-5,12.7s1.8,9.4,5,12.7c3.4,3.5,8.2,5.3,13.7,5.3c11,0,18.7-7.4,18.7-18.1S218,19.9,206.9,19.9 M206.9,48
			c-5.4,0-9.2-4.2-9.2-10.1c0-5.7,4-10.1,9.2-10.1c5.3,0,9.4,4.3,9.4,10.1C216.3,43.8,212.3,48,206.9,48"/>
	</g>
</g>
</svg>
