<svg xmlns="http://www.w3.org/2000/svg" xmlns:xlink="http://www.w3.org/1999/xlink" width="36" height="24" viewBox="0 0 36 24"><defs><path id="unp2a" d="M1436.31 2388.93h-28.63a3.68 3.68 0 0 1-3.68-3.67v-15.79a3.68 3.68 0 0 1 3.68-3.67h28.63a3.68 3.68 0 0 1 3.69 3.67v15.79a3.68 3.68 0 0 1-3.69 3.67zm-28.63-21.87a2.42 2.42 0 0 0-2.42 2.42v15.78a2.43 2.43 0 0 0 2.42 2.42h28.63a2.43 2.43 0 0 0 2.43-2.42v-15.79a2.43 2.43 0 0 0-2.43-2.42zm22.37 8.05h4.65c.18 0 .34.15.34.34v3.84c0 .18-.16.33-.34.33h-4.65a.34.34 0 0 1-.34-.33v-3.84c0-.19.16-.34.34-.34zm-20.45 4.72h9.18v1.25h-9.18zm0 3.3h9.18v1.26h-9.18z"/></defs><g><g transform="translate(-1404 -2365)"><use fill="#003168" xlink:href="#unp2a"/></g></g></svg>