<svg xmlns="http://www.w3.org/2000/svg" xmlns:xlink="http://www.w3.org/1999/xlink" width="124" height="81" viewBox="0 0 124 81"><defs><path id="kkaqa" d="M1020.3 7615.78h-98.62c-7-.02-12.67-5.7-12.68-12.7v-54.57c0-7.01 5.69-12.7 12.7-12.7h98.6c7.01 0 12.7 5.69 12.7 12.7v54.57c0 7.01-5.69 12.7-12.7 12.7zm-98.62-75.62a8.37 8.37 0 0 0-8.36 8.36v54.57a8.38 8.38 0 0 0 8.36 8.37h98.63a8.37 8.37 0 0 0 8.36-8.38v-54.57a8.37 8.37 0 0 0-8.36-8.36zm76.58 33.1a2.53 2.53 0 1 1 0 5.06 2.53 2.53 0 0 1 0-5.06zm-54.54 0a2.53 2.53 0 1 1 0 5.07 2.53 2.53 0 0 1 0-5.07zm27.27 27.3a2.53 2.53 0 1 1 0 5.06 2.53 2.53 0 0 1 0-5.07zm0-54.6a2.53 2.53 0 1 1 0 5.07 2.53 2.53 0 0 1 0-5.06zm23.62 40.95a2.53 2.53 0 1 1 0 5.07 2.53 2.53 0 0 1 0-5.07zm-47.24-27.3a2.53 2.53 0 1 1 0 5.07 2.53 2.53 0 0 1 0-5.07zm9.99 37.29a2.53 2.53 0 1 1 0 5.07 2.53 2.53 0 0 1 0-5.07zm27.27-47.28a2.53 2.53 0 1 1 0 5.07 2.53 2.53 0 0 1 0-5.07zm0 47.28a2.53 2.53 0 1 1 0 5.07 2.53 2.53 0 0 1 0-5.07zm-27.27-47.28a2.53 2.53 0 1 1 0 5.07 2.53 2.53 0 0 1 0-5.07zm-9.99 37.29a2.53 2.53 0 1 1 0 5.07 2.53 2.53 0 0 1 0-5.07zm47.24-27.3a2.53 2.53 0 1 1 0 5.07 2.53 2.53 0 0 1 0-5.07zm-36.96 24.33v-15.24h11.25v2.45h-8.33v3.8h7.84v2.44h-7.84v4.09h8.31v2.45zm27.8-15.24v8.85c0 4.62-3.14 6.61-6.62 6.61-3.61 0-6.82-2-6.82-6.6v-8.86h2.92v8.85c0 2.86 1.87 3.93 4 3.93 1.9 0 3.6-1.09 3.6-3.93v-8.85z"/></defs><g><g transform="translate(-909 -7535)"><use fill="#003168" xlink:href="#kkaqa"/></g></g></svg>