<svg xmlns="http://www.w3.org/2000/svg" xmlns:xlink="http://www.w3.org/1999/xlink" width="36" height="24" viewBox="0 0 36 24"><defs><path id="rwkja" d="M941.31 687.14h-28.63a3.68 3.68 0 0 1-3.68-3.68v-15.78a3.69 3.69 0 0 1 3.68-3.68h28.63a3.68 3.68 0 0 1 3.69 3.68v15.78a3.68 3.68 0 0 1-3.69 3.68zm-28.63-21.88a2.43 2.43 0 0 0-2.42 2.42v15.79a2.43 2.43 0 0 0 2.42 2.42h28.63a2.43 2.43 0 0 0 2.43-2.42v-15.8a2.43 2.43 0 0 0-2.43-2.42zm15.65 19.14h-1.26v-6.66c0-.68-.56-1.24-1.25-1.24h-9.16c-.7 0-1.25.56-1.26 1.24v3.68h-1.25v-3.68a2.5 2.5 0 0 1 2.5-2.5h9.17a2.5 2.5 0 0 1 2.5 2.5zm-7.1-10.26a3.39 3.39 0 1 1 3.4-3.38 3.4 3.4 0 0 1-3.4 3.38zm0-5.51a2.13 2.13 0 1 0 0 4.26 2.13 2.13 0 0 0 0-4.26zm9.29.8h9.18v1.26h-9.18zm0 3.31h9.18V674h-9.18z"/></defs><g><g transform="translate(-909 -664)"><use fill="#003168" xlink:href="#rwkja"/></g></g></svg>