<svg xmlns="http://www.w3.org/2000/svg" xmlns:xlink="http://www.w3.org/1999/xlink" width="22" height="36" viewBox="0 0 22 36"><defs><path id="ihdza" d="M1170.12 688.53h6.16v1.26h-6.16zm9.74 4.11h-13.6a3.68 3.68 0 0 1-3.68-3.66v-27.96a3.68 3.68 0 0 1 3.68-3.67h13.6a3.68 3.68 0 0 1 3.68 3.67v27.95a3.68 3.68 0 0 1-3.68 3.67zm-13.6-34.04a2.43 2.43 0 0 0-2.43 2.42v24.8h18.46v-24.8a2.42 2.42 0 0 0-2.43-2.42zm-2.43 30.37a2.43 2.43 0 0 0 2.43 2.42h13.6a2.43 2.43 0 0 0 2.43-2.42v-1.9h-18.46zm12.1-21.9a9.7 9.7 0 0 0-4.44-.23.36.36 0 0 1-.42-.28c-.01-.1 0-.19.06-.26a.36.36 0 0 1 .23-.15 10.4 10.4 0 0 1 4.76.25.35.35 0 1 1-.2.68zm2.03 2.75a.36.36 0 0 1-.2-.06 7.99 7.99 0 0 0-8.73-.24.36.36 0 0 1-.5-.11.35.35 0 0 1 .12-.5 8.7 8.7 0 0 1 9.51.27c.16.1.2.33.1.49a.36.36 0 0 1-.3.15zm-10.07 2.84a.36.36 0 0 1-.29-.57 7 7 0 0 1 11.08-.19c.12.16.1.38-.06.5a.36.36 0 0 1-.5-.06 6.3 6.3 0 0 0-9.95.17.36.36 0 0 1-.28.15zm.36 3.62a.35.35 0 0 1-.36-.35v-.02a5.33 5.33 0 0 1 10.43-1.18.36.36 0 0 1-.68.22v-.02a4.61 4.61 0 0 0-9.03 1.02.35.35 0 0 1-.36.33zm1.63 2.53a.36.36 0 0 1-.35-.44 2.8 2.8 0 0 0 .12-1.26 3.67 3.67 0 1 1 7.12-1.75c.16.66.24 1.33.23 2 0 .2-.16.36-.36.36a.36.36 0 0 1-.35-.35c0-.62-.07-1.24-.2-1.84a2.96 2.96 0 0 0-5.75 1.41c.09.37.05.91-.12 1.6a.36.36 0 0 1-.34.27zm1.47.86l-.1-.01a.35.35 0 0 1-.23-.44 5.1 5.1 0 0 0 .24-2.5 2.02 2.02 0 1 1 3.91-.96c.24.94.25 2.03.03 3.24a.36.36 0 1 1-.7-.12c.2-1.11.19-2.1-.02-2.96a1.3 1.3 0 1 0-2.53.62c.18.72.1 1.69-.25 2.88a.36.36 0 0 1-.35.25zm1.68.2a.36.36 0 0 1-.34-.44 8.3 8.3 0 0 0 .3-2.08c0-.35-.04-.7-.12-1.03a.36.36 0 0 1 .69-.17c.1.4.14.8.13 1.2a8.93 8.93 0 0 1-.32 2.25.36.36 0 0 1-.34.27z"/></defs><g><g transform="translate(-1162 -657)"><use fill="#003168" xlink:href="#ihdza"/></g></g></svg>