<svg xmlns="http://www.w3.org/2000/svg" xmlns:xlink="http://www.w3.org/1999/xlink" width="28" height="28" viewBox="0 0 28 28"><defs><path id="a1fsa" d="M1677.61 668.79a1.01 1.01 0 1 1 0 2.02 1.01 1.01 0 0 1 0-2.02zm5.21 17.65a.8.8 0 0 1-.48-1.44 12.38 12.38 0 0 0-9.13-22.24v17.51a.8.8 0 0 1-1.6 0v-18.2a.8.8 0 0 1 .64-.78 14 14 0 0 1 11.04 25 .8.8 0 0 1-.47.15zm-7.81 2.56a14 14 0 0 1-8.29-25.26.8.8 0 0 1 .95 1.29 12.38 12.38 0 0 0 9.13 22.24v-11.5a.8.8 0 0 1 1.6 0v12.17a.8.8 0 0 1-.63.8c-.91.17-1.84.26-2.76.26z"/></defs><g><g transform="translate(-1661 -661)"><use fill="#003168" xlink:href="#a1fsa"/></g></g></svg>