<svg viewBox="0 0 1086.3 120.27" xmlns="http://www.w3.org/2000/svg"><path d="M0 .004h183.715v118.914H0V.004" fill="#254aa5"/><path d="M87.943 25.912l3.876-2.747 3.876 2.747-1.475-4.442 3.937-2.746h-4.852l-1.486-4.496-1.485 4.501-4.852-.005 3.935 2.746-1.474 4.442m-20.062 5.235l3.876-2.748 3.875 2.748-1.473-4.442 3.935-2.747H73.24l-1.486-4.5-1.484 4.505-4.852-.005 3.935 2.747-1.472 4.442m-10.802 2.594l-1.486 4.506-4.852-.006 3.935 2.748-1.475 4.441 3.878-2.746 3.876 2.746-1.475-4.441 3.934-2.748h-4.851l-1.484-4.5m-5.384 28.394l3.873 2.748-1.472-4.443 3.934-2.746h-4.85l-1.485-4.501-1.486 4.51-4.853-.009 3.938 2.746-1.476 4.443 3.877-2.748m6.869 15.072l-1.484-4.501-1.486 4.505-4.852-.004 3.935 2.746-1.475 4.442 3.878-2.752 3.876 2.752-1.475-4.442 3.934-2.746h-4.851m14.708 14.278l-1.486-4.496-1.483 4.502-4.854-.006 3.935 2.748-1.473 4.44 3.877-2.745 3.874 2.746-1.473-4.441 3.935-2.748h-4.852m20.035 5.175l-1.486-4.502-1.483 4.507-4.854-.005 3.935 2.747-1.473 4.441 3.878-2.746 3.874 2.746-1.476-4.44 3.938-2.748h-4.853m20.035-5.175l-1.481-4.496-1.488 4.502-4.85-.006 3.933 2.748-1.473 4.44 3.878-2.745 3.876 2.746-1.478-4.441 3.938-2.748h-4.855m14.712-14.278l-1.487-4.501-1.488 4.505-4.85-.004 3.938 2.746-1.477 4.442 3.877-2.752 3.876 2.752-1.477-4.442 3.937-2.746h-4.849m10.183-19.567h-4.855l-1.487-4.499-1.483 4.505-4.854-.005 3.938 2.747-1.473 4.441 3.872-2.75 3.876 2.75-1.472-4.441 3.938-2.747M122.69 45.37l3.878-2.745 3.876 2.746-1.478-4.441 3.938-2.743h-4.85l-1.486-4.501-1.489 4.507-4.849-.006 3.938 2.743-1.478 4.44m-10.775-25.91l-1.482 4.507-4.854-.01 3.932 2.751-1.472 4.443 3.88-2.753 3.873 2.753-1.472-4.443 3.937-2.751h-4.86l-1.482-4.496" fill="#fff200"/><text transform="translate(209.968 46.704) scale(1.3333)" fill="#231f20" font-family="Arial" font-size="35" font-weight="bold"><tspan x="0 25.27 46.654999 58.310001 69.964996 79.695 101.08 120.54 141.925 161.38499 180.845 202.23 211.96001 233.345 252.80499 262.535 274.19 295.57501 315.035 324.74109 350.01645 371.39536 392.77423 414.15314 433.61792 453.0827 464.7377 474.46136 495.84021 517.21912 526.94373 550.28876 571.66858 585.28973 606.66858 628.04749 647.51227" y="0">Co-financed by the Connecting Europe </tspan><tspan x="0 21.385 40.845001 60.305 70.035004 79.764999 89.495003 101.15 120.61 130.34 151.72501 163.38 173.11 184.765 206.14999 225.61 235.34 258.685 280.07001 293.685 315.07001 336.45499 355.87781 375.34259 396.72147 406.44611 431.72147 453.10037 462.82501 484.20389" y="42">Facility of the European Union</tspan></text></svg>