<svg viewBox="0 0 855.76 120.27" xmlns="http://www.w3.org/2000/svg"><path d="M0 .004h183.715v118.914H0V.004" fill="#254aa5"/><path d="M87.943 25.912l3.876-2.747 3.876 2.747-1.475-4.442 3.937-2.746h-4.852l-1.486-4.496-1.485 4.501-4.852-.005 3.935 2.746-1.474 4.442m-20.062 5.235l3.876-2.748 3.875 2.748-1.473-4.442 3.935-2.747H73.24l-1.486-4.5-1.484 4.505-4.852-.005 3.935 2.747-1.472 4.442m-10.802 2.594l-1.486 4.506-4.852-.006 3.935 2.748-1.475 4.441 3.878-2.746 3.876 2.746-1.475-4.441 3.934-2.748h-4.851l-1.484-4.5m-5.384 28.394l3.873 2.748-1.472-4.443 3.934-2.746h-4.85l-1.485-4.501-1.486 4.51-4.853-.009 3.938 2.746-1.476 4.443 3.877-2.748m6.869 15.072l-1.484-4.501-1.486 4.505-4.852-.004 3.935 2.746-1.475 4.442 3.878-2.752 3.876 2.752-1.475-4.442 3.934-2.746h-4.851m14.708 14.278l-1.486-4.496-1.483 4.502-4.854-.006 3.935 2.748-1.473 4.44 3.877-2.745 3.874 2.746-1.473-4.441 3.935-2.748h-4.852m20.035 5.175l-1.486-4.502-1.483 4.507-4.854-.005 3.935 2.747-1.473 4.441 3.878-2.746 3.874 2.746-1.476-4.44 3.938-2.748h-4.853m20.035-5.175l-1.481-4.496-1.488 4.502-4.85-.006 3.933 2.748-1.473 4.44 3.878-2.745 3.876 2.746-1.478-4.441 3.938-2.748h-4.855m14.712-14.278l-1.487-4.501-1.488 4.505-4.85-.004 3.938 2.746-1.477 4.442 3.877-2.752 3.876 2.752-1.477-4.442 3.937-2.746h-4.849m10.183-19.567h-4.855l-1.487-4.499-1.483 4.505-4.854-.005 3.938 2.747-1.473 4.441 3.872-2.75 3.876 2.75-1.472-4.441 3.938-2.747M122.69 45.37l3.878-2.745 3.876 2.746-1.478-4.441 3.938-2.743h-4.85l-1.486-4.501-1.489 4.507-4.849-.006 3.938 2.743-1.478 4.44m-10.775-25.91l-1.482 4.507-4.854-.01 3.932 2.751-1.472 4.443 3.88-2.753 3.873 2.753-1.472-4.443 3.937-2.751h-4.86l-1.482-4.496" fill="#fff200"/><text transform="translate(209.968 46.704) scale(1.3333)" fill="#231f20" font-family="Arial" font-size="35" font-weight="bold"><tspan x="0 25.27 44.73 64.190002 83.650002 97.264999 116.725 138.11 157.57001 177.03 188.685 208.145 219.8 239.25999 258.72 268.45001 291.79501 313.17999 322.91 332.67078 356.01453 377.39441 391.01453 412.39441 433.77432 455.15323 474.61801" y="0">Kaasrahastatav ELi Euroopa </tspan><tspan x="0 21.385 42.77 62.23 83.614998 105 124.46 155.575 165.30499 184.765 204.22501 213.955 227.57001 247.03 268.41501 287.875 307.33499 318.9989 340.37778 359.84256" y="42">ühendamise rahastust</tspan></text></svg>