<svg xmlns="http://www.w3.org/2000/svg" viewBox="0 0 190 50"><defs><style>.cls-1{fill:#0c4da2}.cls-2{fill:#fc0}.cls-3{fill:#fff}</style></defs><title>Asset 2</title><g id="Layer_2" data-name="Layer 2"><g id="Layer_1-2" data-name="Layer 1"><rect class="cls-1" width="190" height="50" rx="8"/><path class="cls-2" d="M30.93 13.57l.65 2.01h2.11l-1.71 1.24.65 2.01-1.7-1.24-1.7 1.24.65-2.01-1.71-1.24h2.11l.65-2.01zm6.09-6.22l.65 2.01h2.11l-1.7 1.24.65 2.01-1.71-1.24-1.7 1.24.65-2.01-1.71-1.24h2.11l.65-2.01zM45.7 5l.65 2.01h2.11l-1.71 1.24.66 2.01-1.71-1.24-1.7 1.24.65-2.01-1.71-1.24h2.11L45.7 5zm8.58 2.36l.65 2.01h2.11l-1.71 1.24.65 2.01-1.7-1.24-1.7 1.24.65-2.01-1.71-1.24h2.11l.65-2.01zm6.32 6.34l.65 2.01h2.11l-1.71 1.24.65 2.01-1.7-1.24-1.71 1.24.66-2.01-1.71-1.24h2.11l.65-2.01zm2.34 8.7l.65 2.01h2.11l-1.71 1.24.65 2.01-1.7-1.24-1.71 1.24.65-2.01-1.7-1.24h2.11l.65-2.01zm-2.35 8.74l.65 2.01h2.11l-1.71 1.24.66 2.01-1.71-1.24-1.71 1.24.66-2.01-1.71-1.24h2.11l.65-2.01zm-6.32 6.29l.65 2.01h2.11l-1.7 1.25.65 2.01-1.71-1.25-1.7 1.25.65-2.01-1.71-1.25h2.11l.65-2.01zm-8.55 2.31l.65 2.01h2.11l-1.71 1.24.66 2.01-1.71-1.24-1.7 1.24.65-2.01-1.71-1.24h2.11l.65-2.01zm-8.68-2.35l.66 2.01h2.1l-1.7 1.24.65 2.01-1.71-1.24-1.7 1.24.65-2.01-1.71-1.24h2.11l.65-2.01zm-6.19-6.3l.65 2.01h2.11l-1.7 1.25.65 2.01-1.71-1.25-1.7 1.25.65-2.01-1.71-1.25h2.11l.65-2.01zm-2.37-8.85l.66 2.03h2.13l-1.72 1.26.65 2.03-1.72-1.26-1.72 1.26.66-2.03-1.72-1.26h2.12l.66-2.03z"/><path class="cls-3" d="M43.91 25.81h-4.22v2.86h5v1.76H37.5V19.77h7.13v1.78h-4.94v2.54h4.22zM54 19.77v7a3.6 3.6 0 0 1-1.1 2.77 4.22 4.22 0 0 1-3 1 4.28 4.28 0 0 1-3-1 3.56 3.56 0 0 1-1.12-2.72v-7.1H48v7a2 2 0 0 0 .5 1.52 1.94 1.94 0 0 0 1.39.48c1.23 0 1.86-.65 1.88-1.94v-7.1zM84.44 26h-5.63v3.81h6.61v2.36h-9.54V17.92h9.52v2.37h-6.59v3.39h5.63zm13.46-8.08v9.36A4.79 4.79 0 0 1 96.44 31a5.63 5.63 0 0 1-4 1.36 5.71 5.71 0 0 1-4-1.32A4.72 4.72 0 0 1 87 27.39v-9.47h2.93v9.38a2.71 2.71 0 0 0 .67 2 2.58 2.58 0 0 0 1.85.64c1.64 0 2.48-.87 2.51-2.6v-9.42zm11.59 12.14a1.89 1.89 0 0 0 1.27-.43 1.57 1.57 0 0 0 .51-1.15h2.64a3.58 3.58 0 0 1-.58 2 3.88 3.88 0 0 1-1.58 1.39 4.94 4.94 0 0 1-2.21.49 4.6 4.6 0 0 1-3.54-1.47 5.72 5.72 0 0 1-1.31-4v-.18a5.67 5.67 0 0 1 1.3-3.9 4.56 4.56 0 0 1 3.57-1.46 4.46 4.46 0 0 1 3.18 1.13 4 4 0 0 1 1.21 3h-2.64a2 2 0 0 0-.51-1.34 1.88 1.88 0 0 0-2.78.2 4.13 4.13 0 0 0-.5 2.33V27a4.22 4.22 0 0 0 .49 2.34 1.73 1.73 0 0 0 1.48.72zm6.01-11.22a1.4 1.4 0 0 1 .43-1.05 1.83 1.83 0 0 1 2.31 0 1.4 1.4 0 0 1 .43 1.05 1.37 1.37 0 0 1-.44 1.05 1.8 1.8 0 0 1-2.29 0 1.37 1.37 0 0 1-.44-1.05zm3 13.3h-2.83V21.57h2.83zM124.21 19v2.6H126v2.07h-1.8v5.27a1.26 1.26 0 0 0 .22.84 1.13 1.13 0 0 0 .86.26 5 5 0 0 0 .83-.07v2.14a5.75 5.75 0 0 1-1.71.25q-3 0-3-3v-5.72h-1.54v-2.07h1.54V19zm3.35-.16a1.4 1.4 0 0 1 .43-1.05 1.83 1.83 0 0 1 2.31 0 1.4 1.4 0 0 1 .43 1.05 1.37 1.37 0 0 1-.44 1.05 1.8 1.8 0 0 1-2.29 0 1.37 1.37 0 0 1-.44-1.05zm3 13.3h-2.83V21.57h2.83zm5.57-2.28h5.16v2.28h-8.76v-1.72l5-6.57h-4.83v-2.28h8.47v1.66zm11.64 2.47a5.17 5.17 0 0 1-3.77-1.42 5 5 0 0 1-1.46-3.8v-.28a6.34 6.34 0 0 1 .61-2.84 4.56 4.56 0 0 1 1.74-1.94 4.94 4.94 0 0 1 2.58-.68 4.39 4.39 0 0 1 3.41 1.37 5.57 5.57 0 0 1 1.25 3.88v1.15h-6.73a2.61 2.61 0 0 0 .82 1.66 2.49 2.49 0 0 0 1.75.63 3.06 3.06 0 0 0 2.54-1.18l1.39 1.55a4.26 4.26 0 0 1-1.72 1.4 5.69 5.69 0 0 1-2.41.5zm-.32-8.68a1.78 1.78 0 0 0-1.37.57 2.94 2.94 0 0 0-.66 1.63h3.92v-.23a2 2 0 0 0-.51-1.45 1.77 1.77 0 0 0-1.38-.52zm8.86-2.08l.09 1.22a3.71 3.71 0 0 1 3-1.42 3.06 3.06 0 0 1 2.5 1 4.57 4.57 0 0 1 .84 2.95v6.83H160v-6.77a1.85 1.85 0 0 0-.39-1.31 1.76 1.76 0 0 0-1.3-.4 1.94 1.94 0 0 0-1.79 1v7.45h-2.82V21.57z"/></g></g></svg>