<svg xmlns="http://www.w3.org/2000/svg" viewBox="0 0 968.5 216.7"><defs><style>.cls-1{fill:#481335}</style></defs><title>luminor-logo</title><g id="Layer_2" data-name="Layer 2"><path class="cls-1" d="M923.6 213.1V163c0-17.2 3.2-28.1 13.5-37.3 13.1-11.9 31.4-11.7 31.4-11.7V76.9c-39.1 0-46.7 21.7-46.7 21.7l-11.2-18.3h-23.4v132.8zm-729.9 3.5c34.8 0 43.9-21.7 43.9-21.7l11.2 18.3h23.4V80.4h-36.4v65.9c0 17.2-5.3 28.4-13.7 33.7-4.1 2.7-10.7 3.9-16.9 3.9-21 0-26.3-11.9-26.3-31.6V80.4h-36.6V163c.1 37.1 18.6 53.6 51.4 53.6M663.8 76.9c-34.8 0-43.9 21.7-43.9 21.7l-11-18.3h-23.4v132.8h36.4v-65.7c0-17.2 5.3-28.4 13.7-33.7 4.1-2.7 10.7-3.9 16.9-3.9 21 0 26.3 11.9 26.3 31.6v71.7h36.4v-82.6c-.1-37.1-18.5-53.6-51.4-53.6m-201.7 0c-33.6 0-43.3 19.9-43.5 20.1l-.7 1.6-.9-1.4C407.9 83.5 395 77 373.5 77c-33.6 0-43.3 19.9-43.5 20.1l-.7 1.6-11.2-18.3h-23.4v132.8h36.4v-65.7c0-25.7 8.9-37.6 27.7-37.6 16.7 0 24.5 9.9 24.5 31.2v72.1h36.4v-66.6c0-25 8.7-36.8 27.2-36.8 10.8 0 25 3.2 25 31.6v71.7h36.4v-82.6c.2-37.1-14.2-53.6-46.2-53.6M37.8 175.2V27H0v186.1h129.8v-37.8h-92zM518.8 27l27 27 27-27-27-27zm8.1 53.2h37.8V213h-37.8zm273.3-3.3c-21.5 0-39.8 7.1-53.1 20.6-12.4 12.6-19.2 30.2-19.2 49.2s6.7 36.6 19.2 49.2c13.1 13.5 31.6 20.8 53.1 20.8 42.6 0 72.4-28.8 72.4-70s-29.8-69.8-72.4-69.8m-.2 108.8c-20.8 0-35.7-16.3-35.7-38.9 0-22.2 15.3-38.9 35.7-38.9 20.8 0 36.2 16.7 36.2 38.9 0 22.4-15.2 38.9-36.2 38.9" id="Layer_1-2" data-name="Layer 1"/></g></svg>