<svg xmlns="http://www.w3.org/2000/svg" viewBox="0 0 175.75 77.32"><defs><style>.cls-1{fill:#231f20;fill-rule:evenodd}</style></defs><title>seb-logo</title><g id="Layer_2" data-name="Layer 2"><path class="cls-1" d="M47.85 19.75a34.64 34.64 0 0 0-23-8.34c-14.13 0-21.79 8.51-21.79 16.86 0 6 3.23 12.77 14.64 15.84C22 45.13 25.89 46 30.31 47c4.09 1 5.79 2.73 5.45 4.77-.68 2.73-4.94 3.75-9.7 3.75-4.09 0-9-.85-16-7.16L0 55.86c2.9 3.4 12.43 10.73 26.4 10.73s24.52-6.13 24.52-17.88c0-8.52-6-12.1-14.48-14.65-5.62-1.53-9.36-2.55-13.45-3.58-3.58-1-5.62-2.72-5.11-5.11.51-2.21 3.75-3.23 7-3.23s9 .85 13.46 4.77l9.53-7.16zm60.46-7.49v12.09H80.89v8.35h19.42v11.75H80.89v8.51h28.1v12.09H65.91V12.26h42.4zM55.01 0h3.4v77.32h-3.4V0zm59.6 0h3.24v77.32h-3.24V0zm10.9 65.05V12.26h31c8.86 0 16.18 5.28 16.18 13.46A12 12 0 0 1 165 37.3a.74.74 0 0 1-.51.17h.51c6.3 2 10.73 6.47 10.73 13.45 0 8.68-7.32 14.13-16.35 14.13zm14.82-41.72v9.2h11.92a4.89 4.89 0 0 0 4.94-4.6 4.77 4.77 0 0 0-4.94-4.6zm14.47 30a4.77 4.77 0 1 0 0-9.53h-14.47v9.5z" id="Layer_1-2" data-name="Layer 1"/></g></svg>