<?xml version="1.0" encoding="UTF-8" standalone="no"?>
<svg
   xmlns:dc="http://purl.org/dc/elements/1.1/"
   xmlns:cc="http://creativecommons.org/ns#"
   xmlns:rdf="http://www.w3.org/1999/02/22-rdf-syntax-ns#"
   xmlns:svg="http://www.w3.org/2000/svg"
   xmlns="http://www.w3.org/2000/svg"
   viewBox="0 0 855.76001 120.26667"
   height="120.26667"
   width="855.76001"
   xml:space="preserve"
   id="svg2"
   version="1.1"><metadata
     id="metadata8"><rdf:RDF><cc:Work
         rdf:about=""><dc:format>image/svg+xml</dc:format><dc:type
           rdf:resource="http://purl.org/dc/dcmitype/StillImage" /></cc:Work></rdf:RDF></metadata><defs
     id="defs6" /><g
     transform="matrix(1.3333333,0,0,-1.3333333,0,120.26667)"
     id="g10"><g
       transform="scale(0.1)"
       id="g12"><path
         id="path14"
         style="fill:#254aa5;fill-opacity:1;fill-rule:nonzero;stroke:none"
         d="M 0,902.02 H 1377.89 V 10.1367 H 0 v 891.8833 0" /><path
         id="path16"
         style="fill:#fff200;fill-opacity:1;fill-rule:nonzero;stroke:none"
         d="m 659.59,707.695 29.07,20.606 29.074,-20.606 -11.066,33.321 29.531,20.593 h -36.394 l -11.145,33.723 -11.14,-33.762 -36.387,0.039 29.512,-20.593 -11.055,-33.321 v 0" /><path
         id="path18"
         style="fill:#fff200;fill-opacity:1;fill-rule:nonzero;stroke:none"
         d="m 509.121,668.445 29.07,20.61 29.063,-20.61 -11.043,33.313 29.512,20.605 h -36.407 l -11.144,33.758 -11.133,-33.797 -36.387,0.039 29.512,-20.605 -11.043,-33.313 v 0" /><path
         id="path20"
         style="fill:#fff200;fill-opacity:1;fill-rule:nonzero;stroke:none"
         d="m 428.105,648.984 -11.144,-33.789 -36.387,0.039 29.512,-20.605 -11.063,-33.313 29.082,20.598 29.071,-20.598 -11.063,33.313 29.512,20.605 h -36.387 l -11.133,33.75 v 0" /><path
         id="path22"
         style="fill:#fff200;fill-opacity:1;fill-rule:nonzero;stroke:none"
         d="m 387.715,436.016 29.051,-20.606 -11.043,33.32 29.511,20.594 h -36.379 l -11.14,33.762 -11.145,-33.828 -36.394,0.066 29.531,-20.594 -11.066,-33.32 29.074,20.606 v 0" /><path
         id="path24"
         style="fill:#fff200;fill-opacity:1;fill-rule:nonzero;stroke:none"
         d="m 439.238,322.977 -11.133,33.761 -11.144,-33.789 -36.387,0.028 29.512,-20.594 -11.063,-33.32 29.082,20.644 29.071,-20.644 -11.063,33.32 29.512,20.594 h -36.387 v 0" /><path
         id="path26"
         style="fill:#fff200;fill-opacity:1;fill-rule:nonzero;stroke:none"
         d="m 549.551,215.887 -11.145,33.722 -11.121,-33.761 -36.406,0.039 29.512,-20.606 -11.047,-33.308 29.082,20.593 29.054,-20.593 -11.046,33.308 29.511,20.606 h -36.394 v 0" /><path
         id="path28"
         style="fill:#fff200;fill-opacity:1;fill-rule:nonzero;stroke:none"
         d="m 699.824,177.078 -11.144,33.762 -11.121,-33.797 -36.407,0.035 29.512,-20.605 -11.047,-33.309 29.082,20.598 29.055,-20.598 -11.066,33.309 29.531,20.605 h -36.395 v 0" /><path
         id="path30"
         style="fill:#fff200;fill-opacity:1;fill-rule:nonzero;stroke:none"
         d="m 850.086,215.887 -11.113,33.722 -11.16,-33.761 -36.368,0.039 29.493,-20.606 -11.047,-33.308 29.082,20.593 29.074,-20.593 -11.086,33.308 29.531,20.606 h -36.406 v 0" /><path
         id="path32"
         style="fill:#fff200;fill-opacity:1;fill-rule:nonzero;stroke:none"
         d="m 960.43,322.977 -11.153,33.761 -11.164,-33.789 -36.367,0.028 29.531,-20.594 -11.082,-33.32 29.082,20.644 29.071,-20.644 -11.082,33.32 29.531,20.594 H 960.43 v 0" /><path
         id="path34"
         style="fill:#fff200;fill-opacity:1;fill-rule:nonzero;stroke:none"
         d="m 1036.77,469.734 h -36.41 l -11.153,33.75 -11.121,-33.789 -36.406,0.039 29.531,-20.601 -11.047,-33.313 29.043,20.633 29.073,-20.633 -11.04,33.313 29.53,20.601 v 0" /><path
         id="path36"
         style="fill:#fff200;fill-opacity:1;fill-rule:nonzero;stroke:none"
         d="m 920.195,561.758 29.082,20.594 29.071,-20.594 -11.082,33.308 29.531,20.571 H 960.43 l -11.153,33.758 -11.164,-33.801 -36.367,0.043 29.531,-20.571 -11.082,-33.308 v 0" /><path
         id="path38"
         style="fill:#fff200;fill-opacity:1;fill-rule:nonzero;stroke:none"
         d="m 839.383,756.086 -11.113,-33.801 -36.407,0.078 29.492,-20.636 -11.042,-33.321 29.109,20.649 29.043,-20.649 -11.043,33.321 29.531,20.636 h -36.445 l -11.125,33.723 v 0" /><g
         transform="scale(10)"
         id="g40"><text
           id="text46"
           style="font-variant:normal;font-weight:bold;font-size:35px;font-family:Arial;-inkscape-font-specification:Arial-BoldMT;writing-mode:lr-tb;fill:#231f20;fill-opacity:1;fill-rule:nonzero;stroke:none"
           transform="matrix(1,0,0,-1,157.476,55.1762)"><tspan
             id="tspan42"
             y="0"
             x="0 25.27 44.73 64.190002 83.650002 97.264999 116.725 138.11 157.57001 177.03 188.685 208.145 219.8 239.25999 258.72 268.45001 291.79501 313.17999 322.91 332.67078 356.01453 377.39441 391.01453 412.39441 433.77432 455.15323 474.61801">Kaasrahastatav ELi Euroopa </tspan><tspan
             id="tspan44"
             y="42"
             x="0 21.385 42.77 62.23 83.614998 105 124.46 155.575 165.30499 184.765 204.22501 213.955 227.57001 247.03 268.41501 287.875 307.33499 318.9989 340.37778 359.84256">ühendamise rahastust</tspan></text>
</g></g></g></svg>