<?xml version="1.0" standalone="no"?>
<!DOCTYPE svg PUBLIC "-//W3C//DTD SVG 20010904//EN"
 "http://www.w3.org/TR/2001/REC-SVG-20010904/DTD/svg10.dtd">
<svg version="1.0" xmlns="http://www.w3.org/2000/svg"
 width="44.000000pt" height="63.000000pt" viewBox="0 0 44.000000 63.000000"
 preserveAspectRatio="xMidYMid meet">
<metadata>
Created by potrace 1.15, written by Peter Selinger 2001-2017
</metadata>
<g transform="translate(0.000000,63.000000) scale(0.100000,-0.100000)"
fill="#000000" stroke="none">
<path d="M143 590 c-44 -27 -63 -68 -63 -140 0 -33 -4 -60 -10 -60 -6 0 -19
-9 -30 -20 -18 -18 -20 -33 -20 -168 0 -132 2 -151 18 -165 16 -14 44 -17 184
-17 147 0 167 2 181 18 14 16 17 43 17 171 l0 152 -30 17 c-28 16 -30 21 -30
76 0 99 -52 156 -142 156 -25 0 -56 -8 -75 -20z m118 -40 c28 -16 49 -63 49
-115 l0 -45 -90 0 -90 0 0 44 c0 60 14 92 47 110 33 18 57 20 84 6z m139 -208
c0 -5 -11 -19 -24 -31 -15 -14 -22 -30 -19 -42 4 -14 0 -19 -15 -19 -13 0 -31
-17 -51 -47 -63 -97 -54 -95 -115 -28 -40 45 -51 63 -44 73 8 10 18 7 44 -13
18 -14 35 -25 38 -25 3 0 40 32 82 70 70 64 104 84 104 62z"/>
</g>
</svg>
