<?xml version="1.0" encoding="UTF-8"?>
<svg width="251px" height="29px" viewBox="0 0 251 29" version="1.1" xmlns="http://www.w3.org/2000/svg" xmlns:xlink="http://www.w3.org/1999/xlink">
    <!-- Generator: Sketch 47.1 (45422) - http://www.bohemiancoding.com/sketch -->
    <title>ee_cef_0@1x</title>
    <desc>Created with Sketch.</desc>
    <defs>
        <polygon id="path-1" points="7.374 0.057 7.374 9.326 0.114 9.326 0.114 0.057 7.374 0.057"></polygon>
    </defs>
    <g id="Page-1" stroke="none" stroke-width="1" fill="none" fill-rule="evenodd">
        <g id="Desktop" transform="translate(-202.000000, -589.000000)">
            <g id="ee_cef_0" transform="translate(202.000000, 589.000000)">
                <polygon id="Fill-1" fill="#FFFFFE" points="0 28.845 42.457 28.845 42.457 0.845 0 0.845"></polygon>
                <polygon id="Fill-2" fill="#174489" points="0.816 28.038 41.64 28.038 41.64 1.613 0.816 1.613"></polygon>
                <polyline id="Fill-3" fill="#FFF101" points="20.358 7.371 21.22 6.76 22.081 7.371 21.754 6.383 22.628 5.773 21.55 5.773 21.22 4.774 20.89 5.774 19.812 5.773 20.686 6.383 20.358 7.371"></polyline>
                <polyline id="Fill-4" fill="#FFF101" points="15.901 8.533 16.762 7.923 17.623 8.533 17.296 7.546 18.17 6.936 17.092 6.936 16.761 5.936 16.431 6.937 15.353 6.936 16.228 7.546 15.901 8.533"></polyline>
                <polyline id="Fill-5" fill="#FFF101" points="13.5 9.11 13.17 10.111 12.092 10.11 12.967 10.72 12.639 11.708 13.5 11.097 14.362 11.708 14.034 10.72 14.908 10.11 13.83 10.11 13.5 9.11"></polyline>
                <polyline id="Fill-6" fill="#FFF101" points="12.304 15.42 13.164 16.03 12.837 15.043 13.712 14.433 12.634 14.433 12.304 13.433 11.974 14.435 10.895 14.433 11.77 15.043 11.442 16.03 12.304 15.42"></polyline>
                <polyline id="Fill-7" fill="#FFF101" points="13.83 18.769 13.5 17.769 13.17 18.77 12.092 18.769 12.967 19.379 12.639 20.366 13.5 19.755 14.362 20.366 14.034 19.379 14.908 18.769 13.83 18.769"></polyline>
                <polyline id="Fill-8" fill="#FFF101" points="17.098 21.942 16.768 20.943 16.439 21.943 15.36 21.942 16.235 22.552 15.907 23.539 16.769 22.929 17.63 23.539 17.302 22.552 18.177 21.942 17.098 21.942"></polyline>
                <polyline id="Fill-9" fill="#FFF101" points="21.551 23.092 21.221 22.091 20.891 23.093 19.812 23.092 20.687 23.702 20.36 24.689 21.221 24.079 22.082 24.689 21.754 23.702 22.629 23.092 21.551 23.092"></polyline>
                <polyline id="Fill-10" fill="#FFF101" points="26.003 21.942 25.673 20.943 25.343 21.943 24.265 21.942 25.139 22.552 24.812 23.539 25.673 22.929 26.535 23.539 26.206 22.552 27.081 21.942 26.003 21.942"></polyline>
                <polyline id="Fill-11" fill="#FFF101" points="29.272 18.769 28.941 17.769 28.611 18.77 27.533 18.769 28.408 19.379 28.08 20.366 28.941 19.755 29.803 20.366 29.475 19.379 30.349 18.769 29.272 18.769"></polyline>
                <polyline id="Fill-12" fill="#FFF101" points="31.534 14.421 30.455 14.421 30.124 13.421 29.795 14.422 28.716 14.421 29.591 15.031 29.264 16.018 30.124 15.407 30.986 16.018 30.659 15.031 31.534 14.421"></polyline>
                <polyline id="Fill-13" fill="#FFF101" points="28.08 11.694 28.941 11.084 29.803 11.694 29.475 10.707 30.349 10.098 29.272 10.098 28.941 9.098 28.611 10.099 27.533 10.098 28.408 10.707 28.08 11.694"></polyline>
                <polyline id="Fill-14" fill="#FFF101" points="25.686 5.937 25.356 6.938 24.278 6.936 25.151 7.547 24.824 8.534 25.687 7.923 26.547 8.534 26.22 7.547 27.095 6.936 26.015 6.936 25.686 5.937"></polyline>
                <path d="M51.758,5.955 L52.746,4.681 L54.93,1.99 C54.991,1.921 55.052,1.871 55.112,1.841 C55.173,1.811 55.255,1.795 55.359,1.795 L56.543,1.795 C56.638,1.795 56.696,1.821 56.718,1.873 C56.739,1.925 56.72,1.986 56.659,2.055 L53.838,5.487 L56.75,10.154 C56.802,10.241 56.811,10.308 56.776,10.356 C56.742,10.403 56.689,10.427 56.62,10.427 L55.424,10.427 C55.312,10.427 55.227,10.406 55.171,10.362 C55.114,10.319 55.06,10.258 55.008,10.18 L52.876,6.644 L51.732,8.061 L51.732,10.18 C51.732,10.249 51.717,10.308 51.687,10.356 C51.656,10.403 51.594,10.427 51.498,10.427 L50.523,10.427 C50.35,10.427 50.263,10.345 50.263,10.18 L50.263,2.055 C50.263,1.882 50.35,1.795 50.523,1.795 L51.498,1.795 C51.594,1.795 51.656,1.819 51.687,1.867 C51.717,1.915 51.732,1.977 51.732,2.055 L51.732,5.955 L51.758,5.955" id="Fill-15" fill="#1A1919"></path>
                <path d="M61.586,7.528 L60,7.528 C59.671,7.528 59.411,7.604 59.22,7.756 C59.03,7.908 58.934,8.196 58.934,8.62 C58.934,8.906 58.993,9.103 59.11,9.212 C59.227,9.32 59.437,9.374 59.74,9.374 C59.879,9.374 60.031,9.357 60.195,9.322 C60.36,9.288 60.524,9.24 60.689,9.179 C60.854,9.119 61.014,9.051 61.17,8.978 C61.326,8.904 61.465,8.832 61.586,8.763 L61.586,7.528 Z M61.665,9.686 C61.335,9.937 60.964,10.141 60.553,10.297 C60.141,10.453 59.714,10.531 59.272,10.531 C58.926,10.531 58.637,10.486 58.408,10.394 C58.178,10.304 57.996,10.178 57.862,10.018 C57.728,9.857 57.632,9.665 57.576,9.439 C57.52,9.214 57.491,8.963 57.491,8.685 C57.482,7.923 57.682,7.37 58.089,7.028 C58.497,6.686 59.112,6.514 59.936,6.514 L61.599,6.514 L61.599,6.173 C61.599,5.98 61.58,5.817 61.541,5.681 C61.502,5.545 61.43,5.434 61.326,5.347 C61.222,5.259 61.084,5.198 60.91,5.163 C60.737,5.128 60.516,5.11 60.247,5.11 C60.144,5.11 60.015,5.115 59.864,5.123 C59.712,5.132 59.556,5.141 59.396,5.149 C59.235,5.158 59.075,5.171 58.915,5.188 C58.754,5.206 58.609,5.219 58.479,5.227 C58.349,5.245 58.26,5.247 58.213,5.234 C58.165,5.221 58.133,5.166 58.115,5.072 L57.998,4.596 C57.981,4.51 57.99,4.439 58.024,4.384 C58.059,4.328 58.15,4.27 58.297,4.21 C58.436,4.159 58.601,4.116 58.791,4.082 C58.982,4.047 59.177,4.019 59.376,3.998 C59.576,3.977 59.773,3.959 59.968,3.947 C60.163,3.934 60.338,3.927 60.494,3.927 C61.058,3.927 61.506,3.984 61.84,4.096 C62.173,4.209 62.427,4.367 62.6,4.571 C62.773,4.774 62.886,5.024 62.938,5.318 C62.99,5.613 63.016,5.942 63.016,6.306 L63.016,8.815 C63.016,8.945 63.023,9.047 63.036,9.121 C63.049,9.194 63.07,9.251 63.101,9.29 C63.131,9.329 63.177,9.357 63.237,9.374 C63.298,9.392 63.38,9.405 63.484,9.413 C63.58,9.422 63.645,9.439 63.679,9.465 C63.714,9.491 63.731,9.539 63.731,9.608 L63.731,10.154 C63.731,10.302 63.627,10.393 63.419,10.427 C63.315,10.444 63.211,10.46 63.107,10.473 C63.003,10.486 62.904,10.492 62.808,10.492 C62.505,10.492 62.26,10.436 62.074,10.323 C61.887,10.211 61.76,10.003 61.69,9.699 L61.665,9.686 L61.665,9.686 Z" id="Fill-16" fill="#1A1919"></path>
                <path d="M68.606,7.528 L67.021,7.528 C66.691,7.528 66.431,7.604 66.24,7.756 C66.05,7.908 65.954,8.196 65.954,8.62 C65.954,8.906 66.013,9.103 66.13,9.212 C66.247,9.32 66.457,9.374 66.76,9.374 C66.899,9.374 67.051,9.357 67.215,9.322 C67.38,9.288 67.544,9.24 67.71,9.179 C67.874,9.119 68.034,9.051 68.19,8.978 C68.346,8.904 68.485,8.832 68.606,8.763 L68.606,7.528 Z M68.685,9.686 C68.355,9.937 67.984,10.141 67.573,10.297 C67.161,10.453 66.734,10.531 66.293,10.531 C65.946,10.531 65.657,10.486 65.428,10.394 C65.198,10.304 65.016,10.178 64.882,10.018 C64.748,9.857 64.652,9.665 64.596,9.439 C64.539,9.214 64.511,8.963 64.511,8.685 C64.502,7.923 64.702,7.37 65.109,7.028 C65.517,6.686 66.132,6.514 66.956,6.514 L68.619,6.514 L68.619,6.173 C68.619,5.98 68.6,5.817 68.561,5.681 C68.522,5.545 68.45,5.434 68.346,5.347 C68.242,5.259 68.104,5.198 67.93,5.163 C67.757,5.128 67.536,5.11 67.267,5.11 C67.164,5.11 67.035,5.115 66.884,5.123 C66.732,5.132 66.576,5.141 66.416,5.149 C66.255,5.158 66.095,5.171 65.935,5.188 C65.774,5.206 65.629,5.219 65.499,5.227 C65.369,5.245 65.28,5.247 65.233,5.234 C65.185,5.221 65.153,5.166 65.135,5.072 L65.018,4.596 C65.001,4.51 65.01,4.439 65.044,4.384 C65.079,4.328 65.17,4.27 65.317,4.21 C65.456,4.159 65.621,4.116 65.811,4.082 C66.002,4.047 66.197,4.019 66.396,3.998 C66.596,3.977 66.793,3.959 66.988,3.947 C67.183,3.934 67.358,3.927 67.514,3.927 C68.078,3.927 68.526,3.984 68.86,4.096 C69.193,4.209 69.447,4.367 69.62,4.571 C69.793,4.774 69.906,5.024 69.958,5.318 C70.01,5.613 70.036,5.942 70.036,6.306 L70.036,8.815 C70.036,8.945 70.043,9.047 70.056,9.121 C70.069,9.194 70.09,9.251 70.121,9.29 C70.151,9.329 70.197,9.357 70.257,9.374 C70.318,9.392 70.4,9.405 70.504,9.413 C70.6,9.422 70.664,9.439 70.699,9.465 C70.734,9.491 70.752,9.539 70.752,9.608 L70.752,10.154 C70.752,10.302 70.647,10.393 70.439,10.427 C70.335,10.444 70.231,10.46 70.127,10.473 C70.023,10.486 69.924,10.492 69.828,10.492 C69.525,10.492 69.28,10.436 69.094,10.323 C68.907,10.211 68.78,10.003 68.71,9.699 L68.685,9.686 L68.685,9.686 Z" id="Fill-17" fill="#1A1919"></path>
                <path d="M76.445,8.516 C76.445,8.898 76.372,9.216 76.224,9.472 C76.077,9.728 75.88,9.933 75.633,10.089 C75.386,10.245 75.106,10.358 74.794,10.427 C74.482,10.497 74.157,10.531 73.819,10.531 C73.49,10.531 73.135,10.507 72.753,10.46 C72.372,10.412 72.056,10.341 71.804,10.245 C71.674,10.193 71.592,10.135 71.557,10.07 C71.522,10.005 71.514,9.92 71.531,9.816 L71.623,9.387 C71.64,9.283 71.674,9.221 71.727,9.199 C71.778,9.177 71.856,9.175 71.96,9.192 C72.099,9.218 72.253,9.24 72.422,9.257 C72.591,9.275 72.76,9.29 72.929,9.303 C73.098,9.316 73.258,9.327 73.41,9.335 C73.561,9.344 73.694,9.348 73.806,9.348 C74.222,9.348 74.521,9.29 74.703,9.173 C74.885,9.056 74.977,8.867 74.977,8.607 C74.977,8.46 74.961,8.339 74.931,8.243 C74.9,8.148 74.846,8.07 74.768,8.009 C74.69,7.949 74.584,7.899 74.45,7.86 C74.315,7.821 74.145,7.788 73.936,7.762 C73.616,7.719 73.312,7.663 73.026,7.593 C72.74,7.524 72.487,7.422 72.266,7.288 C72.045,7.153 71.869,6.976 71.739,6.755 C71.609,6.534 71.544,6.246 71.544,5.89 C71.544,5.249 71.77,4.762 72.22,4.428 C72.671,4.094 73.26,3.927 73.988,3.927 C74.118,3.927 74.27,3.932 74.443,3.94 C74.617,3.949 74.792,3.966 74.97,3.992 C75.147,4.018 75.323,4.049 75.497,4.083 C75.669,4.118 75.826,4.161 75.964,4.213 C76.181,4.3 76.272,4.43 76.237,4.603 L76.133,5.071 C76.116,5.166 76.084,5.225 76.036,5.247 C75.988,5.269 75.904,5.27 75.782,5.253 C75.505,5.219 75.202,5.186 74.873,5.156 C74.543,5.125 74.257,5.11 74.014,5.11 C73.598,5.11 73.323,5.169 73.189,5.286 C73.054,5.403 72.987,5.587 72.987,5.838 C72.987,6.09 73.072,6.254 73.241,6.332 C73.41,6.41 73.694,6.479 74.092,6.54 C74.404,6.583 74.701,6.64 74.983,6.709 C75.264,6.779 75.514,6.883 75.73,7.021 C75.947,7.16 76.12,7.346 76.251,7.58 C76.38,7.814 76.445,8.126 76.445,8.516" id="Fill-18" fill="#1A1919"></path>
                <path d="M79.331,10.18 C79.331,10.345 79.248,10.427 79.082,10.427 L78.137,10.427 C77.971,10.427 77.888,10.345 77.888,10.18 L77.888,4.317 C77.888,4.144 77.971,4.057 78.137,4.057 L79.069,4.057 C79.244,4.057 79.331,4.144 79.331,4.317 L79.331,4.889 L79.357,4.915 C79.453,4.829 79.578,4.735 79.734,4.636 C79.89,4.536 80.057,4.445 80.235,4.363 C80.412,4.28 80.592,4.205 80.774,4.135 C80.956,4.066 81.125,4.018 81.281,3.992 C81.368,3.975 81.437,3.979 81.489,4.005 C81.541,4.031 81.576,4.101 81.593,4.213 L81.684,5.084 C81.693,5.18 81.688,5.249 81.671,5.292 C81.654,5.336 81.576,5.37 81.437,5.396 C81.255,5.431 81.064,5.472 80.865,5.519 C80.665,5.567 80.471,5.62 80.28,5.676 C80.089,5.732 79.912,5.786 79.747,5.838 C79.582,5.89 79.444,5.942 79.331,5.994 L79.331,10.18" id="Fill-19" fill="#1A1919"></path>
                <path d="M86.325,7.528 L84.739,7.528 C84.41,7.528 84.149,7.604 83.959,7.756 C83.768,7.908 83.673,8.196 83.673,8.62 C83.673,8.906 83.731,9.103 83.849,9.212 C83.966,9.32 84.176,9.374 84.479,9.374 C84.618,9.374 84.77,9.357 84.934,9.322 C85.099,9.288 85.263,9.24 85.428,9.179 C85.593,9.119 85.753,9.051 85.909,8.978 C86.065,8.904 86.204,8.832 86.325,8.763 L86.325,7.528 Z M86.403,9.686 C86.074,9.937 85.703,10.141 85.291,10.297 C84.88,10.453 84.453,10.531 84.011,10.531 C83.664,10.531 83.376,10.486 83.146,10.394 C82.917,10.304 82.735,10.178 82.601,10.018 C82.466,9.857 82.371,9.665 82.314,9.439 C82.258,9.214 82.23,8.963 82.23,8.685 C82.221,7.923 82.42,7.37 82.828,7.028 C83.235,6.686 83.851,6.514 84.674,6.514 L86.338,6.514 L86.338,6.173 C86.338,5.98 86.318,5.817 86.28,5.681 C86.241,5.545 86.169,5.434 86.065,5.347 C85.961,5.259 85.822,5.198 85.649,5.163 C85.476,5.128 85.254,5.11 84.986,5.11 C84.882,5.11 84.754,5.115 84.603,5.123 C84.451,5.132 84.295,5.141 84.135,5.149 C83.974,5.158 83.814,5.171 83.654,5.188 C83.493,5.206 83.348,5.219 83.218,5.227 C83.088,5.245 82.999,5.247 82.952,5.234 C82.904,5.221 82.872,5.166 82.854,5.072 L82.737,4.596 C82.72,4.51 82.729,4.439 82.763,4.384 C82.798,4.328 82.889,4.27 83.036,4.21 C83.175,4.159 83.339,4.116 83.53,4.082 C83.721,4.047 83.915,4.019 84.115,3.998 C84.314,3.977 84.512,3.959 84.706,3.947 C84.901,3.934 85.077,3.927 85.233,3.927 C85.796,3.927 86.245,3.984 86.579,4.096 C86.912,4.209 87.165,4.367 87.339,4.571 C87.512,4.774 87.625,5.024 87.677,5.318 C87.729,5.613 87.755,5.942 87.755,6.306 L87.755,8.815 C87.755,8.945 87.762,9.047 87.774,9.121 C87.788,9.194 87.809,9.251 87.839,9.29 C87.87,9.329 87.915,9.357 87.976,9.374 C88.037,9.392 88.119,9.405 88.223,9.413 C88.318,9.422 88.383,9.439 88.418,9.465 C88.453,9.491 88.47,9.539 88.47,9.608 L88.47,10.154 C88.47,10.302 88.366,10.393 88.158,10.427 C88.054,10.444 87.95,10.46 87.846,10.473 C87.742,10.486 87.643,10.492 87.547,10.492 C87.244,10.492 86.999,10.436 86.813,10.323 C86.626,10.211 86.498,10.003 86.429,9.699 L86.403,9.686 L86.403,9.686 Z" id="Fill-20" fill="#1A1919"></path>
                <path d="M94.682,10.427 L93.751,10.427 C93.576,10.427 93.488,10.345 93.488,10.18 C93.488,9.548 93.49,8.921 93.495,8.302 C93.499,7.682 93.501,7.056 93.501,6.423 C93.501,6.059 93.442,5.767 93.326,5.546 C93.208,5.325 92.955,5.214 92.565,5.214 C92.435,5.214 92.286,5.238 92.117,5.286 C91.948,5.333 91.779,5.388 91.609,5.448 C91.44,5.509 91.282,5.574 91.135,5.643 C90.988,5.713 90.871,5.765 90.784,5.799 L90.784,10.18 C90.784,10.258 90.767,10.319 90.732,10.362 C90.697,10.406 90.632,10.427 90.537,10.427 L89.614,10.427 C89.458,10.427 89.38,10.345 89.38,10.18 L89.38,1.509 C89.38,1.345 89.458,1.262 89.614,1.262 L90.537,1.262 C90.71,1.262 90.797,1.345 90.797,1.509 L90.8,4.655 C90.913,4.586 91.052,4.51 91.217,4.428 C91.382,4.346 91.561,4.268 91.752,4.194 C91.942,4.12 92.143,4.06 92.351,4.012 C92.56,3.964 92.764,3.94 92.963,3.94 C93.415,3.94 93.771,4.007 94.032,4.142 C94.293,4.276 94.49,4.456 94.625,4.681 C94.759,4.907 94.846,5.169 94.885,5.468 C94.924,5.767 94.944,6.081 94.944,6.41 L94.944,10.18 C94.944,10.345 94.856,10.427 94.682,10.427" id="Fill-21" fill="#1A1919"></path>
                <path d="M100.261,7.528 L98.675,7.528 C98.346,7.528 98.085,7.604 97.895,7.756 C97.705,7.908 97.609,8.196 97.609,8.62 C97.609,8.906 97.668,9.103 97.785,9.212 C97.902,9.32 98.112,9.374 98.415,9.374 C98.554,9.374 98.706,9.357 98.87,9.322 C99.035,9.288 99.199,9.24 99.364,9.179 C99.529,9.119 99.689,9.051 99.845,8.978 C100.001,8.904 100.14,8.832 100.261,8.763 L100.261,7.528 Z M100.339,9.686 C100.01,9.937 99.639,10.141 99.228,10.297 C98.816,10.453 98.389,10.531 97.947,10.531 C97.601,10.531 97.312,10.486 97.082,10.394 C96.853,10.304 96.671,10.178 96.537,10.018 C96.402,9.857 96.307,9.665 96.251,9.439 C96.194,9.214 96.166,8.963 96.166,8.685 C96.157,7.923 96.356,7.37 96.764,7.028 C97.171,6.686 97.787,6.514 98.61,6.514 L100.274,6.514 L100.274,6.173 C100.274,5.98 100.254,5.817 100.216,5.681 C100.177,5.545 100.105,5.434 100.001,5.347 C99.897,5.259 99.758,5.198 99.585,5.163 C99.412,5.128 99.19,5.11 98.922,5.11 C98.818,5.11 98.69,5.115 98.539,5.123 C98.387,5.132 98.231,5.141 98.071,5.149 C97.91,5.158 97.75,5.171 97.59,5.188 C97.429,5.206 97.284,5.219 97.154,5.227 C97.024,5.245 96.935,5.247 96.888,5.234 C96.84,5.221 96.808,5.166 96.79,5.072 L96.673,4.596 C96.656,4.51 96.664,4.439 96.699,4.384 C96.734,4.328 96.825,4.27 96.972,4.21 C97.111,4.159 97.275,4.116 97.466,4.082 C97.657,4.047 97.852,4.019 98.051,3.998 C98.251,3.977 98.448,3.959 98.643,3.947 C98.837,3.934 99.013,3.927 99.169,3.927 C99.732,3.927 100.181,3.984 100.515,4.096 C100.848,4.209 101.102,4.367 101.275,4.571 C101.448,4.774 101.561,5.024 101.613,5.318 C101.665,5.613 101.691,5.942 101.691,6.306 L101.691,8.815 C101.691,8.945 101.698,9.047 101.71,9.121 C101.724,9.194 101.745,9.251 101.775,9.29 C101.806,9.329 101.852,9.357 101.912,9.374 C101.973,9.392 102.055,9.405 102.159,9.413 C102.254,9.422 102.319,9.439 102.354,9.465 C102.389,9.491 102.406,9.539 102.406,9.608 L102.406,10.154 C102.406,10.302 102.302,10.393 102.094,10.427 C101.99,10.444 101.886,10.46 101.782,10.473 C101.678,10.486 101.579,10.492 101.483,10.492 C101.18,10.492 100.935,10.436 100.749,10.323 C100.562,10.211 100.435,10.003 100.365,9.699 L100.339,9.686 L100.339,9.686 Z" id="Fill-22" fill="#1A1919"></path>
                <path d="M108.1,8.516 C108.1,8.898 108.026,9.216 107.879,9.472 C107.731,9.728 107.535,9.933 107.288,10.089 C107.041,10.245 106.761,10.358 106.449,10.427 C106.137,10.497 105.812,10.531 105.474,10.531 C105.145,10.531 104.79,10.507 104.408,10.46 C104.027,10.412 103.71,10.341 103.459,10.245 C103.329,10.193 103.247,10.135 103.212,10.07 C103.177,10.005 103.168,9.92 103.186,9.816 L103.277,9.387 C103.294,9.283 103.329,9.221 103.381,9.199 C103.433,9.177 103.511,9.175 103.615,9.192 C103.754,9.218 103.908,9.24 104.077,9.257 C104.246,9.275 104.415,9.29 104.583,9.303 C104.752,9.316 104.913,9.327 105.064,9.335 C105.216,9.344 105.349,9.348 105.461,9.348 C105.877,9.348 106.176,9.29 106.358,9.173 C106.54,9.056 106.631,8.867 106.631,8.607 C106.631,8.46 106.616,8.339 106.585,8.243 C106.555,8.148 106.501,8.07 106.423,8.009 C106.345,7.949 106.239,7.899 106.104,7.86 C105.97,7.821 105.799,7.788 105.591,7.762 C105.271,7.719 104.967,7.663 104.681,7.593 C104.395,7.524 104.142,7.422 103.92,7.288 C103.7,7.153 103.524,6.976 103.394,6.755 C103.264,6.534 103.199,6.246 103.199,5.89 C103.199,5.249 103.424,4.762 103.875,4.428 C104.326,4.094 104.915,3.927 105.643,3.927 C105.773,3.927 105.925,3.932 106.098,3.94 C106.271,3.949 106.447,3.966 106.625,3.992 C106.802,4.018 106.978,4.049 107.151,4.083 C107.324,4.118 107.48,4.161 107.619,4.213 C107.835,4.3 107.927,4.43 107.892,4.603 L107.788,5.071 C107.771,5.166 107.738,5.225 107.69,5.247 C107.643,5.269 107.559,5.27 107.437,5.253 C107.16,5.219 106.856,5.186 106.527,5.156 C106.198,5.125 105.912,5.11 105.669,5.11 C105.253,5.11 104.978,5.169 104.844,5.286 C104.709,5.403 104.642,5.587 104.642,5.838 C104.642,6.09 104.727,6.254 104.896,6.332 C105.064,6.41 105.349,6.479 105.747,6.54 C106.059,6.583 106.356,6.64 106.638,6.709 C106.919,6.779 107.168,6.883 107.385,7.021 C107.602,7.16 107.775,7.346 107.905,7.58 C108.035,7.814 108.1,8.126 108.1,8.516" id="Fill-23" fill="#1A1919"></path>
                <path d="M113.274,9.933 C113.3,10.081 113.244,10.189 113.105,10.258 C112.992,10.31 112.86,10.353 112.708,10.388 C112.557,10.423 112.401,10.451 112.24,10.473 C112.08,10.494 111.928,10.509 111.786,10.518 C111.643,10.527 111.519,10.531 111.415,10.531 C111.034,10.531 110.737,10.477 110.524,10.369 C110.312,10.26 110.154,10.111 110.05,9.92 C109.946,9.729 109.881,9.509 109.855,9.257 C109.829,9.006 109.816,8.742 109.816,8.464 L109.816,5.201 L109.166,5.201 C109.07,5.201 109.005,5.182 108.971,5.143 C108.936,5.103 108.919,5.041 108.919,4.954 L108.919,4.317 C108.919,4.231 108.936,4.165 108.971,4.122 C109.005,4.079 109.07,4.057 109.166,4.057 L109.829,4.057 L109.829,2.718 C109.829,2.623 109.853,2.556 109.9,2.517 C109.948,2.478 110.006,2.45 110.076,2.432 L110.947,2.198 C111.12,2.155 111.207,2.207 111.207,2.354 L111.207,4.057 L112.598,4.057 C112.702,4.057 112.769,4.079 112.799,4.122 C112.83,4.165 112.845,4.226 112.845,4.304 L112.845,4.954 C112.845,5.041 112.83,5.103 112.799,5.143 C112.769,5.182 112.702,5.201 112.598,5.201 L111.207,5.201 L111.207,8.438 C111.207,8.612 111.22,8.746 111.246,8.841 C111.272,8.936 111.317,9.008 111.382,9.056 C111.447,9.103 111.536,9.132 111.649,9.14 C111.761,9.149 111.904,9.153 112.078,9.153 C112.173,9.153 112.31,9.149 112.487,9.14 C112.665,9.132 112.819,9.119 112.949,9.101 C113.018,9.093 113.07,9.101 113.105,9.127 C113.14,9.153 113.166,9.205 113.183,9.283 L113.274,9.933" id="Fill-24" fill="#1A1919"></path>
                <path d="M117.941,7.528 L116.355,7.528 C116.025,7.528 115.765,7.604 115.575,7.756 C115.384,7.908 115.289,8.196 115.289,8.62 C115.289,8.906 115.347,9.103 115.464,9.212 C115.582,9.32 115.791,9.374 116.095,9.374 C116.233,9.374 116.385,9.357 116.55,9.322 C116.714,9.288 116.879,9.24 117.044,9.179 C117.208,9.119 117.369,9.051 117.525,8.978 C117.681,8.904 117.819,8.832 117.941,8.763 L117.941,7.528 Z M118.019,9.686 C117.689,9.937 117.319,10.141 116.907,10.297 C116.496,10.453 116.069,10.531 115.627,10.531 C115.28,10.531 114.992,10.486 114.762,10.394 C114.533,10.304 114.351,10.178 114.216,10.018 C114.082,9.857 113.986,9.665 113.93,9.439 C113.874,9.214 113.846,8.963 113.846,8.685 C113.837,7.923 114.036,7.37 114.444,7.028 C114.851,6.686 115.466,6.514 116.29,6.514 L117.954,6.514 L117.954,6.173 C117.954,5.98 117.934,5.817 117.896,5.681 C117.856,5.545 117.785,5.434 117.681,5.347 C117.577,5.259 117.438,5.198 117.265,5.163 C117.091,5.128 116.87,5.11 116.602,5.11 C116.498,5.11 116.37,5.115 116.218,5.123 C116.066,5.132 115.911,5.141 115.75,5.149 C115.59,5.158 115.43,5.171 115.27,5.188 C115.109,5.206 114.964,5.219 114.834,5.227 C114.704,5.245 114.615,5.247 114.567,5.234 C114.52,5.221 114.487,5.166 114.47,5.072 L114.353,4.596 C114.335,4.51 114.344,4.439 114.379,4.384 C114.414,4.328 114.504,4.27 114.652,4.21 C114.791,4.159 114.955,4.116 115.146,4.082 C115.336,4.047 115.531,4.019 115.731,3.998 C115.93,3.977 116.127,3.959 116.322,3.947 C116.517,3.934 116.693,3.927 116.849,3.927 C117.412,3.927 117.86,3.984 118.194,4.096 C118.528,4.209 118.781,4.367 118.955,4.571 C119.128,4.774 119.241,5.024 119.293,5.318 C119.345,5.613 119.371,5.942 119.371,6.306 L119.371,8.815 C119.371,8.945 119.377,9.047 119.39,9.121 C119.403,9.194 119.425,9.251 119.455,9.29 C119.485,9.329 119.531,9.357 119.592,9.374 C119.652,9.392 119.735,9.405 119.839,9.413 C119.934,9.422 119.999,9.439 120.034,9.465 C120.068,9.491 120.086,9.539 120.086,9.608 L120.086,10.154 C120.086,10.302 119.982,10.393 119.774,10.427 C119.67,10.444 119.566,10.46 119.462,10.473 C119.358,10.486 119.258,10.492 119.163,10.492 C118.859,10.492 118.615,10.436 118.428,10.323 C118.242,10.211 118.114,10.003 118.045,9.699 L118.019,9.686 L118.019,9.686 Z" id="Fill-25" fill="#1A1919"></path>
                <path d="M124.987,9.933 C125.013,10.081 124.957,10.189 124.818,10.258 C124.705,10.31 124.573,10.353 124.421,10.388 C124.27,10.423 124.114,10.451 123.953,10.473 C123.793,10.494 123.641,10.509 123.499,10.518 C123.355,10.527 123.232,10.531 123.128,10.531 C122.747,10.531 122.45,10.477 122.237,10.369 C122.025,10.26 121.867,10.111 121.763,9.92 C121.659,9.729 121.594,9.509 121.568,9.257 C121.542,9.006 121.529,8.742 121.529,8.464 L121.529,5.201 L120.879,5.201 C120.783,5.201 120.718,5.182 120.684,5.143 C120.649,5.103 120.632,5.041 120.632,4.954 L120.632,4.317 C120.632,4.231 120.649,4.165 120.684,4.122 C120.718,4.079 120.783,4.057 120.879,4.057 L121.542,4.057 L121.542,2.718 C121.542,2.623 121.565,2.556 121.613,2.517 C121.661,2.478 121.719,2.45 121.789,2.432 L122.66,2.198 C122.833,2.155 122.92,2.207 122.92,2.354 L122.92,4.057 L124.311,4.057 C124.415,4.057 124.482,4.079 124.512,4.122 C124.542,4.165 124.558,4.226 124.558,4.304 L124.558,4.954 C124.558,5.041 124.542,5.103 124.512,5.143 C124.482,5.182 124.415,5.201 124.311,5.201 L122.92,5.201 L122.92,8.438 C122.92,8.612 122.933,8.746 122.959,8.841 C122.985,8.936 123.03,9.008 123.095,9.056 C123.16,9.103 123.249,9.132 123.362,9.14 C123.474,9.149 123.617,9.153 123.791,9.153 C123.886,9.153 124.022,9.149 124.2,9.14 C124.378,9.132 124.532,9.119 124.662,9.101 C124.731,9.093 124.783,9.101 124.818,9.127 C124.853,9.153 124.878,9.205 124.896,9.283 L124.987,9.933" id="Fill-26" fill="#1A1919"></path>
                <path d="M130.979,10.427 L130.057,10.427 C129.961,10.427 129.896,10.406 129.862,10.362 C129.827,10.319 129.81,10.258 129.81,10.18 L129.81,9.777 L129.784,9.764 C129.654,9.851 129.504,9.94 129.335,10.031 C129.166,10.122 128.986,10.206 128.796,10.284 C128.605,10.362 128.408,10.425 128.204,10.473 C128,10.52 127.799,10.544 127.6,10.544 C127.158,10.544 126.809,10.483 126.553,10.362 C126.297,10.241 126.104,10.072 125.975,9.855 C125.845,9.639 125.762,9.383 125.728,9.088 C125.693,8.794 125.676,8.477 125.676,8.139 L125.676,4.317 C125.676,4.144 125.759,4.057 125.925,4.057 L126.883,4.057 C127.04,4.057 127.119,4.144 127.119,4.317 L127.119,7.97 C127.119,8.17 127.131,8.347 127.158,8.503 C127.183,8.659 127.23,8.791 127.3,8.9 C127.369,9.008 127.463,9.093 127.584,9.153 C127.705,9.214 127.865,9.244 128.063,9.244 C128.201,9.244 128.354,9.223 128.522,9.179 C128.691,9.136 128.856,9.082 129.021,9.017 C129.184,8.952 129.335,8.887 129.473,8.822 C129.611,8.757 129.723,8.703 129.81,8.659 L129.81,4.317 C129.81,4.239 129.827,4.176 129.862,4.129 C129.896,4.081 129.961,4.057 130.057,4.057 L130.979,4.057 C131.144,4.057 131.227,4.144 131.227,4.317 L131.227,10.18 C131.227,10.345 131.144,10.427 130.979,10.427" id="Fill-27" fill="#1A1919"></path>
                <path d="M136.673,5.397 C136.369,5.31 136.097,5.251 135.857,5.221 C135.618,5.19 135.389,5.175 135.171,5.175 C134.936,5.175 134.736,5.21 134.571,5.28 C134.405,5.349 134.274,5.466 134.179,5.632 C134.083,5.797 134.013,6.017 133.97,6.29 C133.926,6.564 133.904,6.905 133.904,7.314 C133.904,7.731 133.924,8.068 133.963,8.325 C134.002,8.581 134.065,8.777 134.153,8.912 C134.24,9.046 134.344,9.138 134.466,9.186 C134.588,9.233 134.736,9.257 134.91,9.257 C135.041,9.257 135.189,9.235 135.354,9.192 C135.52,9.148 135.685,9.097 135.851,9.036 C136.016,8.975 136.17,8.912 136.314,8.847 C136.458,8.781 136.578,8.723 136.673,8.67 L136.673,5.397 Z M138.09,10.18 C138.09,10.258 138.075,10.319 138.045,10.362 C138.015,10.406 137.952,10.427 137.856,10.427 L136.92,10.427 C136.765,10.427 136.687,10.35 136.687,10.196 L136.687,9.785 C136.678,9.785 136.671,9.783 136.667,9.778 C136.663,9.774 136.656,9.772 136.647,9.772 C136.535,9.849 136.4,9.933 136.245,10.023 C136.088,10.113 135.919,10.197 135.737,10.274 C135.556,10.351 135.367,10.414 135.172,10.46 C134.977,10.507 134.784,10.531 134.594,10.531 C134.169,10.531 133.82,10.455 133.547,10.304 C133.274,10.152 133.057,9.937 132.897,9.66 C132.736,9.383 132.624,9.047 132.559,8.653 C132.494,8.258 132.461,7.814 132.461,7.32 C132.461,6.791 132.499,6.317 132.572,5.897 C132.646,5.477 132.778,5.119 132.969,4.824 C133.159,4.53 133.421,4.307 133.755,4.155 C134.088,4.003 134.52,3.927 135.048,3.927 C135.586,3.927 136.123,4.027 136.661,4.226 C136.669,4.226 136.673,4.224 136.673,4.22 C136.673,4.215 136.678,4.213 136.687,4.213 L136.687,1.522 C136.687,1.436 136.702,1.371 136.732,1.327 C136.762,1.284 136.83,1.262 136.934,1.262 L137.856,1.262 C137.96,1.262 138.025,1.286 138.052,1.334 C138.078,1.381 138.09,1.444 138.09,1.522 L138.09,10.18 L138.09,10.18 Z" id="Fill-28" fill="#1A1919"></path>
                <path d="M143.368,2.055 C143.368,1.882 143.455,1.795 143.628,1.795 L148.412,1.795 C148.577,1.795 148.659,1.877 148.659,2.04 L148.659,2.838 C148.659,2.992 148.573,3.069 148.399,3.069 L144.85,3.069 L144.85,5.318 L147.996,5.318 C148.169,5.318 148.256,5.396 148.256,5.552 L148.256,6.358 C148.256,6.514 148.169,6.592 147.996,6.592 L144.85,6.592 L144.85,9.153 L148.49,9.153 C148.646,9.153 148.724,9.236 148.724,9.4 L148.724,10.193 C148.724,10.349 148.642,10.427 148.478,10.427 L143.628,10.427 C143.455,10.427 143.368,10.349 143.368,10.193 L143.368,2.055" id="Fill-29" fill="#1A1919"></path>
                <path d="M155.276,10.427 L154.353,10.427 C154.258,10.427 154.192,10.406 154.158,10.362 C154.124,10.319 154.106,10.258 154.106,10.18 L154.106,9.777 L154.08,9.764 C153.95,9.851 153.801,9.94 153.631,10.031 C153.462,10.122 153.283,10.206 153.092,10.284 C152.901,10.362 152.704,10.425 152.5,10.473 C152.297,10.52 152.095,10.544 151.896,10.544 C151.454,10.544 151.105,10.483 150.85,10.362 C150.594,10.241 150.401,10.072 150.271,9.855 C150.141,9.639 150.059,9.383 150.024,9.088 C149.989,8.794 149.972,8.477 149.972,8.139 L149.972,4.317 C149.972,4.144 150.055,4.057 150.221,4.057 L151.179,4.057 C151.336,4.057 151.415,4.144 151.415,4.317 L151.415,7.97 C151.415,8.17 151.428,8.347 151.454,8.503 C151.479,8.659 151.527,8.791 151.596,8.9 C151.665,9.008 151.76,9.093 151.881,9.153 C152.001,9.214 152.161,9.244 152.359,9.244 C152.498,9.244 152.651,9.223 152.819,9.179 C152.987,9.136 153.153,9.082 153.317,9.017 C153.48,8.952 153.631,8.887 153.77,8.822 C153.908,8.757 154.02,8.703 154.106,8.659 L154.106,4.317 C154.106,4.239 154.124,4.176 154.158,4.129 C154.192,4.081 154.258,4.057 154.353,4.057 L155.276,4.057 C155.44,4.057 155.523,4.144 155.523,4.317 L155.523,10.18 C155.523,10.345 155.44,10.427 155.276,10.427" id="Fill-30" fill="#1A1919"></path>
                <path d="M158.59,10.18 C158.59,10.345 158.507,10.427 158.341,10.427 L157.397,10.427 C157.231,10.427 157.148,10.345 157.148,10.18 L157.148,4.317 C157.148,4.144 157.231,4.057 157.397,4.057 L158.328,4.057 C158.502,4.057 158.59,4.144 158.59,4.317 L158.59,4.889 L158.617,4.915 C158.711,4.829 158.837,4.735 158.994,4.636 C159.15,4.536 159.316,4.445 159.494,4.363 C159.671,4.28 159.851,4.205 160.034,4.135 C160.215,4.066 160.384,4.018 160.541,3.992 C160.627,3.975 160.697,3.979 160.749,4.005 C160.8,4.031 160.834,4.101 160.852,4.213 L160.944,5.084 C160.952,5.18 160.948,5.249 160.93,5.292 C160.913,5.336 160.834,5.37 160.697,5.396 C160.514,5.431 160.324,5.472 160.125,5.519 C159.925,5.567 159.73,5.62 159.54,5.676 C159.349,5.732 159.171,5.786 159.006,5.838 C158.841,5.89 158.703,5.942 158.59,5.994 L158.59,10.18" id="Fill-31" fill="#1A1919"></path>
                <path d="M165.715,7.229 C165.715,6.883 165.698,6.582 165.663,6.326 C165.628,6.07 165.559,5.858 165.455,5.689 C165.351,5.519 165.208,5.392 165.026,5.305 C164.844,5.219 164.605,5.175 164.311,5.175 C164.034,5.175 163.808,5.219 163.635,5.305 C163.461,5.392 163.325,5.522 163.225,5.695 C163.125,5.869 163.056,6.083 163.017,6.339 C162.978,6.594 162.958,6.891 162.958,7.229 C162.958,7.576 162.978,7.877 163.017,8.133 C163.056,8.389 163.124,8.601 163.219,8.769 C163.314,8.939 163.449,9.067 163.622,9.153 C163.795,9.24 164.02,9.283 164.297,9.283 C164.592,9.283 164.833,9.242 165.019,9.16 C165.206,9.078 165.351,8.952 165.455,8.783 C165.559,8.614 165.628,8.399 165.663,8.139 C165.698,7.879 165.715,7.576 165.715,7.229 Z M167.158,7.138 C167.158,7.511 167.134,7.896 167.086,8.295 C167.039,8.694 166.92,9.06 166.73,9.394 C166.54,9.728 166.254,10 165.874,10.213 C165.494,10.425 164.966,10.531 164.292,10.531 C163.643,10.531 163.132,10.425 162.761,10.213 C162.389,10 162.11,9.728 161.924,9.394 C161.739,9.06 161.624,8.694 161.581,8.295 C161.538,7.896 161.516,7.511 161.516,7.138 C161.516,6.835 161.543,6.497 161.6,6.124 C161.656,5.752 161.78,5.403 161.97,5.078 C162.16,4.753 162.439,4.48 162.806,4.259 C163.173,4.038 163.668,3.927 164.292,3.927 C164.922,3.927 165.426,4.023 165.802,4.213 C166.178,4.404 166.466,4.653 166.665,4.961 C166.864,5.269 166.996,5.613 167.061,5.994 C167.125,6.375 167.158,6.757 167.158,7.138 L167.158,7.138 Z" id="Fill-32" fill="#1A1919"></path>
                <path d="M172.514,7.229 C172.514,6.883 172.497,6.582 172.461,6.326 C172.427,6.07 172.358,5.858 172.253,5.689 C172.15,5.519 172.006,5.392 171.825,5.305 C171.643,5.219 171.404,5.175 171.11,5.175 C170.833,5.175 170.607,5.219 170.434,5.305 C170.26,5.392 170.124,5.522 170.024,5.695 C169.924,5.869 169.855,6.083 169.816,6.339 C169.777,6.594 169.757,6.891 169.757,7.229 C169.757,7.576 169.777,7.877 169.816,8.133 C169.855,8.389 169.922,8.601 170.018,8.769 C170.113,8.939 170.248,9.067 170.42,9.153 C170.594,9.24 170.819,9.283 171.096,9.283 C171.391,9.283 171.631,9.242 171.818,9.16 C172.004,9.078 172.15,8.952 172.253,8.783 C172.358,8.614 172.427,8.399 172.461,8.139 C172.497,7.879 172.514,7.576 172.514,7.229 Z M173.957,7.138 C173.957,7.511 173.933,7.896 173.885,8.295 C173.837,8.694 173.719,9.06 173.529,9.394 C173.338,9.728 173.053,10 172.672,10.213 C172.292,10.425 171.765,10.531 171.09,10.531 C170.442,10.531 169.931,10.425 169.56,10.213 C169.188,10 168.909,9.728 168.723,9.394 C168.538,9.06 168.422,8.694 168.379,8.295 C168.336,7.896 168.315,7.511 168.315,7.138 C168.315,6.835 168.342,6.497 168.399,6.124 C168.455,5.752 168.579,5.403 168.769,5.078 C168.958,4.753 169.238,4.48 169.605,4.259 C169.972,4.038 170.467,3.927 171.09,3.927 C171.721,3.927 172.225,4.023 172.601,4.213 C172.977,4.404 173.265,4.653 173.463,4.961 C173.663,5.269 173.794,5.613 173.86,5.994 C173.924,6.375 173.957,6.757 173.957,7.138 L173.957,7.138 Z" id="Fill-33" fill="#1A1919"></path>
                <path d="M179.39,7.19 C179.39,6.774 179.371,6.441 179.332,6.189 C179.293,5.938 179.23,5.743 179.143,5.604 C179.057,5.466 178.951,5.373 178.825,5.325 C178.7,5.277 178.549,5.253 178.376,5.253 C178.247,5.253 178.099,5.275 177.934,5.318 C177.77,5.362 177.607,5.412 177.447,5.468 C177.287,5.524 177.135,5.587 176.992,5.656 C176.849,5.726 176.73,5.786 176.634,5.838 L176.634,9.088 C176.929,9.175 177.196,9.233 177.434,9.264 C177.672,9.294 177.904,9.309 178.129,9.309 C178.364,9.309 178.56,9.277 178.721,9.212 C178.881,9.147 179.011,9.032 179.111,8.867 C179.21,8.703 179.282,8.484 179.326,8.211 C179.369,7.938 179.39,7.598 179.39,7.19 Z M180.86,7.203 C180.86,7.732 180.821,8.204 180.743,8.62 C180.665,9.036 180.528,9.387 180.333,9.673 C180.138,9.959 179.874,10.176 179.54,10.323 C179.207,10.471 178.784,10.544 178.273,10.544 C178.056,10.544 177.806,10.522 177.525,10.479 C177.244,10.436 176.951,10.362 176.648,10.258 L176.634,10.271 L176.634,12.559 C176.634,12.628 176.62,12.689 176.589,12.741 C176.558,12.793 176.492,12.819 176.387,12.819 L175.464,12.819 C175.361,12.819 175.293,12.797 175.263,12.754 C175.233,12.711 175.217,12.646 175.217,12.559 L175.217,4.317 C175.217,4.144 175.299,4.057 175.464,4.057 L176.387,4.057 C176.483,4.057 176.545,4.081 176.576,4.129 C176.606,4.176 176.622,4.239 176.622,4.317 L176.622,4.707 L176.661,4.733 C176.773,4.655 176.91,4.571 177.07,4.48 C177.23,4.389 177.402,4.304 177.583,4.226 C177.765,4.148 177.952,4.083 178.142,4.031 C178.333,3.979 178.524,3.953 178.714,3.953 C179.139,3.953 179.49,4.031 179.767,4.187 C180.044,4.343 180.263,4.562 180.424,4.844 C180.584,5.125 180.697,5.466 180.762,5.864 C180.827,6.263 180.86,6.709 180.86,7.203 L180.86,7.203 Z" id="Fill-34" fill="#1A1919"></path>
                <path d="M185.956,7.528 L184.37,7.528 C184.041,7.528 183.781,7.604 183.59,7.756 C183.399,7.908 183.304,8.196 183.304,8.62 C183.304,8.906 183.363,9.103 183.479,9.212 C183.596,9.32 183.806,9.374 184.11,9.374 C184.249,9.374 184.4,9.357 184.565,9.322 C184.729,9.288 184.894,9.24 185.059,9.179 C185.223,9.119 185.384,9.051 185.54,8.978 C185.696,8.904 185.834,8.832 185.956,8.763 L185.956,7.528 Z M186.034,9.686 C185.705,9.937 185.333,10.141 184.922,10.297 C184.51,10.453 184.083,10.531 183.642,10.531 C183.295,10.531 183.007,10.486 182.778,10.394 C182.547,10.304 182.366,10.178 182.231,10.018 C182.097,9.857 182.001,9.665 181.946,9.439 C181.889,9.214 181.861,8.963 181.861,8.685 C181.852,7.923 182.051,7.37 182.458,7.028 C182.866,6.686 183.482,6.514 184.305,6.514 L185.969,6.514 L185.969,6.173 C185.969,5.98 185.95,5.817 185.911,5.681 C185.872,5.545 185.8,5.434 185.696,5.347 C185.592,5.259 185.454,5.198 185.28,5.163 C185.107,5.128 184.885,5.11 184.617,5.11 C184.513,5.11 184.385,5.115 184.234,5.123 C184.082,5.132 183.925,5.141 183.765,5.149 C183.605,5.158 183.445,5.171 183.285,5.188 C183.124,5.206 182.979,5.219 182.849,5.227 C182.719,5.245 182.63,5.247 182.583,5.234 C182.535,5.221 182.502,5.166 182.485,5.072 L182.368,4.596 C182.35,4.51 182.359,4.439 182.394,4.384 C182.428,4.328 182.519,4.27 182.667,4.21 C182.805,4.159 182.97,4.116 183.161,4.082 C183.351,4.047 183.546,4.019 183.746,3.998 C183.945,3.977 184.142,3.959 184.337,3.947 C184.533,3.934 184.708,3.927 184.864,3.927 C185.427,3.927 185.875,3.984 186.209,4.096 C186.543,4.209 186.796,4.367 186.97,4.571 C187.143,4.774 187.256,5.024 187.308,5.318 C187.36,5.613 187.386,5.942 187.386,6.306 L187.386,8.815 C187.386,8.945 187.392,9.047 187.406,9.121 C187.418,9.194 187.44,9.251 187.47,9.29 C187.5,9.329 187.546,9.357 187.607,9.374 C187.667,9.392 187.75,9.405 187.854,9.413 C187.949,9.422 188.014,9.439 188.049,9.465 C188.083,9.491 188.101,9.539 188.101,9.608 L188.101,10.154 C188.101,10.302 187.997,10.393 187.789,10.427 C187.685,10.444 187.581,10.46 187.477,10.473 C187.373,10.486 187.273,10.492 187.178,10.492 C186.875,10.492 186.629,10.436 186.444,10.323 C186.257,10.211 186.129,10.003 186.06,9.699 L186.034,9.686 L186.034,9.686 Z" id="Fill-35" fill="#1A1919"></path>
                <path d="M194.393,9.153 L198.111,9.153 C198.267,9.153 198.345,9.227 198.345,9.374 L198.345,10.193 C198.345,10.349 198.262,10.427 198.098,10.427 L193.184,10.427 C193.01,10.427 192.923,10.349 192.923,10.193 L192.923,2.055 C192.923,1.882 193.006,1.795 193.17,1.795 L194.146,1.795 C194.31,1.795 194.393,1.882 194.393,2.055 L194.393,9.153" id="Fill-36" fill="#1A1919"></path>
                <path d="M200.815,10.18 C200.815,10.249 200.8,10.308 200.77,10.356 C200.739,10.403 200.676,10.427 200.582,10.427 L199.658,10.427 C199.485,10.427 199.398,10.345 199.398,10.18 L199.398,4.304 C199.398,4.14 199.485,4.057 199.658,4.057 L200.582,4.057 C200.676,4.057 200.739,4.081 200.77,4.129 C200.8,4.176 200.815,4.235 200.815,4.304 L200.815,10.18 Z M200.893,2.367 C200.893,2.471 200.884,2.569 200.867,2.66 C200.85,2.751 200.813,2.831 200.756,2.9 C200.7,2.97 200.623,3.024 200.523,3.063 C200.423,3.102 200.291,3.121 200.126,3.121 C199.953,3.121 199.816,3.1 199.716,3.056 C199.617,3.013 199.542,2.957 199.489,2.887 C199.437,2.818 199.403,2.738 199.385,2.647 C199.368,2.556 199.359,2.463 199.359,2.367 C199.359,2.159 199.409,1.984 199.508,1.841 C199.608,1.698 199.814,1.626 200.126,1.626 C200.447,1.626 200.655,1.693 200.75,1.828 C200.845,1.962 200.893,2.142 200.893,2.367 L200.893,2.367 Z" id="Fill-37" fill="#1A1919"></path>
                <path d="M204.026,10.18 C204.026,10.249 204.011,10.308 203.981,10.356 C203.95,10.403 203.887,10.427 203.792,10.427 L202.869,10.427 C202.696,10.427 202.609,10.345 202.609,10.18 L202.609,4.304 C202.609,4.14 202.696,4.057 202.869,4.057 L203.792,4.057 C203.887,4.057 203.95,4.081 203.981,4.129 C204.011,4.176 204.026,4.235 204.026,4.304 L204.026,10.18 Z M204.104,2.367 C204.104,2.471 204.095,2.569 204.078,2.66 C204.061,2.751 204.024,2.831 203.967,2.9 C203.911,2.97 203.833,3.024 203.734,3.063 C203.634,3.102 203.501,3.121 203.337,3.121 C203.164,3.121 203.027,3.1 202.927,3.056 C202.828,3.013 202.752,2.957 202.7,2.887 C202.648,2.818 202.614,2.738 202.596,2.647 C202.579,2.556 202.57,2.463 202.57,2.367 C202.57,2.159 202.62,1.984 202.719,1.841 C202.819,1.698 203.025,1.626 203.337,1.626 C203.658,1.626 203.866,1.693 203.961,1.828 C204.056,1.962 204.104,2.142 204.104,2.367 L204.104,2.367 Z" id="Fill-38" fill="#1A1919"></path>
                <path d="M209.694,5.397 C209.389,5.31 209.117,5.251 208.877,5.221 C208.638,5.19 208.41,5.175 208.192,5.175 C207.957,5.175 207.756,5.21 207.591,5.28 C207.425,5.349 207.295,5.466 207.2,5.632 C207.103,5.797 207.034,6.017 206.991,6.29 C206.947,6.564 206.925,6.905 206.925,7.314 C206.925,7.731 206.945,8.068 206.984,8.325 C207.023,8.581 207.086,8.777 207.173,8.912 C207.26,9.046 207.365,9.138 207.487,9.186 C207.609,9.233 207.756,9.257 207.931,9.257 C208.061,9.257 208.209,9.235 208.375,9.192 C208.541,9.148 208.706,9.097 208.872,9.036 C209.037,8.975 209.191,8.912 209.334,8.847 C209.479,8.781 209.598,8.723 209.694,8.67 L209.694,5.397 Z M211.111,10.18 C211.111,10.258 211.096,10.319 211.066,10.362 C211.035,10.406 210.972,10.427 210.877,10.427 L209.941,10.427 C209.785,10.427 209.708,10.35 209.708,10.196 L209.708,9.785 C209.699,9.785 209.692,9.783 209.688,9.778 C209.683,9.774 209.676,9.772 209.668,9.772 C209.555,9.849 209.421,9.933 209.265,10.023 C209.109,10.113 208.94,10.197 208.758,10.274 C208.576,10.351 208.387,10.414 208.193,10.46 C207.998,10.507 207.804,10.531 207.614,10.531 C207.189,10.531 206.84,10.455 206.568,10.304 C206.294,10.152 206.078,9.937 205.917,9.66 C205.757,9.383 205.645,9.047 205.58,8.653 C205.514,8.258 205.482,7.814 205.482,7.32 C205.482,6.791 205.519,6.317 205.592,5.897 C205.667,5.477 205.798,5.119 205.989,4.824 C206.179,4.53 206.442,4.307 206.776,4.155 C207.109,4.003 207.541,3.927 208.069,3.927 C208.606,3.927 209.144,4.027 209.681,4.226 C209.69,4.226 209.694,4.224 209.694,4.22 C209.694,4.215 209.699,4.213 209.708,4.213 L209.708,1.522 C209.708,1.436 209.722,1.371 209.752,1.327 C209.783,1.284 209.85,1.262 209.954,1.262 L210.877,1.262 C210.981,1.262 211.046,1.286 211.072,1.334 C211.098,1.381 211.111,1.444 211.111,1.522 L211.111,10.18 L211.111,10.18 Z" id="Fill-39" fill="#1A1919"></path>
                <path d="M217.78,10.427 L216.857,10.427 C216.761,10.427 216.697,10.406 216.662,10.362 C216.627,10.319 216.61,10.258 216.61,10.18 L216.61,9.777 L216.584,9.764 C216.454,9.851 216.304,9.94 216.135,10.031 C215.966,10.122 215.787,10.206 215.596,10.284 C215.405,10.362 215.208,10.425 215.004,10.473 C214.8,10.52 214.599,10.544 214.4,10.544 C213.958,10.544 213.609,10.483 213.353,10.362 C213.098,10.241 212.905,10.072 212.775,9.855 C212.645,9.639 212.563,9.383 212.528,9.088 C212.494,8.794 212.476,8.477 212.476,8.139 L212.476,4.317 C212.476,4.144 212.559,4.057 212.725,4.057 L213.683,4.057 C213.84,4.057 213.919,4.144 213.919,4.317 L213.919,7.97 C213.919,8.17 213.932,8.347 213.958,8.503 C213.984,8.659 214.031,8.791 214.1,8.9 C214.169,9.008 214.264,9.093 214.384,9.153 C214.505,9.214 214.666,9.244 214.864,9.244 C215.001,9.244 215.155,9.223 215.323,9.179 C215.491,9.136 215.657,9.082 215.821,9.017 C215.985,8.952 216.135,8.887 216.274,8.822 C216.412,8.757 216.524,8.703 216.61,8.659 L216.61,4.317 C216.61,4.239 216.627,4.176 216.662,4.129 C216.697,4.081 216.761,4.057 216.857,4.057 L217.78,4.057 C217.945,4.057 218.027,4.144 218.027,4.317 L218.027,10.18 C218.027,10.345 217.945,10.427 217.78,10.427" id="Fill-40" fill="#1A1919"></path>
                <path d="M49.405,15.595 L49.655,15.595" id="Stroke-41" stroke="#1A1919" stroke-width="0.5"></path>
                <path d="M50.156,15.595 L51.909,15.595" id="Stroke-42" stroke="#1A1919" stroke-width="0.5" stroke-dasharray="0.501,0.501,0.501,0.501"></path>
                <path d="M52.16,15.595 L247.239,15.595" id="Stroke-43" stroke="#1A1919" stroke-width="0.5" stroke-dasharray="0.501,0.501,0.501,0.501,0.501,0.501"></path>
                <path d="M247.489,15.595 L247.739,15.595" id="Stroke-44" stroke="#1A1919" stroke-width="0.5"></path>
                <path d="M54.711,26.853 C54.679,26.876 54.627,26.889 54.555,26.889 L50.343,26.889 C50.199,26.889 50.127,26.824 50.127,26.696 L50.127,19.137 C50.127,19.001 50.199,18.933 50.343,18.933 L54.483,18.933 C54.619,18.933 54.687,18.996 54.687,19.124 L54.687,19.593 C54.687,19.728 54.615,19.797 54.471,19.797 L51.063,19.797 L51.063,22.328 L54.123,22.328 C54.259,22.328 54.327,22.393 54.327,22.52 L54.327,22.988 C54.327,23.116 54.259,23.181 54.123,23.181 L51.063,23.181 L51.063,26.036 L54.567,26.036 C54.695,26.036 54.759,26.104 54.759,26.24 L54.759,26.696 C54.759,26.776 54.743,26.828 54.711,26.853" id="Fill-45" fill="#1A1919"></path>
                <path d="M60.579,26.899 L60.087,26.899 C59.943,26.899 59.871,26.832 59.871,26.695 L59.871,26.275 L59.847,26.252 C59.751,26.314 59.625,26.39 59.469,26.477 C59.313,26.562 59.143,26.645 58.959,26.725 C58.775,26.804 58.579,26.871 58.371,26.926 C58.163,26.98 57.951,27.009 57.735,27.009 C57.343,27.009 57.031,26.952 56.799,26.841 C56.567,26.729 56.389,26.574 56.265,26.379 C56.141,26.183 56.061,25.948 56.025,25.677 C55.989,25.404 55.971,25.108 55.971,24.788 L55.971,21.248 C55.971,21.112 56.038,21.044 56.172,21.044 L56.681,21.044 C56.808,21.044 56.871,21.112 56.871,21.249 L56.871,24.81 C56.871,25.09 56.887,25.318 56.919,25.495 C56.951,25.671 57.005,25.812 57.082,25.916 C57.158,26.021 57.26,26.093 57.389,26.133 C57.517,26.173 57.674,26.192 57.859,26.192 C58.003,26.192 58.172,26.164 58.365,26.108 C58.558,26.052 58.751,25.988 58.943,25.916 C59.136,25.844 59.316,25.768 59.485,25.687 C59.654,25.607 59.787,25.543 59.883,25.495 L59.883,21.249 C59.883,21.112 59.951,21.044 60.087,21.044 L60.579,21.044 C60.715,21.044 60.783,21.112 60.783,21.249 L60.783,26.695 C60.783,26.832 60.715,26.899 60.579,26.899" id="Fill-46" fill="#1A1919"></path>
                <path d="M65.223,21.872 C65.063,21.904 64.887,21.946 64.695,21.998 C64.503,22.051 64.317,22.103 64.137,22.154 C63.957,22.207 63.79,22.259 63.639,22.311 C63.487,22.362 63.375,22.408 63.303,22.448 L63.303,26.685 C63.303,26.82 63.236,26.889 63.102,26.889 L62.592,26.889 C62.466,26.889 62.403,26.82 62.403,26.685 L62.403,21.248 C62.403,21.112 62.466,21.044 62.592,21.044 L63.09,21.044 C63.232,21.044 63.303,21.112 63.303,21.248 L63.303,21.74 L63.327,21.765 C63.407,21.7 63.517,21.631 63.657,21.555 C63.797,21.479 63.951,21.402 64.119,21.326 C64.287,21.251 64.459,21.183 64.635,21.122 C64.811,21.062 64.975,21.017 65.127,20.984 C65.199,20.969 65.247,20.971 65.271,20.99 C65.295,21.011 65.315,21.057 65.331,21.129 L65.379,21.633 C65.403,21.776 65.351,21.856 65.223,21.872" id="Fill-47" fill="#1A1919"></path>
                <path d="M69.927,23.942 C69.927,23.573 69.907,23.251 69.867,22.974 C69.827,22.697 69.749,22.469 69.633,22.288 C69.517,22.107 69.357,21.971 69.153,21.879 C68.949,21.786 68.683,21.74 68.355,21.74 C68.043,21.74 67.791,21.786 67.599,21.879 C67.407,21.971 67.255,22.109 67.143,22.294 C67.031,22.479 66.955,22.707 66.915,22.979 C66.875,23.253 66.855,23.573 66.855,23.942 C66.855,24.312 66.875,24.633 66.915,24.905 C66.955,25.178 67.031,25.406 67.143,25.591 C67.255,25.775 67.407,25.914 67.599,26.006 C67.791,26.099 68.043,26.144 68.355,26.144 C68.683,26.144 68.949,26.101 69.153,26.012 C69.357,25.924 69.517,25.789 69.633,25.609 C69.749,25.429 69.827,25.2 69.867,24.923 C69.907,24.646 69.927,24.319 69.927,23.942 Z M70.863,23.864 C70.863,24.217 70.843,24.576 70.803,24.944 C70.763,25.312 70.661,25.648 70.497,25.952 C70.333,26.257 70.083,26.505 69.747,26.696 C69.411,26.889 68.947,26.984 68.355,26.984 C67.779,26.984 67.329,26.889 67.005,26.696 C66.681,26.505 66.439,26.259 66.279,25.958 C66.119,25.658 66.021,25.322 65.985,24.95 C65.949,24.578 65.931,24.217 65.931,23.864 C65.931,23.576 65.955,23.261 66.003,22.916 C66.051,22.572 66.157,22.253 66.321,21.956 C66.485,21.66 66.727,21.415 67.047,21.219 C67.367,21.022 67.803,20.925 68.355,20.925 C68.907,20.925 69.349,21.011 69.681,21.183 C70.013,21.354 70.267,21.578 70.443,21.854 C70.619,22.131 70.733,22.444 70.785,22.797 C70.837,23.148 70.863,23.505 70.863,23.864 L70.863,23.864 Z" id="Fill-48" fill="#1A1919"></path>
                <path d="M75.962,23.942 C75.962,23.573 75.942,23.251 75.902,22.974 C75.862,22.697 75.785,22.469 75.668,22.288 C75.552,22.107 75.393,21.971 75.188,21.879 C74.984,21.786 74.718,21.74 74.391,21.74 C74.079,21.74 73.827,21.786 73.635,21.879 C73.442,21.971 73.29,22.109 73.179,22.294 C73.066,22.479 72.991,22.707 72.951,22.979 C72.911,23.253 72.891,23.573 72.891,23.942 C72.891,24.312 72.911,24.633 72.951,24.905 C72.991,25.178 73.066,25.406 73.179,25.591 C73.29,25.775 73.442,25.914 73.635,26.006 C73.827,26.099 74.079,26.144 74.391,26.144 C74.718,26.144 74.984,26.101 75.188,26.012 C75.393,25.924 75.552,25.789 75.668,25.609 C75.785,25.429 75.862,25.2 75.902,24.923 C75.942,24.646 75.962,24.319 75.962,23.942 Z M76.898,23.864 C76.898,24.217 76.878,24.576 76.838,24.944 C76.798,25.312 76.696,25.648 76.533,25.952 C76.369,26.257 76.119,26.505 75.783,26.696 C75.447,26.889 74.982,26.984 74.391,26.984 C73.814,26.984 73.365,26.889 73.04,26.696 C72.716,26.505 72.475,26.259 72.314,25.958 C72.154,25.658 72.057,25.322 72.021,24.95 C71.984,24.578 71.966,24.217 71.966,23.864 C71.966,23.576 71.991,23.261 72.039,22.916 C72.086,22.572 72.192,22.253 72.356,21.956 C72.52,21.66 72.763,21.415 73.082,21.219 C73.402,21.022 73.838,20.925 74.391,20.925 C74.942,20.925 75.384,21.011 75.716,21.183 C76.048,21.354 76.302,21.578 76.479,21.854 C76.654,22.131 76.769,22.444 76.82,22.797 C76.873,23.148 76.898,23.505 76.898,23.864 L76.898,23.864 Z" id="Fill-49" fill="#1A1919"></path>
                <path d="M82.095,23.876 C82.095,23.418 82.073,23.05 82.028,22.772 C81.984,22.494 81.916,22.279 81.824,22.127 C81.731,21.974 81.617,21.873 81.48,21.825 C81.344,21.776 81.183,21.752 80.998,21.752 C80.854,21.752 80.687,21.776 80.498,21.825 C80.31,21.873 80.123,21.934 79.938,22.006 C79.753,22.078 79.579,22.154 79.414,22.235 C79.249,22.315 79.115,22.384 79.011,22.44 L79.011,25.915 C79.348,26.012 79.657,26.08 79.938,26.12 C80.219,26.16 80.488,26.181 80.746,26.181 C81.002,26.181 81.217,26.143 81.39,26.065 C81.562,25.989 81.701,25.86 81.806,25.68 C81.91,25.499 81.984,25.262 82.028,24.968 C82.073,24.674 82.095,24.311 82.095,23.876 Z M83.042,23.912 C83.042,24.408 83.006,24.849 82.934,25.232 C82.862,25.616 82.736,25.938 82.555,26.198 C82.374,26.458 82.134,26.656 81.833,26.792 C81.532,26.929 81.149,26.996 80.684,26.996 C80.459,26.996 80.206,26.973 79.925,26.926 C79.645,26.878 79.344,26.791 79.022,26.665 L79.011,26.677 L79.011,28.772 C79.011,28.853 78.997,28.91 78.969,28.946 C78.941,28.982 78.884,29 78.797,29 L78.312,29 C78.225,29 78.17,28.984 78.146,28.952 C78.123,28.92 78.111,28.86 78.111,28.772 L78.111,21.248 C78.111,21.112 78.178,21.044 78.312,21.044 L78.797,21.044 C78.932,21.044 78.998,21.111 78.998,21.245 L78.998,21.67 L79.035,21.693 C79.123,21.639 79.241,21.567 79.39,21.48 C79.538,21.394 79.705,21.312 79.889,21.232 C80.074,21.153 80.268,21.084 80.473,21.025 C80.678,20.966 80.88,20.937 81.081,20.937 C81.458,20.937 81.773,21.002 82.026,21.135 C82.278,21.267 82.479,21.458 82.627,21.71 C82.776,21.963 82.882,22.272 82.946,22.641 C83.01,23.009 83.042,23.433 83.042,23.912 L83.042,23.912 Z" id="Fill-50" fill="#1A1919"></path>
                <path d="M87.842,24.068 L86.078,24.068 C85.71,24.068 85.418,24.152 85.202,24.32 C84.986,24.488 84.878,24.812 84.878,25.292 C84.878,25.629 84.944,25.856 85.076,25.977 C85.209,26.097 85.45,26.156 85.802,26.156 C85.954,26.156 86.12,26.137 86.3,26.097 C86.48,26.057 86.662,26.003 86.846,25.935 C87.03,25.866 87.208,25.793 87.38,25.713 C87.552,25.633 87.706,25.553 87.842,25.473 L87.842,24.068 Z M87.83,26.24 C87.534,26.416 87.204,26.585 86.84,26.744 C86.476,26.904 86.054,26.984 85.574,26.984 C84.99,26.984 84.574,26.845 84.326,26.564 C84.078,26.284 83.954,25.872 83.954,25.328 C83.954,24.648 84.126,24.143 84.47,23.811 C84.814,23.478 85.386,23.312 86.186,23.312 L87.842,23.312 L87.842,22.904 C87.842,22.465 87.74,22.16 87.536,21.992 C87.332,21.824 86.966,21.74 86.438,21.74 C86.326,21.74 86.2,21.742 86.06,21.746 C85.92,21.751 85.774,21.759 85.622,21.77 C85.47,21.782 85.318,21.794 85.166,21.807 C85.014,21.818 84.874,21.832 84.746,21.849 C84.61,21.872 84.53,21.837 84.506,21.74 L84.434,21.429 C84.418,21.372 84.424,21.324 84.452,21.284 C84.48,21.244 84.538,21.204 84.627,21.164 C84.746,21.124 84.89,21.089 85.058,21.057 C85.226,21.024 85.402,20.998 85.586,20.979 C85.77,20.959 85.952,20.944 86.132,20.937 C86.312,20.929 86.474,20.925 86.618,20.925 C87.098,20.925 87.479,20.977 87.762,21.08 C88.044,21.185 88.259,21.328 88.405,21.513 C88.551,21.696 88.643,21.921 88.683,22.185 C88.722,22.448 88.742,22.74 88.742,23.061 L88.742,25.713 C88.742,25.832 88.748,25.925 88.76,25.988 C88.772,26.053 88.792,26.101 88.82,26.133 C88.848,26.164 88.89,26.187 88.946,26.198 C89.002,26.21 89.078,26.221 89.174,26.229 C89.31,26.236 89.378,26.288 89.378,26.385 L89.378,26.685 C89.378,26.74 89.362,26.786 89.33,26.822 C89.298,26.858 89.234,26.885 89.138,26.9 C88.994,26.925 88.854,26.937 88.718,26.937 C88.442,26.937 88.239,26.885 88.108,26.78 C87.978,26.677 87.893,26.496 87.854,26.24 L87.83,26.24 L87.83,26.24 Z" id="Fill-51" fill="#1A1919"></path>
                <path d="M97.982,17.792 C97.982,17.936 97.952,18.059 97.892,18.159 C97.832,18.259 97.698,18.309 97.49,18.309 C97.266,18.309 97.128,18.257 97.076,18.153 C97.024,18.049 96.998,17.929 96.998,17.792 C96.998,17.657 97.028,17.541 97.088,17.445 C97.148,17.349 97.282,17.301 97.49,17.301 C97.698,17.301 97.832,17.345 97.892,17.433 C97.952,17.521 97.982,17.641 97.982,17.792 Z M95.918,17.792 C95.918,17.936 95.888,18.059 95.828,18.159 C95.768,18.259 95.634,18.309 95.426,18.309 C95.202,18.309 95.064,18.257 95.012,18.153 C94.96,18.049 94.934,17.929 94.934,17.792 C94.934,17.657 94.964,17.541 95.024,17.445 C95.084,17.349 95.218,17.301 95.426,17.301 C95.634,17.301 95.768,17.345 95.828,17.433 C95.888,17.521 95.918,17.641 95.918,17.792 Z M96.482,26.12 C97.098,26.12 97.57,25.952 97.898,25.616 C98.226,25.28 98.39,24.757 98.39,24.044 L98.39,19.148 C98.39,19.061 98.408,19.003 98.443,18.975 C98.479,18.946 98.532,18.933 98.603,18.933 L99.112,18.933 C99.175,18.933 99.223,18.946 99.254,18.975 C99.286,19.003 99.302,19.061 99.302,19.148 L99.29,24.009 C99.29,24.265 99.278,24.507 99.254,24.734 C99.23,24.963 99.174,25.188 99.086,25.412 C98.855,25.973 98.51,26.372 98.051,26.612 C97.592,26.853 97.066,26.973 96.476,26.973 C95.127,26.973 94.265,26.461 93.89,25.437 C93.802,25.221 93.742,24.994 93.71,24.759 C93.678,24.522 93.662,24.272 93.662,24.009 L93.662,19.148 C93.662,19.061 93.678,19.003 93.71,18.975 C93.742,18.946 93.794,18.933 93.866,18.933 L94.394,18.933 C94.458,18.933 94.508,18.946 94.544,18.975 C94.58,19.003 94.598,19.061 94.598,19.148 L94.598,24.044 C94.598,24.717 94.754,25.23 95.066,25.587 C95.378,25.942 95.85,26.12 96.482,26.12 L96.482,26.12 Z" id="Fill-52" fill="#1A1919"></path>
                <path d="M105.35,26.889 L104.846,26.889 C104.709,26.889 104.642,26.82 104.642,26.684 L104.654,23.016 C104.654,22.759 104.638,22.549 104.605,22.384 C104.574,22.22 104.52,22.09 104.444,21.993 C104.368,21.896 104.268,21.831 104.144,21.795 C104.02,21.759 103.866,21.74 103.682,21.74 C103.538,21.74 103.37,21.769 103.178,21.824 C102.986,21.881 102.793,21.945 102.602,22.018 C102.41,22.09 102.229,22.164 102.062,22.239 C101.894,22.315 101.766,22.378 101.678,22.426 L101.678,26.684 C101.678,26.82 101.605,26.889 101.462,26.889 L100.97,26.889 C100.842,26.889 100.778,26.82 100.778,26.685 L100.778,18.633 C100.778,18.497 100.842,18.429 100.97,18.429 L101.462,18.429 C101.605,18.429 101.678,18.497 101.678,18.632 L101.678,21.669 L101.689,21.682 C101.786,21.618 101.912,21.543 102.068,21.457 C102.224,21.37 102.396,21.287 102.583,21.208 C102.771,21.13 102.972,21.062 103.184,21.007 C103.396,20.952 103.61,20.925 103.826,20.925 C104.218,20.925 104.528,20.98 104.756,21.093 C104.984,21.204 105.158,21.358 105.278,21.555 C105.397,21.751 105.476,21.984 105.512,22.257 C105.548,22.528 105.566,22.824 105.566,23.144 L105.566,26.685 C105.566,26.82 105.494,26.889 105.35,26.889" id="Fill-53" fill="#1A1919"></path>
                <path d="M110.702,23.505 C110.702,23.297 110.684,23.087 110.648,22.874 C110.612,22.662 110.541,22.473 110.437,22.305 C110.333,22.137 110.186,22.001 109.994,21.896 C109.802,21.793 109.545,21.74 109.226,21.74 C108.962,21.74 108.74,21.782 108.56,21.866 C108.38,21.95 108.234,22.068 108.122,22.221 C108.01,22.372 107.926,22.557 107.87,22.772 C107.813,22.988 107.778,23.232 107.762,23.505 L110.702,23.505 Z M111.674,23.576 C111.682,23.769 111.651,23.931 111.583,24.062 C111.516,24.194 111.37,24.261 111.146,24.261 L107.762,24.261 C107.77,24.62 107.802,24.923 107.858,25.166 C107.914,25.41 108.006,25.606 108.134,25.755 C108.262,25.902 108.424,26.007 108.62,26.066 C108.815,26.126 109.054,26.156 109.333,26.156 C109.454,26.156 109.59,26.15 109.742,26.139 C109.894,26.126 110.046,26.114 110.198,26.103 C110.35,26.091 110.496,26.076 110.636,26.061 C110.775,26.045 110.897,26.028 111.002,26.013 C111.082,26.005 111.144,26.009 111.187,26.024 C111.231,26.041 111.262,26.089 111.278,26.168 L111.326,26.433 C111.35,26.545 111.306,26.624 111.194,26.673 C111.082,26.721 110.946,26.765 110.786,26.805 C110.625,26.845 110.458,26.879 110.282,26.906 C110.105,26.935 109.93,26.956 109.754,26.973 C109.578,26.988 109.417,26.996 109.274,26.996 C108.722,26.996 108.284,26.91 107.96,26.738 C107.636,26.566 107.39,26.341 107.222,26.061 C107.054,25.78 106.944,25.459 106.892,25.095 C106.839,24.73 106.813,24.356 106.813,23.973 C106.813,23.685 106.838,23.362 106.886,23.007 C106.934,22.65 107.041,22.318 107.21,22.011 C107.378,21.702 107.622,21.444 107.942,21.236 C108.262,21.028 108.698,20.925 109.25,20.925 C109.762,20.925 110.174,21.001 110.486,21.152 C110.798,21.305 111.04,21.505 111.212,21.752 C111.384,22.001 111.5,22.284 111.56,22.604 C111.62,22.925 111.658,23.248 111.674,23.576 L111.674,23.576 Z" id="Fill-54" fill="#1A1919"></path>
                <path d="M117.338,26.889 L116.834,26.889 C116.698,26.889 116.63,26.82 116.63,26.684 L116.642,23.124 C116.642,22.851 116.626,22.624 116.594,22.444 C116.562,22.264 116.508,22.121 116.432,22.017 C116.356,21.913 116.256,21.841 116.132,21.801 C116.008,21.761 115.854,21.74 115.67,21.74 C115.526,21.74 115.358,21.769 115.166,21.824 C114.974,21.881 114.782,21.945 114.59,22.018 C114.398,22.09 114.218,22.164 114.05,22.239 C113.882,22.315 113.754,22.378 113.666,22.426 L113.666,26.684 C113.666,26.82 113.594,26.889 113.45,26.889 L112.958,26.889 C112.83,26.889 112.766,26.82 112.766,26.685 L112.766,21.248 C112.766,21.112 112.83,21.044 112.958,21.044 L113.45,21.044 C113.522,21.044 113.576,21.057 113.612,21.08 C113.648,21.104 113.666,21.158 113.666,21.245 L113.666,21.67 L113.702,21.682 C113.798,21.618 113.922,21.543 114.074,21.457 C114.226,21.37 114.396,21.287 114.584,21.208 C114.772,21.13 114.97,21.062 115.178,21.007 C115.386,20.952 115.598,20.925 115.814,20.925 C116.206,20.925 116.516,20.98 116.744,21.093 C116.972,21.204 117.146,21.358 117.266,21.555 C117.386,21.751 117.464,21.984 117.5,22.257 C117.536,22.528 117.554,22.824 117.554,23.144 L117.554,26.685 C117.554,26.82 117.482,26.889 117.338,26.889" id="Fill-55" fill="#1A1919"></path>
                <path d="M122.726,22.006 C122.398,21.909 122.092,21.841 121.808,21.801 C121.524,21.761 121.254,21.74 120.998,21.74 C120.742,21.74 120.528,21.778 120.356,21.855 C120.184,21.932 120.046,22.061 119.942,22.241 C119.838,22.422 119.764,22.659 119.72,22.953 C119.676,23.247 119.654,23.61 119.654,24.045 C119.654,24.504 119.676,24.871 119.72,25.149 C119.764,25.427 119.832,25.642 119.924,25.795 C120.016,25.947 120.13,26.048 120.266,26.096 C120.402,26.144 120.562,26.168 120.746,26.168 C120.89,26.168 121.056,26.143 121.244,26.09 C121.432,26.038 121.618,25.976 121.802,25.903 C121.986,25.83 122.162,25.756 122.33,25.68 C122.498,25.604 122.63,25.537 122.726,25.48 L122.726,22.006 Z M123.638,26.685 C123.638,26.82 123.574,26.889 123.446,26.889 L122.942,26.889 C122.878,26.889 122.828,26.877 122.792,26.853 C122.756,26.829 122.738,26.774 122.738,26.687 L122.738,26.251 L122.702,26.239 C122.614,26.295 122.496,26.365 122.348,26.452 C122.2,26.539 122.036,26.622 121.856,26.7 C121.676,26.779 121.482,26.847 121.274,26.901 C121.066,26.957 120.862,26.984 120.662,26.984 C120.286,26.984 119.972,26.918 119.72,26.786 C119.468,26.654 119.266,26.463 119.114,26.21 C118.962,25.958 118.856,25.648 118.796,25.28 C118.736,24.912 118.706,24.492 118.706,24.02 C118.706,23.517 118.742,23.072 118.814,22.688 C118.886,22.305 119.012,21.982 119.192,21.723 C119.372,21.463 119.614,21.265 119.918,21.129 C120.222,20.992 120.606,20.925 121.07,20.925 C121.286,20.925 121.532,20.948 121.808,20.995 C122.084,21.043 122.386,21.13 122.714,21.256 L122.738,21.244 L122.738,18.656 C122.738,18.577 122.75,18.519 122.774,18.483 C122.798,18.447 122.854,18.429 122.942,18.429 L123.446,18.429 C123.526,18.429 123.578,18.445 123.602,18.477 C123.626,18.509 123.638,18.569 123.638,18.657 L123.638,26.685 L123.638,26.685 Z" id="Fill-56" fill="#1A1919"></path>
                <path d="M128.726,24.068 L126.962,24.068 C126.594,24.068 126.302,24.152 126.086,24.32 C125.87,24.488 125.762,24.812 125.762,25.292 C125.762,25.629 125.828,25.856 125.96,25.977 C126.092,26.097 126.334,26.156 126.686,26.156 C126.838,26.156 127.004,26.137 127.184,26.097 C127.364,26.057 127.546,26.003 127.73,25.935 C127.914,25.866 128.092,25.793 128.264,25.713 C128.436,25.633 128.59,25.553 128.726,25.473 L128.726,24.068 Z M128.714,26.24 C128.418,26.416 128.088,26.585 127.724,26.744 C127.36,26.904 126.938,26.984 126.458,26.984 C125.874,26.984 125.458,26.845 125.21,26.564 C124.962,26.284 124.838,25.872 124.838,25.328 C124.838,24.648 125.01,24.143 125.354,23.811 C125.698,23.478 126.27,23.312 127.07,23.312 L128.726,23.312 L128.726,22.904 C128.726,22.465 128.624,22.16 128.42,21.992 C128.216,21.824 127.85,21.74 127.322,21.74 C127.21,21.74 127.084,21.742 126.944,21.746 C126.804,21.751 126.658,21.759 126.506,21.77 C126.354,21.782 126.202,21.794 126.05,21.807 C125.898,21.818 125.758,21.832 125.63,21.849 C125.494,21.872 125.414,21.837 125.39,21.74 L125.318,21.429 C125.302,21.372 125.308,21.324 125.336,21.284 C125.364,21.244 125.422,21.204 125.51,21.164 C125.63,21.124 125.774,21.089 125.942,21.057 C126.11,21.024 126.286,20.998 126.47,20.979 C126.654,20.959 126.836,20.944 127.016,20.937 C127.196,20.929 127.358,20.925 127.502,20.925 C127.982,20.925 128.363,20.977 128.646,21.08 C128.928,21.185 129.143,21.328 129.289,21.513 C129.435,21.696 129.527,21.921 129.567,22.185 C129.606,22.448 129.626,22.74 129.626,23.061 L129.626,25.713 C129.626,25.832 129.632,25.925 129.644,25.988 C129.656,26.053 129.676,26.101 129.704,26.133 C129.732,26.164 129.774,26.187 129.83,26.198 C129.886,26.21 129.962,26.221 130.058,26.229 C130.194,26.236 130.262,26.288 130.262,26.385 L130.262,26.685 C130.262,26.74 130.246,26.786 130.214,26.822 C130.182,26.858 130.118,26.885 130.022,26.9 C129.878,26.925 129.738,26.937 129.602,26.937 C129.326,26.937 129.123,26.885 128.992,26.78 C128.862,26.677 128.777,26.496 128.738,26.24 L128.714,26.24 L128.714,26.24 Z" id="Fill-57" fill="#1A1919"></path>
                <path d="M139.289,26.889 L138.792,26.889 C138.657,26.889 138.59,26.82 138.59,26.684 L138.59,23.063 C138.59,22.815 138.576,22.606 138.548,22.438 C138.52,22.27 138.469,22.134 138.397,22.029 C138.325,21.925 138.229,21.851 138.108,21.807 C137.987,21.763 137.835,21.74 137.65,21.74 C137.505,21.74 137.347,21.767 137.174,21.818 C137.001,21.871 136.826,21.933 136.65,22.005 C136.473,22.077 136.304,22.153 136.144,22.233 C135.983,22.314 135.85,22.382 135.746,22.438 C135.754,22.486 135.76,22.566 135.764,22.679 C135.768,22.791 135.77,22.928 135.77,23.088 L135.77,26.684 C135.77,26.82 135.703,26.889 135.569,26.889 L135.047,26.889 C134.929,26.889 134.87,26.82 134.87,26.684 L134.882,22.979 C134.882,22.587 134.822,22.282 134.702,22.065 C134.582,21.849 134.338,21.74 133.97,21.74 C133.834,21.74 133.686,21.763 133.526,21.807 C133.366,21.851 133.2,21.907 133.028,21.975 C132.856,22.043 132.686,22.117 132.518,22.197 C132.35,22.277 132.198,22.353 132.062,22.426 L132.062,26.684 C132.062,26.82 131.994,26.889 131.858,26.889 L131.354,26.889 C131.226,26.889 131.162,26.82 131.162,26.685 L131.162,21.248 C131.162,21.112 131.226,21.044 131.354,21.044 L131.846,21.044 C131.99,21.044 132.062,21.111 132.062,21.245 L132.062,21.657 L132.073,21.657 C132.192,21.587 132.326,21.508 132.474,21.421 C132.622,21.335 132.782,21.254 132.954,21.179 C133.125,21.104 133.303,21.043 133.487,20.995 C133.67,20.948 133.858,20.925 134.05,20.925 C134.489,20.925 134.831,20.998 135.074,21.146 C135.318,21.295 135.492,21.509 135.596,21.788 C135.907,21.572 136.245,21.374 136.608,21.194 C136.972,21.015 137.357,20.925 137.765,20.925 C138.14,20.925 138.441,20.977 138.669,21.08 C138.897,21.185 139.071,21.33 139.19,21.519 C139.31,21.706 139.39,21.933 139.43,22.196 C139.47,22.46 139.49,22.753 139.49,23.072 L139.49,26.685 C139.49,26.82 139.423,26.889 139.289,26.889" id="Fill-58" fill="#1A1919"></path>
                <path d="M141.986,26.685 C141.986,26.82 141.921,26.889 141.794,26.889 L141.302,26.889 C141.158,26.889 141.086,26.82 141.086,26.685 L141.086,21.248 C141.086,21.16 141.104,21.104 141.14,21.08 C141.176,21.057 141.23,21.044 141.302,21.044 L141.794,21.044 C141.921,21.044 141.986,21.112 141.986,21.248 L141.986,26.685 Z M142.058,19.484 C142.058,19.637 142.028,19.765 141.968,19.868 C141.908,19.973 141.766,20.024 141.542,20.024 C141.31,20.024 141.166,19.971 141.11,19.862 C141.054,19.755 141.026,19.629 141.026,19.484 C141.026,19.333 141.06,19.208 141.128,19.112 C141.196,19.017 141.333,18.969 141.542,18.969 C141.758,18.969 141.897,19.015 141.962,19.106 C142.026,19.198 142.058,19.324 142.058,19.484 L142.058,19.484 Z" id="Fill-59" fill="#1A1919"></path>
                <path d="M147.614,25.208 C147.614,25.544 147.551,25.824 147.428,26.049 C147.303,26.272 147.135,26.454 146.923,26.595 C146.711,26.734 146.472,26.834 146.204,26.894 C145.936,26.954 145.658,26.984 145.37,26.984 C145.217,26.984 145.058,26.98 144.89,26.973 C144.722,26.964 144.555,26.948 144.392,26.924 C144.228,26.899 144.071,26.869 143.923,26.832 C143.775,26.796 143.646,26.753 143.534,26.704 C143.43,26.655 143.385,26.57 143.401,26.448 L143.45,26.192 C143.465,26.112 143.496,26.064 143.54,26.049 C143.583,26.032 143.642,26.028 143.713,26.036 C143.833,26.053 143.972,26.068 144.127,26.084 C144.284,26.101 144.439,26.114 144.596,26.126 C144.751,26.139 144.899,26.148 145.04,26.156 C145.179,26.164 145.301,26.168 145.406,26.168 C145.854,26.168 146.175,26.099 146.372,25.959 C146.567,25.819 146.666,25.598 146.666,25.295 C146.666,25.119 146.649,24.974 146.618,24.857 C146.585,24.742 146.525,24.648 146.438,24.576 C146.35,24.504 146.229,24.448 146.078,24.408 C145.925,24.368 145.729,24.329 145.49,24.289 C145.217,24.249 144.956,24.197 144.704,24.133 C144.452,24.069 144.229,23.978 144.038,23.857 C143.846,23.738 143.691,23.582 143.576,23.391 C143.459,23.199 143.401,22.947 143.401,22.637 C143.401,22.078 143.589,21.653 143.965,21.361 C144.341,21.07 144.854,20.925 145.501,20.925 C145.622,20.925 145.757,20.929 145.91,20.937 C146.062,20.944 146.219,20.959 146.383,20.979 C146.547,20.998 146.709,21.026 146.87,21.062 C147.029,21.099 147.173,21.141 147.302,21.188 C147.414,21.244 147.454,21.328 147.421,21.44 L147.374,21.729 C147.357,21.793 147.323,21.832 147.271,21.849 C147.219,21.864 147.149,21.868 147.062,21.86 C146.813,21.837 146.553,21.811 146.282,21.782 C146.009,21.755 145.746,21.74 145.49,21.74 C145.042,21.74 144.737,21.809 144.578,21.944 C144.417,22.08 144.337,22.305 144.337,22.616 C144.337,22.769 144.357,22.889 144.397,22.977 C144.438,23.064 144.503,23.137 144.596,23.192 C144.688,23.248 144.813,23.294 144.974,23.33 C145.133,23.366 145.333,23.404 145.574,23.444 C145.837,23.484 146.093,23.534 146.341,23.595 C146.589,23.654 146.808,23.749 146.996,23.876 C147.184,24.005 147.333,24.173 147.445,24.381 C147.558,24.589 147.614,24.864 147.614,25.208" id="Fill-60" fill="#1A1919"></path>
                <path d="M152.545,23.505 C152.545,23.297 152.527,23.087 152.492,22.874 C152.456,22.662 152.385,22.473 152.281,22.305 C152.177,22.137 152.029,22.001 151.837,21.896 C151.646,21.793 151.389,21.74 151.069,21.74 C150.806,21.74 150.583,21.782 150.403,21.866 C150.224,21.95 150.078,22.068 149.965,22.221 C149.854,22.372 149.77,22.557 149.713,22.772 C149.657,22.988 149.622,23.232 149.605,23.505 L152.545,23.505 Z M153.518,23.576 C153.525,23.769 153.495,23.931 153.427,24.062 C153.359,24.194 153.213,24.261 152.989,24.261 L149.605,24.261 C149.613,24.62 149.646,24.923 149.702,25.166 C149.757,25.41 149.85,25.606 149.978,25.755 C150.105,25.902 150.268,26.007 150.463,26.066 C150.659,26.126 150.897,26.156 151.177,26.156 C151.297,26.156 151.434,26.15 151.585,26.139 C151.737,26.126 151.89,26.114 152.042,26.103 C152.193,26.091 152.339,26.076 152.479,26.061 C152.619,26.045 152.741,26.028 152.846,26.013 C152.925,26.005 152.987,26.009 153.031,26.024 C153.075,26.041 153.105,26.089 153.122,26.168 L153.169,26.433 C153.193,26.545 153.149,26.624 153.038,26.673 C152.925,26.721 152.79,26.765 152.629,26.805 C152.469,26.845 152.301,26.879 152.125,26.906 C151.949,26.935 151.773,26.956 151.598,26.973 C151.421,26.988 151.261,26.996 151.118,26.996 C150.565,26.996 150.127,26.91 149.804,26.738 C149.479,26.566 149.233,26.341 149.065,26.061 C148.897,25.78 148.788,25.459 148.735,25.095 C148.683,24.73 148.657,24.356 148.657,23.973 C148.657,23.685 148.682,23.362 148.729,23.007 C148.777,22.65 148.885,22.318 149.054,22.011 C149.222,21.702 149.465,21.444 149.786,21.236 C150.105,21.028 150.542,20.925 151.093,20.925 C151.605,20.925 152.018,21.001 152.33,21.152 C152.642,21.305 152.883,21.505 153.056,21.752 C153.228,22.001 153.343,22.284 153.403,22.604 C153.463,22.925 153.501,23.248 153.518,23.576 L153.518,23.576 Z" id="Fill-61" fill="#1A1919"></path>
                <path d="M162.013,21.182 C162.013,20.901 161.969,20.67 161.881,20.489 C161.793,20.309 161.675,20.168 161.528,20.067 C161.379,19.967 161.211,19.896 161.023,19.856 C160.835,19.816 160.641,19.797 160.441,19.797 L158.941,19.797 L158.941,22.725 L160.417,22.725 C160.593,22.725 160.775,22.706 160.963,22.67 C161.151,22.634 161.324,22.561 161.479,22.453 C161.635,22.345 161.763,22.188 161.864,21.983 C161.963,21.778 162.013,21.512 162.013,21.182 Z M163.105,26.685 C163.129,26.74 163.131,26.788 163.112,26.828 C163.091,26.868 163.053,26.889 162.998,26.889 L162.313,26.889 C162.25,26.889 162.198,26.879 162.158,26.858 C162.118,26.839 162.082,26.797 162.049,26.732 L160.513,23.54 L158.941,23.54 L158.941,26.673 C158.941,26.816 158.874,26.889 158.738,26.889 L158.221,26.889 C158.085,26.889 158.018,26.82 158.018,26.685 L158.018,19.124 C158.018,18.996 158.085,18.933 158.221,18.933 L160.669,18.933 C160.965,18.933 161.253,18.975 161.534,19.059 C161.813,19.143 162.061,19.274 162.278,19.454 C162.494,19.635 162.666,19.868 162.793,20.156 C162.921,20.444 162.986,20.788 162.986,21.188 C162.986,21.412 162.958,21.639 162.902,21.866 C162.845,22.095 162.757,22.309 162.637,22.509 C162.517,22.708 162.359,22.887 162.164,23.042 C161.967,23.198 161.733,23.32 161.461,23.408 L163.105,26.685 L163.105,26.685 Z" id="Fill-62" fill="#1A1919"></path>
                <path d="M167.941,24.068 L166.177,24.068 C165.809,24.068 165.517,24.152 165.301,24.32 C165.084,24.488 164.977,24.812 164.977,25.292 C164.977,25.629 165.042,25.856 165.175,25.977 C165.307,26.097 165.548,26.156 165.901,26.156 C166.053,26.156 166.219,26.137 166.399,26.097 C166.579,26.057 166.761,26.003 166.945,25.935 C167.128,25.866 167.307,25.793 167.479,25.713 C167.651,25.633 167.805,25.553 167.941,25.473 L167.941,24.068 Z M167.929,26.24 C167.633,26.416 167.303,26.585 166.939,26.744 C166.575,26.904 166.153,26.984 165.673,26.984 C165.088,26.984 164.672,26.845 164.425,26.564 C164.177,26.284 164.053,25.872 164.053,25.328 C164.053,24.648 164.225,24.143 164.569,23.811 C164.913,23.478 165.485,23.312 166.285,23.312 L167.941,23.312 L167.941,22.904 C167.941,22.465 167.839,22.16 167.635,21.992 C167.431,21.824 167.065,21.74 166.537,21.74 C166.424,21.74 166.298,21.742 166.159,21.746 C166.019,21.751 165.873,21.759 165.721,21.77 C165.569,21.782 165.417,21.794 165.265,21.807 C165.113,21.818 164.973,21.832 164.845,21.849 C164.708,21.872 164.628,21.837 164.605,21.74 L164.533,21.429 C164.517,21.372 164.523,21.324 164.551,21.284 C164.579,21.244 164.637,21.204 164.725,21.164 C164.845,21.124 164.989,21.089 165.157,21.057 C165.325,21.024 165.5,20.998 165.685,20.979 C165.869,20.959 166.051,20.944 166.231,20.937 C166.411,20.929 166.573,20.925 166.717,20.925 C167.197,20.925 167.578,20.977 167.861,21.08 C168.143,21.185 168.357,21.328 168.503,21.513 C168.649,21.696 168.742,21.921 168.782,22.185 C168.821,22.448 168.841,22.74 168.841,23.061 L168.841,25.713 C168.841,25.832 168.847,25.925 168.859,25.988 C168.871,26.053 168.891,26.101 168.918,26.133 C168.947,26.164 168.989,26.187 169.044,26.198 C169.101,26.21 169.177,26.221 169.273,26.229 C169.409,26.236 169.477,26.288 169.477,26.385 L169.477,26.685 C169.477,26.74 169.46,26.786 169.429,26.822 C169.397,26.858 169.333,26.885 169.237,26.9 C169.093,26.925 168.953,26.937 168.817,26.937 C168.541,26.937 168.337,26.885 168.208,26.78 C168.077,26.677 167.992,26.496 167.953,26.24 L167.929,26.24 L167.929,26.24 Z" id="Fill-63" fill="#1A1919"></path>
                <path d="M174.925,26.889 L174.42,26.889 C174.285,26.889 174.217,26.82 174.217,26.684 L174.229,23.016 C174.229,22.759 174.212,22.549 174.181,22.384 C174.149,22.22 174.095,22.09 174.019,21.993 C173.943,21.896 173.843,21.831 173.719,21.795 C173.595,21.759 173.441,21.74 173.257,21.74 C173.113,21.74 172.945,21.769 172.752,21.824 C172.561,21.881 172.369,21.945 172.177,22.018 C171.985,22.09 171.805,22.164 171.637,22.239 C171.469,22.315 171.34,22.378 171.252,22.426 L171.252,26.684 C171.252,26.82 171.181,26.889 171.037,26.889 L170.544,26.889 C170.417,26.889 170.353,26.82 170.353,26.685 L170.353,18.633 C170.353,18.497 170.417,18.429 170.544,18.429 L171.037,18.429 C171.181,18.429 171.252,18.497 171.252,18.632 L171.252,21.669 L171.265,21.682 C171.361,21.618 171.487,21.543 171.643,21.457 C171.799,21.37 171.971,21.287 172.159,21.208 C172.347,21.13 172.546,21.062 172.759,21.007 C172.971,20.952 173.185,20.925 173.401,20.925 C173.792,20.925 174.103,20.98 174.331,21.093 C174.559,21.204 174.733,21.358 174.853,21.555 C174.973,21.751 175.051,21.984 175.086,22.257 C175.123,22.528 175.141,22.824 175.141,23.144 L175.141,26.685 C175.141,26.82 175.069,26.889 174.925,26.889" id="Fill-64" fill="#1A1919"></path>
                <path d="M180.252,24.068 L178.489,24.068 C178.121,24.068 177.829,24.152 177.613,24.32 C177.396,24.488 177.289,24.812 177.289,25.292 C177.289,25.629 177.354,25.856 177.487,25.977 C177.619,26.097 177.86,26.156 178.212,26.156 C178.365,26.156 178.531,26.137 178.71,26.097 C178.89,26.057 179.073,26.003 179.256,25.935 C179.44,25.866 179.619,25.793 179.791,25.713 C179.962,25.633 180.117,25.553 180.252,25.473 L180.252,24.068 Z M180.241,26.24 C179.945,26.416 179.615,26.585 179.25,26.744 C178.886,26.904 178.464,26.984 177.985,26.984 C177.4,26.984 176.984,26.845 176.737,26.564 C176.489,26.284 176.365,25.872 176.365,25.328 C176.365,24.648 176.537,24.143 176.88,23.811 C177.224,23.478 177.796,23.312 178.596,23.312 L180.252,23.312 L180.252,22.904 C180.252,22.465 180.151,22.16 179.947,21.992 C179.743,21.824 179.376,21.74 178.848,21.74 C178.736,21.74 178.61,21.742 178.47,21.746 C178.331,21.751 178.184,21.759 178.033,21.77 C177.88,21.782 177.728,21.794 177.577,21.807 C177.424,21.818 177.285,21.832 177.157,21.849 C177.02,21.872 176.94,21.837 176.917,21.74 L176.844,21.429 C176.829,21.372 176.834,21.324 176.863,21.284 C176.89,21.244 176.949,21.204 177.037,21.164 C177.157,21.124 177.3,21.089 177.468,21.057 C177.636,21.024 177.812,20.998 177.997,20.979 C178.18,20.959 178.363,20.944 178.542,20.937 C178.722,20.929 178.884,20.925 179.029,20.925 C179.508,20.925 179.889,20.977 180.172,21.08 C180.455,21.185 180.668,21.328 180.815,21.513 C180.96,21.696 181.053,21.921 181.093,22.185 C181.132,22.448 181.153,22.74 181.153,23.061 L181.153,25.713 C181.153,25.832 181.159,25.925 181.17,25.988 C181.182,26.053 181.203,26.101 181.23,26.133 C181.258,26.164 181.3,26.187 181.356,26.198 C181.413,26.21 181.489,26.221 181.584,26.229 C181.72,26.236 181.789,26.288 181.789,26.385 L181.789,26.685 C181.789,26.74 181.772,26.786 181.741,26.822 C181.708,26.858 181.644,26.885 181.548,26.9 C181.405,26.925 181.264,26.937 181.128,26.937 C180.852,26.937 180.649,26.885 180.519,26.78 C180.388,26.677 180.303,26.496 180.264,26.24 L180.241,26.24 L180.241,26.24 Z" id="Fill-65" fill="#1A1919"></path>
                <path d="M186.745,25.208 C186.745,25.544 186.682,25.824 186.558,26.049 C186.434,26.272 186.266,26.454 186.054,26.595 C185.842,26.734 185.602,26.834 185.334,26.894 C185.066,26.954 184.789,26.984 184.5,26.984 C184.348,26.984 184.188,26.98 184.02,26.973 C183.852,26.964 183.686,26.948 183.522,26.924 C183.358,26.899 183.203,26.869 183.054,26.832 C182.907,26.796 182.776,26.753 182.665,26.704 C182.56,26.655 182.516,26.57 182.533,26.448 L182.581,26.192 C182.596,26.112 182.626,26.064 182.67,26.049 C182.714,26.032 182.772,26.028 182.844,26.036 C182.964,26.053 183.102,26.068 183.258,26.084 C183.415,26.101 183.571,26.114 183.726,26.126 C183.882,26.139 184.031,26.148 184.17,26.156 C184.31,26.164 184.432,26.168 184.537,26.168 C184.984,26.168 185.306,26.099 185.502,25.959 C185.699,25.819 185.796,25.598 185.796,25.295 C185.796,25.119 185.78,24.974 185.749,24.857 C185.716,24.742 185.657,24.648 185.569,24.576 C185.48,24.504 185.36,24.448 185.208,24.408 C185.056,24.368 184.861,24.329 184.621,24.289 C184.348,24.249 184.086,24.197 183.834,24.133 C183.583,24.069 183.361,23.978 183.168,23.857 C182.976,23.738 182.823,23.582 182.707,23.391 C182.59,23.199 182.533,22.947 182.533,22.637 C182.533,22.078 182.72,21.653 183.096,21.361 C183.472,21.07 183.985,20.925 184.632,20.925 C184.752,20.925 184.888,20.929 185.041,20.937 C185.192,20.944 185.35,20.959 185.514,20.979 C185.678,20.998 185.84,21.026 186,21.062 C186.161,21.099 186.304,21.141 186.432,21.188 C186.544,21.244 186.584,21.328 186.552,21.44 L186.504,21.729 C186.488,21.793 186.455,21.832 186.403,21.849 C186.35,21.864 186.281,21.868 186.193,21.86 C185.944,21.837 185.684,21.811 185.413,21.782 C185.14,21.755 184.876,21.74 184.621,21.74 C184.172,21.74 183.869,21.809 183.708,21.944 C183.548,22.08 183.468,22.305 183.468,22.616 C183.468,22.769 183.488,22.889 183.529,22.977 C183.568,23.064 183.634,23.137 183.726,23.192 C183.818,23.248 183.944,23.294 184.104,23.33 C184.264,23.366 184.464,23.404 184.705,23.444 C184.968,23.484 185.224,23.534 185.472,23.595 C185.72,23.654 185.938,23.749 186.126,23.876 C186.314,24.005 186.464,24.173 186.577,24.381 C186.688,24.589 186.745,24.864 186.745,25.208" id="Fill-66" fill="#1A1919"></path>
                <path d="M191.148,26.517 C191.156,26.62 191.12,26.696 191.04,26.744 C190.968,26.784 190.874,26.818 190.758,26.847 C190.642,26.875 190.518,26.898 190.386,26.918 C190.253,26.938 190.125,26.954 190.001,26.967 C189.877,26.979 189.772,26.984 189.684,26.984 C189.427,26.984 189.216,26.954 189.047,26.894 C188.879,26.834 188.748,26.749 188.652,26.637 C188.556,26.524 188.488,26.391 188.448,26.234 C188.408,26.078 188.388,25.904 188.388,25.713 L188.388,21.801 L187.728,21.801 C187.591,21.801 187.524,21.732 187.524,21.597 L187.524,21.261 C187.524,21.116 187.591,21.044 187.728,21.044 L188.4,21.044 L188.4,19.748 C188.4,19.677 188.417,19.624 188.454,19.593 C188.49,19.561 188.54,19.536 188.604,19.52 L189.083,19.389 C189.22,19.349 189.288,19.408 189.288,19.568 L189.288,21.044 L190.62,21.044 C190.708,21.044 190.764,21.062 190.788,21.099 C190.812,21.135 190.824,21.185 190.824,21.248 L190.824,21.597 C190.824,21.668 190.812,21.721 190.788,21.752 C190.764,21.784 190.708,21.801 190.62,21.801 L189.288,21.801 L189.288,25.437 C189.288,25.58 189.297,25.696 189.318,25.784 C189.337,25.872 189.379,25.944 189.444,26 C189.507,26.057 189.594,26.095 189.702,26.114 C189.81,26.135 189.956,26.144 190.14,26.144 C190.204,26.144 190.314,26.139 190.47,26.126 C190.625,26.114 190.748,26.104 190.835,26.097 C190.932,26.089 190.996,26.095 191.028,26.114 C191.06,26.135 191.083,26.177 191.1,26.24 L191.148,26.517" id="Fill-67" fill="#1A1919"></path>
                <path d="M196.392,26.899 L195.9,26.899 C195.755,26.899 195.684,26.832 195.684,26.695 L195.684,26.275 L195.66,26.252 C195.564,26.314 195.438,26.39 195.282,26.477 C195.125,26.562 194.956,26.645 194.772,26.725 C194.587,26.804 194.392,26.871 194.184,26.926 C193.976,26.98 193.764,27.009 193.547,27.009 C193.156,27.009 192.844,26.952 192.612,26.841 C192.379,26.729 192.202,26.574 192.078,26.379 C191.954,26.183 191.874,25.948 191.837,25.677 C191.802,25.404 191.784,25.108 191.784,24.788 L191.784,21.248 C191.784,21.112 191.851,21.044 191.985,21.044 L192.495,21.044 C192.621,21.044 192.684,21.112 192.684,21.249 L192.684,24.81 C192.684,25.09 192.7,25.318 192.732,25.495 C192.764,25.671 192.818,25.812 192.895,25.916 C192.971,26.021 193.074,26.093 193.202,26.133 C193.331,26.173 193.487,26.192 193.671,26.192 C193.816,26.192 193.985,26.164 194.178,26.108 C194.371,26.052 194.563,25.988 194.756,25.916 C194.949,25.844 195.129,25.768 195.298,25.687 C195.467,25.607 195.599,25.543 195.696,25.495 L195.696,21.249 C195.696,21.112 195.764,21.044 195.9,21.044 L196.392,21.044 C196.528,21.044 196.596,21.112 196.596,21.249 L196.596,26.695 C196.596,26.832 196.528,26.899 196.392,26.899" id="Fill-68" fill="#1A1919"></path>
                <path d="M226.733,6.985 C226.733,6.569 226.713,6.235 226.674,5.984 C226.635,5.732 226.573,5.538 226.487,5.398 C226.399,5.26 226.293,5.167 226.168,5.119 C226.042,5.072 225.893,5.048 225.719,5.048 C225.589,5.048 225.442,5.069 225.278,5.113 C225.112,5.156 224.95,5.206 224.79,5.262 C224.629,5.319 224.477,5.381 224.334,5.451 C224.192,5.52 224.073,5.581 223.977,5.633 L223.977,8.883 C224.272,8.969 224.538,9.028 224.777,9.058 C225.015,9.089 225.247,9.103 225.472,9.103 C225.706,9.103 225.903,9.071 226.064,9.006 C226.224,8.941 226.354,8.826 226.454,8.662 C226.553,8.497 226.625,8.278 226.668,8.005 C226.711,7.732 226.733,7.392 226.733,6.985 Z M228.202,6.998 C228.202,7.526 228.163,7.998 228.085,8.415 C228.007,8.831 227.871,9.182 227.676,9.468 C227.481,9.754 227.216,9.97 226.883,10.118 C226.549,10.265 226.126,10.339 225.616,10.339 C225.399,10.339 225.149,10.317 224.868,10.273 C224.586,10.23 224.293,10.157 223.991,10.053 L223.977,10.066 L223.977,12.354 C223.977,12.423 223.961,12.484 223.932,12.536 C223.901,12.588 223.834,12.614 223.731,12.614 L222.807,12.614 C222.704,12.614 222.636,12.592 222.606,12.549 C222.575,12.505 222.56,12.44 222.56,12.354 L222.56,4.112 C222.56,3.938 222.643,3.852 222.807,3.852 L223.731,3.852 C223.826,3.852 223.888,3.875 223.918,3.923 C223.95,3.971 223.964,4.034 223.964,4.112 L223.964,4.501 L224.003,4.528 C224.116,4.45 224.252,4.365 224.413,4.274 C224.573,4.183 224.745,4.099 224.926,4.02 C225.108,3.943 225.294,3.877 225.485,3.826 C225.676,3.773 225.867,3.748 226.057,3.748 C226.482,3.748 226.833,3.826 227.11,3.981 C227.387,4.138 227.606,4.356 227.766,4.638 C227.927,4.92 228.04,5.26 228.105,5.659 C228.17,6.058 228.202,6.504 228.202,6.998 L228.202,6.998 Z" id="Fill-69" fill="#1A1919"></path>
                <path d="M233.428,7.023 C233.428,6.677 233.411,6.376 233.376,6.12 C233.341,5.865 233.272,5.652 233.168,5.483 C233.065,5.314 232.921,5.186 232.739,5.1 C232.557,5.013 232.319,4.97 232.024,4.97 C231.747,4.97 231.522,5.013 231.348,5.1 C231.174,5.186 231.038,5.316 230.939,5.49 C230.838,5.663 230.77,5.877 230.731,6.133 C230.692,6.389 230.672,6.686 230.672,7.023 C230.672,7.371 230.692,7.672 230.731,7.927 C230.77,8.183 230.836,8.395 230.932,8.564 C231.028,8.733 231.162,8.861 231.335,8.948 C231.508,9.034 231.734,9.078 232.011,9.078 C232.305,9.078 232.546,9.037 232.733,8.954 C232.918,8.872 233.065,8.746 233.168,8.577 C233.272,8.408 233.341,8.194 233.376,7.934 C233.411,7.674 233.428,7.371 233.428,7.023 Z M234.872,6.933 C234.872,7.305 234.848,7.691 234.799,8.09 C234.752,8.488 234.633,8.854 234.444,9.188 C234.252,9.522 233.967,9.795 233.586,10.007 C233.207,10.22 232.679,10.326 232.004,10.326 C231.356,10.326 230.846,10.22 230.475,10.007 C230.102,9.795 229.824,9.522 229.637,9.188 C229.452,8.854 229.337,8.488 229.293,8.09 C229.25,7.691 229.229,7.305 229.229,6.933 C229.229,6.629 229.257,6.291 229.313,5.918 C229.37,5.546 229.493,5.197 229.683,4.872 C229.874,4.547 230.153,4.274 230.52,4.053 C230.887,3.832 231.382,3.722 232.004,3.722 C232.636,3.722 233.139,3.817 233.516,4.008 C233.892,4.198 234.179,4.448 234.378,4.755 C234.577,5.063 234.709,5.407 234.774,5.789 C234.838,6.17 234.872,6.551 234.872,6.933 L234.872,6.933 Z" id="Fill-70" fill="#1A1919"></path>
                <path d="M240.228,7.023 C240.228,6.677 240.21,6.376 240.175,6.12 C240.14,5.865 240.072,5.652 239.966,5.483 C239.863,5.314 239.72,5.186 239.539,5.1 C239.357,5.013 239.117,4.97 238.824,4.97 C238.546,4.97 238.32,5.013 238.148,5.1 C237.974,5.186 237.837,5.316 237.738,5.49 C237.638,5.663 237.568,5.877 237.529,6.133 C237.49,6.389 237.47,6.686 237.47,7.023 C237.47,7.371 237.49,7.672 237.529,7.927 C237.568,8.183 237.636,8.395 237.732,8.564 C237.826,8.733 237.96,8.861 238.134,8.948 C238.308,9.034 238.533,9.078 238.81,9.078 C239.105,9.078 239.345,9.037 239.531,8.954 C239.718,8.872 239.863,8.746 239.966,8.577 C240.072,8.408 240.14,8.194 240.175,7.934 C240.21,7.674 240.228,7.371 240.228,7.023 Z M241.669,6.933 C241.669,7.305 241.646,7.691 241.599,8.09 C241.55,8.488 241.433,8.854 241.242,9.188 C241.052,9.522 240.767,9.795 240.386,10.007 C240.005,10.22 239.478,10.326 238.804,10.326 C238.156,10.326 237.644,10.22 237.274,10.007 C236.901,9.795 236.623,9.522 236.436,9.188 C236.25,8.854 236.136,8.488 236.092,8.09 C236.049,7.691 236.028,7.305 236.028,6.933 C236.028,6.629 236.056,6.291 236.112,5.918 C236.168,5.546 236.292,5.197 236.482,4.872 C236.672,4.547 236.952,4.274 237.319,4.053 C237.685,3.832 238.181,3.722 238.804,3.722 C239.435,3.722 239.939,3.817 240.314,4.008 C240.691,4.198 240.978,4.448 241.177,4.755 C241.376,5.063 241.507,5.407 241.574,5.789 C241.638,6.17 241.669,6.551 241.669,6.933 L241.669,6.933 Z" id="Fill-71" fill="#1A1919"></path>
                <g id="Group-75" transform="translate(243.000000, 1.000000)">
                    <mask id="mask-2" fill="white">
                        <use xlink:href="#path-1"></use>
                    </mask>
                    <g id="Clip-73"></g>
                    <path d="M1.531,7.61 C1.531,7.809 1.576,7.933 1.667,7.98 C1.758,8.028 1.916,8.052 2.141,8.052 C2.237,8.061 2.299,8.073 2.33,8.091 C2.36,8.108 2.384,8.151 2.402,8.221 L2.454,8.884 C2.461,8.988 2.406,9.07 2.285,9.131 C2.163,9.191 2.02,9.232 1.855,9.254 C1.691,9.276 1.552,9.287 1.439,9.287 C0.946,9.287 0.601,9.176 0.406,8.955 C0.21,8.734 0.114,8.403 0.114,7.96 L0.114,0.304 C0.114,0.139 0.196,0.057 0.361,0.057 L1.284,0.057 C1.448,0.057 1.531,0.139 1.531,0.304 L1.531,7.61" id="Fill-72" fill="#1A1919" mask="url(#mask-2)"></path>
                    <path d="M7.368,8.728 C7.394,8.875 7.337,8.983 7.199,9.053 C7.086,9.104 6.954,9.148 6.802,9.183 C6.651,9.217 6.495,9.246 6.334,9.267 C6.173,9.289 6.022,9.304 5.879,9.312 C5.736,9.321 5.613,9.326 5.508,9.326 C5.127,9.326 4.831,9.271 4.619,9.163 C4.406,9.055 4.248,8.905 4.144,8.715 C4.04,8.524 3.975,8.303 3.949,8.052 C3.922,7.8 3.91,7.536 3.91,7.259 L3.91,3.996 L3.259,3.996 C3.165,3.996 3.099,3.976 3.065,3.937 C3.03,3.898 3.012,3.835 3.012,3.748 L3.012,3.112 C3.012,3.025 3.03,2.96 3.065,2.916 C3.099,2.873 3.165,2.852 3.259,2.852 L3.922,2.852 L3.922,1.513 C3.922,1.417 3.947,1.35 3.995,1.311 C4.042,1.272 4.1,1.244 4.169,1.227 L5.041,0.993 C5.214,0.949 5.3,1.001 5.3,1.148 L5.3,2.852 L6.692,2.852 C6.795,2.852 6.863,2.873 6.893,2.916 C6.923,2.96 6.939,3.02 6.939,3.099 L6.939,3.748 C6.939,3.835 6.923,3.898 6.893,3.937 C6.863,3.976 6.795,3.996 6.692,3.996 L5.3,3.996 L5.3,7.233 C5.3,7.406 5.314,7.54 5.339,7.636 C5.366,7.731 5.412,7.803 5.476,7.85 C5.542,7.898 5.63,7.926 5.743,7.935 C5.855,7.943 5.999,7.948 6.171,7.948 C6.267,7.948 6.404,7.943 6.582,7.935 C6.758,7.926 6.913,7.913 7.042,7.895 C7.112,7.887 7.164,7.895 7.199,7.922 C7.233,7.948 7.259,7.999 7.277,8.078 L7.368,8.728" id="Fill-74" fill="#1A1919" mask="url(#mask-2)"></path>
                </g>
            </g>
        </g>
    </g>
</svg>