<?xml version="1.0" encoding="UTF-8"?>
<svg width="99px" height="67px" viewBox="0 0 99 67" version="1.1" xmlns="http://www.w3.org/2000/svg" xmlns:xlink="http://www.w3.org/1999/xlink">
    <!-- Generator: Sketch 47.1 (45422) - http://www.bohemiancoding.com/sketch -->
    <title>Group 4@1x</title>
    <desc>Created with Sketch.</desc>
    <defs></defs>
    <g id="Page-1" stroke="none" stroke-width="1" fill="none" fill-rule="evenodd">
        <g id="Desktop" transform="translate(-222.000000, -197.000000)" fill-rule="nonzero">
            <g id="ID-kaart" transform="translate(202.000000, 177.000000)">
                <g id="Group-4" transform="translate(20.000000, 20.000000)">
                    <path d="M0,16.11 L0,51.89 C0,53.2452563 0.541759451,54.5450048 1.50609746,55.5033157 C2.47043546,56.4616265 3.77835848,57 5.14213836,57 L66.8578616,57 C68.2216415,57 69.5295645,56.4616265 70.4939025,55.5033157 C71.4582405,54.5450048 72,53.2452563 72,51.89 L72,16.11 C72,13.2878249 69.6977862,11 66.8578616,11 L5.14213836,11 C2.30221376,11 0,13.2878249 0,16.11 Z M51.4314465,51.89 L5.14213836,51.89 L5.14213836,16.11 L66.8578616,16.11 L66.8578616,51.89 L51.4314465,51.89 Z" id="Shape" fill="#333333"></path>
                    <rect id="Rectangle-path" fill="#000000" x="49" y="29" width="11" height="11"></rect>
                    <path d="M99,67 L87.7699154,67 C81.8170895,67 77,60.944519 77,53.490082 L77,13.5199105 C77,6.06547353 81.8464619,0 87.7699154,0 L99,0 L99,5.20611484 L87.7699154,5.20611484 C84.6858033,5.20611484 82.0716511,9.01327368 82.0716511,13.5199105 L82.0716511,53.490082 C82.0716511,57.9867263 84.6858033,61.7938852 87.7699154,61.7938852 L99,61.7938852 L99,67 Z" id="Shape" fill="#333333"></path>
                    <path d="M82,60 L82,58.4902144 C86.4194631,58.4902144 89.5,45.0531221 89.5,32.9949674 C89.5,20.9368127 86.4194631,7.49972041 82,7.49972041 L82,6 C86.3590604,6 91,15.4613234 91,32.9949674 C91,50.5286114 86.3590604,60 82,60 Z" id="Shape" fill="#333333"></path>
                </g>
            </g>
        </g>
    </g>
</svg>