<?xml version="1.0" encoding="UTF-8"?>
<!-- Generator: Adobe Illustrator 19.2.1, SVG Export Plug-In . SVG Version: 6.00 Build 0)  -->
<svg version="1.1" id="Layer_1" xmlns="http://www.w3.org/2000/svg" xmlns:xlink="http://www.w3.org/1999/xlink" x="0px" y="0px" viewBox="0 0 186.8 68" style="enable-background:new 0 0 186.8 68;" xml:space="preserve">
<style type="text/css">
	.st0{fill:#007DC3;}
	.st1{fill:none;}
</style>
<g>
	<path class="st0" d="M14.9,55.4c0,0.1,0,0.3,0.1,0.4c0.2-0.2,0.6-0.4,0.9-0.5c0.1-0.5,0.6-0.9,1.2-0.9c0,0,0.1,0,0.1,0   c-0.5,0.1-0.8,0.5-1,0.9c-0.3,0.1-0.5,0.4-0.5,0.7c0,0.2,0,0.3,0.1,0.4c0.3-0.3,0.6-0.5,1-0.6c0.1-0.5,0.6-1,1.1-1   c-0.5,0.2-0.8,0.7-0.8,1.2c0,0.2,0,0.4,0.1,0.6c0.1-0.3,0.4-0.5,0.7-0.5c0.1,0,0.2,0,0.2,0c0.1,0,0.2,0.1,0.3,0.1c0.5,0,1-0.4,1-1   c0-0.1,0-0.2,0-0.3c0.3,0.1,0.4,0.3,0.4,0.6c0,0.1,0,0.2-0.1,0.3c0.1,0,0.1,0,0.2,0c0.6,0,1.2-0.5,1.2-1.1c0.3-0.2,0.6-0.4,0.8-0.7   l0.2,0.8c0,0.1,0,0.1,0,0.2c0,0.1,0,0.1-0.1,0.1l0.7-0.7c0,0,0.1-0.1,0.1-0.1c0-0.1,0-0.1,0-0.2l-0.2-1c0-0.1,0-0.1,0-0.2   c0-0.1,0-0.1,0.1-0.1l0.6-0.6c0,0-0.1,0.1-0.1,0.1c0,0.1,0,0.1,0,0.2l0.2,1c0,0.1,0,0.1,0,0.2c0,0.1,0,0.1-0.1,0.1l0.6-0.7   c0,0,0.1-0.1,0.1-0.1c0-0.1,0-0.1,0-0.2l-0.2-1c0-0.1,0-0.1,0-0.2c0-0.1,0-0.1,0.1-0.1l0.6-0.6c0,0-0.1,0.1-0.1,0.1   c0,0.1,0,0.1,0,0.2l0.2,1c0,0.1,0,0.1,0,0.2c0,0.1,0,0.1-0.1,0.1l0.6-0.7c0,0,0.1-0.1,0.1-0.1c0-0.1,0-0.1,0-0.2l-0.1-0.5   c-0.1-0.6,0.5-1.2,0.9-1.3c0.1-0.1,0.1-0.2,0.1-0.3c0-0.6-0.7-1-1.5-1c-0.4,0-0.8,0.1-1,0.3c0.1,0.3,0.1,0.7-0.9,0.8   c-0.8,0.1-1.6,0.3-2.2,0.8c-0.9,0.7-0.8,1.7-1.3,2.1c0.2,0.1,0.5,0.1,0.8,0c0.2,0,0.4-0.1,0.5-0.2c-0.1,0.2-0.3,0.3-0.6,0.5   c-0.1,0.3-0.4,0.7-0.8,0.8c-0.3,0.1-0.5,0.1-0.7,0l-1-0.3c-0.1,0-0.3-0.1-0.4-0.1c-0.8,0-1.4,0.6-1.5,1.3   C15.2,54.8,14.9,55.1,14.9,55.4 M25,15c0.6-0.6,1.3-1.1,2-1.4c0-0.1,0-0.2,0-0.3v0c-3.1,0.5-5.9,2.1-8.5,2.1   c-0.7,0-1.3-0.3-1.4-0.7c0-0.1,0-0.2,0-0.3c0-0.2,0.2-0.3,0.4-0.3c0.2,0,0.4,0.2,0.4,0.4c0,0.1,0,0.2-0.1,0.3c0.1,0,0.1,0,0.2,0   c0.2,0,0.4,0,0.6-0.1c0.3-0.1,0.5-0.3,0.5-0.6c0-0.4-0.3-0.6-0.6-0.6c0,0,0,0-0.1,0c0.1,0,0.2-0.1,0.3-0.1c0.4,0,0.7,0.3,0.7,0.7   c0,0,0,0,0,0.1c1.1,0,2.4-1,2.6-1.4c-0.4,0.1-0.7,0.1-1.1,0.1c-0.4,0-0.9-0.1-1.3-0.2c-0.5-0.1-1.1-0.2-1.5-0.2   c-1.4,0-2.5,0.9-2.5,2c0,0.9,0.8,1.7,1.8,1.9C19.9,16.9,22.6,15.5,25,15 M11.6,18.2c0.1-0.3,0.1-0.7,0.1-1l-0.3,0.4   c-0.1-0.1-0.1-0.2-0.1-0.3c0-0.1-0.1-0.1-0.1-0.1c0,0,0,0-0.1,0c0,0-0.1,0-0.1,0c0,0-0.1,0-0.1,0c0,0-0.1,0-0.1,0   c0,0-0.1,0-0.1,0.1c0,0.1-0.1,0.2-0.1,0.3l-0.3-0.4c0,0.3,0,0.6,0.1,1c0.2,0,0.4-0.1,0.7-0.1C11.2,18.2,11.4,18.2,11.6,18.2    M11.8,19.1c0-0.4-0.4-0.5-0.8-0.5c-0.4,0-0.8,0.1-0.8,0.5c0,0.5,0.5,0.2,0.8,0.2C11.3,19.4,11.7,19.6,11.8,19.1 M12.9,16.4   c-0.1,0-0.1,0.1-0.1,0.1c0,0.4-0.2,0.6-0.5,0.7c0,0.4-0.1,0.8-0.2,1.2c0.3,0.7,0.1,1.2-0.2,1.3c-0.3,0.1-0.6,0-0.9,0   c-0.3,0-0.7,0.1-0.9,0c-0.3-0.1-0.5-0.6-0.2-1.3c-0.1-0.4-0.2-0.8-0.2-1.2c-0.3-0.1-0.5-0.3-0.5-0.7c0-0.1-0.1-0.1-0.1-0.1   c-1.1-0.3-1.2-1.7-0.7-2.1c-0.1,0.6-0.1,1.5,1.2,1.6c0,0.7,0.3,0.9,0.6,0.9c0.3,0,0.4-0.1,0.5-0.1c0.2-0.1,0.1-0.3,0-0.4   c-0.2-0.2-0.3-0.4-0.2-0.6c0,0,0-0.1,0.1-0.1H11h0.4c0,0,0.1,0,0.1,0.1c0,0.2,0,0.4-0.2,0.6c-0.1,0.1-0.2,0.3,0,0.4   c0.1,0,0.2,0.1,0.5,0.1c0.3,0,0.7-0.2,0.6-0.9c1.3-0.1,1.2-1,1.2-1.6C14.2,14.7,14,16.1,12.9,16.4 M13.3,13.9   c0,0.3-0.2,0.7-0.5,0.7h-0.2c0.1,0.1,0.1,0.2,0.1,0.3c0,0.2-0.2,0.4-0.4,0.4c-0.2,0-0.4-0.2-0.4-0.4c0-0.1,0-0.2,0.1-0.3h-0.3   c-0.1,0-0.2,0-0.2,0.1c0-0.1,0-0.3,0-0.4c0-0.1,0.1-0.2,0.2-0.2h1.1C13,14.2,13.1,14.1,13.3,13.9 M13.1,13.4h-0.4   c-0.2,0-0.3-0.1-0.5-0.2l-0.5-0.6c-0.1-0.1-0.1-0.2-0.2-0.2H12c0.1,0,0.3,0.1,0.3,0.2l0.5,0.6C13,13.3,13,13.4,13.1,13.4 M11,12.4   l0.6,0.8c0.1,0.1,0.2,0.2,0.3,0.3h-0.5c-0.2,0-0.3-0.1-0.4-0.2l-0.5-0.7c-0.2-0.3-0.2-0.3-0.4-0.4h0.5C10.8,12.1,10.9,12.3,11,12.4    M9.7,12.6l0.5,0.6c0.1,0.1,0.1,0.2,0.3,0.2h-0.4c-0.2,0-0.3-0.1-0.5-0.2l-0.5-0.6c-0.1-0.1-0.1-0.2-0.2-0.2h0.5   C9.5,12.4,9.6,12.4,9.7,12.6 M9.4,14.6H9.2c-0.3,0-0.5-0.4-0.5-0.7c0.1,0.2,0.3,0.2,0.5,0.2h1.1c0.1,0,0.2,0.1,0.2,0.2   c0,0.1,0,0.2,0,0.4c-0.1-0.1-0.1-0.1-0.2-0.1h-0.3c0.1,0.1,0.1,0.2,0.1,0.3c0,0.2-0.2,0.4-0.4,0.4c-0.2,0-0.4-0.2-0.4-0.4   C9.3,14.8,9.4,14.7,9.4,14.6 M8,20.1l0.1-0.3c0-0.1,0-0.1,0-0.2c0-0.1,0-0.1,0-0.2l0.4,0.7c0,0.1,0,0.1,0,0.2c0,0.1,0,0.1,0,0.2   l0,0.1C8.3,21,8,21.8,8.3,22.3c-0.6-0.2-0.7-0.7-0.7-1.1c-1.1-1-1.3-2-0.6-2.9l0.4-0.5c0,0,0.1-0.1,0.1-0.1c0-0.1,0-0.1,0-0.2   l0.2,0.8c0,0.1,0,0.1,0,0.2c0,0.1,0,0.1-0.1,0.1l-0.1,0.1c-0.4,0.5-0.3,1.1,0.3,1.6C7.9,20.3,7.9,20.2,8,20.1 M34,22.9   c0-0.1,0.1-0.2,0.1-0.3c0-0.5-0.4-0.9-0.9-0.9h-0.9c-0.1,0-0.1,0-0.2,0c0,0-0.1-0.1-0.1-0.1l-0.4-0.6c0,0,0.1,0.1,0.1,0.1   c0,0,0.1,0,0.2,0l1.1,0c0.1,0,0.1,0,0.2,0c0,0,0.1,0.1,0.1,0.1l-0.5-0.8c0,0-0.1-0.1-0.1-0.1c0,0-0.1,0-0.2,0l-1.1,0   c-0.1,0-0.1,0-0.2,0c0,0-0.1-0.1-0.1-0.1l-0.5-0.7c0,0,0.1,0.1,0.1,0.1c0,0,0.1,0,0.2,0l1.1,0c0.1,0,0.1,0,0.2,0   c0,0,0.1,0.1,0.1,0.1L31.8,19c0,0-0.1-0.1-0.1-0.1c0,0-0.1,0-0.2,0h-0.9c-0.1,0-0.1,0-0.2,0c0,0-0.1-0.1-0.1-0.1l-0.6-0.9   c1.2-0.1,2.2-0.8,2.4-1.7c0.3-1.2-0.9-2.3-2.6-2.6c-0.3,0-0.5-0.3-0.5-0.6c0-0.3,0.2-0.5,0.4-0.6c-0.2-0.1-0.4-0.1-0.6-0.1   c-0.8,0-1.4,0.5-1.4,1.2c0,0.1,0,0.2,0.1,0.3c-0.8,0.4-1.6,1-2.2,1.7c0.6-0.2,1.3-0.3,2-0.3c0,0,0-0.1,0-0.1c0-0.5,0.4-0.9,0.9-0.9   h0c-0.3,0.2-0.5,0.5-0.5,0.7c0,0.3,0.2,0.5,0.5,0.5c0.1,0,0.2,0,0.3-0.1c0-0.1,0-0.1,0-0.2c0-0.4,0.3-0.7,0.7-0.7c0,0,0.1,0,0.1,0   c-0.3,0.1-0.4,0.4-0.4,0.7c0,0.4,0.3,0.7,0.7,0.7c0,0,0.1,0,0.1,0c0,0,0-0.1,0-0.1c0-0.3,0.2-0.5,0.5-0.5c0.3,0,0.5,0.2,0.5,0.5   c0,0.6-0.7,0.7-1.2,0.6c-1.5-0.4-2.9-0.6-4.2-0.4c-1.7,0.2-4.5,1.4-7.5,1.3c-0.7,0-1.4-0.1-2.1-0.3c0.1,0.1,0.1,0.2,0.2,0.2   c0.3,0.5,0.4,0.9,0.1,1.5c0-0.7-0.5-1.2-1-1.6c-0.2-0.1-0.3-0.3-0.2-0.4l0.1-0.8c0,0.1,0,0.1,0,0.2c0,0.1,0,0.1,0.1,0.1l0.3,0.3   c0.1-0.8-0.1-1.5-0.5-2.2c0.2-0.5,0.2-1.1,0.1-1.7c-0.1,0.4-0.3,0.6-0.5,0.7c-0.4,0.2-0.4,0.6-0.2,0.9c-0.3-0.2-0.7-0.7-0.5-1.1   c0.3-0.4,1-0.2,1.1-0.8c-0.5-0.1-1,0-1.1,0c-0.3-0.3-0.6-0.5-1.1-0.5c-0.4-0.3-0.8-0.5-1.4-0.4c-0.6-0.1-1,0.1-1.4,0.4   c-0.5,0-0.8,0.2-1.1,0.5c-0.1,0-0.6-0.1-1.1,0c0.1,0.6,0.8,0.4,1.1,0.8c0.2,0.3-0.2,0.9-0.5,1.1c0.2-0.3,0.1-0.6-0.2-0.9   c-0.2-0.1-0.4-0.3-0.5-0.7c-0.1,0.6-0.1,1.1,0.1,1.7c-0.5,0.7-0.6,1.4-0.5,2.2l0.3-0.3c0,0,0.1-0.1,0.1-0.1c0-0.1,0-0.1,0-0.2   l0.1,0.8c0,0.2,0,0.3-0.2,0.4c-0.5,0.3-1,0.9-1,1.6C5.9,17.9,6,17.4,6.2,17c-0.9-0.5-1.5-1.3-1.7-1.4c-0.3-0.3-0.2-0.7,0-1   c0.5-0.7,0.6-1.4,0-1.9c0,0,0-0.1,0-0.1c0-0.4-0.3-0.8-0.7-0.9C3.9,11.8,4,12,4,12.1c0,0.2-0.1,0.3-0.2,0.5C3.9,12.7,4,12.9,4,13   c0,0.2-0.1,0.4-0.2,0.5c0-0.1,0-0.1,0-0.2c0-0.5-0.3-0.8-0.7-0.9C3,12,2.7,11.8,2.4,11.8c-0.2,0-0.4,0.1-0.5,0.2   c0.3,0,0.5,0.2,0.5,0.5c-0.1,0.1-0.2,0.2-0.3,0.4h0c0.5,0,0.8,0.4,0.8,0.8c0,0.1,0,0.1,0,0.2c0-0.2-0.1-0.4-0.3-0.5   c-0.3-0.3-0.6-0.3-1-0.2c-0.1-0.2-0.3-0.3-0.6-0.3c-0.3,0-0.5,0.1-0.6,0.3c0.3,0,0.5,0.1,0.6,0.3c-0.4,0.5-0.4,1.1,0,1.5   c0.3,0.2,0.6,0.3,0.9,0.2c0,0,0,0,0.1,0c0.1,0,0.2,0.1,0.2,0.2c0,0.1-0.1,0.2-0.2,0.2c-0.1,0-0.1,0-0.1-0.1   c-0.1-0.1-0.2-0.1-0.3-0.1c-0.3,0-0.5,0.2-0.5,0.5c0,0,0,0,0,0.1c0,0-0.1,0-0.1,0c-0.1,0-0.3-0.1-0.3-0.1c0,0.1,0,0.1,0,0.2   c0,0.3,0.3,0.6,0.6,0.7c0.2,0.4,0.5,0.6,1,0.6c0.2,0,0.4-0.1,0.6-0.2c0.1-0.1,0.2-0.1,0.3-0.1c0.2,0,0.5,0.2,0.5,0.5   c0,0.2-0.2,0.4-0.4,0.4l-0.4,0.1c-0.1,0-0.1,0-0.2,0c-0.1,0-0.1,0-0.1-0.1l0.8,0.8c0,0,0.1,0.1,0.1,0.1c0.1,0,0.1,0,0.2,0l0.7-0.1   c0.1,0,0.1,0,0.2,0c0.1,0,0.1,0,0.1,0.1l0.6,0.5c0,0-0.1-0.1-0.1-0.1c-0.1,0-0.1,0-0.2,0l-0.7,0.1c-0.1,0-0.1,0-0.2,0   c-0.1,0-0.1,0-0.1-0.1L4.7,20c0,0,0.1,0.1,0.1,0.1c0.1,0,0.1,0,0.2,0l0.7-0.1c0.1,0,0.1,0,0.2,0C5.9,20,5.9,20,6,20l0.6,0.5   c0,0-0.1-0.1-0.1-0.1c-0.1,0-0.1,0-0.2,0l-0.7,0.1c-0.1,0-0.1,0-0.2,0c-0.1,0-0.1,0-0.1-0.1L6,21.2c0,0,0.1,0.1,0.1,0.1   c0.1,0,0.1,0,0.2,0l0.8-0.2c-0.8,0.4-1.6,0.9-2.5,1.5c-0.5,0.3-1.1,0.4-1.7,0.1c-0.3-0.1-0.7-0.2-1-0.1c-0.3,0.1-0.6,0.2-0.7,0.5   c0.1,0,0.3-0.1,0.4-0.1c0.3,0,0.5,0.1,0.7,0.3c-0.3-0.1-0.7-0.1-1,0c-0.6,0.2-1,0.8-0.9,1.4C0.2,24.9,0,25.1,0,25.4   c0,0.2,0.1,0.3,0.2,0.5c0.1-0.3,0.3-0.5,0.6-0.5c0.1,0.1,0.3,0.1,0.4,0.2c0-0.1,0.1-0.2,0.2-0.2c0-0.1,0-0.1,0-0.2   c0-0.6,0.5-1.1,1.1-1.1c0,0,0.1,0,0.1,0c-0.5,0.1-0.8,0.5-0.8,1c0,0.1,0,0.1,0,0.2c-0.3,0.1-0.4,0.3-0.4,0.6c0,0.2,0.1,0.3,0.2,0.4   c0.2-0.4,0.5-0.6,1-0.6c0.2,0,0.3,0.1,0.5,0.1c0.1,0,0.2,0,0.3,0c-0.1-0.1-0.1-0.3-0.1-0.5c0-0.5,0.4-0.8,0.8-0.8c0,0,0.1,0,0.1,0   c-0.4,0.2-0.7,0.6-0.6,0.9c0.1,0.2,0.3,0.4,0.6,0.5c0,0.2-0.1,0.4-0.1,0.5c0.4,0,0.7-0.3,0.9-0.6c0.5-0.2,0.7-0.6,0.6-0.9   c0-0.1-0.1-0.2-0.2-0.3c0,0,0,0,0,0c0-0.2,0.2-0.4,0.4-0.4c0.2,0,0.4,0.2,0.4,0.4c0,0.1,0,0.2-0.1,0.3H7c0.1,0,0.1,0,0.2,0   c0,0,0.1-0.1,0.1-0.1l0.6-0.9c0,0,0.1-0.1,0.1-0.1c0,0,0.1,0,0.1,0h0.7c0,0-0.1,0-0.1,0c0,0-0.1,0-0.1,0.1L8,24.6   c0,0-0.1,0.1-0.1,0.1c0,0-0.1,0-0.2,0h1.1c0.1,0,0.1,0,0.2,0c0,0,0.1-0.1,0.1-0.1l0.7-1c-0.5-0.3-0.6-0.7-0.6-1.3   c0-0.4,0.2-0.8,0.2-1.1l0-0.1c0-0.1,0-0.1,0-0.2c0,0,0-0.1-0.1-0.1l0.6,0.6c0,0,0.1,0.1,0.1,0.1c0,0.1,0,0.1,0,0.2l0,0.1   c0,0.2-0.3,0.7,0.2,1.2c0,0,0.1,0.1,0.2,0.1l0.4,0.2V22h0.5v1.6c0,0.1,0,0.1,0,0.2c0,0,0.1,0.1,0.1,0.1l0.5,0.3   c0.1,0,0.1,0,0.2,0.1c0.1,0,0.1,0,0.2,0l1-0.4c-0.1,0-0.1,0-0.2,0c-0.1,0-0.1,0-0.2-0.1L11.8,23c0.5-0.5,0.2-1,0.2-1.2l0-0.1   c0-0.1,0-0.1,0-0.2c0-0.1,0.1-0.1,0.1-0.1l0.6-0.6c0,0-0.1,0.1-0.1,0.1c0,0.1,0,0.1,0,0.2l0,0.1c0,0.4,0.4,1.1,0.1,1.5l1,0.6   c0.1,0,0.1,0,0.2,0.1c0.1,0,0.1,0,0.2,0l1-0.4c-0.1,0-0.1,0-0.2,0c-0.1,0-0.1,0-0.2-0.1l-1.1-0.7c0.2-0.5,0-1.3-0.2-1.7l0-0.1   c0-0.1,0-0.1,0-0.2c0-0.1,0-0.1,0-0.2l0.4-0.7c0,0,0,0.1,0,0.2c0,0.1,0,0.1,0,0.2l0.1,0.3c0.1,0.1,0.1,0.2,0.2,0.4   c0.6-0.6,0.8-1.1,0.4-1.6l-0.1-0.1c0,0-0.1-0.1-0.1-0.1c0-0.1,0-0.1,0-0.2l0.2-0.8c0,0.1,0,0.1,0,0.2c0,0.1,0,0.1,0.1,0.1l0.4,0.5   c0.8,0.9,0.3,2-0.6,2.8c0,0.2,0.1,0.5,0.1,0.6l1.2,0.8c0,0,0.1,0,0.2,0.1c0.1,0,0.1,0,0.2,0l0.9-0.4c0,0-0.1,0-0.2,0   c-0.2,0-0.4-0.2-0.4-0.4c0-0.2,0.1-0.3,0.3-0.4c3.3-1,6.3-3.6,8.3-3.6c1,0,1.8,0.6,1.8,1.3c0,0.1,0,0.2-0.1,0.3   c-0.4,1.2,0.2,2.3,1.8,2.8c0.3,0.1,0.5,0.3,0.5,0.6c0,0.1,0,0.1,0,0.2c0,0,0.1,0,0.1,0c0.4,0,0.8-0.2,1.1-0.6c0.3,0,0.6,0,0.9-0.1   c0,0.1,0.1,0.2,0.1,0.3c0.1,0.3-0.1,0.7-0.3,0.7c-0.4,0.1-0.8,0-1.2,0c-0.7,0-1.2,0.6-1.2,1.2c0,0.1,0,0.1,0,0.2   C28.1,25,28,25.2,28,25.5c0,0.1,0,0.3,0.1,0.4c0.2-0.2,0.5-0.4,0.8-0.5c0-0.6,0.5-1.1,1.1-1.1c0.1,0,0.2,0,0.3,0   c-0.6,0.1-1.1,0.6-1.1,1.2c0,0,0,0.1,0,0.1c-0.1,0.1-0.1,0.2-0.1,0.3c0,0.2,0.1,0.3,0.2,0.4c0.1-0.3,0.4-0.5,0.7-0.6   c0.2-0.1,0.5-0.1,0.7-0.1c0-0.1,0-0.2,0-0.3c0-0.5,0.4-1,1-1c0,0,0.1,0,0.1,0c-0.4,0-0.7,0.4-0.7,0.8c0,0.3,0.1,0.5,0.3,0.6   c0,0,0,0,0,0c0,0.2,0.1,0.4,0.2,0.5c0.1-0.4,0.4-0.6,0.7-0.6c0.3,0,0.6,0,0.8-0.1c0.3-0.1,0.6-0.4,0.6-0.8c0-0.3-0.1-0.5-0.3-0.6   c0.1-0.4,0.1-1.1-0.1-1.6c0,0,0.1,0,0.1,0C33.6,22.6,33.8,22.7,34,22.9 M17.1,29.8c0-0.1,0-0.2,0-0.3c0-0.2,0.2-0.3,0.4-0.3   c0.2,0,0.4,0.2,0.4,0.4c0,0.1,0,0.2-0.1,0.3c0.1,0,0.1,0,0.2,0c0.2,0,0.4,0,0.6-0.1c0.3-0.1,0.5-0.3,0.5-0.6c0-0.4-0.3-0.6-0.6-0.6   c0,0,0,0-0.1,0c0.1,0,0.2-0.1,0.3-0.1c0.4,0,0.7,0.3,0.7,0.7c0,0,0,0,0,0.1c1.1,0,2.4-1,2.6-1.4C21.7,28,21.3,28,20.9,28   c-0.4,0-0.9-0.1-1.3-0.2c-0.5-0.1-1.1-0.2-1.5-0.2c-1.4,0-2.5,0.9-2.5,2c0,0.9,0.8,1.7,1.8,1.9c2.4,0.5,5.2-0.9,7.5-1.4   c0.6-0.6,1.3-1.1,2-1.4c0-0.1,0-0.2,0-0.3v0c-3.1,0.5-5.9,2.1-8.5,2.1C17.8,30.6,17.2,30.3,17.1,29.8 M17.1,24.1c0,0,0.1,0,0.1,0   c-0.5,0.1-0.8,0.5-1,0.9c-0.3,0.1-0.5,0.4-0.5,0.7c0,0.2,0,0.3,0.1,0.4c0.3-0.3,0.6-0.5,1-0.6c0.1-0.5,0.6-1,1.1-1   c-0.5,0.2-0.8,0.7-0.8,1.2c0,0.2,0,0.4,0.1,0.6c0.1-0.3,0.4-0.5,0.7-0.5c0.1,0,0.2,0,0.2,0c0.1,0,0.2,0.1,0.3,0.1c0.5,0,1-0.4,1-1   c0-0.1,0-0.2,0-0.3c0.3,0.1,0.4,0.3,0.4,0.6c0,0.1,0,0.2-0.1,0.3c0.1,0,0.1,0,0.2,0c0.6,0,1.2-0.5,1.2-1.1c0.3-0.2,0.6-0.4,0.8-0.7   l0.2,0.8c0,0.1,0,0.1,0,0.2c0,0.1,0,0.1-0.1,0.1l0.7-0.7c0,0,0.1-0.1,0.1-0.1c0-0.1,0-0.1,0-0.2l-0.2-1c0-0.1,0-0.1,0-0.2   c0-0.1,0-0.1,0.1-0.1l0.6-0.6c0,0-0.1,0.1-0.1,0.1c0,0.1,0,0.1,0,0.2l0.2,1c0,0.1,0,0.1,0,0.2c0,0.1,0,0.1-0.1,0.1l0.6-0.7   c0,0,0.1-0.1,0.1-0.1c0-0.1,0-0.1,0-0.2l-0.2-1c0-0.1,0-0.1,0-0.2c0-0.1,0-0.1,0.1-0.1l0.6-0.6c0,0-0.1,0.1-0.1,0.1   c0,0.1,0,0.1,0,0.2l0.2,1c0,0.1,0,0.1,0,0.2c0,0.1,0,0.1-0.1,0.1l0.6-0.7c0,0,0.1-0.1,0.1-0.1c0-0.1,0-0.1,0-0.2l-0.1-0.5   c-0.1-0.6,0.5-1.2,0.9-1.3c0.1-0.1,0.1-0.2,0.1-0.3c0-0.6-0.7-1-1.5-1c-0.4,0-0.8,0.1-1,0.3c0.1,0.3,0.1,0.7-0.9,0.8   c-0.8,0.1-1.6,0.3-2.2,0.8c-0.9,0.7-0.8,1.7-1.3,2.1c0.2,0.1,0.5,0.1,0.8,0c0.2,0,0.4-0.1,0.5-0.2c-0.1,0.2-0.3,0.3-0.6,0.5   c-0.1,0.4-0.4,0.7-0.8,0.8c-0.3,0.1-0.5,0.1-0.7,0l-1-0.3c-0.1,0-0.3-0.1-0.4-0.1c-0.8,0-1.4,0.6-1.5,1.3c-0.4,0-0.6,0.4-0.6,0.7   c0,0.1,0,0.3,0.1,0.4c0.2-0.2,0.6-0.4,0.9-0.5C16,24.4,16.5,24.1,17.1,24.1 M11.6,33.4c0.1-0.3,0.1-0.7,0.1-1l-0.3,0.4   c-0.1-0.1-0.1-0.2-0.1-0.3c0-0.1-0.1-0.1-0.1-0.1c0,0,0,0-0.1,0c0,0-0.1,0-0.1,0c0,0-0.1,0-0.1,0c0,0-0.1,0-0.1,0   c0,0-0.1,0-0.1,0.1c0,0.1-0.1,0.2-0.1,0.3l-0.3-0.4c0,0.3,0,0.6,0.1,1c0.2,0,0.4-0.1,0.7-0.1C11.2,33.3,11.4,33.4,11.6,33.4    M11.8,34.3c0-0.4-0.4-0.5-0.8-0.5c-0.4,0-0.8,0.1-0.8,0.5c0,0.5,0.5,0.2,0.8,0.2C11.3,34.5,11.7,34.8,11.8,34.3 M12.9,31.6   c-0.1,0-0.1,0.1-0.1,0.1c0,0.4-0.2,0.6-0.5,0.7c0,0.4-0.1,0.8-0.2,1.2c0.3,0.7,0.1,1.2-0.2,1.3c-0.3,0.1-0.6,0-0.9,0   c-0.3,0-0.7,0.1-0.9,0c-0.3-0.1-0.5-0.6-0.2-1.3c-0.1-0.4-0.2-0.8-0.2-1.2c-0.3-0.1-0.5-0.3-0.5-0.7c0-0.1-0.1-0.1-0.1-0.1   c-1.1-0.3-1.2-1.7-0.7-2.1c-0.1,0.6-0.1,1.5,1.2,1.6c0,0.7,0.3,0.9,0.6,0.9c0.3,0,0.4-0.1,0.5-0.1c0.2-0.1,0.1-0.3,0-0.4   c-0.2-0.2-0.3-0.4-0.2-0.6c0,0,0-0.1,0.1-0.1H11h0.4c0,0,0.1,0,0.1,0.1c0,0.2,0,0.4-0.2,0.6c-0.1,0.1-0.2,0.3,0,0.4   c0.1,0,0.2,0.1,0.5,0.1c0.3,0,0.7-0.2,0.6-0.9c1.3-0.1,1.2-1,1.2-1.6C14.2,29.8,14,31.3,12.9,31.6 M13.3,29.1   c0,0.3-0.2,0.7-0.5,0.7h-0.2c0.1,0.1,0.1,0.2,0.1,0.3c0,0.2-0.2,0.4-0.4,0.4c-0.2,0-0.4-0.2-0.4-0.4c0-0.1,0-0.2,0.1-0.3h-0.3   c-0.1,0-0.2,0-0.2,0.1c0-0.1,0-0.3,0-0.4c0-0.1,0.1-0.2,0.2-0.2h1.1C13,29.3,13.1,29.3,13.3,29.1 M13.1,28.6h-0.4   c-0.2,0-0.3-0.1-0.5-0.2l-0.5-0.6c-0.1-0.1-0.1-0.2-0.2-0.2H12c0.1,0,0.3,0.1,0.3,0.2l0.5,0.6C13,28.5,13,28.5,13.1,28.6 M11,27.6   l0.6,0.8c0.1,0.1,0.2,0.2,0.3,0.3h-0.5c-0.2,0-0.3-0.1-0.4-0.2l-0.5-0.7c-0.2-0.3-0.2-0.3-0.4-0.4h0.5C10.8,27.3,10.9,27.4,11,27.6    M9.7,27.7l0.5,0.6c0.1,0.1,0.1,0.2,0.3,0.2h-0.4c-0.2,0-0.3-0.1-0.5-0.2l-0.5-0.6c-0.1-0.1-0.1-0.2-0.2-0.2h0.5   C9.5,27.5,9.6,27.6,9.7,27.7 M9.4,29.8H9.2c-0.3,0-0.5-0.4-0.5-0.7c0.1,0.2,0.3,0.2,0.5,0.2h1.1c0.1,0,0.2,0.1,0.2,0.2   c0,0.1,0,0.2,0,0.4c-0.1-0.1-0.1-0.1-0.2-0.1h-0.3c0.1,0.1,0.1,0.2,0.1,0.3c0,0.2-0.2,0.4-0.4,0.4c-0.2,0-0.4-0.2-0.4-0.4   C9.3,30,9.4,29.9,9.4,29.8 M8,35.2L8.2,35c0-0.1,0-0.1,0-0.2c0-0.1,0-0.1,0-0.2l0.4,0.7c0,0.1,0,0.1,0,0.2c0,0.1,0,0.1,0,0.2l0,0.1   C8.3,36.2,8,37,8.3,37.5c-0.6-0.2-0.7-0.7-0.7-1.1c-1.1-1-1.3-2-0.6-2.9l0.4-0.5c0,0,0.1-0.1,0.1-0.1c0-0.1,0-0.1,0-0.2l0.2,0.8   c0,0.1,0,0.1,0,0.2c0,0.1,0,0.1-0.1,0.1L7.5,34c-0.4,0.5-0.3,1.1,0.3,1.6C7.9,35.4,7.9,35.4,8,35.2 M34,38.1c0-0.1,0.1-0.2,0.1-0.3   c0-0.5-0.4-0.9-0.9-0.9h-0.9c-0.1,0-0.1,0-0.2,0c0,0-0.1-0.1-0.1-0.1l-0.4-0.6c0,0,0.1,0.1,0.1,0.1c0,0,0.1,0,0.2,0l1.1,0   c0.1,0,0.1,0,0.2,0c0,0,0.1,0.1,0.1,0.1l-0.5-0.8c0,0-0.1-0.1-0.1-0.1c0,0-0.1,0-0.2,0l-1.1,0c-0.1,0-0.1,0-0.2,0   c0,0-0.1-0.1-0.1-0.1l-0.5-0.7c0,0,0.1,0.1,0.1,0.1c0,0,0.1,0,0.2,0l1.1,0c0.1,0,0.1,0,0.2,0c0,0,0.1,0.1,0.1,0.1l-0.5-0.8   c0,0-0.1-0.1-0.1-0.1c0,0-0.1,0-0.2,0h-0.9c-0.1,0-0.1,0-0.2,0c0,0-0.1-0.1-0.1-0.1l-0.6-0.9c1.2-0.1,2.2-0.8,2.4-1.7   c0.3-1.2-0.9-2.3-2.6-2.6c-0.3,0-0.5-0.3-0.5-0.6c0-0.3,0.2-0.5,0.4-0.6c-0.2-0.1-0.4-0.1-0.6-0.1c-0.8,0-1.4,0.5-1.4,1.2   c0,0.1,0,0.2,0.1,0.3c-0.8,0.4-1.6,1-2.2,1.7c0.6-0.2,1.3-0.3,2-0.3c0,0,0-0.1,0-0.1c0-0.5,0.4-0.9,0.9-0.9h0   c-0.3,0.2-0.5,0.5-0.5,0.7c0,0.3,0.2,0.5,0.5,0.5c0.1,0,0.2,0,0.3-0.1c0-0.1,0-0.1,0-0.2c0-0.4,0.3-0.7,0.7-0.7c0,0,0.1,0,0.1,0   c-0.3,0.1-0.4,0.4-0.4,0.7c0,0.4,0.3,0.7,0.7,0.7c0,0,0.1,0,0.1,0c0,0,0-0.1,0-0.1c0-0.3,0.2-0.5,0.5-0.5c0.3,0,0.5,0.2,0.5,0.5   c0,0.6-0.7,0.7-1.2,0.6c-1.5-0.4-2.9-0.6-4.2-0.4c-1.7,0.2-4.5,1.4-7.5,1.3c-0.7,0-1.4-0.1-2.1-0.3c0.1,0.1,0.1,0.2,0.2,0.2   c0.3,0.5,0.4,0.9,0.1,1.5c0-0.7-0.5-1.2-1-1.6c-0.2-0.1-0.3-0.3-0.2-0.4l0.1-0.8c0,0.1,0,0.1,0,0.2c0,0.1,0,0.1,0.1,0.1l0.3,0.3   c0.1-0.8-0.1-1.5-0.5-2.2c0.2-0.5,0.2-1.1,0.1-1.7c-0.1,0.4-0.3,0.6-0.5,0.7c-0.4,0.2-0.4,0.6-0.2,0.9c-0.3-0.2-0.7-0.7-0.5-1.1   c0.3-0.4,1-0.2,1.1-0.8c-0.5-0.1-1,0-1.1,0c-0.3-0.3-0.6-0.5-1.1-0.5c-0.4-0.3-0.8-0.5-1.4-0.4c-0.6-0.1-1,0.1-1.4,0.4   c-0.5,0-0.8,0.2-1.1,0.5c-0.1,0-0.6-0.1-1.1,0c0.1,0.6,0.8,0.4,1.1,0.8c0.2,0.3-0.2,0.9-0.5,1.1c0.2-0.3,0.1-0.6-0.2-0.9   c-0.2-0.1-0.4-0.3-0.5-0.7c-0.1,0.6-0.1,1.1,0.1,1.7c-0.5,0.7-0.6,1.4-0.5,2.2l0.3-0.3c0,0,0.1-0.1,0.1-0.1c0-0.1,0-0.1,0-0.2   l0.1,0.8c0,0.2,0,0.3-0.2,0.4c-0.5,0.3-1,0.9-1,1.6c-0.3-0.6-0.2-1.1,0.1-1.5c-0.9-0.5-1.5-1.3-1.7-1.4c-0.3-0.3-0.2-0.7,0-1   c0.5-0.7,0.6-1.4,0-1.9c0,0,0-0.1,0-0.1c0-0.4-0.3-0.8-0.7-0.9C3.9,27,4,27.2,4,27.3c0,0.2-0.1,0.3-0.2,0.5C3.9,27.9,4,28,4,28.2   c0,0.2-0.1,0.4-0.2,0.5c0-0.1,0-0.1,0-0.2c0-0.5-0.3-0.8-0.7-0.9c-0.1-0.3-0.3-0.6-0.7-0.6c-0.2,0-0.4,0.1-0.5,0.2   c0.3,0,0.5,0.2,0.5,0.5c-0.1,0.1-0.2,0.2-0.3,0.4h0C2.6,28,3,28.4,3,28.9c0,0.1,0,0.1,0,0.2c0-0.2-0.1-0.4-0.3-0.5   c-0.3-0.3-0.6-0.3-1-0.2c-0.1-0.2-0.3-0.3-0.6-0.3c-0.3,0-0.5,0.1-0.6,0.3c0.3,0,0.5,0.1,0.6,0.3c-0.4,0.5-0.4,1.1,0,1.5   c0.3,0.2,0.6,0.3,0.9,0.2c0,0,0,0,0.1,0c0.1,0,0.2,0.1,0.2,0.2c0,0.1-0.1,0.2-0.2,0.2c-0.1,0-0.1,0-0.1-0.1   c-0.1-0.1-0.2-0.1-0.3-0.1c-0.3,0-0.5,0.2-0.5,0.5c0,0,0,0,0,0.1c0,0-0.1,0-0.1,0c-0.1,0-0.3-0.1-0.3-0.1c0,0.1,0,0.1,0,0.2   c0,0.3,0.3,0.6,0.6,0.7c0.2,0.4,0.5,0.6,1,0.6c0.2,0,0.4-0.1,0.6-0.2c0.1-0.1,0.2-0.1,0.3-0.1c0.2,0,0.5,0.2,0.5,0.5   c0,0.2-0.2,0.4-0.4,0.4l-0.4,0.1c-0.1,0-0.1,0-0.2,0c-0.1,0-0.1,0-0.1-0.1l0.8,0.8c0,0,0.1,0.1,0.1,0.1c0.1,0,0.1,0,0.2,0l0.7-0.1   c0.1,0,0.1,0,0.2,0c0.1,0,0.1,0,0.1,0.1l0.6,0.5c0,0-0.1-0.1-0.1-0.1c-0.1,0-0.1,0-0.2,0l-0.7,0.1c-0.1,0-0.1,0-0.2,0   c-0.1,0-0.1,0-0.1-0.1l0.7,0.7c0,0,0.1,0.1,0.1,0.1c0.1,0,0.1,0,0.2,0l0.7-0.1c0.1,0,0.1,0,0.2,0c0.1,0,0.1,0,0.1,0.1l0.6,0.5   c0,0-0.1-0.1-0.1-0.1c-0.1,0-0.1,0-0.2,0l-0.7,0.1c-0.1,0-0.1,0-0.2,0c-0.1,0-0.1,0-0.1-0.1L6,36.4c0,0,0.1,0.1,0.1,0.1   c0.1,0,0.1,0,0.2,0l0.8-0.2c-0.8,0.4-1.6,0.9-2.5,1.5c-0.5,0.3-1.1,0.4-1.7,0.1c-0.3-0.1-0.7-0.2-1-0.1c-0.3,0.1-0.6,0.2-0.7,0.5   c0.1,0,0.3-0.1,0.4-0.1c0.3,0,0.5,0.1,0.7,0.3c-0.3-0.1-0.7-0.1-1,0c-0.6,0.2-1,0.8-0.9,1.4C0.2,40,0,40.3,0,40.5   c0,0.2,0.1,0.3,0.2,0.5c0.1-0.3,0.3-0.5,0.6-0.5c0.1,0.1,0.3,0.1,0.4,0.2c0-0.1,0.1-0.2,0.2-0.2c0-0.1,0-0.1,0-0.2   c0-0.6,0.5-1.1,1.1-1.1c0,0,0.1,0,0.1,0c-0.5,0.1-0.8,0.5-0.8,1c0,0.1,0,0.1,0,0.2c-0.3,0.1-0.4,0.3-0.4,0.6c0,0.2,0.1,0.3,0.2,0.4   c0.2-0.4,0.5-0.6,1-0.6c0.2,0,0.3,0.1,0.5,0.1c0.1,0,0.2,0,0.3,0c-0.1-0.1-0.1-0.3-0.1-0.5c0-0.5,0.4-0.8,0.8-0.8c0,0,0.1,0,0.1,0   c-0.4,0.2-0.7,0.6-0.6,0.9c0.1,0.2,0.3,0.4,0.6,0.5c0,0.2-0.1,0.4-0.1,0.5c0.4,0,0.7-0.3,0.9-0.6c0.5-0.2,0.7-0.6,0.6-0.9   c0-0.1-0.1-0.2-0.2-0.3c0,0,0,0,0,0c0-0.2,0.2-0.4,0.4-0.4c0.2,0,0.4,0.2,0.4,0.4c0,0.1,0,0.2-0.1,0.3H7c0.1,0,0.1,0,0.2,0   c0,0,0.1-0.1,0.1-0.1l0.6-0.9c0,0,0.1-0.1,0.1-0.1c0,0,0.1,0,0.1,0h0.7c0,0-0.1,0-0.1,0c0,0-0.1,0-0.1,0.1L8,39.8   c0,0-0.1,0.1-0.1,0.1c0,0-0.1,0-0.2,0h1.1c0.1,0,0.1,0,0.2,0c0,0,0.1-0.1,0.1-0.1l0.7-1c-0.5-0.3-0.6-0.7-0.6-1.3   c0-0.4,0.2-0.8,0.2-1.1l0-0.1c0-0.1,0-0.1,0-0.2c0,0,0-0.1-0.1-0.1l0.6,0.6c0,0,0.1,0.1,0.1,0.1c0,0.1,0,0.1,0,0.2l0,0.1   c0,0.2-0.3,0.7,0.2,1.2c0,0,0.1,0.1,0.2,0.1l0.4,0.2v-1.4h0.5v1.6c0,0.1,0,0.1,0,0.2c0,0,0.1,0.1,0.1,0.1l0.5,0.3   c0.1,0,0.1,0,0.2,0.1c0.1,0,0.1,0,0.2,0l1-0.4c-0.1,0-0.1,0-0.2,0c-0.1,0-0.1,0-0.2-0.1l-1.1-0.7c0.5-0.5,0.2-1,0.2-1.2l0-0.1   c0-0.1,0-0.1,0-0.2c0-0.1,0.1-0.1,0.1-0.1l0.6-0.6c0,0-0.1,0.1-0.1,0.1c0,0.1,0,0.1,0,0.2l0,0.1c0,0.4,0.4,1.1,0.1,1.5l1,0.6   c0.1,0,0.1,0,0.2,0.1c0.1,0,0.1,0,0.2,0l1-0.4c-0.1,0-0.1,0-0.2,0c-0.1,0-0.1,0-0.2-0.1l-1.1-0.7c0.2-0.5,0-1.3-0.2-1.7l0-0.1   c0-0.1,0-0.1,0-0.2c0-0.1,0-0.1,0-0.2l0.4-0.7c0,0,0,0.1,0,0.2c0,0.1,0,0.1,0,0.2l0.1,0.3c0.1,0.1,0.1,0.2,0.2,0.4   c0.6-0.6,0.8-1.1,0.4-1.6l-0.1-0.1c0,0-0.1-0.1-0.1-0.1c0-0.1,0-0.1,0-0.2l0.2-0.8c0,0.1,0,0.1,0,0.2c0,0.1,0,0.1,0.1,0.1l0.4,0.5   c0.8,0.9,0.3,1.9-0.6,2.8c0,0.2,0.1,0.5,0.1,0.6l1.2,0.8c0,0,0.1,0,0.2,0.1c0.1,0,0.1,0,0.2,0l0.9-0.4c0,0-0.1,0-0.2,0   c-0.2,0-0.4-0.2-0.4-0.4c0-0.2,0.1-0.3,0.3-0.4c3.3-1,6.3-3.6,8.3-3.6c1,0,1.8,0.6,1.8,1.3c0,0.1,0,0.2-0.1,0.3   c-0.4,1.2,0.2,2.3,1.8,2.8c0.3,0.1,0.5,0.3,0.5,0.6c0,0.1,0,0.1,0,0.2c0,0,0.1,0,0.1,0c0.4,0,0.8-0.2,1.1-0.6c0.3,0,0.6,0,0.9-0.1   c0,0.1,0.1,0.2,0.1,0.3c0.1,0.3-0.1,0.7-0.3,0.7c-0.4,0.1-0.8,0-1.2,0c-0.7,0-1.2,0.6-1.2,1.2c0,0.1,0,0.1,0,0.2   c-0.2,0.1-0.4,0.4-0.4,0.6c0,0.1,0,0.3,0.1,0.4c0.2-0.2,0.5-0.4,0.8-0.5c0-0.6,0.5-1.1,1.1-1.1c0.1,0,0.2,0,0.3,0   c-0.6,0.1-1.1,0.6-1.1,1.2c0,0,0,0.1,0,0.1C29.1,40.9,29,41,29,41.1c0,0.2,0.1,0.3,0.2,0.4c0.1-0.3,0.4-0.5,0.7-0.6   c0.2-0.1,0.5-0.1,0.7-0.1c0-0.1,0-0.2,0-0.3c0-0.5,0.4-1,1-1c0,0,0.1,0,0.1,0C31.3,39.6,31,40,31,40.3c0,0.3,0.1,0.5,0.3,0.6   c0,0,0,0,0,0c0,0.2,0.1,0.4,0.2,0.5c0.1-0.4,0.4-0.6,0.7-0.6c0.3,0,0.6,0,0.8-0.1c0.3-0.1,0.6-0.4,0.6-0.8c0-0.3-0.1-0.5-0.3-0.6   c0.1-0.4,0.1-1.1-0.1-1.6c0,0,0.1,0,0.1,0C33.6,37.8,33.8,37.9,34,38.1 M17.1,45c0-0.1,0-0.2,0-0.3c0-0.2,0.2-0.3,0.4-0.3   c0.2,0,0.4,0.2,0.4,0.4c0,0.1,0,0.2-0.1,0.3c0.1,0,0.1,0,0.2,0c0.2,0,0.4,0,0.6-0.1c0.3-0.1,0.5-0.3,0.5-0.6c0-0.4-0.3-0.6-0.6-0.6   c0,0,0,0-0.1,0c0.1,0,0.2-0.1,0.3-0.1c0.4,0,0.7,0.3,0.7,0.7c0,0,0,0,0,0.1c1.1,0,2.4-1,2.6-1.4c-0.4,0.1-0.7,0.1-1.1,0.1   c-0.4,0-0.9-0.1-1.3-0.2c-0.5-0.1-1.1-0.2-1.5-0.2c-1.4,0-2.5,0.9-2.5,2c0,0.9,0.8,1.7,1.8,1.9c2.4,0.5,5.2-0.9,7.5-1.4   c0.6-0.6,1.3-1.1,2-1.4c0-0.1,0-0.2,0-0.3v0c-3.1,0.5-5.9,2.1-8.5,2.1C17.8,45.7,17.2,45.5,17.1,45 M17.1,39.2c0,0,0.1,0,0.1,0   c-0.5,0.1-0.8,0.5-1,0.9c-0.3,0.1-0.5,0.4-0.5,0.7c0,0.2,0,0.3,0.1,0.4c0.3-0.3,0.6-0.5,1-0.6c0.1-0.5,0.6-1,1.1-1   c-0.5,0.2-0.8,0.7-0.8,1.2c0,0.2,0,0.4,0.1,0.6c0.1-0.3,0.4-0.5,0.7-0.5c0.1,0,0.2,0,0.2,0c0.1,0,0.2,0.1,0.3,0.1c0.5,0,1-0.4,1-1   c0-0.1,0-0.2,0-0.3c0.3,0.1,0.4,0.3,0.4,0.6c0,0.1,0,0.2-0.1,0.3c0.1,0,0.1,0,0.2,0c0.6,0,1.2-0.5,1.2-1.1c0.3-0.2,0.6-0.4,0.8-0.7   l0.2,0.8c0,0.1,0,0.1,0,0.2c0,0.1,0,0.1-0.1,0.1l0.7-0.7c0,0,0.1-0.1,0.1-0.1c0-0.1,0-0.1,0-0.2l-0.2-1c0-0.1,0-0.1,0-0.2   c0-0.1,0-0.1,0.1-0.1l0.6-0.6c0,0-0.1,0.1-0.1,0.1c0,0.1,0,0.1,0,0.2l0.2,1c0,0.1,0,0.1,0,0.2c0,0.1,0,0.1-0.1,0.1l0.6-0.7   c0,0,0.1-0.1,0.1-0.1c0-0.1,0-0.1,0-0.2l-0.2-1c0-0.1,0-0.1,0-0.2c0-0.1,0-0.1,0.1-0.1l0.6-0.6c0,0-0.1,0.1-0.1,0.1   c0,0.1,0,0.1,0,0.2l0.2,1c0,0.1,0,0.1,0,0.2c0,0.1,0,0.1-0.1,0.1l0.6-0.7c0,0,0.1-0.1,0.1-0.1c0-0.1,0-0.1,0-0.2l-0.1-0.5   c-0.1-0.6,0.5-1.2,0.9-1.3c0.1-0.1,0.1-0.2,0.1-0.3c0-0.6-0.7-1-1.5-1c-0.4,0-0.8,0.1-1,0.3c0.1,0.3,0.1,0.7-0.9,0.8   c-0.8,0.1-1.6,0.3-2.2,0.8c-0.9,0.7-0.8,1.7-1.3,2.1c0.2,0.1,0.5,0.1,0.8,0c0.2,0,0.4-0.1,0.5-0.2c-0.1,0.2-0.3,0.3-0.6,0.5   c-0.1,0.3-0.4,0.7-0.8,0.8c-0.3,0.1-0.5,0.1-0.7,0l-1-0.3c-0.1,0-0.3-0.1-0.4-0.1c-0.8,0-1.4,0.6-1.5,1.3c-0.4,0.1-0.6,0.4-0.6,0.7   c0,0.1,0,0.3,0.1,0.4c0.2-0.2,0.6-0.4,0.9-0.5C16,39.6,16.5,39.2,17.1,39.2 M11.6,48.6c0.1-0.3,0.1-0.7,0.1-1l-0.3,0.4   c-0.1-0.1-0.1-0.2-0.1-0.3c0-0.1-0.1-0.1-0.1-0.1c0,0,0,0-0.1,0c0,0-0.1,0-0.1,0c0,0-0.1,0-0.1,0c0,0-0.1,0-0.1,0   c0,0-0.1,0-0.1,0.1c0,0.1-0.1,0.2-0.1,0.3l-0.3-0.4c0,0.3,0,0.6,0.1,1c0.2,0,0.4-0.1,0.7-0.1C11.2,48.5,11.4,48.5,11.6,48.6    M11.8,49.5c0-0.4-0.4-0.5-0.8-0.5c-0.4,0-0.8,0.1-0.8,0.5c0,0.5,0.5,0.2,0.8,0.2C11.3,49.7,11.7,49.9,11.8,49.5 M12.9,46.7   c-0.1,0-0.1,0.1-0.1,0.2c0,0.4-0.2,0.6-0.5,0.7c0,0.5-0.1,0.8-0.2,1.2c0.3,0.7,0.1,1.2-0.2,1.3c-0.3,0.1-0.6,0-0.9,0   c-0.3,0-0.7,0.1-0.9,0c-0.3-0.1-0.5-0.6-0.2-1.3c-0.1-0.4-0.2-0.8-0.2-1.2c-0.3-0.1-0.5-0.3-0.5-0.7c0-0.1-0.1-0.1-0.1-0.2   c-1.1-0.3-1.2-1.7-0.7-2.1c-0.1,0.6-0.1,1.5,1.2,1.6c0,0.7,0.3,0.9,0.6,0.9c0.3,0,0.4-0.1,0.5-0.1c0.2-0.1,0.1-0.3,0-0.4   c-0.2-0.2-0.3-0.4-0.2-0.6c0,0,0-0.1,0.1-0.1H11h0.4c0,0,0.1,0,0.1,0.1c0,0.2,0,0.4-0.2,0.6c-0.1,0.1-0.2,0.3,0,0.4   c0.1,0,0.2,0.1,0.5,0.1c0.3,0,0.7-0.2,0.6-0.9c1.3-0.1,1.2-1,1.2-1.6C14.2,45,14,46.4,12.9,46.7 M13.3,44.3c0,0.3-0.2,0.7-0.5,0.7   h-0.2c0.1,0.1,0.1,0.2,0.1,0.3c0,0.2-0.2,0.4-0.4,0.4c-0.2,0-0.4-0.2-0.4-0.4c0-0.1,0-0.2,0.1-0.3h-0.3c-0.1,0-0.2,0-0.2,0.1   c0-0.1,0-0.3,0-0.4c0-0.1,0.1-0.2,0.2-0.2h1.1C13,44.5,13.1,44.4,13.3,44.3 M13.1,43.7h-0.4c-0.2,0-0.3-0.1-0.5-0.2l-0.5-0.6   c-0.1-0.1-0.1-0.2-0.2-0.2H12c0.1,0,0.3,0.1,0.3,0.2l0.5,0.6C13,43.6,13,43.7,13.1,43.7 M11,42.7l0.6,0.8c0.1,0.1,0.2,0.2,0.3,0.3   h-0.5c-0.2,0-0.3-0.1-0.4-0.2l-0.5-0.7c-0.2-0.3-0.2-0.3-0.4-0.4h0.5C10.8,42.5,10.9,42.6,11,42.7 M9.7,42.9l0.5,0.6   c0.1,0.1,0.1,0.2,0.3,0.2h-0.4c-0.2,0-0.3-0.1-0.5-0.2l-0.5-0.6c-0.1-0.1-0.1-0.2-0.2-0.2h0.5C9.5,42.7,9.6,42.8,9.7,42.9    M9.4,44.9H9.2c-0.3,0-0.5-0.4-0.5-0.7c0.1,0.2,0.3,0.2,0.5,0.2h1.1c0.1,0,0.2,0.1,0.2,0.2c0,0.1,0,0.2,0,0.4   c-0.1-0.1-0.1-0.1-0.2-0.1h-0.3c0.1,0.1,0.1,0.2,0.1,0.3c0,0.2-0.2,0.4-0.4,0.4c-0.2,0-0.4-0.2-0.4-0.4C9.3,45.1,9.4,45,9.4,44.9    M8,50.4l0.1-0.3c0-0.1,0-0.1,0-0.2c0-0.1,0-0.1,0-0.2l0.4,0.7c0,0.1,0,0.1,0,0.2c0,0.1,0,0.1,0,0.2l0,0.1   c-0.2,0.5-0.4,1.3-0.2,1.8c-0.6-0.2-0.7-0.7-0.7-1.1c-1.1-1-1.3-2-0.6-2.9l0.4-0.5c0,0,0.1-0.1,0.1-0.1c0-0.1,0-0.1,0-0.2l0.2,0.8   c0,0.1,0,0.1,0,0.2c0,0.1,0,0.1-0.1,0.2l-0.1,0.1c-0.4,0.5-0.3,1.1,0.3,1.6C7.9,50.6,7.9,50.5,8,50.4 M34,53.2   c0-0.1,0.1-0.2,0.1-0.3c0-0.5-0.4-0.9-0.9-0.9h-0.9c-0.1,0-0.1,0-0.2,0c0,0-0.1-0.1-0.1-0.1l-0.4-0.6c0,0,0.1,0.1,0.1,0.1   c0,0,0.1,0,0.2,0l1.1,0c0.1,0,0.1,0,0.2,0c0,0,0.1,0.1,0.1,0.1l-0.5-0.8c0,0-0.1-0.1-0.1-0.1c0,0-0.1,0-0.2,0l-1.1,0   c-0.1,0-0.1,0-0.2,0c0,0-0.1-0.1-0.1-0.1l-0.5-0.7c0,0,0.1,0.1,0.1,0.1c0,0,0.1,0,0.2,0H32c0.1,0,0.1,0,0.2,0c0,0,0.1,0.1,0.1,0.1   l-0.5-0.8c0,0-0.1-0.1-0.1-0.1c0,0-0.1,0-0.2,0h-0.9c-0.1,0-0.1,0-0.2,0c0,0-0.1-0.1-0.1-0.1l-0.6-0.9c1.2-0.1,2.2-0.8,2.4-1.7   c0.3-1.2-0.9-2.3-2.6-2.6c-0.3,0-0.5-0.3-0.5-0.6c0-0.3,0.2-0.5,0.4-0.6c-0.2-0.1-0.4-0.1-0.6-0.1c-0.8,0-1.4,0.5-1.4,1.2   c0,0.1,0,0.2,0.1,0.3c-0.8,0.4-1.6,1-2.2,1.7c0.6-0.2,1.3-0.3,2-0.3c0,0,0-0.1,0-0.1c0-0.5,0.4-0.9,0.9-0.9h0   c-0.3,0.2-0.5,0.5-0.5,0.7c0,0.3,0.2,0.5,0.5,0.5c0.1,0,0.2,0,0.3-0.1c0-0.1,0-0.1,0-0.2c0-0.4,0.3-0.7,0.7-0.7c0,0,0.1,0,0.1,0   c-0.3,0.1-0.4,0.4-0.4,0.7c0,0.4,0.3,0.7,0.7,0.7c0,0,0.1,0,0.1,0c0,0,0-0.1,0-0.1c0-0.3,0.2-0.5,0.5-0.5c0.3,0,0.5,0.2,0.5,0.5   c0,0.6-0.7,0.7-1.2,0.6c-1.5-0.4-2.9-0.6-4.2-0.4c-1.7,0.2-4.5,1.4-7.5,1.3c-0.7,0-1.4-0.1-2.1-0.3c0.1,0.1,0.1,0.2,0.2,0.2   c0.3,0.5,0.4,0.9,0.1,1.5c0-0.7-0.5-1.2-1-1.5c-0.2-0.1-0.3-0.3-0.2-0.4l0.1-0.8c0,0.1,0,0.1,0,0.2c0,0.1,0,0.1,0.1,0.1l0.3,0.3   c0.1-0.8-0.1-1.5-0.5-2.2c0.2-0.5,0.2-1.1,0.1-1.7c-0.1,0.4-0.3,0.6-0.5,0.7c-0.4,0.2-0.4,0.6-0.2,0.9c-0.3-0.2-0.7-0.7-0.5-1.1   c0.3-0.4,1-0.2,1.1-0.8c-0.5-0.1-1,0-1.1,0c-0.3-0.3-0.6-0.5-1.1-0.5c-0.4-0.3-0.8-0.5-1.4-0.4c-0.6-0.1-1,0.1-1.4,0.4   c-0.5,0-0.8,0.2-1.1,0.5c-0.1,0-0.6-0.1-1.1,0c0.1,0.6,0.8,0.4,1.1,0.8c0.2,0.3-0.2,0.9-0.5,1.1c0.2-0.3,0.1-0.6-0.2-0.9   c-0.2-0.1-0.4-0.3-0.5-0.7c-0.1,0.6-0.1,1.1,0.1,1.7c-0.5,0.7-0.6,1.4-0.5,2.2l0.3-0.3c0,0,0.1-0.1,0.1-0.1c0-0.1,0-0.1,0-0.2   l0.1,0.8c0,0.2,0,0.3-0.2,0.4c-0.5,0.3-1,0.9-1,1.5c-0.3-0.6-0.2-1.1,0.1-1.5c-0.9-0.5-1.5-1.3-1.7-1.4c-0.3-0.3-0.2-0.7,0-1   c0.5-0.7,0.6-1.4,0-1.9c0,0,0-0.1,0-0.1c0-0.4-0.3-0.8-0.7-0.9C3.9,42.2,4,42.3,4,42.5c0,0.2-0.1,0.3-0.2,0.5C3.9,43,4,43.2,4,43.3   c0,0.2-0.1,0.4-0.2,0.5c0-0.1,0-0.1,0-0.2c0-0.5-0.3-0.8-0.7-0.9c-0.1-0.3-0.3-0.6-0.7-0.6c-0.2,0-0.4,0.1-0.5,0.2   c0.3,0,0.5,0.2,0.5,0.5c-0.1,0.1-0.2,0.2-0.3,0.4h0C2.6,43.2,3,43.6,3,44c0,0.1,0,0.1,0,0.2c0-0.2-0.1-0.4-0.3-0.5   c-0.3-0.3-0.6-0.3-1-0.2c-0.1-0.2-0.3-0.3-0.6-0.3c-0.3,0-0.5,0.1-0.6,0.3c0.3,0,0.5,0.1,0.6,0.3c-0.4,0.5-0.4,1.1,0,1.5   c0.3,0.2,0.6,0.3,0.9,0.2c0,0,0,0,0.1,0c0.1,0,0.2,0.1,0.2,0.2c0,0.1-0.1,0.2-0.2,0.2c-0.1,0-0.1,0-0.1-0.1   c-0.1-0.1-0.2-0.1-0.3-0.1c-0.3,0-0.5,0.2-0.5,0.5c0,0,0,0,0,0.1c0,0-0.1,0-0.1,0c-0.1,0-0.3-0.1-0.3-0.1c0,0.1,0,0.1,0,0.2   c0,0.3,0.3,0.6,0.6,0.7c0.2,0.4,0.5,0.6,1,0.6c0.2,0,0.4-0.1,0.6-0.2c0.1-0.1,0.2-0.1,0.3-0.1c0.2,0,0.5,0.2,0.5,0.5   c0,0.2-0.2,0.4-0.4,0.4l-0.4,0.1c-0.1,0-0.1,0-0.2,0c-0.1,0-0.1,0-0.1-0.1l0.8,0.8c0,0,0.1,0.1,0.1,0.1c0.1,0,0.1,0,0.2,0l0.7-0.1   c0.1,0,0.1,0,0.2,0c0.1,0,0.1,0,0.1,0.1l0.6,0.5c0,0-0.1-0.1-0.1-0.1c-0.1,0-0.1,0-0.2,0l-0.7,0.1c-0.1,0-0.1,0-0.2,0   c-0.1,0-0.1,0-0.1-0.1l0.7,0.7c0,0,0.1,0.1,0.1,0.1c0.1,0,0.1,0,0.2,0l0.7-0.1c0.1,0,0.1,0,0.2,0c0.1,0,0.1,0,0.1,0.1l0.6,0.5   c0,0-0.1-0.1-0.1-0.1c-0.1,0-0.1,0-0.2,0l-0.7,0.1c-0.1,0-0.1,0-0.2,0c-0.1,0-0.1,0-0.1-0.1L6,51.6c0,0,0.1,0.1,0.1,0.1   c0.1,0,0.1,0,0.2,0l0.8-0.2c-0.8,0.4-1.6,0.9-2.5,1.5c-0.5,0.3-1.1,0.4-1.7,0.1c-0.3-0.1-0.7-0.2-1-0.1c-0.3,0.1-0.6,0.2-0.7,0.5   c0.1,0,0.3-0.1,0.4-0.1c0.3,0,0.5,0.1,0.7,0.3c-0.3-0.1-0.7-0.1-1,0c-0.6,0.2-1,0.8-0.9,1.4C0.2,55.2,0,55.4,0,55.7   c0,0.2,0.1,0.3,0.2,0.5c0.1-0.3,0.3-0.5,0.6-0.5c0.1,0.1,0.3,0.1,0.4,0.2c0-0.1,0.1-0.2,0.2-0.2c0-0.1,0-0.1,0-0.2   c0-0.6,0.5-1.1,1.1-1.1c0,0,0.1,0,0.1,0c-0.5,0.1-0.8,0.5-0.8,1c0,0.1,0,0.1,0,0.2c-0.3,0.1-0.4,0.3-0.4,0.6c0,0.2,0.1,0.3,0.2,0.4   c0.2-0.4,0.5-0.6,1-0.6c0.2,0,0.3,0.1,0.5,0.1c0.1,0,0.2,0,0.3,0c-0.1-0.1-0.1-0.3-0.1-0.5c0-0.5,0.4-0.8,0.8-0.8c0,0,0.1,0,0.1,0   c-0.4,0.2-0.7,0.6-0.6,0.9c0.1,0.2,0.3,0.4,0.6,0.5c0,0.2-0.1,0.4-0.1,0.5c0.4,0,0.7-0.3,0.9-0.6c0.5-0.2,0.7-0.6,0.6-0.9   c0-0.1-0.1-0.2-0.2-0.3c0,0,0,0,0,0c0-0.2,0.2-0.4,0.4-0.4c0.2,0,0.4,0.2,0.4,0.4c0,0.1,0,0.2-0.1,0.3H7c0.1,0,0.1,0,0.2,0   c0,0,0.1-0.1,0.1-0.1l0.6-0.9c0,0,0.1-0.1,0.1-0.1C8,54,8,54,8,54h0.7c0,0-0.1,0-0.1,0c0,0-0.1,0-0.1,0.1L8,55c0,0-0.1,0.1-0.1,0.1   c0,0-0.1,0-0.2,0h1.1c0.1,0,0.1,0,0.2,0C9,55,9.1,55,9.1,55l0.7-1c-0.5-0.3-0.6-0.7-0.6-1.3c0-0.4,0.2-0.8,0.2-1.1l0-0.1   c0-0.1,0-0.1,0-0.2c0,0,0-0.1-0.1-0.1l0.6,0.6c0,0,0.1,0.1,0.1,0.1c0,0.1,0,0.1,0,0.2l0,0.1c0,0.2-0.3,0.7,0.2,1.2   c0,0,0.1,0.1,0.2,0.1l0.4,0.2v-1.4h0.5v1.6c0,0.1,0,0.1,0,0.2c0,0,0.1,0.1,0.1,0.1l0.5,0.3c0.1,0,0.1,0,0.2,0.1c0.1,0,0.1,0,0.2,0   l1-0.4c-0.1,0-0.1,0-0.2,0c-0.1,0-0.1,0-0.2-0.1l-1.1-0.7c0.5-0.5,0.2-1,0.2-1.2l0-0.1c0-0.1,0-0.1,0-0.2c0-0.1,0.1-0.1,0.1-0.1   l0.6-0.6c0,0-0.1,0.1-0.1,0.1c0,0.1,0,0.1,0,0.2l0,0.1c0,0.4,0.4,1.1,0.1,1.5l1,0.6c0.1,0,0.1,0,0.2,0.1c0.1,0,0.1,0,0.2,0l1-0.4   c-0.1,0-0.1,0-0.2,0c-0.1,0-0.1,0-0.2-0.1l-1.1-0.7c0.2-0.5,0-1.3-0.2-1.7l0-0.1c0-0.1,0-0.1,0-0.2c0-0.1,0-0.1,0-0.2l0.4-0.7   c0,0.1,0,0.1,0,0.2c0,0.1,0,0.1,0,0.2l0.1,0.3c0.1,0.1,0.1,0.2,0.2,0.4c0.6-0.6,0.8-1.1,0.4-1.6l-0.1-0.1c0,0-0.1-0.1-0.1-0.2   c0-0.1,0-0.1,0-0.2l0.2-0.8c0,0.1,0,0.1,0,0.2c0,0.1,0,0.1,0.1,0.1l0.4,0.5c0.8,0.9,0.3,2-0.6,2.8c0,0.2,0.1,0.5,0.1,0.6l1.2,0.8   c0,0,0.1,0,0.2,0.1c0.1,0,0.1,0,0.2,0l0.9-0.4c0,0-0.1,0-0.2,0c-0.2,0-0.4-0.2-0.4-0.4c0-0.2,0.1-0.3,0.3-0.4   c3.3-1,6.3-3.6,8.3-3.6c1,0,1.8,0.6,1.8,1.3c0,0.1,0,0.2-0.1,0.3c-0.4,1.2,0.2,2.3,1.8,2.8c0.3,0.1,0.5,0.3,0.5,0.6   c0,0.1,0,0.1,0,0.2c0,0,0.1,0,0.1,0c0.4,0,0.8-0.2,1.1-0.6c0.3,0,0.6,0,0.9-0.1c0,0.1,0.1,0.2,0.1,0.3c0.1,0.3-0.1,0.7-0.3,0.7   c-0.4,0.1-0.8,0-1.2,0c-0.7,0-1.2,0.6-1.2,1.2c0,0.1,0,0.1,0,0.2c-0.2,0.1-0.4,0.4-0.4,0.6c0,0.1,0,0.3,0.1,0.4   c0.2-0.2,0.5-0.4,0.8-0.5c0-0.6,0.5-1.1,1.1-1.1c0.1,0,0.2,0,0.3,0c-0.6,0.1-1.1,0.6-1.1,1.2c0,0,0,0.1,0,0.1   C29.1,56,29,56.1,29,56.3c0,0.2,0.1,0.3,0.2,0.4c0.1-0.2,0.4-0.5,0.7-0.6c0.2-0.1,0.5-0.1,0.7-0.1c0-0.1,0-0.2,0-0.3   c0-0.5,0.4-1,1-1c0,0,0.1,0,0.1,0c-0.4,0.1-0.7,0.4-0.7,0.8c0,0.3,0.1,0.5,0.3,0.6c0,0,0,0,0,0c0,0.2,0.1,0.4,0.2,0.5   c0.1-0.4,0.4-0.6,0.7-0.6c0.3,0,0.6,0,0.8-0.1c0.3-0.1,0.6-0.4,0.6-0.8c0-0.3-0.1-0.5-0.3-0.6c0.1-0.4,0.1-1.1-0.1-1.6   c0,0,0.1,0,0.1,0C33.6,52.9,33.8,53,34,53.2 M45.9,0h-1.1v68h1.1V0z"/>
	<path d="M186.8,31.3h-5v1h1.8v6.3h1.3v-6.3h1.9V31.3z M180.1,34.3h-2.7v-2h3.1v-1h-4.4v7.2h4.4v-1h-3.1v-2.3h2.7V34.3z M169.3,31.3   h-1.6v7.2h1.3v-4.8l0,0l1.6,4.8h0.9l1.6-4.8l0,0v4.7h1.3v-7.2h-1.6L171,37h0L169.3,31.3z M163.1,31.3L163.1,31.3l1.2,4H162   L163.1,31.3z M165.2,38.5h1.3l-2.8-9.1h-1.2l-2.8,9.1h1.3l0.7-2.3h2.9L165.2,38.5z M155.5,31.3h-1.3v7.2h1.3V31.3z M147.1,31.3   h-1.6v7.2h1.3v-4.8l0,0l1.6,4.8h0.9l1.6-4.8l0,0v4.7h1.3v-7.2h-1.6l-1.7,5.7h0L147.1,31.3z M143.3,34.3h-2.7v-2h3.1v-1h-4.4v7.2   h4.4v-1h-3.1v-2.3h2.7V34.3z M137.2,34.3h-2.7v-2h3.1v-1h-4.4v7.2h4.4v-1h-3.1v-2.3h2.7V34.3z M131.8,31.3h-5v1h1.8v6.3h1.3v-6.3   h1.9V31.3z M124.4,37.4c-0.2,0.2-0.5,0.3-0.9,0.3c-0.4,0-0.7-0.1-0.9-0.3c-0.2-0.2-0.4-0.5-0.4-1H121l0,0c0,0.7,0.2,1.3,0.7,1.7   c0.5,0.4,1.1,0.5,1.9,0.5c0.8,0,1.4-0.2,1.8-0.5s0.7-0.8,0.7-1.5c0-0.6-0.2-1.1-0.5-1.4c-0.4-0.3-0.9-0.6-1.7-0.8   c-0.6-0.2-0.9-0.3-1.1-0.5c-0.2-0.2-0.3-0.4-0.3-0.7c0-0.3,0.1-0.5,0.3-0.7c0.2-0.2,0.5-0.3,0.8-0.3c0.4,0,0.7,0.1,0.9,0.3   c0.2,0.2,0.3,0.5,0.3,0.9h1.2l0,0c0-0.7-0.2-1.2-0.6-1.6c-0.4-0.4-1-0.6-1.8-0.6c-0.7,0-1.3,0.2-1.7,0.6c-0.4,0.4-0.6,0.9-0.6,1.5   c0,0.6,0.2,1.1,0.5,1.4c0.4,0.3,0.9,0.6,1.7,0.8c0.5,0.2,0.9,0.3,1.1,0.5c0.2,0.2,0.3,0.4,0.3,0.7   C124.8,36.9,124.7,37.2,124.4,37.4 M116,29.3h-1.3v1.1h1.3V29.3z M118.7,29.3h-1.3v1.1h1.3V29.3z M118.2,31.3V36   c0,0.5-0.1,0.9-0.4,1.2c-0.3,0.3-0.6,0.4-1,0.4c-0.4,0-0.8-0.1-1-0.4c-0.3-0.3-0.4-0.7-0.4-1.2v-4.7h-1.3V36c0,0.8,0.2,1.5,0.7,1.9   c0.5,0.5,1.1,0.7,1.9,0.7c0.8,0,1.4-0.2,1.9-0.7c0.5-0.5,0.7-1.1,0.7-1.9v-4.7H118.2z M111,37.4c-0.2,0.2-0.5,0.3-0.9,0.3   c-0.4,0-0.7-0.1-0.9-0.3c-0.2-0.2-0.4-0.5-0.4-1h-1.2l0,0c0,0.7,0.2,1.3,0.7,1.7c0.5,0.4,1.1,0.5,1.9,0.5c0.8,0,1.4-0.2,1.8-0.5   c0.5-0.4,0.7-0.8,0.7-1.5c0-0.6-0.2-1.1-0.5-1.4c-0.4-0.3-0.9-0.6-1.7-0.8c-0.6-0.2-0.9-0.3-1.1-0.5c-0.2-0.2-0.3-0.4-0.3-0.7   c0-0.3,0.1-0.5,0.3-0.7c0.2-0.2,0.5-0.3,0.8-0.3c0.4,0,0.7,0.1,0.9,0.3c0.2,0.2,0.3,0.5,0.3,0.9h1.2l0,0c0-0.7-0.2-1.2-0.6-1.6   c-0.4-0.4-1-0.6-1.8-0.6c-0.7,0-1.3,0.2-1.7,0.6c-0.4,0.4-0.6,0.9-0.6,1.5c0,0.6,0.2,1.1,0.5,1.4c0.4,0.3,0.9,0.6,1.7,0.8   c0.5,0.2,0.9,0.3,1.1,0.5c0.2,0.2,0.3,0.4,0.3,0.7C111.4,36.9,111.3,37.2,111,37.4 M104.9,35.7c0,0.6-0.1,1.1-0.4,1.5   c-0.3,0.4-0.6,0.5-1,0.5c-0.5,0-0.8-0.2-1.1-0.5c-0.3-0.4-0.4-0.9-0.4-1.5v-1.5c0-0.6,0.1-1.1,0.4-1.5c0.2-0.4,0.6-0.5,1-0.5   c0.4,0,0.8,0.2,1,0.5c0.3,0.4,0.4,0.8,0.4,1.5V35.7z M106.2,34.2c0-0.9-0.2-1.6-0.7-2.1c-0.5-0.5-1.1-0.8-1.9-0.8   c-0.8,0-1.4,0.3-1.9,0.8c-0.5,0.5-0.7,1.3-0.7,2.1v1.5c0,0.9,0.2,1.6,0.7,2.2c0.5,0.5,1.1,0.8,1.9,0.8c0.8,0,1.4-0.3,1.9-0.8   s0.7-1.3,0.7-2.2V34.2z M99.1,34.5h-2.7v-2.2h3.2v-1h-4.4v7.2h1.3v-3.1h2.7V34.5z M92.9,31.3h-1.3v5l0,0l-2.8-5h-1.3v7.2h1.3v-5   l0,0l2.8,5h1.3V31.3z M85.3,29.5h-1.3v9.1h1.3V29.5z M79,31.3h-1.3v7.2H79V31.3z M76,34.8h-2.5v0.9h1.3v1.5   c-0.1,0.1-0.3,0.2-0.5,0.3c-0.2,0.1-0.5,0.1-0.8,0.1c-0.5,0-0.8-0.2-1.1-0.6c-0.3-0.4-0.4-0.9-0.4-1.5v-1.5c0-0.6,0.1-1.1,0.4-1.4   c0.3-0.4,0.6-0.6,1.1-0.6c0.4,0,0.7,0.1,1,0.3c0.2,0.2,0.3,0.5,0.3,1l1.2,0l0,0c0-0.7-0.2-1.2-0.6-1.6c-0.4-0.4-1.1-0.6-1.9-0.6   c-0.8,0-1.4,0.3-2,0.8c-0.5,0.6-0.8,1.3-0.8,2.1v1.5c0,0.9,0.3,1.6,0.8,2.1c0.5,0.5,1.2,0.8,2,0.8c0.7,0,1.2-0.1,1.6-0.3   c0.4-0.2,0.7-0.5,0.9-0.8V34.8z M69,31.3h-1.3v7.2H69V31.3z M65.6,31.3h-1.3v7.2h1.3V31.3z M58,30.4h1.6c0.5,0,0.8,0.1,1.1,0.4   c0.2,0.3,0.4,0.7,0.4,1.2c0,0.5-0.1,0.9-0.4,1.2c-0.2,0.3-0.6,0.4-1.1,0.4H58V30.4z M59.7,34.6c0.4,0,0.7,0.1,0.9,0.4   s0.3,0.7,0.3,1.2V37c0,0.3,0,0.6,0.1,0.9c0,0.3,0.1,0.5,0.3,0.6h1.3v-0.1c-0.1-0.1-0.2-0.3-0.3-0.6c-0.1-0.2-0.1-0.5-0.1-0.8v-0.8   c0-0.5-0.1-1-0.3-1.4c-0.2-0.4-0.5-0.6-1-0.8c0.4-0.2,0.7-0.5,0.9-0.8c0.2-0.4,0.3-0.8,0.3-1.2c0-0.8-0.2-1.5-0.7-1.9   c-0.5-0.4-1.1-0.7-2-0.7h-2.8v9H58v-3.9H59.7z"/>
</g>
<rect x="-11.3" y="-11.3" class="st1" width="226.8" height="90.7"/>
</svg>