<?xml version="1.0" encoding="UTF-8"?>
<svg width="43px" height="64px" viewBox="0 0 43 64" version="1.1" xmlns="http://www.w3.org/2000/svg" xmlns:xlink="http://www.w3.org/1999/xlink">
    <!-- Generator: Sketch 47.1 (45422) - http://www.bohemiancoding.com/sketch -->
    <title>Group 5@1x</title>
    <desc>Created with Sketch.</desc>
    <defs></defs>
    <g id="Landing" stroke="none" stroke-width="1" fill="none" fill-rule="evenodd">
        <g id="Landing-MobiilID" transform="translate(-243.000000, -323.000000)">
            <g id="Mobiil-ID" transform="translate(202.000000, 304.000000)">
                <g id="Group-5" transform="translate(41.000000, 19.000000)">
                    <path d="M12.027832,29.1940299 L10.847168,29.1940299 L10.847168,21.3673697 L8.47949219,22.2369986 L8.47949219,21.1705924 L11.84375,19.9074088 L12.027832,19.9074088 L12.027832,29.1940299 Z M21.5239258,29.1940299 L15.4682617,29.1940299 L15.4682617,28.3497916 L18.6674805,24.7951041 C19.1414412,24.2576665 19.4683422,23.8207405 19.6481934,23.4843131 C19.8280445,23.1478856 19.9179688,22.7998259 19.9179688,22.4401236 C19.9179688,21.9576993 19.7719741,21.5620327 19.4799805,21.2531119 C19.1879868,20.9441911 18.7986678,20.789733 18.3120117,20.789733 C17.7280244,20.789733 17.2741715,20.9558283 16.9504395,21.288024 C16.6267074,21.6202197 16.4648438,22.082536 16.4648438,22.6749869 L15.2905273,22.6749869 C15.2905273,21.8243967 15.5645318,21.1367408 16.1125488,20.6119986 C16.6605659,20.0872564 17.3937129,19.8248892 18.3120117,19.8248892 C19.1710655,19.8248892 19.8502579,20.0502288 20.3496094,20.5009146 C20.8489608,20.9516005 21.0986328,21.551448 21.0986328,22.3004752 C21.0986328,23.2103104 20.518886,24.2936329 19.359375,25.5504752 L16.8837891,28.2355338 L21.5239258,28.2355338 L21.5239258,29.1940299 Z M26.6274414,29.1940299 L25.4467773,29.1940299 L25.4467773,21.3673697 L23.0791016,22.2369986 L23.0791016,21.1705924 L26.4433594,19.9074088 L26.6274414,19.9074088 L26.6274414,29.1940299 Z M31.7753906,24.001647 L32.6577148,24.001647 C33.2120796,23.9931835 33.6479476,23.8471888 33.965332,23.5636588 C34.2827164,23.2801287 34.4414062,22.8971573 34.4414062,22.414733 C34.4414062,21.3313942 33.9018609,20.789733 32.8227539,20.789733 C32.3149389,20.789733 31.9097509,20.9346697 31.6071777,21.2245474 C31.3046046,21.5144252 31.1533203,21.8984545 31.1533203,22.376647 L29.9790039,22.376647 C29.9790039,21.644547 30.2466607,21.036236 30.7819824,20.5516959 C31.3173041,20.0671557 31.9975545,19.8248892 32.8227539,19.8248892 C33.6945031,19.8248892 34.3779272,20.0555184 34.8730469,20.5167838 C35.3681665,20.9780491 35.6157227,21.619156 35.6157227,22.4401236 C35.6157227,22.8421438 35.485597,23.2314629 35.2253418,23.6080924 C34.9650866,23.9847218 34.6106793,24.2661318 34.1621094,24.4523306 C34.6699244,24.6131387 35.0624172,24.8797376 35.3395996,25.2521353 C35.616782,25.624533 35.7553711,26.0794438 35.7553711,26.6168814 C35.7553711,27.4463126 35.4845405,28.1043464 34.9428711,28.5910025 C34.4012017,29.0776586 33.6966189,29.320983 32.8291016,29.320983 C31.9615842,29.320983 31.2559435,29.086122 30.7121582,28.6163931 C30.1683729,28.1466642 29.8964844,27.526716 29.8964844,26.7565299 L31.0771484,26.7565299 C31.0771484,27.2431859 31.2358383,27.632505 31.5532227,27.9244986 C31.8706071,28.2164922 32.2958958,28.3624869 32.8291016,28.3624869 C33.3961617,28.3624869 33.8299139,28.2143764 34.1303711,27.9181509 C34.4308283,27.6219255 34.5810547,27.1966368 34.5810547,26.642272 C34.5810547,26.1048345 34.4160173,25.6922409 34.0859375,25.4044791 C33.7558577,25.1167172 33.2797883,24.9686067 32.6577148,24.9601431 L31.7753906,24.9601431 L31.7753906,24.001647 Z" id="1213" fill="#000000"></path>
                    <path d="M38.2232609,0 L4.77673913,0 C3.50986915,0 2.29488686,0.481496661 1.3990745,1.33856621 C0.503262142,2.19563577 0,3.35807154 0,4.57015092 L0,59.4298491 C0,60.6419285 0.503262142,61.8043642 1.3990745,62.6614338 C2.29488686,63.5185033 3.50986915,64 4.77673913,64 L38.2232609,64 C39.4901309,64 40.7051131,63.5185033 41.6009255,62.6614338 C42.4967379,61.8043642 43,60.6419285 43,59.4298491 L43,4.57015092 C43,2.04612626 40.861381,-5.08381611e-14 38.2232609,0 Z M4.77673913,4.57015092 L38.2232609,4.57015092 L38.2232609,45.7104528 L4.77673913,45.7104528 L4.77673913,4.57015092 Z M4.77673913,59.4298491 L4.77673913,50.2806037 L38.2232609,50.2806037 L38.2232609,59.4298491 L4.77673913,59.4298491 Z" id="Shape" fill="#333333" fill-rule="nonzero"></path>
                    <rect id="Rectangle-path" fill="#000000" fill-rule="nonzero" x="19" y="51.5820896" width="5" height="4.7761194"></rect>
                </g>
            </g>
        </g>
    </g>
</svg>