<?xml version="1.0" encoding="utf-8"?>
<!-- Generator: Adobe Illustrator 19.2.1, SVG Export Plug-In . SVG Version: 6.00 Build 0)  -->
<svg version="1.1" id="Layer_1" xmlns="http://www.w3.org/2000/svg" xmlns:xlink="http://www.w3.org/1999/xlink" x="0px" y="0px"
	 viewBox="0 0 300 344" style="enable-background:new 0 0 300 344;" xml:space="preserve">
<style type="text/css">
	.st0{fill:#998A66;}
	.st1{fill:#998B66;}
	.st2{fill:#0039A6;}
	.st3{fill:#981E32;stroke:#981E32;stroke-width:7.620000e-002;stroke-linejoin:round;}
	.st4{fill:#981E32;}
</style>
<g id="__x0023_Layer_x0020_1">
	<path class="st0" d="M133.9,396.4L133.9,396.4L133.9,396.4z"/>
	<path class="st1" d="M150,339.2c-8.4-8.1-17.8-14.7-28.6-19.1c-7.4-3-12-4-19.8-6.1c-10.2-2.8-16.5-3.1-26.6-6
		c-12.4-3.5-20-5.8-30.6-13.4c-7.9-5.7-11.9-9.9-17.8-17.6c-9.5-12.4-16.6-29.8-20.5-45.3c7.9-9.1,22.9-29.6,26.7-45.8
		c-6.3,18.2-21.2,36.4-27.5,41.9l3.4-13.5c12.2-10.2,17.9-17.7,24.2-32.2c5.9-13.7,9-33.4,9.6-47.6c0.2-5.8,0.3-11-0.1-16l0-0.5
		l0-0.1v-0.1c-0.8-9.1-3.1-17.5-8.5-27.1c-3.2-5.7-6.8-11.5-12.8-14.5c1.2,4.2-1.8,9.1-5.8,10.6c-5.1,1.9-11.1-1.6-13.6-6
		c-1.9-3.4-2-6.5-1.2-9.6c0.1-0.3,0.1-0.6,0.3-0.9c0.2-0.6,0.4-1.3,0.7-1.9c0.8-1.3,1.6-2.1,2.9-3.2c6-5.2,13.4-3.7,20.3,0.1
		c4.9,2.7,6.6,5.9,9.4,10.7c2.9,4.9,3.3,8.2,4.8,13.7c1.4,4.9,2,9,3,12.7c-2.4-13.9-1.9-17.8-7.5-29.2c-4.8-9.7-14.5-13.1-22.5-13.1
		c-2.2,0-5,0.9-7.7,2.5c3.4-5.6,9.2-11.3,13.9-15c10.7-8.5,18.6-16.9,24.6-29.5c15.3,4.2,24,2.7,38.8-1.3C90.9,14.3,96,11,105.9,9
		c7.3-1.5,12.5-2.2,18.9-2.2c9,0,18.1,3.2,25.2,8.6c7.1-5.4,16.2-8.6,25.2-8.6c6.3,0,11.6,0.7,18.9,2.2c9.9,2,15,5.3,24.6,7.8
		c14.8,4,23.5,5.4,38.8,1.3c6,12.6,13.8,21,24.6,29.5c4.6,3.7,10.5,9.4,13.8,15c-2.6-1.6-5.5-2.5-7.7-2.5c-8,0-17.6,3.4-22.5,13.1
		c-5.7,11.4-5.1,15.2-7.5,29.2c1-3.7,1.6-7.8,3-12.7c1.6-5.4,2-8.8,4.8-13.7c2.8-4.8,4.5-8,9.4-10.7c6.9-3.9,14.3-5.3,20.3-0.1
		c1.3,1.1,2.1,2,2.9,3.2c0.2,0.7,0.5,1.3,0.7,1.9c0.1,0.3,0.2,0.6,0.3,0.9c0.8,3.1,0.7,6.2-1.2,9.6c-2.5,4.4-8.5,7.9-13.6,6
		c-4-1.5-7-6.3-5.8-10.6c-6,3-9.6,8.8-12.8,14.5c-5.3,9.6-7.7,18-8.5,27.1v0.1l0,0.1l0,0.5c-0.4,5-0.4,10.3-0.1,16
		c0.6,14.2,3.7,33.9,9.6,47.6c6.3,14.5,12,22.1,24.2,32.2l3.4,13.5c-6.3-5.5-21.2-23.7-27.5-41.9c3.7,16.2,18.7,36.7,26.7,45.8
		c-3.9,15.5-11,32.8-20.5,45.3c-5.9,7.7-9.9,11.9-17.8,17.6c-10.6,7.7-18.2,9.9-30.6,13.4c-10,2.8-16.3,3.2-26.6,6
		c-7.8,2.1-12.3,3-19.8,6.1C167.7,324.5,158.4,331.1,150,339.2L150,339.2z"/>
	<path class="st2" d="M160,213.8c-0.3,0-0.6,0-0.9,0l-0.7,0c-2.4,0.1-4,0.2-6.4,1.3c-3.1,1.5-4.8,2.7-6,5.4
		c-1.2,2.7-1.3,4.8-0.2,7.5c1,2.5,2.6,3.9,4.9,5.3c2.8,1.7,4.8,1.8,7.8,2c0.4,0,0.8,0.1,1.2,0.1c0.7,0.1,1.4,0.1,2.1,0.1
		c3,0,5.3-0.5,8.2-1.2c0.9-0.2,1.7-0.4,2.7-0.6c2.7-0.6,4.6-1.2,6.6-1.9c1.3-0.4,2.6-0.9,4.2-1.3c4.6-1.3,7.1-2,11.6-3.2
		c1.8-1.8,3-2.8,5-4.2c2.1-1.5,3.4-2.3,5.8-3.5l-0.2-1.2c-4.4,0.9-7,1.5-11.2,2.7c-3,0.8-5.1,1.6-7.5,2.4c-1.9,0.7-3.9,1.4-6.4,2.1
		c-1.2,0.4-2.3,0.7-3.3,1c-3.1,1-5.5,1.7-9.2,2.4c-0.7,0.1-1.3,0.3-2,0.4c-1.5,0.3-2.8,0.6-4.4,0.6c-0.3,0-0.6,0-0.9,0
		c-0.5,0-1,0-1.4,0c-1.8,0-3.3,0-4.9-1.4l-0.1-0.1c-0.9-0.8-1.6-1.3-1.8-2.6c-0.2-0.9-0.2-1.5,0.3-2.3c0.5-0.7,1-1,1.8-1l0.1,0
		c1,0,1.8,0.6,2.1,1.5c0.3,0.8,0.1,1.5-0.4,2.1c0.9,0.1,1.4,0,2.4-0.1c0.2,0,0.5-0.1,0.7-0.1c0.9-0.1,1.5-0.2,2.2-0.8
		c0.9-0.8,1.2-1.5,1.2-2.5c0-1.2-0.5-2.1-1.6-2.9c-0.7-0.5-1.2-0.6-2-0.6l-0.7,0l0.7-0.2c1.3-0.5,2.2-0.4,3.5,0.3
		c0.6,0.3,0.9,0.6,1.4,1.2c0.7,0.9,0.9,1.6,0.8,2.7c2.1-0.2,3.3-0.5,5.3-1.3c1.7-0.7,2.7-1.5,4-2.5c0.2-0.2,0.5-0.4,0.8-0.6
		c1.5-1.1,2.4-1.9,3.8-3.1c-2.6,0.5-4.3,0.6-7,0.6h-0.1c-2.4,0-4.3-0.6-6.1-1.1C163.9,214.3,162.2,213.8,160,213.8L160,213.8z"/>
	<path class="st2" d="M119,250.8c0.5,0,1,0.1,1.5,0.2c0.5,0.1,0.9,0.2,1.3,0.2c0.7,0,1.1-0.2,1.3-0.8c0.4-0.8,0.4-1.4,0-2
		c-0.2-0.3-0.3-0.5-0.6-0.7l-0.1-0.1c-1-1-2.1-1-3.6-1c-1.4,0-2.5,0-3.6,1l-0.1,0.1c-0.2,0.2-0.4,0.4-0.5,0.6c-0.3,0.6-0.3,1.2,0,2
		c0.2,0.5,0.7,0.8,1.3,0.8c0.4,0,0.8-0.1,1.3-0.2C117.9,250.9,118.5,250.8,119,250.8L119,250.8z"/>
	<path class="st2" d="M157.2,279.2l-0.9,0.4c-1.1,0.5-1.7,0.9-2.5,1.8c-1.3,1.5-1.6,2.8-1.7,4.8c0,1,0,1.7,0.3,2.7
		c0.5-0.8,1-1.2,1.8-1.7c0.7-0.4,1.1-0.7,2-0.8c0.4-0.1,0.7,0,1.1,0c0.2,0,0.4,0.1,0.7,0.1c0.8,0,1.3,0.1,2.2,0.1
		c1.1-0.6,1.8-1.1,2.7-1.9c1-0.9,1.5-1.4,2.2-2.5c-0.1-0.3-0.2-0.5-0.3-0.7c0-0.1-0.1-0.3-0.1-0.4l-0.1-0.2
		c-0.1-0.3-0.2-0.5-0.3-0.8l-0.1-0.2l0.2,0c0.8,0.1,1.2,0.3,1.7,0.9c0.6,0.6,0.7,1.2,0.7,2.1c0.1,0.9,0,1.5-0.4,2.2
		c0.3,0,0.6,0,0.9,0c1.1,0,2-0.2,3.2-0.9c1.3-0.7,1.9-1.2,2.6-2.3c0.6-0.9,0.8-1.5,0.9-2.6l0-0.1l0.1,0c1.2-0.7,1.8-1.1,2.8-2
		c0.8-0.7,1.2-1.1,1.8-1.9l0.2-0.2l0.9,3.1c0.2,0.8,0.2,1.3,0.1,2.1c-0.1,0.3-0.1,0.6-0.2,0.8l2.7-2.9c0.6-0.6,0.9-1,1.1-1.8l0,0
		c0.1-0.5,0.2-0.9,0.1-1.4l-1.1-3.3c-0.2-0.7-0.2-1.2,0.1-2c0.2-0.6,0.4-1,0.9-1.5l2.2-2.3l-0.2,0.6c-0.1,0.4-0.2,0.5-0.2,0.9
		c0,0.1,0,0.2-0.1,0.3c-0.1,0.3-0.1,0.5,0,0.9l1.1,2.6c0.3,0.8,0.2,1.3,0.1,2l0,0.1c-0.1,0.5-0.2,0.9-0.3,1.2l2.7-2.8
		c0.6-0.6,0.9-1,1.1-1.8c0.2-0.6,0.2-0.9,0.1-1.5l-1.1-3.3c-0.2-0.7-0.2-1.2,0.1-2c0.2-0.7,0.5-1,0.9-1.5l2.2-2.4l-0.2,0.6
		c-0.2,0.4-0.2,0.6-0.2,1c0,0.1,0,0.2-0.1,0.3c-0.1,0.3-0.1,0.6,0,0.9l1.1,2.7c0.3,0.8,0.2,1.3,0.1,2.1l0,0.1
		c-0.1,0.5-0.2,0.9-0.3,1.2l2.7-2.8c0.4-0.4,0.5-0.8,0.7-1.3l0-0.1c0.2-0.7,0.2-1.1,0.2-1.8l-0.2-1.7c0-0.1-0.1-1.4,0.1-2.3
		c0.3-1,0.8-1.5,1.4-2.1c0.2-0.2,0.4-0.4,0.6-0.6c1.1-1.2,1.9-1.8,3.3-2.6c0.6-1.3,0.5-2.3,0-3.6c-0.4-1-0.9-1.5-1.9-2.2
		c-0.9-0.6-1.5-0.8-2.5-1l-0.2-0.1c-1.1-0.3-1.9-0.4-2.7-0.4c-0.6,0-1.3,0.1-2.1,0.2c-1.4,0.2-2.3,0.5-3.6,1.3
		c0.2,0.5,0.2,0.9,0.2,1.5c-0.1,0.8-0.4,1.3-1,1.9c-0.6,0.6-1.2,0.8-1.9,0.9c-0.3,0.1-0.5,0.1-0.8,0.2c-1.1,0.4-2,0.5-3,0.6
		c-0.8,0.1-1.5,0.2-2.5,0.4c-0.5,0.1-1,0.3-1.5,0.4c-2.5,0.6-4.3,1.1-6.4,2.9c-1.7,1.4-2.4,2.5-3.6,4.4l-0.1,0.2c-0.7,1.1-1,2-1.3,3
		c-0.4,1.1-0.7,2.2-1.6,3.3c-0.2,0.3-0.4,0.6-0.7,0.9c1.4,0.2,2.1,0.1,3.6-0.1c1.3-0.2,2-0.5,3.3-1l0.4-0.2l-0.3,0.4
		c-0.5,0.7-0.9,1.1-1.6,1.7c-0.6,0.4-1,0.7-1.7,0.9c-0.6,1.6-1.3,2.5-2.7,3.6c-1.5,1.1-2.6,1.4-4.6,1.5c-0.1,0-0.1,0-0.2,0
		c-1,0-1.7-0.3-2.5-0.5c-0.5-0.2-0.9-0.3-1.5-0.4c-0.6-0.2-1.2-0.3-1.7-0.5c-1-0.3-1.8-0.6-3-0.6c-1.2,0-1.9,0.1-3.1,0.7
		c-1.5,0.6-2.2,1.3-3.2,2.6c-1,1.3-1.4,2.2-1.6,3.9l0,0.1l-0.1,0c-1,0.3-1.5,0.7-2.1,1.4c-0.7,0.8-1,1.3-1.1,2.3
		c-0.1,0.8,0.1,1.3,0.4,2c0.7-0.7,1.2-1.1,2.2-1.7c0.9-0.6,1.6-0.8,2.6-1.1c0.3-1,0.7-1.6,1.4-2.5c0.8-0.9,1.3-1.4,2.5-1.9
		c0.8-0.4,1.5-0.5,2.2-0.5c0.3,0,0.6,0,0.9,0.1l0.5,0.1l-0.5,0.2c-1.7,0.7-2.6,1.3-3.8,2.7c-0.7,0.8-1.1,1.4-1.5,2.4l0,0l-0.1,0
		c-0.5,0.2-0.8,0.4-1.2,0.7c-0.6,0.6-0.9,1.1-1.1,1.9c-0.3,1.1-0.2,2,0.3,3c0.9-0.9,1.5-1.4,2.6-2.1c0.9-0.5,1.5-0.8,2.5-1
		c0.3-1.3,0.7-2.1,1.6-3.2c1.3-1.5,2.5-2.1,4.4-2.4L157.2,279.2L157.2,279.2z"/>
	<path class="st2" d="M243.1,268.1c-0.2-0.9-0.2-1.5-0.8-2.2c-0.5-0.7-1.2-1-1.8-1.3l-0.2-0.1c-0.6-0.2-1.8-0.4-2.5-0.4h-1.2
		c-0.5,0-0.9,0-1.5-0.2l-0.2,0c-0.6-0.2-1-0.3-1.5-0.8l-2.8-3l0.6,0.3c0.3,0.1,0.5,0.2,0.8,0.2l0.1,0c0.3,0.1,0.5,0.1,0.8,0.1h3.4
		c0.8,0,1.2,0.1,1.9,0.3l0.1,0c0.4,0.1,0.7,0.2,1,0.3l-1.7-2.7c-0.4-0.6-0.6-0.9-1.1-1.3c-0.7-0.5-1.1-0.7-1.9-0.7l-4.7,0
		c-0.5,0-0.9,0-1.4-0.3c-0.5-0.3-0.7-0.6-1-0.9c-0.1-0.1-0.1-0.2-0.2-0.3l-2.2-2.8l0.5,0.3c0.4,0.2,0.7,0.3,1.1,0.4
		c0.3,0.1,0.6,0.1,1,0.1h3.7c0.9,0,1.4,0.1,2.3,0.4c0.4,0.1,0.7,0.3,1.1,0.4l-3.1-4.1c-0.4-0.5-0.6-0.7-1.1-1
		c-0.6-0.3-1-0.5-1.6-0.5h-3.3c-0.7,0-1.1,0-1.7-0.3c-0.6-0.3-1-0.5-1.3-1.1l-2.9-4.8h0.2c2.2,0,3.5-0.3,5.6-1.1
		c2.3-1,3.8-1.7,5.3-3.8c1.5-2.1,2-3.7,1.9-6.3c-0.1-2.1-0.5-3.4-1.7-5.3c-1.1-1.7-2.1-2.4-3.8-3.6c-1.1-0.7-2-1-3-1.3
		c-0.6-0.2-1.2-0.4-1.9-0.7c-0.7-0.3-1.5-0.5-2.2-0.6c-1.4-0.3-2.7-0.5-3.4-1.9c-0.5-1-0.9-1.8-0.6-2.9c0.3-0.9,0.8-1.5,1.6-1.9
		c-1-0.3-1.8-0.5-2.6-0.5c-1,0-2.1,0.2-3.3,0.8c-1.7,0.7-2.6,1.3-3.4,2.7c-0.9,1.6-1.1,3-0.5,4.7l0,0.1l-0.1,0
		c-2.2,1.1-3.4,1.9-5.4,3.4c-2.7,2-4.1,3.3-6.2,5.7c1.9-0.5,3.1-0.7,5.2-1c1.9-0.2,3.1-0.3,5-0.3c-0.1-1.1,0.1-1.8,0.6-2.8
		c1-1.9,2.5-2.8,4.6-2.8l0.7,0l-0.6,0.3c-0.9,0.4-1.3,0.7-1.9,1.5c-0.8,1.1-1.2,2-0.7,3.1c0.4,1,1.2,1.6,2.2,1.7
		c0.6,0,0.9-0.1,1.4-0.4c-0.2-0.7-0.1-1.1,0-1.8c0.5-1.9,2.1-3.1,4.1-2.9l0.5,0l-0.4,0.2c-0.6,0.3-0.9,0.5-1.3,1
		c-1.3,1.5-1.4,3.4-0.2,5c0.9,1.2,2.2,1.7,3.7,1.5c-0.2-0.3-0.3-0.6-0.3-1.1c0-0.6,0.2-1.1,0.6-1.5c0.6-0.6,1.5-0.9,2.4-0.9
		c1.7,0,3,1.3,3.1,2.8c0.1,2.8-2,3.1-4,3.3c-0.3,0-0.6,0.1-0.9,0.1c-0.2,0-0.4,0-0.6,0c-0.7,0-1.3-0.2-1.9-0.3
		c-0.4-0.1-0.8-0.2-1.2-0.3c-1.1-0.2-1.9-0.4-2.7-0.6c-0.8-0.2-1.5-0.4-2.5-0.6c-4.5-0.8-7.2-1.3-11.7-1c-2.7,0.1-4.5,0.5-6.7,1
		c-0.8,0.2-1.5,0.3-2.4,0.5c-2.9,0.6-5.2,1.2-7.4,1.8c-2.1,0.6-4.3,1.2-7.2,1.7c-1.4,0.3-2.6,0.5-3.8,0.8c-4.3,0.9-7.6,1.7-12.7,1.7
		c-6.8,0.1-10.9-0.4-17.4-2.3c0.6,1.2,0.9,2,1.1,3.3c0.1,0.8,0.1,1.3,0.1,2.1l0,0.6l-0.2-0.6c-0.7-1.7-1.2-2.5-2.2-3.9
		c-0.6-0.9-1.3-1.6-1.9-2.2c-0.7-0.7-1.4-1.4-2.1-2.4c-0.1-0.1-0.2-0.3-0.2-0.4c-0.2-0.3-0.4-0.5-0.5-0.9c-0.2-0.6-0.2-1-0.1-1.6
		c0.1-0.5,0.3-0.8,0.5-1.2l0.2-0.3v0.4c0,0.4,0.1,0.6,0.2,1c0.1,0.2,0.2,0.3,0.4,0.6l4,4c0.4-2.7,0.3-4.4-0.4-7.1
		c-0.6-2.1-1.1-3.2-2.4-5l0-0.1l0-0.1c0.7-1.9,0.9-3,1-5c0-1.5-0.1-2.3-0.4-3.7c-0.8,0.5-1.3,0.8-2.1,1.4c-0.2,0.1-0.4,0.2-0.5,0.4
		c-0.3,0.2-0.6,0.4-0.9,0.8c-0.5,0.6-0.7,1.1-0.8,1.9c-0.1,0.8-0.1,1.2,0.2,1.9l0.1,0.3l-0.3-0.2c-0.9-0.5-1.3-1-1.8-1.9
		c-0.4-0.8-0.7-1.5-0.4-2.5c0.2-0.7,0.5-1.1,1.1-1.6c0.6-0.5,1.1-0.5,1.7-0.6c0.3,0,0.7-0.1,1.1-0.2c1-0.3,1.5-0.5,2.4-0.9
		c0-0.1-0.1-0.2-0.1-0.3l0-0.1c-0.1-0.1-0.1-0.2-0.2-0.3l0,0c-1-0.2-1.7-0.3-2.5-0.3c-0.3,0-0.7,0-1.2,0.1c-0.8,0.1-1.3,0.2-2,0.4
		l-0.1,0l-0.1-0.1c-1.1-1.2-1.9-1.8-3.4-2.2c-1-0.3-1.5-0.4-2.5-0.3h0l0,0c-1.2-1.1-2.1-1.5-3.7-2c-0.8-0.2-1.4-0.3-1.9-0.3
		c-0.3,0-0.5,0-0.8,0c-0.3,0-0.7,0-1,0c-0.4,0-0.7,0-1,0c-0.3,0-0.5,0-0.8,0c-0.5,0-1.1,0-1.9,0.3c-1.6,0.4-2.5,0.9-3.7,2l0,0h0
		c-0.9,0-1.5,0.1-2.5,0.3c-1.5,0.5-2.3,1-3.4,2.2l-0.1,0.1l-0.1,0c-0.8-0.2-1.3-0.3-2-0.4c-0.5,0-0.8-0.1-1.2-0.1
		c-0.8,0-1.5,0.1-2.5,0.3c-0.1,0.1-0.1,0.2-0.2,0.4c-0.1,0.1-0.1,0.2-0.2,0.4c0.9,0.4,1.4,0.6,2.4,0.9c0.4,0.1,0.7,0.2,1.1,0.2
		c0.6,0.1,1.1,0.1,1.7,0.6c0.6,0.5,0.9,0.9,1.1,1.6c0.3,0.9,0,1.6-0.4,2.5c-0.4,0.9-0.9,1.4-1.8,1.9l-0.3,0.2l0.1-0.3
		c0.2-0.7,0.3-1.1,0.2-1.9c-0.1-0.8-0.3-1.3-0.8-1.9c-0.3-0.4-0.6-0.6-0.9-0.8c-0.2-0.1-0.3-0.2-0.5-0.3c-0.8-0.6-1.3-0.9-2.1-1.5
		c-0.3,1.4-0.4,2.2-0.4,3.7c0.1,2,0.3,3.1,1,5l0,0.1l0,0.1c-1.2,1.7-1.8,2.9-2.3,5c-0.8,2.7-0.9,4.5-0.4,7.1l4-4
		c0.2-0.2,0.3-0.3,0.4-0.6c0.2-0.4,0.2-0.6,0.2-1v-0.4l0.2,0.3c0.3,0.4,0.4,0.7,0.5,1.2c0.1,0.6,0.1,1-0.1,1.6
		c-0.1,0.4-0.3,0.7-0.5,1c-0.1,0.1-0.1,0.2-0.2,0.3c-0.6,1.1-1.4,1.8-2.1,2.4c-0.6,0.6-1.3,1.2-1.9,2.2c-1,1.5-1.5,2.4-2.2,4
		l-0.1,0.3l-0.1-0.3c-0.3-0.6-0.3-1-0.4-1.6c0-0.6,0.1-0.9,0.3-1.4c-2.2-1.3-3.4-2.1-5.4-3.6c-0.3-0.3-0.7-0.5-1-0.7
		c-1.4-1.1-2.5-1.8-3.8-3.4c-0.4-0.5-0.9-0.9-1.3-1.4c-1.5-1.5-2.8-2.8-2.5-5.1c0.1-0.9,0.5-1.5,0.9-2.2c0.2-0.4,0.5-0.8,0.7-1.3
		c0.2-0.5,0.4-1,0.7-1.4c0.5-1,0.9-1.8,0.9-3.1c-0.1-1.9-0.7-3.2-2.1-4.5l0,0l0-0.1c0.1-1.2,0-1.9-0.6-2.9c-0.7-1.3-1.6-2-2.9-2.4
		c0.4,0.8,0.5,1.4,0.5,2.4c-0.1,0.9-0.2,1.5-0.7,2.2c0.5,0.7,0.7,1.3,0.7,2.3c-0.1,1.1-0.4,1.9-1.3,2.6l-0.3,0.2l0.1-0.4
		c0.2-1.4,0.1-2.4-0.6-3.6c-0.7-1.3-1.4-2-2.8-2.5l-0.1,0l0-0.1c-0.4-1.8-1.8-2.9-3.6-2.9c-1,0-1.7,0.3-2.4,0.9
		c0.9,0.2,1.5,0.6,2.1,1.4c0.3,0.5,0.5,0.8,0.5,1.4l0,0.1l-0.1,0c-0.4,0.2-0.6,0.4-0.8,0.8c-0.3,0.4-0.5,0.6-0.6,1.1
		c1.4,0.1,2.4,0.6,3.3,1.7c1,1.2,1.4,2.3,1.2,3.8l-0.1,0.6l-0.2-0.5c-0.3-0.9-0.6-1.4-1.2-2c-1.5-1.7-3.3-2.2-5.5-1.7l-0.1,0l0-0.1
		c-0.8-0.8-1.6-1.2-2.7-1.2c-0.1,0-0.2,0-0.3,0c-1.2,0.1-2.1,0.5-2.8,1.5c0.8,0.1,1.3,0.3,2,0.7c0.6,0.4,0.9,0.7,1.3,1.2l0.1,0.1
		l-0.1,0.1c-0.4,0.4-0.5,0.7-0.8,1.2c-0.5,1.1-0.7,1.8-0.6,3c0.1,1.3,0.3,2.2,1.2,3.2c0.9,1.1,1.8,1.7,3.2,1.7
		c0.4,0,0.6-0.1,0.9-0.2c0.1,0,0.2-0.1,0.3-0.1c0.2-0.1,0.3-0.1,0.5-0.2c0.2-0.1,0.5-0.3,0.9-0.3c0.7,0.1,1.2,0.6,1.2,1.2
		c0.1,0.5-0.2,1.2-1.2,1.6c-0.3,0.1-0.6,0-0.9-0.1c-0.1-0.1-0.3-0.1-0.4-0.2c-0.2,0-0.4-0.1-0.6-0.2c-0.3-0.1-0.5-0.2-0.9-0.2
		c-0.8,0.1-1.2,0.4-1.7,1c-0.5,0.6-0.7,1.1-0.7,1.9v0.1l-0.1,0c-0.6,0.2-1,0.2-1.6,0c-0.4-0.1-0.7-0.2-0.9-0.5c-0.2,1,0,1.8,0.6,2.6
		c0.7,0.9,1.4,1.3,2.5,1.4l0.1,0l0,0.1c0.7,1.5,1.5,2.3,3,3l0.2,0.1c0.6,0.3,1.1,0.5,1.8,0.5l0.1,0c0.7,0,1.1-0.3,1.6-0.6
		c0.2-0.1,0.5-0.3,0.8-0.4c0.2-0.1,0.4-0.2,0.6-0.3c0.3-0.2,0.6-0.4,1-0.4c0.8-0.1,1.3,0,1.9,0.4c0.9,0.6,1.3,1.4,1.3,2.4
		c0,1.5-1.2,2.2-2.3,2.7c-0.8,0.4-1.4,0.5-2.2,0.4l1.9,1.7c0.7,0.7,1.2,1,2.1,1.4c0.9,0.4,1.5,0.6,2.6,0.6h0.4c1,0,1.6,0,2.7,0.3
		c0.1,0,0.3,0.1,0.4,0.1c0.8,0.2,1.5,0.4,2.2,1l2.6,2.6l-0.6-0.2c-0.5-0.2-0.8-0.3-1.3-0.4l-0.3,0c-0.4-0.1-0.7-0.1-1.1-0.1h-0.5
		c-1.1,0-1.8-0.1-2.9-0.4c-0.7-0.1-1.1-0.3-1.6-0.4l3.1,2.9c0.7,0.6,1.2,1,2.1,1.4c0.9,0.4,1.5,0.6,2.6,0.6h0.4c1,0,1.6,0,2.6,0.3
		l0.3,0.1c0.9,0.2,1.6,0.4,2.3,1.1l2.7,2.6l-0.6-0.2c-0.6-0.2-0.9-0.3-1.5-0.4l-0.1,0c-0.4-0.1-0.6-0.1-1.1-0.1h-0.7
		c-1.1,0-1.8-0.1-2.9-0.4c-0.6-0.1-1-0.2-1.5-0.4l3.6,3.2c0.5,0.5,0.8,0.7,1.4,1c0.6,0.3,1,0.4,1.7,0.4h5.3l-0.4,0.2
		c-1.9,1.1-3.1,1.9-4.3,2.6c-1.3,0.9-2.5,1.7-4.4,2.6c-1.1,0.6-2.1,1.2-3.1,1.9c-2.1,1.4-3.9,2.6-6.7,2.6c-0.2,0-0.4,0-0.7,0
		c-1-0.1-1.8-0.3-2.6-0.6c-0.5-0.2-1-0.3-1.7-0.5c-0.4-0.1-0.6-0.1-0.9-0.2c-0.6-0.2-1.1-0.3-1.8-0.3h-0.3c-1.3,0-2.1,0.1-3.3,0.8
		c-0.8,0.5-1.3,0.9-1.7,1.7c1-0.3,1.6-0.3,2.7-0.2c1.3,0.2,2.1,0.6,3.1,1.5l0.4,0.3l-0.5-0.1c-0.9-0.2-1.4-0.3-2.3-0.3l-0.2,0
		c-2.1,0-3.2,0.2-4.8,1.3c-1.5,1-2.5,2-2.9,3.8c-0.2,1-0.2,1.7,0,2.7l0,0.1l-0.1,0.1c-0.5,0.4-0.7,0.6-1.1,1.1
		c-0.1,0.1-0.1,0.2-0.2,0.3c-0.5,0.6-0.9,1.1-0.9,1.9c0,0.9,0.2,1.5,0.9,2.1c0.4-1,0.9-1.6,1.9-2.2c0.7-0.4,1.1-0.5,2-0.5l0,0l0,0
		c0.3,0.2,0.5,0.3,0.8,0.5c0.4,0.2,0.6,0.3,1,0.4l0.9-1c-0.2-1.8,0.2-3.1,1.4-4.5c1.3-1.6,2.8-2.3,4.8-2.3c0.1,0,0.3,0,0.4,0l0.8,0
		l-0.8,0.2c-2,0.5-3.1,1.6-3.9,3.5c-0.5,1.1-0.5,1.9-0.3,3.1l0,0.1l-0.1,0c-0.9,0.4-1.3,0.9-1.7,1.8c-0.6,1.3-0.6,2.6,0.2,3.7
		c0.5-0.9,1-1.4,1.9-2.1c1.1-0.8,1.8-1.1,3.1-1.4l0,0l0,0c0.7,0.2,1.1,0.3,1.7,0.3c1,0.1,1.5,0.1,2.5-0.1c-0.4-0.7-0.5-1.2-0.5-2.1
		c-0.1-2.3,0.9-4,2.9-4.8c0.6-0.2,1.1-0.3,1.6-0.3c0.2,0,0.5,0,0.8,0.1l0.6,0.1l-0.6,0.2c-0.9,0.3-1.4,0.5-2,1.2
		c-1,1-1.6,1.9-1.3,3.3c0.2,1,0.6,1.7,1.5,2.3c0.6,0.4,1,0.5,1.7,0.5l0.1,0l0,0.1c0,0.5,0,0.9-0.2,1.4c-0.1,0.6-0.2,0.9-0.5,1.4
		c1.2-0.2,2-0.5,3-1.3c0.8-0.6,1.1-1.1,1.5-1.9l0,0l0.1,0c0.8-0.2,1.1-0.4,1.7-0.9c1.4-1.1,1.9-2.2,1.7-3.6
		c-0.1-0.9-0.4-1.5-1.1-2.1l0,0l0,0c-0.1-0.7,0.2-1.4,0.6-1.9c0.5-0.5,1.1-0.8,1.8-0.8c0.7,0,1.3,0.3,1.8,0.9
		c0.5,0.6,0.8,1.4,0.7,2.2c-0.1,0.4-0.2,0.7-0.4,1l4,0c0.7,0,1-0.1,1.6-0.4c0.6-0.3,1-0.6,1.4-1.2l1.7-2.8c0.3-0.5,0.5-0.8,1.1-1.2
		l0.1-0.1c0.4-0.3,0.7-0.5,1.3-0.5h0l3.4,0l-0.3,0.2c-0.3,0.2-0.5,0.4-0.8,0.6c-0.2,0.2-0.4,0.4-0.6,0.7l-1.4,2.3
		c-0.4,0.7-0.8,1.1-1.4,1.6c-0.3,0.3-0.6,0.5-0.9,0.7l4.6-0.1c0.7,0,1-0.1,1.6-0.4c0.7-0.4,1-0.6,1.4-1.2l3.5-5.5
		c-0.2-0.1-0.4-0.3-0.7-0.5c-1.1-0.7-2.7-1.8-3.3-3.5c-0.3-0.9-0.4-1.5-0.4-2.4c0-0.8,0.2-1.3,0.4-2c0.1-0.4,0.3-0.6,0.4-0.9
		c0.2-0.3,0.3-0.5,0.4-0.9l0-0.1c0.2-0.5,0.3-0.9,0.3-1.4c0-0.5,0-0.8-0.1-1.2l-0.1-0.3l2.1,1.1c0.5,0.3,0.7,0.5,1,1
		c0.3,0.5,0.3,0.8,0.3,1.4c0,0.4-0.1,0.6-0.3,0.9c-0.1,0.1-0.1,0.3-0.2,0.4c-0.1,0.3-0.2,0.6-0.3,0.8c-0.2,0.4-0.3,0.8-0.4,1.3
		c-0.1,0.8-0.1,1.4,0.3,2.2c0.3,0.8,0.8,1.1,1.4,1.5c0.2,0.1,0.4,0.3,0.6,0.5c1.1,0.8,1.8,1.3,3,1.8v-7.9h3.2v7.5
		c0,0.6,0.1,1,0.4,1.6c0.3,0.5,0.5,0.8,1,1l2.3,1.1c0.6,0.3,1.1,0.3,1.6,0.3c0.2,0,0.5,0,0.7,0c0.7,0,1.2-0.1,1.8-0.4l3.6-1.5
		c-0.2,0-0.4-0.1-0.7-0.1c-0.4-0.1-0.7-0.3-0.9-0.4c-0.1-0.1-0.3-0.2-0.5-0.3l-5.6-3l0.2-0.1c0.7-0.5,0.9-1.1,1.2-1.9
		c0.2-0.7,0.2-1.1,0.2-1.9c0-0.4-0.1-0.8-0.2-1.1c-0.1-0.2-0.1-0.4-0.2-0.7c0-0.2-0.1-0.3-0.1-0.4c-0.1-0.2-0.1-0.4-0.1-0.8
		c0-0.5,0-0.8,0.2-1.2c0.1-0.3,0.2-0.6,0.6-0.8l2.6-1.7l-0.1,0.3c-0.1,0.4-0.1,0.6-0.1,1c0,0.5,0.1,0.8,0.2,1.3
		c0.1,0.3,0.2,0.6,0.3,0.8c0.1,0.2,0.2,0.5,0.3,0.8l0,0c0.1,0.6,0.2,1,0.2,1.7c0,1.3-0.2,2.1-0.7,3.2l5.5,3.1
		c0.6,0.3,0.9,0.5,1.5,0.5c0.2,0,0.3,0,0.5,0c0.4,0,0.7-0.1,1-0.2l4.5-1.7c-0.2,0-0.4-0.1-0.7-0.1c-0.4-0.1-0.7-0.3-1-0.5
		c-0.1-0.1-0.3-0.2-0.4-0.3l-5.4-2.9c-0.2-0.1-0.4-0.2-0.6-0.3c-0.1,0-0.1,0-0.2-0.1c-0.4-0.1-0.6-0.2-1-0.3l-0.2-0.1l0.1-0.1
		c0.2-0.3,0.3-0.5,0.3-0.7c0-0.1,0.1-0.2,0.1-0.3c0.2-0.6,0.3-0.9,0.4-1.5c0.2-1.4,0.1-2.2-0.2-3.5l0-0.1c-0.1-0.7-0.4-1.2-0.6-1.7
		c-0.2-0.6-0.5-1.1-0.6-1.9c-0.1-0.4-0.2-0.7-0.2-1.2c0-0.1,0-0.2,0-0.3c0-0.3,0-0.6,0.3-0.9l3.1-2.6l-0.1,0.3
		c-0.1,0.4-0.1,0.7-0.1,1.1c0,0.3,0,0.5,0.1,0.8c0.1,0.4,0.2,0.7,0.4,1c0.1,0.2,0.2,0.4,0.3,0.7c0.3,0.6,0.4,1,0.6,1.6
		c0.4-0.4,0.6-0.7,1-1.1l0.1-0.1c0.6-0.8,1.1-1.4,1.4-2.4c0.3-0.9,0.4-1.4,0.3-2.3c-0.1-0.9-0.1-1.5-0.6-2.3l-1.4-2.1
		c-0.4-0.5-0.5-0.9-0.5-1.6c-0.1-0.8,0.2-1.2,0.4-1.9l0.1-0.2l1.4-3.2l0.2,0.1c-0.2,0.6-0.2,0.9-0.1,1.5c0,0.5,0.1,0.7,0.3,1.1
		l1.1,2.1l1.4,1.9l1.4,3.3c0.2,1.2,0.2,2,0,3.1c-0.2,1.4-0.7,2.1-1.4,3.2l-0.2,0.3c-1,1.7-2.6,3.2-3.6,4.1c-0.2,0.2-0.5,0.4-0.6,0.6
		c0,0.2,0.1,0.6,0.1,1c0,1-0.2,1.6-0.6,2.4l7.1,3.8c0.6,0.3,0.9,0.5,1.5,0.5c0.2,0,0.4,0,0.6,0c0.3,0,0.6-0.1,0.9-0.2l2.9-1.5
		c-0.2,0-0.5-0.1-0.7-0.2c-0.6-0.3-0.8-0.7-1-1.3c-0.5-1.4,0.5-2.9,1.8-3.5c2.4-1.2,4.9-2.2,7.5-3.3c2.7-1.1,5.5-2.3,8.6-3.7
		c3-1.4,5.3-2.7,7.6-4c3-1.7,5.9-3.3,10-4.9c1.1-0.4,2.1-0.9,3.1-1.4c2.2-1.1,4.1-2,7-2h0.7c2.4,0,4,0.1,5.9,1.4
		c1,0.6,1.7,1.1,2.4,2.2c0.6,0.9,0.8,1.6,1.1,2.6c0.3,1.4,0,2.5-0.4,3.6c-0.3,0.9-0.6,1.9-0.5,3.1c0.3,2.8,0.8,4.7,2.7,6.9
		c1.3,1.5,2.4,2.1,4.1,3c0.3,0.2,0.7,0.4,1.1,0.6c0.6,0.3,1.1,0.5,1.6,0.6c0.8,0.2,1.5,0.4,2.2,1.2l0.1,0.1c0.5,0.5,0.8,0.9,1,1.6
		c0.2,0.6,0.2,1,0,1.5c1,0,1.7-0.1,2.8-0.5c1.7-0.6,2.6-1.3,3.6-2.8l0-0.1h4.8l0,0.1c0.5,0.8,0.6,1.4,0.6,2.3c0,1,0.1,1.8-0.7,2.6
		c-0.6,0.7-1.3,0.7-2.1,0.8c-0.2,0-0.4,0-0.5,0.1c-0.2,0-0.4,0-0.6,0c-0.5,0-1-0.1-1.4-0.2c-0.5-0.1-1-0.2-1.7-0.2
		c-0.2,0-0.4,0-0.6,0c-1.3,0-2.2,0.1-3.5,0.7c-1.6,0.9-2.4,1.8-3,3.6c-0.4,1.2-0.5,1.9-0.3,3.1l0,0.1l-0.1,0c-0.7,0.4-1,0.8-1.3,1.4
		c-0.7,1.3-0.7,2.4-0.1,3.7c0.7-0.8,1.2-1.2,2.1-1.8c0.8-0.5,1.2-0.7,2-1c0.1-2.5,1.4-4.3,3.7-5.3c0.9-0.4,1.6-0.5,2.3-0.5
		c0.4,0,0.9,0.1,1.5,0.2l0.6,0.1l-0.6,0.1c-1.6,0.4-2.6,0.9-3.7,2.1c-1.5,1.6-2,3-1.9,5.2l0,0l0,0c-0.5,0.6-0.6,1.1-0.6,1.9
		c0,0.8,0.3,1.3,0.8,1.8c1.2-1.9,2.5-2.8,4.7-3.4c0.7-0.2,1.3-0.3,1.8-0.3c0.3,0,0.6,0,1,0.1c-0.4-1.8-0.1-3.3,1.1-4.8
		c1.1-1.4,2.5-2.1,4.2-2.1c0.2,0,0.5,0,0.7,0l0.7,0.1l-0.7,0.2c-1.1,0.3-1.8,0.8-2.6,1.8c-0.7,1-1,1.7-0.9,2.8
		c0.1,1.2,0.6,2.1,1.7,2.7l0.1,0l0,0.1c-0.1,0.6,0,1,0.2,1.6c0.2,0.6,0.4,0.9,0.9,1.2c0.2-0.8,0.5-1.3,1.1-2c0.5-0.5,0.8-0.7,1.4-1
		c1-0.4,1.7-0.1,2.7-0.3c0.5-0.1,0.9-0.1,1.3-0.2c1.1-0.1,2-0.3,3-1.1c0.9-0.8,1.4-1.5,1.6-2.8c0.2-1.6-0.2-2.8-1.4-3.9l-0.1,0
		l0-0.1c0.3-1.7,0.3-2.7,0.3-4.4c-0.1-1.8-0.2-2.9-0.6-4.6l0-0.2h0.7c0.4,0,0.6,0,1,0.1c0.1,0,0.3,0.1,0.5,0.1
		c0.5,0.1,1,0.6,1.5,1.2C243.2,269.5,243.2,269,243.1,268.1L243.1,268.1z M131.5,221.3L131.5,221.3l0,0.3c0,0.8-0.3,1.4-0.9,2.1
		c-0.6,0.7-1.2,1.1-2.1,1.1h-1.7c0.4,0.4,0.8,0.9,0.8,1.7c0,1.1-0.9,2.1-2.1,2.1c-1.2,0-2.1-0.9-2.1-2.1c0-0.6,0.2-1.1,0.6-1.5
		l0.2-0.2h-2c-0.4,0-0.7,0.2-1.1,0.6l-0.2,0.2v-0.9c0-0.1,0-0.2,0-0.3c0-0.2,0-0.4,0-0.6c0.1-0.6,0.6-1.4,1.3-1.4h6.6
		c0.9,0,1.9-0.4,2.5-1L131.5,221.3L131.5,221.3z M124.3,213.6L124.3,213.6c0.4,0,0.6,0.1,0.9,0.3c0.3,0.2,0.5,0.3,0.7,0.7l2.1,2.8
		c0.1,0.1,0.1,0.2,0.1,0.2c0,0.1,0.1,0.2,0.2,0.3c0.2,0.2,0.4,0.3,0.6,0.3l0.5,0.3h-2.3c-0.6,0-0.9-0.1-1.4-0.4
		c-0.5-0.3-0.7-0.5-1-1l0,0l-1.7-2.2c0-0.1-0.1-0.1-0.1-0.2c-0.1-0.1-0.2-0.2-0.3-0.4c-0.2-0.2-0.3-0.3-0.6-0.4l-0.5-0.2H124.3
		L124.3,213.6z M117.3,212.6L117.3,212.6c0.6,0,0.9,0.2,1.3,0.4c0.4,0.2,0.6,0.4,0.9,0.8l2.5,3.6c0.2,0.2,0.2,0.3,0.4,0.5
		c0.3,0.3,0.5,0.4,0.9,0.6l0.5,0.2h-2.9c-0.6,0-1-0.1-1.4-0.5c-0.3-0.2-0.4-0.4-0.5-0.7c0-0.1-0.1-0.1-0.1-0.2l-2.1-3.2
		c-0.2-0.3-0.3-0.5-0.6-0.7c-0.4-0.4-0.6-0.5-1.1-0.6l-0.8-0.3H117.3L117.3,212.6z M111.6,213.6L111.6,213.6c0.4,0,0.6,0.1,0.9,0.3
		c0.3,0.2,0.5,0.3,0.7,0.7l2.1,2.8c0.1,0.1,0.1,0.2,0.2,0.2c0.1,0.1,0.1,0.2,0.2,0.3c0.2,0.2,0.3,0.3,0.6,0.3l0.6,0.3h-2.3
		c-0.6,0-0.9-0.1-1.4-0.4c-0.4-0.2-0.6-0.5-0.9-0.9l-0.1-0.1l-1.7-2.2c0-0.1-0.1-0.1-0.1-0.2c-0.1-0.1-0.2-0.2-0.3-0.3
		c-0.2-0.2-0.3-0.3-0.6-0.4l-0.5-0.2L111.6,213.6L111.6,213.6z M106.7,221.6L106.7,221.6c0.6,0.6,1.6,1,2.5,1h6.6
		c0.4,0,0.7,0.2,1,0.6c0.3,0.4,0.3,0.9,0.3,1.4c0,0.1,0,0.2,0,0.3l-0.1,0.8l-0.2-0.2c-0.3-0.3-0.6-0.5-1-0.5h-1.9
		c0.5,0.5,0.8,0.9,0.8,1.7c0,1.1-0.9,2.1-2.1,2.1s-2.1-0.9-2.1-2.1c0-0.6,0.2-1.1,0.6-1.5l0.2-0.2h-1.7c-0.9,0-1.4-0.4-2-1.1
		c-0.6-0.7-0.9-1.3-0.9-2.1l0-0.3L106.7,221.6L106.7,221.6z M106.5,258.6L106.5,258.6l-0.8,2.2c-0.2,0.6-0.2,0.9-0.3,1.4l0,0.3
		c-0.2,1.4-0.3,2.3-0.1,3.6l0,0.3l-0.2-0.2c-0.4-0.3-0.7-0.6-1.1-1c-0.3-0.4-0.5-0.7-0.8-1.1l-0.1-0.1c-0.7-1.1-1-1.8-1.5-3
		l-0.1-0.3c-0.3-0.1-0.6-0.2-0.9-0.2c-1.2-0.3-2.5-0.6-3.4-1.7c-0.9-1.2-1.1-2.2-1.3-3.6l0-0.3c-0.2-1.3-0.2-2.1,0-3.4l1.2-3.7
		l1.3-2.1l1-2.3c0.2-0.4,0.2-0.7,0.3-1.2c0.1-0.7,0-1.1-0.1-1.7l-0.2-0.8l2.2,3.3c0.4,0.7,0.4,1.2,0.4,2c0,0.8-0.1,1.4-0.4,2.1
		l-1.7,3.3c-0.5,0.9-0.5,1.5-0.6,2.5l0,0.1c0,0.1,0,0.3,0,0.4c0,0.8-0.1,1.4,0.3,2.2c0.6,1.3,1.6,2.1,3.1,2.2c0-0.6,0.1-1,0.2-1.6
		c0.1-0.4,0.2-0.7,0.3-0.9c0.1-0.3,0.2-0.5,0.2-0.9c0.1-0.3,0.1-0.5,0.1-0.9c0-0.4,0-0.7-0.1-1.1l-0.1-0.6l3.2,4.5
		c0.3,0.4,0.3,0.7,0.4,1.1l0,0.2C106.7,257.9,106.7,258.2,106.5,258.6L106.5,258.6z M134.7,230.3L134.7,230.3c-0.6,1-1,1.5-1.9,2.2
		c-0.7,0.5-1.2,0.7-1.9,0.9c-0.3,0.1-0.6,0.2-0.9,0.4c-0.1,0-0.2,0.1-0.3,0.1c-0.1,0-0.2,0.1-0.3,0.1c-0.2,0.1-0.2,0.3-0.2,0.5
		c0,0.1,0,0.2-0.1,0.2c-0.1,0.2-0.1,0.4-0.1,0.7c0,0.2-0.1,0.4-0.1,0.7l0,0.1c-0.2,0.6-0.3,1-0.8,1.5c-0.6,0.7-1.1,1-2,1.2
		c0,1.3-0.1,2-0.2,3.2c-0.2,1.6-0.4,2.4-0.8,3.9c0.3,0.5,0.4,0.8,0.5,1.2c0.2,0.8,0.3,1.3,0.3,2.2c0,1.2-0.1,2.1-0.9,3
		c-0.6,0.7-1.3,1.1-2.3,1.1c-0.5,0-1.1-0.1-1.7-0.2c-0.6-0.1-1.3-0.2-2-0.2s-1.4,0.1-2,0.2c-0.6,0.1-1.2,0.2-1.7,0.2
		c-1,0-1.8-0.3-2.3-1.1c-0.8-1-0.8-1.8-0.9-3c0-0.9,0.1-1.4,0.3-2.2c0.2-0.5,0.3-0.8,0.5-1.2c-0.4-1.5-0.6-2.4-0.8-3.9
		c-0.2-1.3-0.2-2-0.2-3.2c-0.9-0.2-1.4-0.6-2-1.2c-0.5-0.6-0.6-1-0.8-1.6c-0.1-0.3-0.1-0.5-0.1-0.7c0-0.2,0-0.4-0.1-0.6
		c0-0.1-0.1-0.2-0.1-0.3c0-0.2-0.1-0.3-0.2-0.5c-0.1-0.1-0.2-0.1-0.3-0.1c-0.1,0-0.2,0-0.3-0.1c-0.3-0.1-0.6-0.2-0.9-0.4
		c-0.6-0.2-1.2-0.4-1.9-0.9c-0.8-0.7-1.3-1.2-1.9-2.2c-0.6-1.1-1-1.9-0.9-3.2c0-0.7,0.1-0.9,0.3-1.6c0.1-0.3,0.3-0.7,0.4-1l0.1-0.1
		c0.2-0.4,0.4-0.6,0.7-0.9c0.3-0.3,0.6-0.5,1-0.7l0.2-0.1v3.8c0,1.3,0.3,2.1,1,3.2c0.7,0.9,1.3,1.3,2.5,1.9c1.1,0.5,1.8,0.7,3,0.7
		l0.1,0l0,0.1c-0.1,0.9,0,1.4,0.2,2.1c0,0.1,0.1,0.2,0.1,0.3c0.2,0.7,0.3,1.2,0.8,1.6c0.6,0.5,1.2,0.5,2,0.6c0.8,0,1.2,0,2-0.4
		c0.1-0.1,0.3-0.1,0.4-0.2c0.4-0.2,0.8-0.3,0.8-0.7c0-0.2,0-0.4-0.1-0.6c-0.1-0.3-0.3-0.4-0.5-0.6c-0.2-0.1-0.3-0.3-0.5-0.5
		c-0.3-0.4-0.4-0.7-0.6-1.2l-0.1-0.2c-0.1-0.3-0.2-0.6-0.1-1c0-0.1,0-0.1,0-0.2c0-0.3,0.1-0.7,0.5-0.7h4.8c0.4,0,0.4,0.4,0.4,0.7
		c0,0.1,0,0.1,0,0.2c0.1,0.4,0,0.7-0.1,1.1l0,0.1c-0.1,0.5-0.3,0.7-0.5,1.1l0,0c-0.1,0.2-0.3,0.4-0.5,0.5c-0.2,0.2-0.4,0.3-0.5,0.6
		c-0.1,0.3-0.1,0.4-0.1,0.6c0.1,0.4,0.4,0.6,0.9,0.7c0.1,0.1,0.3,0.1,0.4,0.2c0.7,0.3,1.2,0.4,2,0.4c0.9,0,1.4-0.1,2-0.6
		c0.5-0.5,0.7-0.9,0.8-1.6c0-0.1,0.1-0.2,0.1-0.3c0.2-0.8,0.3-1.3,0.2-2.1l0-0.1l0.1,0c1.2,0,1.9-0.2,3-0.7c1.2-0.6,1.8-0.9,2.5-1.9
		c0.7-1,1-1.9,1-3.2v-3.8l0.2,0.1c0.4,0.2,0.6,0.4,1,0.7c0.3,0.3,0.5,0.5,0.7,0.9l0.1,0.2c0.2,0.3,0.3,0.6,0.4,0.9
		c0.2,0.7,0.2,0.9,0.3,1.6C135.7,228.4,135.3,229.2,134.7,230.3L134.7,230.3z"/>
	<path class="st3" d="M123.3,240.1c0,1.6-0.1,3.3-0.5,4.9c-1.3-0.3-2.5-0.3-3.8-0.3c-1.3,0-2.6,0.1-3.8,0.3
		c-0.4-1.9-0.5-3.7-0.4-5.6l1.7,2c0.1-0.3,0.9-2.1,1.3-2.2l0.1,0c0.5,0.3,0.6,0.3,1.2,0.3c0.6,0,0.7,0,1.2-0.3
		c0.4,0.2,0.7,1.1,0.9,1.4c0.1,0.3,0.3,0.6,0.4,0.8l1.7-2L123.3,240.1L123.3,240.1z"/>
	<g id="_272254576">
		<path id="_272254768" class="st4" d="M143.4,278.9c0,0.8,0.1,1.4,0.7,2c0.4,0.6,0.8,0.8,1.4,1.1c-1.1,0.3-1.7,0.6-2.6,1.1
			c-1,0.5-1.5,1-2.3,1.7c-0.5-0.7-0.6-1.3-0.5-2.1c0.1-1,0.4-1.6,1.1-2.3C141.9,279.6,142.4,279.2,143.4,278.9L143.4,278.9z"/>
		<path id="_272254528" class="st4" d="M150.3,285c-1,0.3-1.6,0.5-2.5,1c-1.2,0.6-1.8,1.2-2.7,2.1c-0.6-1.1-0.8-1.9-0.4-3.2
			c0.2-0.9,0.5-1.4,1.1-2c0.4-0.4,0.7-0.6,1.2-0.8c1.1,0.3,1.8,0.7,2.5,1.5C149.8,284.2,150,284.5,150.3,285L150.3,285z"/>
		<path id="_272254648" class="st4" d="M157,286.5c-0.7-1.3-1.6-1.8-3-2c-0.7-0.1-1.1-0.1-1.8,0.2c-0.1,0.5-0.1,1-0.1,1.6
			c-0.1,1.2,0,1.8,0.4,3c0.6-0.9,1-1.4,1.9-1.9c0.7-0.4,1.1-0.6,1.9-0.8C156.5,286.5,156.8,286.5,157,286.5L157,286.5z"/>
		<path id="_272255056" class="st4" d="M63.6,217.4c-0.4-0.6-0.7-0.8-1.2-1.2c-0.8-0.4-1.3-0.6-2.2-0.7c0.8-1.1,1.7-1.6,3-1.7
			c1.3-0.1,2.2,0.3,3.1,1.2c-0.8,0.4-1.3,0.8-1.9,1.4C64.1,216.8,63.9,217,63.6,217.4z"/>
		<path id="_272255128" class="st4" d="M70.2,211.4c-0.1-0.6-0.2-0.9-0.5-1.4c-0.6-0.9-1.2-1.3-2.3-1.4c0.8-0.8,1.5-1.1,2.7-1.1
			c1.9,0,3.4,1.2,3.8,3c-1-0.1-1.6-0.1-2.5,0.3C70.9,210.9,70.7,211.1,70.2,211.4L70.2,211.4z"/>
		<path id="_272254456" class="st4" d="M82.1,212.7c-0.5-0.4-0.9-0.6-1.6-0.8c-0.9-0.2-1.6-0.2-2.5,0.2c0.5-0.7,0.7-1.3,0.8-2.2
			c0.1-1-0.1-1.7-0.6-2.6c1.6,0.4,2.5,1.1,3.3,2.5C82,210.8,82.2,211.5,82.1,212.7z"/>
		<path id="_119670312" class="st4" d="M64.6,234.8c-1.2-0.1-1.9-0.6-2.6-1.6c-0.7-1-0.8-1.9-0.5-3.1c0.3,0.3,0.6,0.5,1,0.6
			c0.6,0.2,1,0.2,1.6,0c0,0.4,0,0.6,0,1C64.1,233.1,64.2,233.7,64.6,234.8L64.6,234.8z"/>
		<path id="_119669952" class="st4" d="M62.1,280.8c0.5,1,0.9,1.6,1.7,2.3c0.3,0.3,0.5,0.4,0.9,0.6c-0.8,0-1.3,0.1-1.9,0.5
			c-1,0.6-1.5,1.2-1.9,2.3c-0.8-0.6-1.1-1.3-1-2.4c0-1,0.5-1.5,1.1-2.2C61.3,281.5,61.6,281.2,62.1,280.8z"/>
		<path id="_119670000" class="st4" d="M69.7,283.7c0.6,0.6,1,0.9,1.8,1.4c0.7,0.4,1.1,0.6,1.8,0.9c-1.3,0.2-2.1,0.6-3.1,1.4
			c-0.9,0.7-1.4,1.2-2,2.2c-0.9-1.3-1-2.6-0.3-4C68.3,284.6,68.8,284.2,69.7,283.7z"/>
		<path id="_119671152" class="st4" d="M86,286.2c-0.5,0.9-0.8,1.3-1.6,1.9c-1.1,0.9-1.9,1.2-3.3,1.4c0.3-0.6,0.5-0.9,0.6-1.6
			c0.1-0.5,0.2-0.8,0.2-1.4c0.6,0.1,1,0.1,1.7,0C84.5,286.6,85,286.5,86,286.2L86,286.2z"/>
		<path id="_119670552" class="st4" d="M212.5,281c-0.7,0.4-1,0.8-1.4,1.5c-0.7,1.3-0.7,2.6,0,3.9c0.7-0.9,1.2-1.3,2.2-1.9
			c0.8-0.5,1.4-0.7,2.5-0.9c-0.7,0-1.1-0.2-1.7-0.5C213.2,282.6,212.8,282,212.5,281z"/>
		<path id="_119675088" class="st4" d="M222.4,285.9c-0.4-0.4-0.6-0.6-1.1-0.9c-1.5-0.9-3.2-0.8-4.5,0.4c-0.5,0.6-0.6,1.2-0.6,1.9
			c0.1,0.9,0.3,1.4,0.9,2c1.4-1.6,1.9-2,3.5-2.8C221.3,286.2,221.7,286.1,222.4,285.9L222.4,285.9z"/>
		<path id="_119675136" class="st4" d="M229,286.5c-0.1,0.6,0,1,0.2,1.6c0.3,0.6,0.5,1,1,1.4c0.2-0.9,0.5-1.4,1.1-2.1
			c0.5-0.4,0.8-0.7,1.4-0.9c0.5-0.2,0.9-0.2,1.3-0.3c0.3,0,0.5,0,0.8,0c-0.4-0.5-0.8-0.8-1.4-1.2c-1.5-0.8-3.8-1.3-4.4,0.4
			C228.9,285.9,228.9,286.1,229,286.5L229,286.5z"/>
	</g>
	<path class="st2" d="M160,126.4c-0.3,0-0.6,0-0.9,0l-0.7,0c-2.4,0.1-4,0.2-6.4,1.3c-3.1,1.5-4.8,2.7-6,5.4
		c-1.2,2.7-1.3,4.8-0.2,7.5c1,2.5,2.6,3.9,4.9,5.3c2.8,1.7,4.8,1.8,7.8,2c0.4,0,0.8,0.1,1.2,0.1c0.7,0.1,1.4,0.1,2.1,0.1
		c3,0,5.3-0.5,8.2-1.2c0.9-0.2,1.7-0.4,2.7-0.6c2.7-0.6,4.6-1.2,6.6-1.9c1.3-0.4,2.6-0.9,4.2-1.3c4.6-1.3,7.1-2,11.6-3.2
		c1.8-1.8,3-2.8,5-4.2c2.1-1.5,3.4-2.3,5.8-3.5l-0.2-1.2c-4.4,0.9-7,1.5-11.2,2.7c-3,0.8-5.1,1.6-7.5,2.4c-1.9,0.7-3.9,1.4-6.4,2.1
		c-1.2,0.4-2.3,0.7-3.3,1c-3.1,1-5.5,1.7-9.2,2.4c-0.7,0.1-1.3,0.3-2,0.4c-1.5,0.3-2.8,0.6-4.4,0.6c-0.3,0-0.6,0-0.9,0
		c-0.5,0-1,0-1.4,0c-1.8,0-3.3,0-4.9-1.4l-0.1-0.1c-0.9-0.8-1.6-1.4-1.8-2.6c-0.2-0.9-0.2-1.5,0.3-2.3c0.5-0.7,1-1,1.8-1l0.1,0
		c1,0,1.8,0.6,2.1,1.5c0.3,0.8,0.1,1.5-0.4,2.1c0.9,0.1,1.4,0,2.4-0.1c0.2,0,0.5-0.1,0.7-0.1c0.9-0.1,1.5-0.2,2.2-0.8
		c0.9-0.8,1.2-1.5,1.2-2.5c0-1.2-0.5-2.1-1.6-2.9c-0.7-0.5-1.2-0.6-2-0.6l-0.7,0l0.7-0.2c1.3-0.4,2.2-0.4,3.5,0.3
		c0.6,0.3,0.9,0.6,1.4,1.2c0.7,0.9,0.9,1.6,0.8,2.7c2.1-0.2,3.3-0.5,5.3-1.3c1.7-0.7,2.7-1.5,4-2.5c0.2-0.2,0.5-0.4,0.8-0.6
		c1.5-1.1,2.4-1.9,3.8-3.1c-2.6,0.5-4.3,0.6-7,0.6h-0.1c-2.4,0-4.3-0.6-6.1-1.1C163.9,126.9,162.2,126.4,160,126.4L160,126.4z"/>
	<path class="st2" d="M119,163.4c0.5,0,1,0.1,1.5,0.2c0.5,0.1,0.9,0.2,1.3,0.2c0.7,0,1.1-0.2,1.3-0.8c0.4-0.8,0.4-1.4,0-2
		c-0.2-0.3-0.3-0.4-0.6-0.7l-0.1-0.1c-1-1-2.1-1-3.6-1c-1.4,0-2.5,0-3.6,1l-0.1,0.1c-0.2,0.2-0.4,0.4-0.5,0.6c-0.3,0.6-0.3,1.2,0,2
		c0.2,0.5,0.7,0.8,1.3,0.8c0.4,0,0.8-0.1,1.3-0.2C117.9,163.5,118.5,163.4,119,163.4L119,163.4z"/>
	<path class="st2" d="M157.2,191.8l-0.9,0.4c-1.1,0.5-1.7,0.9-2.5,1.8c-1.3,1.5-1.6,2.8-1.7,4.8c0,1,0,1.7,0.3,2.7
		c0.5-0.8,1-1.2,1.8-1.7c0.7-0.4,1.1-0.7,2-0.8c0.4-0.1,0.7,0,1.1,0c0.2,0,0.4,0.1,0.7,0.1c0.8,0,1.3,0.1,2.2,0.1
		c1.1-0.6,1.8-1.1,2.7-1.9c1-0.9,1.5-1.4,2.2-2.5c-0.1-0.3-0.2-0.5-0.3-0.7c0-0.1-0.1-0.3-0.1-0.4l-0.1-0.2
		c-0.1-0.3-0.2-0.5-0.3-0.8l-0.1-0.2l0.2,0c0.8,0.1,1.2,0.3,1.7,0.9c0.6,0.6,0.7,1.2,0.7,2.1c0.1,0.9,0,1.5-0.4,2.2
		c0.3,0,0.6,0,0.9,0c1.1,0,2-0.2,3.2-0.9c1.3-0.7,1.9-1.2,2.6-2.3c0.6-0.9,0.8-1.5,0.9-2.6l0-0.1l0.1,0c1.2-0.7,1.8-1.1,2.8-2
		c0.8-0.7,1.2-1.1,1.8-1.9l0.2-0.2l0.9,3.1c0.2,0.8,0.2,1.3,0.1,2.1c-0.1,0.3-0.1,0.6-0.2,0.8l2.7-2.9c0.6-0.6,0.9-1,1.1-1.8l0,0
		c0.1-0.5,0.2-0.9,0.1-1.4l-1.1-3.3c-0.2-0.7-0.2-1.2,0.1-2c0.2-0.6,0.4-1,0.9-1.5l2.2-2.3l-0.2,0.6c-0.1,0.4-0.2,0.5-0.2,0.9
		c0,0.1,0,0.2-0.1,0.3c-0.1,0.3-0.1,0.5,0,0.9l1.1,2.6c0.3,0.8,0.2,1.3,0.1,2l0,0.1c-0.1,0.5-0.2,0.9-0.3,1.2l2.7-2.8
		c0.6-0.6,0.9-1,1.1-1.8c0.2-0.6,0.2-0.9,0.1-1.5l-1.1-3.3c-0.2-0.7-0.2-1.2,0.1-2c0.2-0.7,0.5-1,0.9-1.5l2.2-2.4l-0.2,0.6
		c-0.2,0.4-0.2,0.6-0.2,1c0,0.1,0,0.2-0.1,0.3c-0.1,0.3-0.1,0.6,0,0.9l1.1,2.7c0.3,0.8,0.2,1.3,0.1,2.1l0,0.1
		c-0.1,0.5-0.2,0.9-0.3,1.2l2.7-2.8c0.4-0.4,0.5-0.8,0.7-1.3l0-0.1c0.2-0.7,0.2-1.1,0.2-1.8l-0.2-1.7c0-0.1-0.1-1.4,0.1-2.3
		c0.3-1,0.8-1.5,1.4-2.1c0.2-0.2,0.4-0.4,0.6-0.6c1.1-1.2,1.9-1.8,3.3-2.6c0.6-1.3,0.5-2.3,0-3.6c-0.4-1-0.9-1.5-1.9-2.2
		c-0.9-0.6-1.5-0.8-2.5-1l-0.2-0.1c-1.1-0.3-1.9-0.4-2.7-0.4c-0.6,0-1.3,0.1-2.1,0.2c-1.4,0.2-2.3,0.5-3.6,1.3
		c0.2,0.5,0.2,0.9,0.2,1.5c-0.1,0.8-0.4,1.3-1,1.9c-0.6,0.6-1.2,0.8-1.9,0.9c-0.3,0.1-0.5,0.1-0.8,0.2c-1.1,0.4-2,0.5-3,0.6
		c-0.8,0.1-1.5,0.2-2.5,0.4c-0.5,0.1-1,0.3-1.5,0.4c-2.5,0.6-4.3,1.1-6.4,2.9c-1.7,1.4-2.4,2.5-3.6,4.4l-0.1,0.2c-0.7,1.1-1,2-1.3,3
		c-0.4,1.1-0.7,2.2-1.6,3.3c-0.2,0.3-0.4,0.6-0.7,0.9c1.4,0.2,2.1,0.1,3.6-0.1c1.3-0.2,2-0.5,3.3-1l0.4-0.2l-0.3,0.4
		c-0.5,0.7-0.9,1.1-1.6,1.7c-0.6,0.4-1,0.7-1.7,0.9c-0.6,1.6-1.3,2.5-2.7,3.6c-1.5,1.1-2.6,1.4-4.6,1.5c-0.1,0-0.1,0-0.2,0
		c-1,0-1.7-0.3-2.5-0.5c-0.5-0.2-0.9-0.3-1.5-0.4c-0.6-0.2-1.2-0.3-1.7-0.5c-1-0.3-1.8-0.6-3-0.6c-1.2,0-1.9,0.1-3.1,0.7
		c-1.5,0.6-2.2,1.3-3.2,2.6c-1,1.3-1.4,2.2-1.6,3.9l0,0.1l-0.1,0c-1,0.3-1.5,0.7-2.1,1.4c-0.7,0.8-1,1.3-1.1,2.3
		c-0.1,0.8,0.1,1.3,0.4,2c0.7-0.7,1.2-1.1,2.2-1.7c0.9-0.6,1.6-0.8,2.6-1.1c0.3-1,0.7-1.6,1.4-2.5c0.8-0.9,1.3-1.5,2.5-1.9
		c0.8-0.4,1.5-0.5,2.2-0.5c0.3,0,0.6,0,0.9,0.1l0.5,0.1l-0.5,0.2c-1.7,0.7-2.6,1.3-3.8,2.7c-0.7,0.8-1.1,1.4-1.5,2.4l0,0l-0.1,0
		c-0.5,0.2-0.8,0.4-1.2,0.7c-0.6,0.6-0.9,1.1-1.1,1.9c-0.3,1.1-0.2,2,0.3,3c0.9-0.9,1.5-1.4,2.6-2c0.9-0.5,1.5-0.8,2.5-1
		c0.3-1.3,0.7-2.1,1.6-3.2c1.3-1.5,2.5-2.1,4.4-2.4L157.2,191.8L157.2,191.8z"/>
	<path class="st2" d="M243.1,180.7c-0.2-0.9-0.2-1.5-0.8-2.2c-0.5-0.7-1.2-1-1.8-1.3l-0.2-0.1c-0.6-0.2-1.8-0.4-2.5-0.4l-1.2,0
		c-0.5,0-0.9,0-1.5-0.2l-0.2,0c-0.6-0.2-1-0.3-1.5-0.8l-2.8-3l0.6,0.3c0.3,0.1,0.5,0.2,0.8,0.2l0.1,0c0.3,0.1,0.5,0.1,0.8,0.1h3.4
		c0.8,0,1.2,0.1,1.9,0.3l0.1,0c0.4,0.1,0.7,0.2,1,0.3l-1.7-2.7c-0.4-0.6-0.6-0.9-1.1-1.3c-0.7-0.5-1.1-0.7-1.9-0.7l-4.7,0
		c-0.5,0-0.9,0-1.4-0.3c-0.5-0.3-0.7-0.6-1-0.9c-0.1-0.1-0.1-0.2-0.2-0.3l-2.2-2.8l0.5,0.3c0.4,0.2,0.7,0.3,1.1,0.4
		c0.3,0.1,0.6,0.1,1,0.1h3.7c0.9,0,1.4,0.1,2.3,0.4c0.4,0.1,0.7,0.3,1.1,0.4l-3.1-4.1c-0.4-0.5-0.6-0.7-1.1-1
		c-0.6-0.3-1-0.5-1.6-0.5h-3.3c-0.7,0-1.1,0-1.7-0.3c-0.6-0.3-1-0.5-1.3-1.1l-2.9-4.8h0.2c2.2,0,3.5-0.3,5.6-1.1
		c2.3-1,3.8-1.7,5.3-3.8c1.5-2.1,2-3.7,1.9-6.3c-0.1-2.1-0.5-3.4-1.7-5.3c-1.1-1.7-2.1-2.4-3.8-3.6c-1.1-0.7-2-1-3-1.3
		c-0.6-0.2-1.2-0.4-1.9-0.7c-0.7-0.3-1.5-0.5-2.2-0.6c-1.4-0.3-2.7-0.5-3.4-1.9c-0.5-1-0.9-1.8-0.6-2.9c0.3-0.9,0.8-1.5,1.6-1.9
		c-1-0.3-1.8-0.5-2.6-0.5c-1,0-2.1,0.2-3.3,0.8c-1.7,0.7-2.6,1.3-3.4,2.7c-0.9,1.6-1.1,3-0.5,4.7l0,0.1l-0.1,0
		c-2.2,1.1-3.4,1.9-5.4,3.4c-2.7,2-4.1,3.3-6.2,5.7c1.9-0.5,3.1-0.7,5.2-1c1.9-0.2,3.1-0.3,5-0.3c-0.1-1.1,0.1-1.8,0.6-2.8
		c1-1.9,2.5-2.8,4.6-2.8l0.7,0l-0.6,0.3c-0.9,0.4-1.3,0.7-1.9,1.5c-0.8,1.1-1.2,2-0.7,3.1c0.4,1,1.2,1.6,2.2,1.7
		c0.6,0,0.9-0.1,1.4-0.4c-0.2-0.7-0.1-1.1,0-1.8c0.5-1.9,2.1-3.1,4.1-2.9l0.5,0l-0.4,0.2c-0.6,0.3-0.9,0.5-1.3,1
		c-1.3,1.5-1.4,3.4-0.2,5c0.9,1.2,2.2,1.7,3.7,1.5c-0.2-0.3-0.3-0.6-0.3-1.1c0-0.6,0.2-1.1,0.6-1.5c0.6-0.6,1.5-0.9,2.4-0.9
		c1.7,0,3,1.3,3.1,2.8c0.1,2.8-2,3.1-4,3.3c-0.3,0-0.6,0.1-0.9,0.1c-0.2,0-0.4,0-0.6,0c-0.7,0-1.3-0.2-1.9-0.3
		c-0.4-0.1-0.8-0.2-1.2-0.3c-1.1-0.2-1.9-0.4-2.7-0.6c-0.8-0.2-1.5-0.4-2.5-0.6c-4.5-0.8-7.2-1.3-11.7-1c-2.7,0.1-4.5,0.5-6.7,1
		c-0.8,0.2-1.5,0.3-2.4,0.5c-2.9,0.6-5.2,1.2-7.4,1.8c-2.1,0.6-4.3,1.2-7.2,1.7c-1.4,0.3-2.6,0.5-3.8,0.8c-4.3,0.9-7.6,1.7-12.7,1.7
		c-6.8,0.1-10.9-0.4-17.4-2.3c0.6,1.2,0.9,2,1.1,3.3c0.1,0.8,0.1,1.3,0.1,2.1l0,0.6l-0.2-0.6c-0.7-1.7-1.2-2.5-2.2-3.9
		c-0.6-0.9-1.3-1.6-1.9-2.2c-0.7-0.7-1.4-1.4-2.1-2.4c-0.1-0.1-0.2-0.3-0.2-0.4c-0.2-0.3-0.4-0.5-0.5-0.9c-0.2-0.6-0.2-1-0.1-1.6
		c0.1-0.5,0.3-0.8,0.5-1.2l0.2-0.3v0.4c0,0.4,0.1,0.6,0.2,1c0.1,0.2,0.2,0.3,0.4,0.6l4,4c0.4-2.7,0.3-4.4-0.4-7.1
		c-0.6-2.1-1.1-3.2-2.4-5l0-0.1l0-0.1c0.7-1.9,0.9-3,1-5c0-1.5-0.1-2.3-0.4-3.7c-0.8,0.5-1.3,0.8-2.1,1.4c-0.2,0.1-0.4,0.2-0.5,0.4
		c-0.3,0.2-0.6,0.4-0.9,0.8c-0.5,0.6-0.7,1.1-0.8,1.9c-0.1,0.8-0.1,1.2,0.2,1.9l0.1,0.3l-0.3-0.2c-0.9-0.5-1.3-1-1.8-1.9
		c-0.4-0.8-0.7-1.5-0.4-2.5c0.2-0.7,0.5-1.1,1.1-1.6c0.6-0.5,1.1-0.5,1.7-0.6c0.3,0,0.7-0.1,1.1-0.2c1-0.3,1.5-0.5,2.4-0.9
		c0-0.1-0.1-0.2-0.1-0.3l0-0.1c-0.1-0.1-0.1-0.2-0.2-0.3l0,0c-1-0.2-1.7-0.3-2.5-0.3c-0.3,0-0.7,0-1.2,0.1c-0.8,0.1-1.3,0.2-2,0.4
		l-0.1,0l-0.1-0.1c-1.1-1.2-1.9-1.8-3.4-2.2c-1-0.3-1.5-0.4-2.5-0.3l0,0l0,0c-1.2-1.1-2.1-1.5-3.7-2c-0.8-0.2-1.4-0.3-1.9-0.3
		c-0.3,0-0.5,0-0.8,0c-0.3,0-0.7,0-1,0c-0.4,0-0.7,0-1,0c-0.3,0-0.5,0-0.8,0c-0.5,0-1.1,0-1.9,0.3c-1.6,0.4-2.5,0.9-3.7,2l0,0l0,0
		c-0.9,0-1.5,0.1-2.5,0.3c-1.5,0.5-2.3,1-3.4,2.2l-0.1,0.1l-0.1,0c-0.8-0.2-1.3-0.3-2-0.4c-0.5,0-0.8-0.1-1.2-0.1
		c-0.8,0-1.5,0.1-2.5,0.3c-0.1,0.1-0.1,0.2-0.2,0.4c-0.1,0.1-0.1,0.2-0.2,0.4c0.9,0.4,1.4,0.6,2.4,0.9c0.4,0.1,0.7,0.2,1.1,0.2
		c0.6,0.1,1.1,0.1,1.7,0.6c0.6,0.5,0.9,0.9,1.1,1.6c0.3,0.9,0,1.6-0.4,2.5c-0.4,0.9-0.9,1.4-1.8,1.9l-0.3,0.2l0.1-0.3
		c0.2-0.7,0.3-1.1,0.2-1.9c-0.1-0.8-0.3-1.3-0.8-1.9c-0.3-0.4-0.6-0.6-0.9-0.8c-0.2-0.1-0.3-0.2-0.5-0.3c-0.8-0.6-1.3-0.9-2.1-1.5
		c-0.3,1.4-0.4,2.2-0.4,3.7c0.1,2,0.3,3.1,1,5l0,0.1l0,0.1c-1.2,1.7-1.8,2.9-2.3,5c-0.8,2.7-0.9,4.5-0.4,7.1l4-4
		c0.2-0.2,0.3-0.3,0.4-0.6c0.2-0.4,0.2-0.6,0.2-1v-0.4l0.2,0.3c0.3,0.4,0.4,0.7,0.5,1.2c0.1,0.6,0.1,1-0.1,1.6
		c-0.1,0.4-0.3,0.7-0.5,1c-0.1,0.1-0.1,0.2-0.2,0.3c-0.6,1.1-1.4,1.8-2.1,2.4c-0.6,0.6-1.3,1.2-1.9,2.2c-1,1.5-1.5,2.4-2.2,4
		l-0.1,0.3l-0.1-0.3c-0.3-0.6-0.3-1-0.4-1.6c0-0.6,0.1-0.9,0.3-1.4c-2.2-1.3-3.4-2.1-5.4-3.6c-0.3-0.3-0.7-0.5-1-0.7
		c-1.4-1.1-2.5-1.8-3.8-3.4c-0.4-0.5-0.9-0.9-1.3-1.4c-1.5-1.5-2.8-2.8-2.5-5.1c0.1-0.9,0.5-1.5,0.9-2.2c0.2-0.4,0.5-0.8,0.7-1.3
		c0.2-0.5,0.4-1,0.7-1.4c0.5-1,0.9-1.8,0.9-3.1c-0.1-1.9-0.7-3.2-2.1-4.5l0,0l0-0.1c0.1-1.2,0-1.9-0.6-2.9c-0.7-1.3-1.6-2-2.9-2.4
		c0.4,0.8,0.5,1.4,0.5,2.4c-0.1,0.9-0.2,1.5-0.7,2.2c0.5,0.7,0.7,1.3,0.7,2.3c-0.1,1.1-0.4,1.9-1.3,2.6l-0.3,0.2l0.1-0.4
		c0.2-1.4,0.1-2.4-0.6-3.6c-0.7-1.3-1.4-2-2.8-2.5l-0.1,0l0-0.1c-0.4-1.8-1.8-2.9-3.6-2.9c-1,0-1.7,0.3-2.4,0.9
		c0.9,0.2,1.5,0.6,2.1,1.4c0.3,0.5,0.5,0.8,0.5,1.4l0,0.1l-0.1,0c-0.4,0.2-0.6,0.4-0.8,0.8c-0.3,0.4-0.5,0.6-0.6,1.1
		c1.4,0.1,2.4,0.6,3.3,1.7c1,1.2,1.4,2.3,1.2,3.8l-0.1,0.6l-0.2-0.5c-0.3-0.9-0.6-1.4-1.2-2c-1.5-1.7-3.3-2.2-5.5-1.7l-0.1,0l0-0.1
		c-0.8-0.8-1.6-1.2-2.7-1.2c-0.1,0-0.2,0-0.3,0c-1.2,0.1-2.1,0.5-2.8,1.5c0.8,0.1,1.3,0.3,2,0.7c0.6,0.4,0.9,0.7,1.3,1.2l0.1,0.1
		l-0.1,0.1c-0.4,0.4-0.5,0.7-0.8,1.2c-0.5,1.1-0.7,1.8-0.6,3c0.1,1.3,0.3,2.2,1.2,3.2c0.9,1.1,1.8,1.7,3.2,1.7
		c0.4,0,0.6-0.1,0.9-0.2c0.1,0,0.2-0.1,0.3-0.1c0.2-0.1,0.3-0.1,0.5-0.2c0.2-0.1,0.5-0.3,0.9-0.3c0.7,0.1,1.2,0.6,1.2,1.2
		c0.1,0.5-0.2,1.2-1.2,1.6c-0.3,0.1-0.6,0-0.9-0.1c-0.1-0.1-0.3-0.1-0.4-0.2c-0.2,0-0.4-0.1-0.6-0.2c-0.3-0.1-0.5-0.2-0.9-0.2
		c-0.8,0.1-1.2,0.4-1.7,1c-0.5,0.6-0.7,1.1-0.7,1.9v0.1l-0.1,0c-0.6,0.2-1,0.2-1.6,0c-0.4-0.1-0.7-0.2-0.9-0.5c-0.2,1,0,1.8,0.6,2.6
		c0.7,0.9,1.4,1.3,2.5,1.4l0.1,0l0,0.1c0.7,1.5,1.5,2.3,3,3l0.2,0.1c0.6,0.3,1.1,0.5,1.8,0.5l0.1,0c0.7,0,1.1-0.3,1.6-0.6
		c0.2-0.1,0.5-0.3,0.8-0.4c0.2-0.1,0.4-0.2,0.6-0.3c0.3-0.2,0.6-0.4,1-0.4c0.8-0.1,1.3,0,1.9,0.4c0.9,0.6,1.3,1.4,1.3,2.4
		c0,1.5-1.2,2.2-2.3,2.7c-0.8,0.4-1.4,0.5-2.2,0.4l1.9,1.7c0.7,0.7,1.2,1,2.1,1.4c0.9,0.4,1.5,0.6,2.6,0.6h0.4c1,0,1.6,0,2.7,0.3
		c0.1,0,0.3,0.1,0.4,0.1c0.8,0.2,1.5,0.4,2.2,1l2.6,2.6l-0.6-0.2c-0.5-0.2-0.8-0.3-1.3-0.4l-0.3,0c-0.4-0.1-0.7-0.1-1.1-0.1h-0.5
		c-1.1,0-1.8-0.1-2.9-0.4c-0.7-0.1-1.1-0.3-1.6-0.4l3.1,2.9c0.7,0.7,1.2,1,2.1,1.4c0.9,0.4,1.5,0.6,2.6,0.6h0.4c1,0,1.6,0,2.6,0.3
		l0.3,0.1c0.9,0.2,1.6,0.4,2.3,1.1l2.7,2.6l-0.6-0.2c-0.6-0.2-0.9-0.3-1.5-0.4l-0.1,0c-0.4-0.1-0.6-0.1-1.1-0.1h-0.7
		c-1.1,0-1.8-0.1-2.9-0.4c-0.6-0.1-1-0.2-1.5-0.4l3.6,3.2c0.5,0.5,0.8,0.7,1.4,1c0.6,0.3,1,0.4,1.7,0.4h5.3l-0.4,0.2
		c-1.9,1.1-3.1,1.9-4.3,2.6c-1.3,0.9-2.5,1.7-4.4,2.6c-1.1,0.6-2.1,1.2-3.1,1.9c-2.1,1.4-3.9,2.6-6.7,2.6c-0.2,0-0.4,0-0.7,0
		c-1-0.1-1.8-0.3-2.6-0.6c-0.5-0.2-1-0.3-1.7-0.5c-0.4-0.1-0.6-0.1-0.9-0.2c-0.6-0.2-1.1-0.3-1.8-0.3l-0.3,0c-1.3,0-2.1,0.1-3.3,0.8
		c-0.8,0.5-1.3,0.9-1.7,1.6c1-0.3,1.6-0.4,2.7-0.2c1.3,0.2,2.1,0.6,3.1,1.5l0.4,0.3l-0.5-0.1c-0.9-0.2-1.4-0.3-2.3-0.3l-0.2,0
		c-2.1,0-3.2,0.2-4.8,1.3c-1.5,1-2.5,2-2.9,3.8c-0.2,1-0.2,1.7,0,2.7l0,0.1l-0.1,0.1c-0.5,0.4-0.7,0.6-1.1,1.1
		c-0.1,0.1-0.1,0.2-0.2,0.3c-0.5,0.6-0.9,1.1-0.9,1.9c0,0.9,0.2,1.5,0.9,2.1c0.4-1,0.9-1.6,1.9-2.2c0.7-0.4,1.1-0.5,2-0.5l0,0l0,0
		c0.3,0.2,0.5,0.3,0.8,0.5c0.4,0.2,0.6,0.3,1,0.4l0.9-1c-0.2-1.8,0.2-3.1,1.4-4.5c1.3-1.6,2.8-2.3,4.8-2.3c0.1,0,0.3,0,0.4,0l0.8,0
		l-0.8,0.2c-2,0.5-3.1,1.6-3.9,3.5c-0.5,1.1-0.5,1.9-0.3,3.1l0,0.1l-0.1,0c-0.9,0.4-1.3,0.9-1.7,1.8c-0.6,1.3-0.6,2.5,0.2,3.7
		c0.5-0.9,1-1.4,1.9-2.1c1.1-0.8,1.8-1.1,3.1-1.4l0,0l0,0c0.7,0.2,1.1,0.3,1.7,0.3c1,0.1,1.5,0.1,2.5-0.1c-0.4-0.7-0.5-1.2-0.5-2.1
		c-0.1-2.3,0.9-4,2.9-4.8c0.6-0.2,1.1-0.3,1.6-0.3c0.2,0,0.5,0,0.8,0.1l0.6,0.1l-0.6,0.2c-0.9,0.3-1.4,0.5-2,1.2
		c-1,1-1.6,1.9-1.3,3.3c0.2,1,0.6,1.7,1.5,2.3c0.6,0.4,1,0.5,1.7,0.5l0.1,0l0,0.1c0,0.5,0,0.9-0.2,1.4c-0.1,0.5-0.2,0.9-0.5,1.4
		c1.2-0.2,2-0.5,3-1.3c0.8-0.6,1.1-1.1,1.5-1.9l0,0l0.1,0c0.8-0.2,1.1-0.4,1.7-0.9c1.4-1.1,1.9-2.2,1.7-3.6
		c-0.1-0.9-0.4-1.5-1.1-2.1l0,0l0,0c-0.1-0.7,0.2-1.4,0.6-1.9c0.5-0.5,1.1-0.8,1.8-0.8c0.7,0,1.3,0.3,1.8,0.9
		c0.5,0.6,0.8,1.4,0.7,2.2c-0.1,0.4-0.2,0.7-0.4,1l4,0c0.7,0,1-0.1,1.6-0.4c0.6-0.3,1-0.6,1.4-1.2l1.7-2.8c0.3-0.5,0.5-0.8,1.1-1.2
		l0.1-0.1c0.4-0.3,0.7-0.5,1.3-0.5h0l3.4,0l-0.3,0.2c-0.3,0.2-0.5,0.4-0.8,0.6c-0.2,0.2-0.4,0.4-0.6,0.7l-1.4,2.3
		c-0.4,0.7-0.8,1.1-1.4,1.6c-0.3,0.3-0.6,0.5-0.9,0.7l4.6-0.1c0.7,0,1-0.1,1.6-0.4c0.7-0.4,1-0.6,1.4-1.2l3.5-5.5
		c-0.2-0.1-0.4-0.3-0.7-0.5c-1.1-0.7-2.7-1.8-3.3-3.5c-0.3-1-0.4-1.5-0.4-2.4c0-0.8,0.2-1.3,0.4-2c0.1-0.4,0.3-0.6,0.4-0.9
		c0.2-0.3,0.3-0.5,0.4-0.9l0-0.1c0.2-0.5,0.3-0.9,0.3-1.4c0-0.5,0-0.8-0.1-1.2l-0.1-0.3l2.1,1.1c0.5,0.3,0.7,0.5,1,1
		c0.3,0.5,0.3,0.8,0.3,1.4c0,0.4-0.1,0.6-0.3,0.9c-0.1,0.1-0.1,0.3-0.2,0.4c-0.1,0.3-0.2,0.6-0.3,0.8c-0.2,0.4-0.3,0.8-0.4,1.3
		c-0.1,0.8-0.1,1.4,0.3,2.2c0.3,0.7,0.8,1.1,1.4,1.5c0.2,0.1,0.4,0.3,0.6,0.5c1.1,0.9,1.8,1.3,3,1.8v-7.9h3.2v7.5
		c0,0.6,0.1,1,0.4,1.6c0.3,0.5,0.5,0.8,1,1l2.3,1.1c0.6,0.3,1.1,0.3,1.6,0.3c0.2,0,0.5,0,0.7,0c0.7,0,1.2-0.1,1.8-0.4l3.6-1.5
		c-0.2,0-0.4-0.1-0.7-0.1c-0.4-0.1-0.7-0.3-0.9-0.4c-0.1-0.1-0.3-0.2-0.5-0.3l-5.6-3l0.2-0.1c0.7-0.5,0.9-1.1,1.2-1.9
		c0.2-0.7,0.2-1.1,0.2-1.9c0-0.4-0.1-0.8-0.2-1.1c-0.1-0.2-0.1-0.4-0.2-0.7c0-0.2-0.1-0.3-0.1-0.4c-0.1-0.2-0.1-0.4-0.1-0.8
		c0-0.5,0-0.8,0.2-1.2c0.1-0.3,0.2-0.6,0.6-0.8l2.6-1.7l-0.1,0.3c-0.1,0.4-0.1,0.6-0.1,1c0,0.5,0.1,0.8,0.2,1.3
		c0.1,0.3,0.2,0.6,0.3,0.8c0.1,0.2,0.2,0.5,0.3,0.8l0,0c0.1,0.6,0.2,1,0.2,1.7c0,1.3-0.2,2.1-0.7,3.2l5.5,3.1
		c0.6,0.3,0.9,0.5,1.5,0.5c0.2,0,0.3,0,0.5,0c0.4,0,0.7-0.1,1-0.2l4.5-1.7c-0.2,0-0.4-0.1-0.7-0.1c-0.4-0.1-0.7-0.3-1-0.5
		c-0.1-0.1-0.3-0.2-0.4-0.3l-5.4-2.9c-0.2-0.1-0.4-0.2-0.6-0.3c-0.1,0-0.1,0-0.2-0.1c-0.4-0.1-0.6-0.2-1-0.3l-0.2-0.1l0.1-0.1
		c0.2-0.3,0.3-0.5,0.3-0.7c0-0.1,0.1-0.2,0.1-0.3c0.2-0.6,0.3-0.9,0.4-1.5c0.2-1.4,0.1-2.2-0.2-3.5l0-0.2c-0.1-0.7-0.4-1.2-0.6-1.7
		c-0.2-0.6-0.5-1.1-0.6-1.9c-0.1-0.4-0.2-0.7-0.2-1.2c0-0.1,0-0.2,0-0.3c0-0.3,0-0.6,0.3-0.9l3.1-2.6l-0.1,0.4
		c-0.1,0.4-0.1,0.7-0.1,1.1c0,0.3,0,0.5,0.1,0.8c0.1,0.4,0.2,0.7,0.4,1c0.1,0.2,0.2,0.4,0.3,0.7c0.3,0.6,0.4,1,0.6,1.6
		c0.4-0.4,0.6-0.7,1-1.1l0.1-0.1c0.6-0.8,1.1-1.4,1.4-2.4c0.3-0.9,0.4-1.4,0.3-2.3c-0.1-0.9-0.1-1.5-0.6-2.3l-1.4-2.1
		c-0.4-0.5-0.5-0.9-0.5-1.6c-0.1-0.8,0.2-1.2,0.4-1.9l0.1-0.2l1.4-3.2l0.2,0.1c-0.2,0.6-0.2,0.9-0.1,1.5c0,0.5,0.1,0.7,0.3,1.1
		l1.1,2.1l1.4,1.9l1.4,3.3c0.2,1.2,0.2,2,0,3.1c-0.2,1.4-0.7,2.1-1.4,3.2l-0.2,0.3c-1,1.7-2.6,3.2-3.6,4.1c-0.2,0.2-0.5,0.4-0.6,0.6
		c0,0.2,0.1,0.6,0.1,1c0,1-0.2,1.6-0.6,2.4l7.1,3.8c0.6,0.3,0.9,0.5,1.5,0.5c0.2,0,0.4,0,0.6,0c0.3,0,0.6-0.1,0.9-0.2l2.9-1.5
		c-0.2,0-0.5-0.1-0.7-0.2c-0.6-0.3-0.8-0.7-1-1.3c-0.5-1.4,0.5-2.9,1.8-3.5c2.4-1.2,4.9-2.2,7.5-3.3c2.7-1.1,5.5-2.3,8.6-3.7
		c3-1.4,5.3-2.7,7.6-4c3-1.7,5.9-3.3,10-4.9c1.1-0.4,2.1-0.9,3.1-1.4c2.2-1.1,4.1-2,7-2h0.7c2.4,0,4,0.1,5.9,1.4
		c1,0.6,1.7,1.1,2.4,2.2c0.6,0.9,0.8,1.6,1.1,2.6c0.3,1.4,0,2.5-0.4,3.6c-0.3,0.9-0.6,1.9-0.5,3.1c0.3,2.8,0.8,4.7,2.7,6.9
		c1.3,1.5,2.4,2.1,4.1,3c0.3,0.2,0.7,0.4,1.1,0.6c0.6,0.3,1.1,0.5,1.6,0.6c0.8,0.2,1.5,0.4,2.2,1.2l0.1,0.1c0.5,0.5,0.8,0.9,1,1.6
		c0.2,0.6,0.2,1,0,1.5c1,0,1.7-0.1,2.8-0.5c1.7-0.6,2.6-1.3,3.6-2.8l0-0.1h4.8l0,0.1c0.5,0.8,0.6,1.4,0.6,2.3c0,1,0.1,1.8-0.7,2.6
		c-0.6,0.7-1.3,0.7-2.1,0.8c-0.2,0-0.4,0-0.5,0.1c-0.2,0-0.4,0-0.6,0c-0.5,0-1-0.1-1.4-0.2c-0.5-0.1-1-0.2-1.7-0.2
		c-0.2,0-0.4,0-0.6,0c-1.3,0-2.2,0.1-3.5,0.7c-1.6,0.9-2.4,1.8-3,3.6c-0.4,1.2-0.5,1.9-0.3,3.1l0,0.1l-0.1,0c-0.7,0.4-1,0.8-1.3,1.4
		c-0.7,1.3-0.7,2.4-0.1,3.7c0.7-0.8,1.2-1.2,2.1-1.8c0.8-0.5,1.2-0.7,2-1c0.1-2.5,1.4-4.3,3.7-5.3c0.9-0.4,1.6-0.5,2.3-0.5
		c0.4,0,0.9,0.1,1.5,0.2l0.6,0.1l-0.6,0.1c-1.6,0.4-2.6,0.9-3.7,2.1c-1.5,1.6-2,3-1.9,5.2l0,0l0,0c-0.5,0.6-0.6,1.1-0.6,1.9
		c0,0.8,0.3,1.3,0.8,1.8c1.2-1.9,2.5-2.8,4.7-3.4c0.7-0.2,1.3-0.3,1.8-0.3c0.3,0,0.6,0,1,0.1c-0.4-1.8-0.1-3.3,1.1-4.8
		c1.1-1.4,2.5-2.1,4.2-2.1c0.2,0,0.5,0,0.7,0l0.7,0.1l-0.7,0.2c-1.1,0.3-1.8,0.8-2.6,1.8c-0.7,1-1,1.7-0.9,2.8
		c0.1,1.2,0.6,2.1,1.7,2.7l0.1,0l0,0.1c-0.1,0.6,0,1,0.2,1.6c0.2,0.6,0.4,0.9,0.9,1.2c0.2-0.8,0.5-1.3,1.1-2c0.5-0.5,0.8-0.7,1.4-1
		c1-0.4,1.7-0.1,2.7-0.3c0.5-0.1,0.9-0.1,1.3-0.2c1.1-0.1,2-0.3,3-1.1c0.9-0.8,1.4-1.5,1.6-2.8c0.2-1.6-0.2-2.8-1.4-3.9l-0.1,0
		l0-0.1c0.3-1.7,0.3-2.7,0.3-4.4c-0.1-1.8-0.2-2.9-0.6-4.6l0-0.2h0.7c0.4,0,0.6,0.1,1,0.1c0.1,0,0.3,0.1,0.5,0.1
		c0.5,0.1,1,0.6,1.5,1.2C243.2,182.1,243.2,181.5,243.1,180.7L243.1,180.7z M131.5,133.9L131.5,133.9l0,0.3c0,0.8-0.3,1.4-0.9,2.1
		c-0.6,0.7-1.2,1.1-2.1,1.1h-1.7c0.4,0.4,0.8,0.9,0.8,1.7c0,1.1-0.9,2.1-2.1,2.1c-1.2,0-2.1-0.9-2.1-2.1c0-0.6,0.2-1.1,0.6-1.5
		l0.2-0.2h-2c-0.4,0-0.7,0.2-1.1,0.6l-0.2,0.2v-0.9c0-0.1,0-0.2,0-0.3c0-0.2,0-0.4,0-0.6c0.1-0.6,0.6-1.4,1.3-1.4h6.6
		c0.9,0,1.9-0.4,2.5-1L131.5,133.9L131.5,133.9z M124.3,126.2L124.3,126.2c0.4,0,0.6,0.1,0.9,0.3c0.3,0.2,0.5,0.3,0.7,0.7l2.1,2.7
		c0.1,0.1,0.1,0.2,0.1,0.2c0,0.1,0.1,0.2,0.2,0.2c0.2,0.2,0.4,0.3,0.6,0.3l0.5,0.3h-2.3c-0.6,0-0.9-0.1-1.4-0.4
		c-0.5-0.3-0.7-0.5-1-1l0,0l-1.7-2.2c0-0.1-0.1-0.1-0.1-0.2c-0.1-0.1-0.2-0.2-0.3-0.4c-0.2-0.2-0.3-0.3-0.6-0.4l-0.5-0.2H124.3
		L124.3,126.2z M117.3,125.2L117.3,125.2c0.6,0,0.9,0.2,1.3,0.4c0.4,0.2,0.6,0.4,0.9,0.8l2.5,3.6c0.2,0.2,0.2,0.3,0.4,0.5
		c0.3,0.3,0.5,0.4,0.9,0.6l0.5,0.2h-2.9c-0.6,0-1-0.1-1.4-0.5c-0.3-0.2-0.4-0.4-0.5-0.7c0-0.1-0.1-0.1-0.1-0.2l-2.1-3.3
		c-0.2-0.3-0.3-0.5-0.6-0.7c-0.4-0.4-0.6-0.5-1.1-0.6l-0.8-0.3L117.3,125.2L117.3,125.2z M111.6,126.2L111.6,126.2
		c0.4,0,0.6,0.1,0.9,0.3c0.3,0.2,0.5,0.3,0.7,0.7l2.1,2.8c0.1,0.1,0.1,0.2,0.2,0.2c0.1,0.1,0.1,0.2,0.2,0.3c0.2,0.2,0.3,0.3,0.6,0.3
		l0.6,0.3h-2.3c-0.6,0-0.9-0.1-1.4-0.4c-0.4-0.2-0.6-0.5-0.9-0.9l-0.1-0.1l-1.7-2.2c0-0.1-0.1-0.1-0.1-0.2c-0.1-0.1-0.2-0.2-0.3-0.3
		c-0.2-0.2-0.3-0.3-0.6-0.4l-0.5-0.2L111.6,126.2L111.6,126.2z M106.7,134.2L106.7,134.2c0.6,0.6,1.6,1,2.5,1h6.6
		c0.4,0,0.7,0.2,1,0.6c0.3,0.4,0.3,0.9,0.3,1.4c0,0.1,0,0.2,0,0.3l-0.1,0.8l-0.2-0.2c-0.3-0.3-0.6-0.5-1-0.5h-1.9
		c0.5,0.5,0.8,0.9,0.8,1.7c0,1.1-0.9,2.1-2.1,2.1s-2.1-0.9-2.1-2.1c0-0.6,0.2-1.1,0.6-1.5l0.2-0.2h-1.7c-0.9,0-1.4-0.4-2-1.1
		c-0.6-0.7-0.9-1.3-0.9-2.1l0-0.3L106.7,134.2L106.7,134.2z M106.5,171.2L106.5,171.2l-0.8,2.2c-0.2,0.6-0.2,0.9-0.3,1.4l0,0.3
		c-0.2,1.4-0.3,2.3-0.1,3.6l0,0.3l-0.2-0.2c-0.4-0.3-0.7-0.6-1.1-1c-0.3-0.4-0.5-0.7-0.8-1.1l-0.1-0.1c-0.7-1.1-1-1.8-1.5-3
		l-0.1-0.3c-0.3-0.1-0.6-0.2-0.9-0.2c-1.2-0.3-2.5-0.6-3.4-1.7c-0.9-1.2-1.1-2.2-1.3-3.6l0-0.3c-0.2-1.3-0.2-2.1,0-3.4l1.2-3.7
		l1.3-2.1l1-2.3c0.2-0.4,0.2-0.7,0.3-1.2c0.1-0.7,0-1.1-0.1-1.7l-0.2-0.8l2.2,3.3c0.4,0.7,0.4,1.2,0.4,2c0,0.8-0.1,1.4-0.4,2.1
		l-1.7,3.3c-0.5,0.9-0.5,1.5-0.6,2.5l0,0.1c0,0.1,0,0.3,0,0.4c0,0.8-0.1,1.4,0.3,2.2c0.6,1.3,1.6,2.1,3.1,2.2c0-0.6,0.1-1,0.2-1.6
		c0.1-0.4,0.2-0.7,0.3-0.9c0.1-0.3,0.2-0.5,0.2-0.9c0.1-0.3,0.1-0.5,0.1-0.9c0-0.4,0-0.7-0.1-1.1l-0.1-0.6l3.2,4.5
		c0.3,0.4,0.3,0.7,0.4,1.1l0,0.2C106.7,170.5,106.7,170.8,106.5,171.2L106.5,171.2z M134.7,142.9L134.7,142.9c-0.6,1-1,1.5-1.9,2.2
		c-0.7,0.5-1.2,0.7-1.9,0.9c-0.3,0.1-0.6,0.2-0.9,0.4c-0.1,0-0.2,0.1-0.3,0.1c-0.1,0-0.2,0.1-0.3,0.1c-0.2,0.1-0.2,0.3-0.2,0.5
		c0,0.1,0,0.2-0.1,0.2c-0.1,0.2-0.1,0.4-0.1,0.7c0,0.2-0.1,0.4-0.1,0.7l0,0.1c-0.2,0.6-0.3,1-0.8,1.5c-0.6,0.7-1.1,1-2,1.2
		c0,1.3-0.1,2-0.2,3.2c-0.2,1.6-0.4,2.4-0.8,3.9c0.3,0.5,0.4,0.8,0.5,1.2c0.2,0.8,0.3,1.3,0.3,2.2c0,1.2-0.1,2.1-0.9,3
		c-0.6,0.7-1.3,1.1-2.3,1.1c-0.5,0-1.1-0.1-1.7-0.2c-0.6-0.1-1.3-0.2-2-0.2s-1.4,0.1-2,0.2c-0.6,0.1-1.2,0.2-1.7,0.2
		c-1,0-1.8-0.3-2.3-1.1c-0.8-1-0.8-1.8-0.9-3c0-0.9,0.1-1.4,0.3-2.2c0.2-0.5,0.3-0.8,0.5-1.2c-0.4-1.5-0.6-2.4-0.8-3.9
		c-0.2-1.3-0.2-2-0.2-3.2c-0.9-0.2-1.4-0.6-2-1.2c-0.5-0.6-0.6-1-0.8-1.6c-0.1-0.3-0.1-0.5-0.1-0.7c0-0.2,0-0.4-0.1-0.6
		c0-0.1-0.1-0.2-0.1-0.3c0-0.2-0.1-0.3-0.2-0.5c-0.1-0.1-0.2-0.1-0.3-0.1c-0.1,0-0.2,0-0.3-0.1c-0.3-0.1-0.6-0.2-0.9-0.4
		c-0.6-0.2-1.2-0.4-1.9-0.9c-0.8-0.7-1.3-1.2-1.9-2.2c-0.6-1.1-1-1.9-0.9-3.2c0-0.7,0.1-0.9,0.3-1.6c0.1-0.3,0.3-0.7,0.4-1l0.1-0.1
		c0.2-0.4,0.4-0.6,0.7-0.9c0.3-0.3,0.6-0.5,1-0.7l0.2-0.1v3.8c0,1.3,0.3,2.1,1,3.2c0.7,0.9,1.3,1.3,2.5,1.9c1.1,0.5,1.8,0.7,3,0.7
		l0.1,0l0,0.1c-0.1,0.9,0,1.4,0.2,2.1c0,0.1,0.1,0.2,0.1,0.3c0.2,0.7,0.3,1.2,0.8,1.6c0.6,0.5,1.2,0.5,2,0.6c0.8,0,1.2,0,2-0.4
		c0.1-0.1,0.3-0.1,0.4-0.2c0.4-0.2,0.8-0.3,0.8-0.7c0-0.2,0-0.4-0.1-0.6c-0.1-0.3-0.3-0.4-0.5-0.6c-0.2-0.1-0.3-0.3-0.5-0.5
		c-0.3-0.4-0.4-0.7-0.6-1.2l-0.1-0.2c-0.1-0.3-0.2-0.6-0.1-1c0-0.1,0-0.1,0-0.2c0-0.3,0.1-0.7,0.5-0.7h4.8c0.4,0,0.4,0.4,0.4,0.7
		c0,0.1,0,0.1,0,0.2c0.1,0.4,0,0.7-0.1,1.1l0,0.1c-0.1,0.5-0.3,0.7-0.5,1.1l0,0c-0.1,0.2-0.3,0.4-0.5,0.5c-0.2,0.2-0.4,0.3-0.5,0.6
		c-0.1,0.3-0.1,0.4-0.1,0.6c0.1,0.4,0.4,0.6,0.9,0.7c0.1,0.1,0.3,0.1,0.4,0.2c0.7,0.3,1.2,0.4,2,0.4c0.9,0,1.4-0.1,2-0.6
		c0.5-0.5,0.7-0.9,0.8-1.6c0-0.1,0.1-0.2,0.1-0.3c0.2-0.8,0.3-1.3,0.2-2.1l0-0.1l0.1,0c1.2,0,1.9-0.2,3-0.7c1.2-0.6,1.8-0.9,2.5-1.9
		c0.7-1,1-1.9,1-3.2v-3.8l0.2,0.1c0.4,0.2,0.6,0.4,1,0.7c0.3,0.3,0.5,0.5,0.7,0.9l0.1,0.2c0.2,0.3,0.3,0.6,0.4,0.9
		c0.2,0.7,0.2,0.9,0.3,1.6C135.7,141,135.3,141.8,134.7,142.9L134.7,142.9z"/>
	<path class="st3" d="M123.3,152.6c0,1.6-0.1,3.3-0.5,4.9c-1.3-0.3-2.5-0.3-3.8-0.3c-1.3,0-2.6,0.1-3.8,0.3
		c-0.4-1.9-0.5-3.7-0.4-5.6l1.7,2c0.1-0.3,0.9-2.1,1.3-2.2l0.1,0c0.5,0.3,0.6,0.3,1.2,0.3c0.6,0,0.7,0,1.2-0.3
		c0.4,0.2,0.7,1.1,0.9,1.4c0.1,0.3,0.3,0.6,0.4,0.8l1.7-2L123.3,152.6z"/>
	<g id="_119676024">
		<path id="_119676216" class="st4" d="M143.4,191.5c0,0.8,0.1,1.4,0.7,2c0.4,0.6,0.8,0.8,1.4,1c-1.1,0.3-1.7,0.6-2.6,1.1
			c-1,0.5-1.5,1-2.3,1.7c-0.5-0.7-0.6-1.3-0.5-2.1c0.1-1,0.4-1.6,1.1-2.3C141.9,192.1,142.4,191.8,143.4,191.5L143.4,191.5z"/>
		<path id="_119676264" class="st4" d="M150.3,197.6c-1,0.3-1.6,0.5-2.5,1c-1.2,0.6-1.8,1.2-2.7,2.1c-0.6-1.1-0.8-1.9-0.4-3.2
			c0.2-0.9,0.5-1.4,1.1-2c0.4-0.4,0.7-0.6,1.2-0.8c1.1,0.3,1.8,0.7,2.5,1.5C149.8,196.8,150,197.1,150.3,197.6L150.3,197.6z"/>
		<path id="_119675856" class="st4" d="M157,199.1c-0.7-1.3-1.6-1.8-3-2c-0.7-0.1-1.1-0.1-1.8,0.2c-0.1,0.5-0.1,1-0.1,1.6
			c-0.1,1.2,0,1.8,0.4,3c0.6-0.9,1-1.4,1.9-1.9c0.7-0.4,1.1-0.6,1.9-0.8C156.5,199.1,156.8,199.1,157,199.1L157,199.1z"/>
		<path id="_119675904" class="st4" d="M63.6,130c-0.4-0.6-0.7-0.8-1.2-1.2c-0.8-0.4-1.3-0.6-2.2-0.7c0.8-1.1,1.7-1.6,3-1.7
			c1.3-0.1,2.2,0.3,3.1,1.2c-0.8,0.4-1.3,0.8-1.9,1.4C64.1,129.4,63.9,129.6,63.6,130z"/>
		<path id="_119675832" class="st4" d="M70.2,124c-0.1-0.6-0.2-0.9-0.5-1.4c-0.6-0.9-1.2-1.3-2.3-1.4c0.8-0.8,1.5-1.1,2.7-1.1
			c1.9,0,3.4,1.2,3.8,3c-1-0.1-1.6-0.1-2.5,0.3C70.9,123.5,70.7,123.7,70.2,124z"/>
		<path id="_119676096" class="st4" d="M82.1,125.3c-0.5-0.4-0.9-0.6-1.6-0.8c-0.9-0.2-1.6-0.2-2.5,0.2c0.5-0.7,0.7-1.3,0.8-2.2
			c0.1-1-0.1-1.7-0.6-2.6c1.6,0.4,2.5,1.1,3.3,2.5C82,123.4,82.2,124.1,82.1,125.3z"/>
		<path id="_119676312" class="st4" d="M64.6,147.4c-1.2-0.1-1.9-0.6-2.6-1.6c-0.7-1-0.8-1.9-0.5-3c0.3,0.3,0.6,0.5,1,0.6
			c0.6,0.2,1,0.2,1.6,0c0,0.4,0,0.6,0,1C64.1,145.6,64.2,146.3,64.6,147.4L64.6,147.4z"/>
		<path id="_119676408" class="st4" d="M62.1,193.4c0.5,1,0.9,1.6,1.7,2.3c0.3,0.3,0.5,0.4,0.9,0.6c-0.8,0-1.3,0.1-1.9,0.5
			c-1,0.6-1.5,1.2-1.9,2.3c-0.8-0.6-1.1-1.3-1-2.4c0-1,0.5-1.5,1.1-2.2C61.3,194.1,61.6,193.8,62.1,193.4z"/>
		<path id="_119676480" class="st4" d="M69.7,196.3c0.6,0.6,1,0.9,1.8,1.4c0.7,0.4,1.1,0.6,1.8,0.9c-1.3,0.2-2.1,0.6-3.1,1.4
			c-0.9,0.7-1.4,1.2-2,2.2c-0.9-1.3-1-2.6-0.3-4C68.3,197.2,68.8,196.8,69.7,196.3L69.7,196.3z"/>
		<path id="_119676936" class="st4" d="M86,198.8c-0.5,0.9-0.8,1.3-1.6,1.9c-1.1,0.9-1.9,1.2-3.3,1.4c0.3-0.6,0.5-0.9,0.6-1.6
			c0.1-0.5,0.2-0.8,0.2-1.4c0.6,0.1,1,0.1,1.7,0C84.5,199.2,85,199.1,86,198.8z"/>
		<path id="_119676816" class="st4" d="M212.5,193.6c-0.7,0.4-1,0.8-1.4,1.5c-0.7,1.3-0.7,2.6,0,3.9c0.7-0.9,1.2-1.3,2.2-1.9
			c0.8-0.5,1.4-0.7,2.5-0.9c-0.7,0-1.1-0.2-1.7-0.5C213.2,195.2,212.8,194.6,212.5,193.6z"/>
		<path id="_119676624" class="st4" d="M222.4,198.5c-0.4-0.4-0.6-0.6-1.1-0.9c-1.5-0.9-3.2-0.8-4.5,0.4c-0.5,0.6-0.6,1.2-0.6,1.9
			c0.1,0.9,0.3,1.4,0.9,2c1.4-1.6,1.9-2,3.5-2.8C221.3,198.8,221.7,198.7,222.4,198.5L222.4,198.5z"/>
		<path id="_119676720" class="st4" d="M229,199.1c-0.1,0.6,0,1,0.2,1.6c0.3,0.6,0.5,1,1,1.4c0.2-0.9,0.5-1.4,1.1-2.1
			c0.5-0.4,0.8-0.7,1.4-0.9c0.5-0.2,0.9-0.2,1.3-0.3c0.3,0,0.5,0,0.8,0c-0.4-0.5-0.8-0.8-1.4-1.2c-1.5-0.8-3.8-1.3-4.4,0.4
			C228.9,198.4,228.9,198.7,229,199.1L229,199.1z"/>
	</g>
	<path class="st2" d="M160,38.9c-0.3,0-0.6,0-0.9,0l-0.7,0c-2.4,0.1-4,0.2-6.4,1.3c-3.1,1.5-4.8,2.7-6,5.4c-1.2,2.7-1.3,4.8-0.2,7.5
		c1,2.5,2.6,3.9,4.9,5.3c2.8,1.7,4.8,1.8,7.8,2c0.4,0,0.8,0.1,1.2,0.1c0.7,0.1,1.4,0.1,2.1,0.1c3,0,5.3-0.5,8.2-1.2
		c0.9-0.2,1.7-0.4,2.7-0.6c2.7-0.6,4.6-1.2,6.6-1.9c1.3-0.4,2.6-0.9,4.2-1.3c4.6-1.3,7.1-2,11.6-3.2c1.8-1.8,3-2.8,5-4.2
		c2.1-1.5,3.4-2.3,5.8-3.5l-0.2-1.2c-4.4,0.9-7,1.5-11.2,2.7c-3,0.8-5.1,1.6-7.5,2.4c-1.9,0.7-3.9,1.4-6.4,2.1
		c-1.2,0.4-2.3,0.7-3.3,1c-3.1,1-5.5,1.7-9.2,2.4c-0.7,0.1-1.3,0.3-2,0.4c-1.5,0.3-2.8,0.6-4.4,0.6c-0.3,0-0.6,0-0.9,0
		c-0.5,0-1,0-1.4,0c-1.8,0-3.3,0-4.9-1.4l-0.1-0.1c-0.9-0.8-1.6-1.4-1.8-2.6c-0.2-0.9-0.2-1.5,0.3-2.3c0.5-0.7,1-1,1.8-1l0.1,0
		c1,0,1.8,0.6,2.1,1.5c0.3,0.8,0.1,1.5-0.4,2.1c0.9,0.1,1.4,0,2.4-0.1c0.2,0,0.5-0.1,0.7-0.1c0.9-0.1,1.5-0.2,2.2-0.8
		c0.9-0.8,1.2-1.5,1.2-2.5c0-1.2-0.5-2.1-1.6-2.9c-0.7-0.5-1.2-0.6-2-0.6l-0.7,0l0.7-0.2c1.3-0.4,2.2-0.4,3.5,0.3
		c0.6,0.3,0.9,0.6,1.4,1.2c0.7,0.9,0.9,1.6,0.8,2.7c2.1-0.2,3.3-0.5,5.3-1.3c1.7-0.7,2.7-1.5,4-2.5c0.2-0.2,0.5-0.4,0.8-0.6
		c1.5-1.1,2.4-1.9,3.8-3.1c-2.6,0.5-4.3,0.6-7,0.6h-0.1c-2.4,0-4.3-0.6-6.1-1.1C163.9,39.4,162.2,38.9,160,38.9L160,38.9z"/>
	<path class="st2" d="M119,75.9c0.5,0,1,0.1,1.5,0.2c0.5,0.1,0.9,0.2,1.3,0.2c0.7,0,1.1-0.2,1.3-0.8c0.4-0.8,0.4-1.4,0-2
		c-0.2-0.3-0.3-0.4-0.6-0.7l-0.1-0.1c-1-1-2.1-1-3.6-1c-1.4,0-2.5,0-3.6,1l-0.1,0.1c-0.2,0.2-0.4,0.4-0.5,0.6c-0.3,0.6-0.3,1.2,0,2
		c0.2,0.5,0.7,0.8,1.3,0.8c0.4,0,0.8-0.1,1.3-0.2C117.9,76,118.5,75.9,119,75.9L119,75.9z"/>
	<path class="st2" d="M157.2,104.3l-0.9,0.4c-1.1,0.5-1.7,0.9-2.5,1.8c-1.3,1.5-1.6,2.8-1.7,4.8c0,1,0,1.7,0.3,2.7
		c0.5-0.8,1-1.2,1.8-1.7c0.7-0.4,1.1-0.7,2-0.8c0.4-0.1,0.7,0,1.1,0c0.2,0,0.4,0.1,0.7,0.1c0.8,0,1.3,0.1,2.2,0.1
		c1.1-0.6,1.8-1.1,2.7-1.9c1-0.9,1.5-1.4,2.2-2.5c-0.1-0.3-0.2-0.5-0.3-0.7c0-0.1-0.1-0.3-0.1-0.4l-0.1-0.2
		c-0.1-0.3-0.2-0.5-0.3-0.8l-0.1-0.2l0.2,0c0.8,0.1,1.2,0.3,1.7,0.9c0.6,0.6,0.7,1.2,0.7,2.1c0.1,0.9,0,1.5-0.4,2.2
		c0.3,0,0.6,0,0.9,0c1.1,0,2-0.2,3.2-0.9c1.3-0.7,1.9-1.2,2.6-2.3c0.6-0.9,0.8-1.5,0.9-2.6l0-0.1l0.1,0c1.2-0.7,1.8-1.1,2.8-2
		c0.8-0.7,1.2-1.1,1.8-1.9l0.2-0.2l0.9,3.1c0.2,0.8,0.2,1.3,0.1,2.1c-0.1,0.3-0.1,0.6-0.2,0.8l2.7-2.9c0.6-0.6,0.9-1,1.1-1.8l0,0
		c0.1-0.5,0.2-0.9,0.1-1.4l-1.1-3.3c-0.2-0.7-0.2-1.2,0.1-2c0.2-0.6,0.4-1,0.9-1.5l2.2-2.3l-0.2,0.6c-0.1,0.4-0.2,0.5-0.2,0.9
		c0,0.1,0,0.2-0.1,0.3c-0.1,0.3-0.1,0.5,0,0.9l1.1,2.6c0.3,0.8,0.2,1.3,0.1,2l0,0.1c-0.1,0.5-0.2,0.9-0.3,1.2l2.7-2.8
		c0.6-0.6,0.9-1,1.1-1.8c0.2-0.6,0.2-0.9,0.1-1.5l-1.1-3.3c-0.2-0.7-0.2-1.2,0.1-2c0.2-0.7,0.5-1,0.9-1.5l2.2-2.4l-0.2,0.6
		c-0.2,0.4-0.2,0.6-0.2,1c0,0.1,0,0.2-0.1,0.3c-0.1,0.3-0.1,0.6,0,0.9l1.1,2.7c0.3,0.8,0.2,1.3,0.1,2.1l0,0.1
		c-0.1,0.5-0.2,0.9-0.3,1.2L195,90c0.4-0.4,0.5-0.8,0.7-1.3l0-0.1c0.2-0.7,0.2-1.1,0.2-1.8l-0.2-1.7c0-0.1-0.1-1.4,0.1-2.3
		c0.3-1,0.8-1.5,1.4-2.1c0.2-0.2,0.4-0.4,0.6-0.6c1.1-1.2,1.9-1.8,3.3-2.6c0.6-1.3,0.5-2.3,0-3.6c-0.4-1-0.9-1.5-1.9-2.2
		c-0.9-0.6-1.5-0.8-2.5-1l-0.2-0.1c-1.1-0.3-1.9-0.4-2.7-0.4c-0.6,0-1.3,0.1-2.1,0.2c-1.4,0.2-2.3,0.5-3.6,1.3
		c0.2,0.5,0.2,0.9,0.2,1.5c-0.1,0.8-0.4,1.3-1,1.9c-0.6,0.6-1.2,0.8-1.9,0.9c-0.3,0.1-0.5,0.1-0.8,0.2c-1.1,0.4-2,0.5-3,0.6
		c-0.8,0.1-1.5,0.2-2.5,0.4c-0.5,0.1-1,0.3-1.5,0.4c-2.5,0.6-4.3,1.1-6.4,2.9c-1.7,1.4-2.4,2.5-3.6,4.4l-0.1,0.2c-0.7,1.1-1,2-1.3,3
		c-0.4,1.1-0.7,2.2-1.6,3.3c-0.2,0.3-0.4,0.6-0.7,0.9c1.4,0.2,2.1,0.1,3.6-0.1c1.3-0.2,2-0.5,3.3-1l0.4-0.2l-0.3,0.4
		c-0.5,0.7-0.9,1.1-1.6,1.7c-0.6,0.4-1,0.7-1.7,0.9c-0.6,1.6-1.3,2.5-2.7,3.6c-1.5,1.1-2.6,1.4-4.6,1.5c-0.1,0-0.1,0-0.2,0
		c-1,0-1.7-0.3-2.5-0.5c-0.5-0.2-0.9-0.3-1.5-0.4c-0.6-0.2-1.2-0.3-1.7-0.5c-1-0.3-1.8-0.6-3-0.6c-1.2,0-1.9,0.1-3.1,0.7
		c-1.5,0.6-2.2,1.3-3.2,2.6c-1,1.3-1.4,2.2-1.6,3.9l0,0.1l-0.1,0c-1,0.3-1.5,0.7-2.1,1.4c-0.7,0.8-1,1.3-1.1,2.3
		c-0.1,0.8,0.1,1.3,0.4,2c0.7-0.7,1.2-1.1,2.2-1.7c0.9-0.6,1.6-0.8,2.6-1.1c0.3-1,0.7-1.6,1.4-2.5c0.8-0.9,1.3-1.5,2.5-1.9
		c0.8-0.4,1.5-0.5,2.2-0.5c0.3,0,0.6,0,0.9,0.1l0.5,0.1l-0.5,0.2c-1.7,0.7-2.6,1.3-3.8,2.7c-0.7,0.8-1.1,1.4-1.5,2.4l0,0l-0.1,0
		c-0.5,0.2-0.8,0.4-1.2,0.7c-0.6,0.6-0.9,1.1-1.1,1.9c-0.3,1.1-0.2,2,0.3,3c0.9-0.9,1.5-1.4,2.6-2.1c0.9-0.5,1.5-0.8,2.5-1
		c0.3-1.3,0.7-2.1,1.6-3.2c1.3-1.5,2.5-2.1,4.4-2.4L157.2,104.3L157.2,104.3z"/>
	<path class="st2" d="M243.1,93.2c-0.2-0.9-0.2-1.5-0.8-2.2c-0.5-0.7-1.2-1-1.8-1.2l-0.2-0.1c-0.6-0.2-1.8-0.4-2.5-0.4l-1.2,0
		c-0.5,0-0.9,0-1.5-0.2l-0.2,0c-0.6-0.2-1-0.3-1.5-0.8l-2.8-3l0.6,0.3c0.3,0.1,0.5,0.2,0.8,0.2l0.1,0c0.3,0.1,0.5,0.1,0.8,0.1h3.4
		c0.8,0,1.2,0.1,1.9,0.3l0.1,0c0.4,0.1,0.7,0.2,1,0.3l-1.7-2.7c-0.4-0.6-0.6-0.9-1.1-1.3c-0.7-0.5-1.1-0.7-1.9-0.7l-4.7,0
		c-0.5,0-0.9,0-1.4-0.3c-0.5-0.3-0.7-0.6-1-0.9c-0.1-0.1-0.1-0.2-0.2-0.3l-2.2-2.8l0.5,0.3c0.4,0.2,0.7,0.3,1.1,0.4
		c0.3,0.1,0.6,0.1,1,0.1h3.7c0.9,0,1.4,0.1,2.3,0.4c0.4,0.1,0.7,0.3,1.1,0.4l-3.1-4.1c-0.4-0.5-0.6-0.7-1.1-1
		c-0.6-0.3-1-0.5-1.6-0.5h-3.3c-0.7,0-1.1,0-1.7-0.3c-0.6-0.3-1-0.5-1.3-1.1l-2.9-4.8h0.2c2.2,0,3.5-0.3,5.6-1.1
		c2.3-1,3.8-1.7,5.3-3.8c1.5-2.1,2-3.8,1.9-6.3c-0.1-2.1-0.5-3.4-1.7-5.3c-1.1-1.7-2.1-2.4-3.8-3.6c-1.1-0.7-2-1-3-1.3
		c-0.6-0.2-1.2-0.4-1.9-0.7c-0.7-0.3-1.5-0.5-2.2-0.6c-1.4-0.3-2.7-0.5-3.4-1.9c-0.5-1-0.9-1.8-0.6-2.9c0.3-0.9,0.8-1.5,1.6-1.9
		c-1-0.3-1.8-0.5-2.6-0.5c-1,0-2.1,0.2-3.3,0.8c-1.7,0.7-2.6,1.3-3.4,2.7c-0.9,1.6-1.1,3-0.5,4.7l0,0.1l-0.1,0
		c-2.2,1.1-3.4,1.9-5.4,3.4c-2.7,2-4.1,3.3-6.2,5.7c1.9-0.5,3.1-0.7,5.2-1c1.9-0.2,3.1-0.3,5-0.3c-0.1-1.1,0.1-1.8,0.6-2.8
		c1-1.9,2.5-2.8,4.6-2.8l0.7,0l-0.6,0.3c-0.9,0.4-1.3,0.7-1.9,1.5c-0.8,1.1-1.2,2-0.7,3.1c0.4,1,1.2,1.6,2.2,1.7
		c0.6,0,0.9-0.1,1.4-0.4c-0.2-0.7-0.1-1.1,0-1.8c0.5-1.9,2.1-3.1,4.1-2.9l0.5,0l-0.4,0.2c-0.6,0.3-0.9,0.5-1.3,1
		c-1.3,1.5-1.4,3.4-0.2,5c0.9,1.2,2.2,1.7,3.7,1.5c-0.2-0.3-0.3-0.6-0.3-1.1c0-0.6,0.2-1.1,0.6-1.5c0.6-0.6,1.5-0.9,2.4-0.9
		c1.7,0,3,1.2,3.1,2.8c0.1,2.8-2,3.1-4,3.3c-0.3,0-0.6,0.1-0.9,0.1c-0.2,0-0.4,0-0.6,0c-0.7,0-1.3-0.2-1.9-0.3
		c-0.4-0.1-0.8-0.2-1.2-0.3c-1.1-0.2-1.9-0.4-2.7-0.6c-0.8-0.2-1.5-0.4-2.5-0.6c-4.5-0.8-7.2-1.3-11.7-1c-2.7,0.1-4.5,0.5-6.7,1
		c-0.8,0.2-1.5,0.3-2.4,0.5c-2.9,0.6-5.2,1.2-7.4,1.8c-2.1,0.6-4.3,1.2-7.2,1.7c-1.4,0.3-2.6,0.5-3.8,0.8c-4.3,0.9-7.6,1.7-12.7,1.7
		c-6.8,0.1-10.9-0.4-17.4-2.3c0.6,1.2,0.9,2,1.1,3.3c0.1,0.8,0.1,1.3,0.1,2.1l0,0.6l-0.2-0.6c-0.7-1.7-1.2-2.5-2.2-3.9
		c-0.6-0.9-1.3-1.6-1.9-2.2c-0.7-0.7-1.4-1.4-2.1-2.4c-0.1-0.1-0.2-0.3-0.2-0.4c-0.2-0.3-0.4-0.5-0.5-0.9c-0.2-0.6-0.2-1-0.1-1.6
		c0.1-0.5,0.3-0.8,0.5-1.2l0.2-0.3v0.4c0,0.4,0.1,0.6,0.2,1c0.1,0.2,0.2,0.3,0.4,0.6l4,4c0.4-2.7,0.3-4.4-0.4-7.1
		c-0.6-2.1-1.1-3.2-2.4-5l0-0.1l0-0.1c0.7-1.9,0.9-3,1-5c0-1.5-0.1-2.3-0.4-3.7c-0.8,0.5-1.3,0.8-2.1,1.4c-0.2,0.1-0.4,0.2-0.5,0.4
		c-0.3,0.2-0.6,0.4-0.9,0.8c-0.5,0.6-0.7,1.1-0.8,1.9c-0.1,0.8-0.1,1.2,0.2,1.9l0.1,0.3l-0.3-0.2c-0.9-0.5-1.3-1-1.8-1.9
		c-0.4-0.8-0.7-1.5-0.4-2.5c0.2-0.7,0.5-1.1,1.1-1.6c0.6-0.5,1.1-0.5,1.7-0.6c0.3,0,0.7-0.1,1.1-0.2c1-0.3,1.5-0.5,2.4-0.9
		c0-0.1-0.1-0.2-0.1-0.3l0-0.1c-0.1-0.1-0.1-0.2-0.2-0.3l0,0c-1-0.2-1.7-0.3-2.5-0.3c-0.3,0-0.7,0-1.2,0.1c-0.8,0.1-1.3,0.2-2,0.4
		l-0.1,0l-0.1-0.1c-1.1-1.2-1.9-1.8-3.4-2.2c-1-0.3-1.5-0.4-2.5-0.3l0,0l0,0c-1.2-1.1-2.1-1.5-3.7-2c-0.8-0.2-1.4-0.3-1.9-0.3
		c-0.3,0-0.5,0-0.8,0c-0.3,0-0.7,0-1,0c-0.4,0-0.7,0-1,0c-0.3,0-0.5,0-0.8,0c-0.5,0-1.1,0-1.9,0.3c-1.6,0.4-2.5,0.9-3.7,2l0,0l0,0
		c-0.9,0-1.5,0.1-2.5,0.3c-1.5,0.5-2.3,1-3.4,2.2l-0.1,0.1l-0.1,0c-0.8-0.2-1.3-0.3-2-0.4c-0.5,0-0.8-0.1-1.2-0.1
		c-0.8,0-1.5,0.1-2.5,0.3c-0.1,0.1-0.1,0.2-0.2,0.4c-0.1,0.1-0.1,0.2-0.2,0.4c0.9,0.4,1.4,0.6,2.4,0.9c0.4,0.1,0.7,0.2,1.1,0.2
		c0.6,0.1,1.1,0.1,1.7,0.6c0.6,0.5,0.9,0.9,1.1,1.6c0.3,0.9,0,1.6-0.4,2.5c-0.4,0.9-0.9,1.4-1.8,1.9l-0.3,0.2l0.1-0.3
		c0.2-0.7,0.3-1.1,0.2-1.9c-0.1-0.8-0.3-1.3-0.8-1.9c-0.3-0.4-0.6-0.6-0.9-0.8c-0.2-0.1-0.3-0.2-0.5-0.3c-0.8-0.6-1.3-0.9-2.1-1.5
		c-0.3,1.4-0.4,2.2-0.4,3.7c0.1,2,0.3,3.1,1,5l0,0.1l0,0.1c-1.2,1.7-1.8,2.9-2.3,5c-0.8,2.7-0.9,4.5-0.4,7.1l4-4
		c0.2-0.2,0.3-0.3,0.4-0.6c0.2-0.4,0.2-0.6,0.2-1v-0.4l0.2,0.3c0.3,0.4,0.4,0.7,0.5,1.2c0.1,0.6,0.1,1-0.1,1.6
		c-0.1,0.4-0.3,0.7-0.5,1c-0.1,0.1-0.1,0.2-0.2,0.3c-0.6,1.1-1.4,1.8-2.1,2.4c-0.6,0.6-1.3,1.2-1.9,2.2c-1,1.5-1.5,2.4-2.2,4
		l-0.1,0.3L95,67.4c-0.3-0.6-0.3-1-0.4-1.6c0-0.6,0.1-0.9,0.3-1.4c-2.2-1.3-3.4-2.1-5.4-3.6c-0.3-0.3-0.7-0.5-1-0.7
		c-1.4-1.1-2.5-1.8-3.8-3.4c-0.4-0.5-0.9-0.9-1.3-1.4c-1.5-1.5-2.8-2.8-2.5-5.1c0.1-0.9,0.5-1.5,0.9-2.2c0.2-0.4,0.5-0.8,0.7-1.3
		c0.2-0.5,0.4-1,0.7-1.4c0.5-1,0.9-1.8,0.9-3.1c-0.1-1.9-0.7-3.2-2.1-4.5l0,0l0-0.1c0.1-1.2,0-1.9-0.6-2.9c-0.7-1.3-1.6-2-2.9-2.4
		c0.4,0.8,0.5,1.4,0.5,2.4c-0.1,0.9-0.2,1.5-0.7,2.2c0.5,0.7,0.7,1.3,0.7,2.3c-0.1,1.1-0.4,1.9-1.3,2.6l-0.3,0.2l0.1-0.4
		c0.2-1.4,0.1-2.4-0.6-3.6c-0.7-1.3-1.4-2-2.8-2.5l-0.1,0l0-0.1c-0.4-1.8-1.8-2.9-3.6-2.9c-1,0-1.7,0.3-2.4,0.9
		c0.9,0.2,1.5,0.6,2.1,1.4c0.3,0.5,0.5,0.8,0.5,1.4l0,0.1l-0.1,0c-0.4,0.2-0.6,0.4-0.8,0.8c-0.3,0.4-0.5,0.6-0.6,1.1
		c1.4,0.1,2.4,0.6,3.3,1.7c1,1.2,1.4,2.3,1.2,3.8l-0.1,0.6L73.1,44c-0.3-0.9-0.6-1.4-1.2-2c-1.5-1.7-3.3-2.2-5.5-1.7l-0.1,0l0-0.1
		c-0.8-0.8-1.6-1.2-2.7-1.2c-0.1,0-0.2,0-0.3,0c-1.2,0.1-2.1,0.5-2.8,1.5c0.8,0.1,1.3,0.3,2,0.7c0.6,0.4,0.9,0.7,1.3,1.2l0.1,0.1
		l-0.1,0.1c-0.4,0.4-0.5,0.7-0.8,1.2c-0.5,1.1-0.7,1.8-0.6,3c0.1,1.3,0.3,2.2,1.2,3.2c0.9,1.1,1.8,1.7,3.2,1.7
		c0.4,0,0.6-0.1,0.9-0.2c0.1,0,0.2-0.1,0.3-0.1c0.2-0.1,0.3-0.1,0.5-0.2c0.2-0.1,0.5-0.3,0.9-0.3c0.7,0.1,1.2,0.6,1.2,1.2
		c0.1,0.5-0.2,1.2-1.2,1.6c-0.3,0.1-0.6,0-0.9-0.1c-0.1-0.1-0.3-0.1-0.4-0.2c-0.2,0-0.4-0.1-0.6-0.2c-0.3-0.1-0.5-0.2-0.9-0.2
		c-0.8,0.1-1.2,0.4-1.7,1c-0.5,0.6-0.7,1.1-0.7,1.9v0.1l-0.1,0c-0.6,0.2-1,0.2-1.6,0c-0.4-0.1-0.7-0.2-0.9-0.5c-0.2,1,0,1.8,0.6,2.6
		c0.7,0.9,1.4,1.3,2.5,1.4l0.1,0l0,0.1c0.7,1.5,1.5,2.3,3,3l0.2,0.1c0.6,0.3,1.1,0.5,1.8,0.5l0.1,0c0.7,0,1.1-0.3,1.6-0.6
		c0.2-0.1,0.5-0.3,0.8-0.4c0.2-0.1,0.4-0.2,0.6-0.3c0.3-0.2,0.6-0.4,1-0.4c0.8-0.1,1.3,0,1.9,0.4c0.9,0.6,1.3,1.4,1.3,2.4
		c0,1.5-1.2,2.2-2.3,2.7c-0.8,0.4-1.4,0.5-2.2,0.4l1.9,1.7c0.7,0.7,1.2,1,2.1,1.4c0.9,0.4,1.5,0.6,2.6,0.6h0.4c1,0,1.6,0,2.7,0.3
		c0.1,0,0.3,0.1,0.4,0.1c0.8,0.2,1.5,0.4,2.2,1l2.6,2.6l-0.6-0.2c-0.5-0.2-0.8-0.3-1.3-0.4l-0.3,0c-0.4-0.1-0.7-0.1-1.1-0.1h-0.5
		c-1.1,0-1.8-0.1-2.9-0.4c-0.7-0.1-1.1-0.3-1.6-0.4l3.1,2.9c0.7,0.6,1.2,1,2.1,1.4c0.9,0.4,1.5,0.6,2.6,0.6h0.4c1,0,1.6,0,2.6,0.3
		l0.3,0.1c0.9,0.2,1.6,0.4,2.3,1.1l2.7,2.6l-0.6-0.2c-0.6-0.2-0.9-0.3-1.5-0.4l-0.1,0c-0.4-0.1-0.6-0.1-1.1-0.1h-0.7
		c-1.1,0-1.8-0.1-2.9-0.4c-0.6-0.1-1-0.2-1.5-0.4l3.6,3.2c0.5,0.5,0.8,0.7,1.4,1c0.6,0.3,1,0.4,1.7,0.4h5.3l-0.4,0.2
		c-1.9,1.1-3.1,1.9-4.3,2.6c-1.3,0.9-2.5,1.7-4.4,2.6c-1.1,0.6-2.1,1.2-3.1,1.9c-2.1,1.4-3.9,2.6-6.7,2.6c-0.2,0-0.4,0-0.7,0
		c-1-0.1-1.8-0.3-2.6-0.6c-0.5-0.2-1-0.3-1.7-0.5c-0.4-0.1-0.6-0.1-0.9-0.2c-0.6-0.2-1.1-0.3-1.8-0.3l-0.3,0c-1.3,0-2.1,0.1-3.3,0.8
		c-0.8,0.5-1.3,0.9-1.7,1.6c1-0.3,1.6-0.4,2.7-0.2c1.3,0.2,2.1,0.6,3.1,1.5l0.4,0.3l-0.5-0.1c-0.9-0.2-1.4-0.3-2.3-0.3l-0.2,0
		c-2.1,0-3.2,0.2-4.8,1.3c-1.5,1-2.5,2-2.9,3.8c-0.2,1-0.2,1.7,0,2.7l0,0.1l-0.1,0.1c-0.5,0.4-0.7,0.6-1.1,1.1
		c-0.1,0.1-0.1,0.2-0.2,0.3c-0.5,0.6-0.9,1.1-0.9,1.9c0,0.9,0.2,1.5,0.9,2.1c0.4-1,0.9-1.6,1.9-2.2c0.7-0.4,1.1-0.5,2-0.5l0,0l0,0
		c0.3,0.2,0.5,0.3,0.8,0.5c0.4,0.2,0.6,0.3,1,0.4l0.9-1c-0.2-1.8,0.2-3.1,1.4-4.5c1.3-1.6,2.8-2.3,4.8-2.3c0.1,0,0.3,0,0.4,0l0.8,0
		l-0.8,0.2c-2,0.5-3.1,1.6-3.9,3.5c-0.5,1.1-0.5,1.9-0.3,3.1l0,0.1l-0.1,0c-0.9,0.4-1.3,0.9-1.7,1.8c-0.6,1.3-0.6,2.5,0.2,3.7
		c0.5-0.9,1-1.4,1.9-2.1c1.1-0.8,1.8-1.1,3.1-1.4l0,0l0,0c0.7,0.2,1.1,0.3,1.7,0.3c1,0.1,1.5,0.1,2.5-0.1c-0.4-0.7-0.5-1.2-0.5-2.1
		c-0.1-2.3,0.9-4,2.9-4.8c0.6-0.2,1.1-0.3,1.6-0.3c0.2,0,0.5,0,0.8,0.1l0.6,0.1l-0.6,0.2c-0.9,0.3-1.4,0.5-2,1.2
		c-1,1-1.6,1.9-1.3,3.3c0.2,1,0.6,1.7,1.5,2.3c0.6,0.4,1,0.5,1.7,0.5l0.1,0l0,0.1c0,0.5,0,0.9-0.2,1.4c-0.1,0.6-0.2,0.9-0.5,1.4
		c1.2-0.2,2-0.5,3-1.3c0.8-0.6,1.1-1.1,1.5-1.9l0,0l0.1,0c0.8-0.2,1.1-0.4,1.7-0.9c1.4-1.1,1.9-2.2,1.7-3.6
		c-0.1-0.9-0.4-1.5-1.1-2.1l0,0l0,0c-0.1-0.7,0.2-1.4,0.6-1.9c0.5-0.5,1.1-0.8,1.8-0.8c0.7,0,1.3,0.3,1.8,0.9
		c0.5,0.6,0.8,1.4,0.7,2.2c-0.1,0.4-0.2,0.7-0.4,1l4,0c0.7,0,1-0.1,1.6-0.4c0.6-0.3,1-0.6,1.4-1.2l1.7-2.8c0.3-0.5,0.5-0.8,1.1-1.2
		l0.1-0.1c0.4-0.3,0.7-0.5,1.3-0.5h0l3.4,0l-0.3,0.2c-0.3,0.2-0.5,0.4-0.8,0.6c-0.2,0.2-0.4,0.4-0.6,0.7l-1.4,2.3
		c-0.4,0.7-0.8,1.1-1.4,1.6c-0.3,0.3-0.6,0.5-0.9,0.7l4.6-0.1c0.7,0,1-0.1,1.6-0.4c0.7-0.4,1-0.6,1.4-1.2l3.5-5.5
		c-0.2-0.1-0.4-0.3-0.7-0.5c-1.1-0.7-2.7-1.8-3.3-3.5c-0.3-1-0.4-1.5-0.4-2.4c0-0.8,0.2-1.3,0.4-2c0.1-0.4,0.3-0.6,0.4-0.9
		c0.2-0.3,0.3-0.5,0.4-0.9l0-0.1c0.2-0.5,0.3-0.9,0.3-1.4c0-0.5,0-0.8-0.1-1.2l-0.1-0.3l2.1,1.1c0.5,0.3,0.7,0.5,1,1
		c0.3,0.5,0.3,0.8,0.3,1.4c0,0.4-0.1,0.6-0.3,0.9c-0.1,0.1-0.1,0.3-0.2,0.4c-0.1,0.3-0.2,0.6-0.3,0.8c-0.2,0.4-0.3,0.8-0.4,1.3
		c-0.1,0.8-0.1,1.4,0.3,2.2c0.3,0.7,0.8,1.1,1.4,1.5c0.2,0.1,0.4,0.3,0.6,0.5c1.1,0.9,1.8,1.3,3,1.8v-7.9h3.2v7.5
		c0,0.6,0.1,1,0.4,1.6c0.3,0.5,0.5,0.8,1,1l2.3,1.1c0.6,0.3,1.1,0.3,1.6,0.3c0.2,0,0.5,0,0.7,0c0.7,0,1.2-0.1,1.8-0.4l3.6-1.5
		c-0.2,0-0.4-0.1-0.7-0.1c-0.4-0.1-0.7-0.3-0.9-0.4c-0.1-0.1-0.3-0.2-0.5-0.3l-5.6-3l0.2-0.1c0.7-0.5,0.9-1.1,1.2-1.9
		c0.2-0.7,0.2-1.1,0.2-1.9c0-0.4-0.1-0.8-0.2-1.1c-0.1-0.2-0.1-0.4-0.2-0.7c0-0.2-0.1-0.3-0.1-0.4c-0.1-0.2-0.1-0.4-0.1-0.8
		c0-0.5,0-0.8,0.2-1.2c0.1-0.3,0.2-0.6,0.6-0.8l2.6-1.7l-0.1,0.3c-0.1,0.4-0.1,0.6-0.1,1c0,0.5,0.1,0.8,0.2,1.3
		c0.1,0.3,0.2,0.6,0.3,0.8c0.1,0.2,0.2,0.5,0.3,0.8l0,0c0.1,0.6,0.2,1,0.2,1.7c0,1.3-0.2,2.1-0.7,3.2l5.5,3.1
		c0.6,0.3,0.9,0.5,1.5,0.5c0.2,0,0.3,0,0.5,0c0.4,0,0.7-0.1,1-0.2l4.5-1.7c-0.2,0-0.4-0.1-0.7-0.1c-0.4-0.1-0.7-0.3-1-0.5
		c-0.1-0.1-0.3-0.2-0.4-0.3l-5.4-2.9c-0.2-0.1-0.4-0.2-0.6-0.3c-0.1,0-0.1,0-0.2-0.1c-0.4-0.1-0.6-0.2-1-0.3l-0.2-0.1l0.1-0.1
		c0.2-0.3,0.3-0.5,0.3-0.7c0-0.1,0.1-0.2,0.1-0.3c0.2-0.6,0.3-0.9,0.4-1.5c0.2-1.4,0.1-2.2-0.2-3.5l0-0.2c-0.1-0.7-0.4-1.2-0.6-1.7
		c-0.2-0.6-0.5-1.1-0.6-1.9c-0.1-0.4-0.2-0.7-0.2-1.2c0-0.1,0-0.2,0-0.3c0-0.3,0-0.6,0.3-0.9l3.1-2.6l-0.1,0.4
		c-0.1,0.4-0.1,0.7-0.1,1.1c0,0.3,0,0.5,0.1,0.8c0.1,0.4,0.2,0.7,0.4,1c0.1,0.2,0.2,0.4,0.3,0.7c0.3,0.6,0.4,1,0.6,1.6
		c0.4-0.4,0.6-0.7,1-1.1l0.1-0.1c0.6-0.8,1.1-1.4,1.4-2.4c0.3-0.9,0.4-1.4,0.3-2.3c-0.1-0.9-0.1-1.5-0.6-2.3l-1.4-2.1
		c-0.4-0.5-0.5-0.9-0.5-1.6c-0.1-0.8,0.2-1.2,0.4-1.9l0.1-0.2l1.4-3.2l0.2,0.1c-0.2,0.6-0.2,0.9-0.1,1.5c0,0.5,0.1,0.7,0.3,1.1
		l1.1,2.1l1.4,1.9l1.4,3.3c0.2,1.2,0.2,2,0,3.1c-0.2,1.4-0.7,2.1-1.4,3.2L141,82c-1,1.7-2.6,3.2-3.6,4.1c-0.2,0.2-0.5,0.4-0.6,0.6
		c0,0.2,0.1,0.6,0.1,1c0,1-0.2,1.6-0.6,2.4l7.1,3.8c0.6,0.3,0.9,0.5,1.5,0.5c0.2,0,0.4,0,0.6,0c0.3,0,0.6-0.1,0.9-0.2l2.9-1.5
		c-0.2,0-0.5-0.1-0.7-0.2c-0.6-0.3-0.8-0.7-1-1.3c-0.5-1.4,0.5-2.9,1.8-3.5c2.4-1.2,4.9-2.2,7.5-3.3c2.7-1.1,5.5-2.3,8.6-3.7
		c3-1.4,5.3-2.7,7.6-4c3-1.7,5.9-3.3,10-4.9c1.1-0.4,2.1-0.9,3.1-1.4c2.2-1.1,4.1-2,7-2h0.7c2.4,0,4,0.1,5.9,1.4
		c1,0.6,1.7,1.1,2.4,2.2c0.6,0.9,0.8,1.6,1.1,2.6c0.3,1.4,0,2.5-0.4,3.6c-0.3,0.9-0.6,1.9-0.5,3.1c0.3,2.8,0.8,4.7,2.7,6.9
		c1.3,1.5,2.4,2.1,4.1,3c0.3,0.2,0.7,0.4,1.1,0.6c0.6,0.3,1.1,0.5,1.6,0.6c0.8,0.2,1.5,0.4,2.2,1.2l0.1,0.1c0.5,0.5,0.8,0.9,1,1.6
		c0.2,0.6,0.2,1,0,1.5c1,0,1.7-0.1,2.8-0.5c1.7-0.6,2.6-1.3,3.6-2.8l0-0.1h4.8l0,0.1c0.5,0.8,0.6,1.4,0.6,2.3c0,1,0.1,1.8-0.7,2.6
		c-0.6,0.7-1.3,0.7-2.1,0.8c-0.2,0-0.4,0-0.5,0.1c-0.2,0-0.4,0-0.6,0c-0.5,0-1-0.1-1.4-0.2c-0.5-0.1-1-0.2-1.7-0.2
		c-0.2,0-0.4,0-0.6,0c-1.3,0-2.2,0.1-3.5,0.7c-1.6,0.9-2.4,1.8-3,3.6c-0.4,1.2-0.5,1.9-0.3,3.1l0,0.1l-0.1,0c-0.7,0.4-1,0.8-1.3,1.4
		c-0.7,1.3-0.7,2.4-0.1,3.7c0.7-0.8,1.2-1.2,2.1-1.8c0.8-0.5,1.2-0.7,2-1c0.1-2.5,1.4-4.3,3.7-5.3c0.9-0.4,1.6-0.5,2.3-0.5
		c0.4,0,0.9,0.1,1.5,0.2l0.6,0.1l-0.6,0.1c-1.6,0.4-2.6,0.9-3.7,2.1c-1.5,1.6-2,3-1.9,5.2l0,0l0,0c-0.5,0.6-0.6,1.1-0.6,1.9
		c0,0.8,0.3,1.3,0.8,1.8c1.2-1.9,2.5-2.8,4.7-3.4c0.7-0.2,1.3-0.3,1.8-0.3c0.3,0,0.6,0,1,0.1c-0.4-1.8-0.1-3.3,1.1-4.8
		c1.1-1.4,2.5-2.1,4.2-2.1c0.2,0,0.5,0,0.7,0l0.7,0.1l-0.7,0.2c-1.1,0.3-1.8,0.8-2.6,1.8c-0.7,1-1,1.7-0.9,2.8
		c0.1,1.2,0.6,2.1,1.7,2.7l0.1,0l0,0.1c-0.1,0.6,0,1,0.2,1.6c0.2,0.6,0.4,0.9,0.9,1.2c0.2-0.8,0.5-1.3,1.1-2c0.5-0.5,0.8-0.7,1.4-1
		c1-0.4,1.7-0.1,2.7-0.3c0.5-0.1,0.9-0.1,1.3-0.2c1.1-0.1,2-0.3,3-1.1c0.9-0.8,1.4-1.5,1.6-2.8c0.2-1.6-0.2-2.8-1.4-3.9l-0.1,0
		l0-0.1c0.3-1.7,0.3-2.7,0.3-4.4c-0.1-1.8-0.2-2.9-0.6-4.6l0-0.2h0.7c0.4,0,0.6,0.1,1,0.1c0.1,0,0.3,0.1,0.5,0.1
		c0.5,0.1,1,0.6,1.5,1.2C243.2,94.6,243.2,94,243.1,93.2L243.1,93.2z M131.5,46.4L131.5,46.4l0,0.3c0,0.8-0.3,1.4-0.9,2.1
		c-0.6,0.7-1.2,1.1-2.1,1.1h-1.7c0.4,0.4,0.8,0.9,0.8,1.7c0,1.1-0.9,2.1-2.1,2.1c-1.2,0-2.1-0.9-2.1-2.1c0-0.6,0.2-1.1,0.6-1.5
		l0.2-0.2h-2c-0.4,0-0.7,0.2-1.1,0.6l-0.2,0.2V50c0-0.1,0-0.2,0-0.3c0-0.2,0-0.4,0-0.6c0.1-0.6,0.6-1.4,1.3-1.4h6.6
		c0.9,0,1.9-0.4,2.5-1L131.5,46.4L131.5,46.4z M124.3,38.7L124.3,38.7c0.4,0,0.6,0.1,0.9,0.3c0.3,0.2,0.5,0.3,0.7,0.7l2.1,2.7
		c0.1,0.1,0.1,0.2,0.1,0.2c0,0.1,0.1,0.2,0.2,0.3c0.2,0.2,0.4,0.3,0.6,0.3l0.5,0.3h-2.3c-0.6,0-0.9-0.1-1.4-0.4
		c-0.5-0.3-0.7-0.5-1-1l0,0l-1.7-2.2c0-0.1-0.1-0.1-0.1-0.1c-0.1-0.1-0.2-0.2-0.3-0.4c-0.2-0.2-0.3-0.3-0.6-0.4l-0.5-0.2L124.3,38.7
		L124.3,38.7z M117.3,37.7L117.3,37.7c0.6,0,0.9,0.2,1.3,0.4c0.4,0.2,0.6,0.4,0.9,0.8l2.5,3.6c0.2,0.2,0.2,0.3,0.4,0.5
		c0.3,0.3,0.5,0.4,0.9,0.6l0.5,0.2h-2.9c-0.6,0-1-0.1-1.4-0.5c-0.3-0.2-0.4-0.4-0.5-0.7c0-0.1-0.1-0.1-0.1-0.2l-2.1-3.3
		c-0.2-0.3-0.3-0.5-0.6-0.7c-0.4-0.4-0.6-0.5-1.1-0.6l-0.8-0.3L117.3,37.7L117.3,37.7z M111.6,38.7L111.6,38.7
		c0.4,0,0.6,0.1,0.9,0.3c0.3,0.2,0.5,0.3,0.7,0.7l2.1,2.8c0.1,0.1,0.1,0.2,0.2,0.2c0.1,0.1,0.1,0.2,0.2,0.3c0.2,0.2,0.3,0.3,0.6,0.3
		l0.6,0.3h-2.3c-0.6,0-0.9-0.1-1.4-0.4c-0.4-0.2-0.6-0.5-0.9-0.9l-0.1-0.1l-1.7-2.2c0-0.1-0.1-0.1-0.1-0.2c-0.1-0.1-0.2-0.2-0.3-0.3
		c-0.2-0.2-0.3-0.3-0.6-0.4l-0.5-0.2H111.6L111.6,38.7z M106.7,46.7L106.7,46.7c0.6,0.6,1.6,1,2.5,1h6.6c0.4,0,0.7,0.2,1,0.6
		c0.3,0.4,0.3,0.9,0.3,1.4c0,0.1,0,0.2,0,0.3l-0.1,0.8l-0.2-0.2c-0.3-0.3-0.6-0.5-1-0.5h-1.9c0.5,0.5,0.8,0.9,0.8,1.7
		c0,1.1-0.9,2.1-2.1,2.1s-2.1-0.9-2.1-2.1c0-0.6,0.2-1.1,0.6-1.5l0.2-0.2h-1.7c-0.9,0-1.4-0.4-2-1.1c-0.6-0.7-0.9-1.3-0.9-2.1l0-0.3
		L106.7,46.7L106.7,46.7z M106.5,83.7L106.5,83.7l-0.8,2.2c-0.2,0.6-0.2,0.9-0.3,1.4l0,0.3c-0.2,1.4-0.3,2.3-0.1,3.6l0,0.3l-0.2-0.2
		c-0.4-0.3-0.7-0.6-1.1-1c-0.3-0.4-0.5-0.7-0.8-1.1l-0.1-0.1c-0.7-1.1-1-1.8-1.5-3l-0.1-0.3c-0.3-0.1-0.6-0.2-0.9-0.2
		c-1.2-0.3-2.5-0.6-3.4-1.7c-0.9-1.2-1.1-2.2-1.3-3.6l0-0.3c-0.2-1.3-0.2-2.1,0-3.4l1.2-3.7l1.3-2.1l1-2.3c0.2-0.4,0.2-0.7,0.3-1.2
		c0.1-0.7,0-1.1-0.1-1.7l-0.2-0.8l2.2,3.3c0.4,0.7,0.4,1.2,0.4,2c0,0.8-0.1,1.4-0.4,2.1l-1.7,3.3c-0.5,0.9-0.5,1.5-0.6,2.5l0,0.1
		c0,0.1,0,0.3,0,0.4c0,0.8-0.1,1.4,0.3,2.2c0.6,1.3,1.6,2.1,3.1,2.2c0-0.6,0.1-1,0.2-1.6c0.1-0.4,0.2-0.7,0.3-0.9
		c0.1-0.3,0.2-0.5,0.2-0.9c0.1-0.3,0.1-0.5,0.1-0.9c0-0.4,0-0.7-0.1-1.1l-0.1-0.6l3.2,4.5c0.3,0.4,0.3,0.7,0.4,1.1l0,0.2
		C106.7,83,106.7,83.3,106.5,83.7L106.5,83.7z M134.7,55.4L134.7,55.4c-0.6,1-1,1.5-1.9,2.2c-0.7,0.5-1.2,0.7-1.9,0.9
		c-0.3,0.1-0.6,0.2-0.9,0.4c-0.1,0-0.2,0.1-0.3,0.1c-0.1,0-0.2,0.1-0.3,0.1c-0.2,0.1-0.2,0.3-0.2,0.5c0,0.1,0,0.2-0.1,0.2
		c-0.1,0.2-0.1,0.4-0.1,0.7c0,0.2-0.1,0.4-0.1,0.7l0,0.1c-0.2,0.6-0.3,1-0.8,1.5c-0.6,0.7-1.1,1-2,1.2c0,1.3-0.1,2-0.2,3.2
		c-0.2,1.6-0.4,2.4-0.8,3.9c0.3,0.5,0.4,0.8,0.5,1.2c0.2,0.8,0.3,1.3,0.3,2.2c0,1.3-0.1,2.1-0.9,3c-0.6,0.7-1.3,1.1-2.3,1.1
		c-0.5,0-1.1-0.1-1.7-0.2c-0.6-0.1-1.3-0.2-2-0.2s-1.4,0.1-2,0.2c-0.6,0.1-1.2,0.2-1.7,0.2c-1,0-1.8-0.3-2.3-1.1
		c-0.8-1-0.8-1.8-0.9-3c0-0.9,0.1-1.4,0.3-2.2c0.2-0.5,0.3-0.8,0.5-1.2c-0.4-1.5-0.6-2.4-0.8-3.9c-0.2-1.3-0.2-2-0.2-3.2
		c-0.9-0.2-1.4-0.6-2-1.2c-0.5-0.6-0.6-1-0.8-1.6c-0.1-0.3-0.1-0.5-0.1-0.7c0-0.2,0-0.4-0.1-0.6c0-0.1-0.1-0.2-0.1-0.3
		c0-0.2-0.1-0.3-0.2-0.5c-0.1-0.1-0.2-0.1-0.3-0.1c-0.1,0-0.2,0-0.3-0.1c-0.3-0.1-0.6-0.2-0.9-0.4c-0.6-0.2-1.2-0.4-1.9-0.9
		c-0.8-0.7-1.3-1.2-1.9-2.2c-0.6-1.1-1-1.9-0.9-3.2c0-0.7,0.1-0.9,0.3-1.6c0.1-0.3,0.3-0.7,0.4-1l0.1-0.1c0.2-0.4,0.4-0.6,0.7-0.9
		c0.3-0.3,0.6-0.5,1-0.7l0.2-0.1v3.8c0,1.3,0.3,2.1,1,3.2c0.7,0.9,1.3,1.3,2.5,1.9c1.1,0.5,1.8,0.7,3,0.7l0.1,0l0,0.1
		c-0.1,0.9,0,1.4,0.2,2.1c0,0.1,0.1,0.2,0.1,0.3c0.2,0.7,0.3,1.2,0.8,1.6c0.6,0.5,1.2,0.5,2,0.6c0.8,0,1.2,0,2-0.4
		c0.1-0.1,0.3-0.1,0.4-0.2c0.4-0.2,0.8-0.3,0.8-0.7c0-0.2,0-0.4-0.1-0.6c-0.1-0.3-0.3-0.4-0.5-0.6c-0.2-0.1-0.3-0.3-0.5-0.5
		c-0.3-0.4-0.4-0.7-0.6-1.2l-0.1-0.2c-0.1-0.3-0.2-0.6-0.1-1c0-0.1,0-0.1,0-0.2c0-0.3,0.1-0.7,0.5-0.7h4.8c0.4,0,0.4,0.4,0.4,0.7
		c0,0.1,0,0.1,0,0.2c0.1,0.4,0,0.7-0.1,1.1l0,0.1c-0.1,0.5-0.3,0.7-0.5,1.1l0,0c-0.1,0.2-0.3,0.4-0.5,0.5c-0.2,0.2-0.4,0.3-0.5,0.6
		c-0.1,0.3-0.1,0.4-0.1,0.6c0.1,0.4,0.4,0.6,0.9,0.7c0.1,0.1,0.3,0.1,0.4,0.2c0.7,0.3,1.2,0.4,2,0.4c0.9,0,1.4-0.1,2-0.6
		c0.5-0.5,0.7-0.9,0.8-1.6c0-0.1,0.1-0.2,0.1-0.3c0.2-0.8,0.3-1.3,0.2-2.1l0-0.1l0.1,0c1.2,0,1.9-0.2,3-0.7c1.2-0.6,1.8-0.9,2.5-1.9
		c0.7-1,1-1.9,1-3.2v-3.8l0.2,0.1c0.4,0.2,0.6,0.4,1,0.7c0.3,0.3,0.5,0.5,0.7,0.9l0.1,0.2c0.2,0.3,0.3,0.6,0.4,0.9
		c0.2,0.7,0.2,0.9,0.3,1.6C135.7,53.5,135.3,54.3,134.7,55.4L134.7,55.4z"/>
	<path class="st3" d="M123.3,65.1c0,1.6-0.1,3.3-0.5,4.9c-1.3-0.3-2.5-0.3-3.8-0.3c-1.3,0-2.6,0.1-3.8,0.3c-0.4-1.9-0.5-3.7-0.4-5.6
		l1.7,2c0.1-0.3,0.9-2.1,1.3-2.2l0.1,0c0.5,0.3,0.6,0.3,1.2,0.3c0.6,0,0.7,0,1.2-0.3c0.4,0.2,0.7,1.1,0.9,1.4
		c0.1,0.3,0.3,0.6,0.4,0.8l1.7-2L123.3,65.1z"/>
	<g id="_119677392">
		<path id="_119677848" class="st4" d="M143.4,104c0,0.8,0.1,1.4,0.7,2c0.4,0.6,0.8,0.8,1.4,1c-1.1,0.3-1.7,0.6-2.6,1.1
			c-1,0.5-1.5,1-2.3,1.7c-0.5-0.7-0.6-1.3-0.5-2.1c0.1-1,0.4-1.6,1.1-2.3C141.9,104.6,142.4,104.3,143.4,104z"/>
		<path id="_119677416" class="st4" d="M150.3,110.1c-1,0.3-1.6,0.5-2.5,1c-1.2,0.6-1.8,1.2-2.7,2.1c-0.6-1.1-0.8-1.9-0.4-3.2
			c0.2-0.9,0.5-1.4,1.1-2c0.4-0.4,0.7-0.6,1.2-0.8c1.1,0.3,1.8,0.7,2.5,1.5C149.8,109.3,150,109.6,150.3,110.1z"/>
		<path id="_119677440" class="st4" d="M157,111.6c-0.7-1.3-1.6-1.8-3-2c-0.7-0.1-1.1-0.1-1.8,0.2c-0.1,0.5-0.1,1-0.1,1.6
			c-0.1,1.2,0,1.8,0.4,3c0.6-0.9,1-1.4,1.9-1.9c0.7-0.4,1.1-0.6,1.9-0.8C156.5,111.6,156.8,111.6,157,111.6L157,111.6z"/>
		<path id="_119677752" class="st4" d="M63.6,42.5c-0.4-0.6-0.7-0.8-1.2-1.2c-0.8-0.4-1.3-0.6-2.2-0.7c0.8-1.1,1.7-1.6,3-1.7
			c1.3-0.1,2.2,0.3,3.1,1.2c-0.8,0.4-1.3,0.8-1.9,1.4C64.1,41.9,63.9,42.1,63.6,42.5z"/>
		<path id="_119677320" class="st4" d="M70.2,36.5c-0.1-0.6-0.2-0.9-0.5-1.4c-0.6-0.9-1.2-1.3-2.3-1.4c0.8-0.8,1.5-1.1,2.7-1.1
			c1.9,0,3.4,1.2,3.8,3c-1-0.1-1.6-0.1-2.5,0.3C70.9,36,70.7,36.2,70.2,36.5z"/>
		<path id="_119677968" class="st4" d="M82.1,37.8c-0.5-0.4-0.9-0.6-1.6-0.8c-0.9-0.2-1.6-0.2-2.5,0.2c0.5-0.7,0.7-1.3,0.8-2.2
			c0.1-1-0.1-1.7-0.6-2.6c1.6,0.4,2.5,1.1,3.3,2.5C82,35.9,82.2,36.6,82.1,37.8z"/>
		<path id="_119677680" class="st4" d="M64.6,59.9c-1.2-0.1-1.9-0.6-2.6-1.6c-0.7-1-0.8-1.9-0.5-3c0.3,0.3,0.6,0.5,1,0.6
			c0.6,0.2,1,0.2,1.6,0c0,0.4,0,0.6,0,1C64.1,58.1,64.2,58.8,64.6,59.9L64.6,59.9z"/>
		<path id="_119678016" class="st4" d="M62.1,105.9c0.5,1,0.9,1.6,1.7,2.3c0.3,0.3,0.5,0.4,0.9,0.6c-0.8,0-1.3,0.1-1.9,0.5
			c-1,0.6-1.5,1.2-1.9,2.3c-0.8-0.6-1.1-1.3-1-2.4c0-1,0.5-1.5,1.1-2.2C61.3,106.6,61.6,106.3,62.1,105.9L62.1,105.9z"/>
		<path id="_119677368" class="st4" d="M69.7,108.8c0.6,0.6,1,0.9,1.8,1.4c0.7,0.4,1.1,0.6,1.8,0.9c-1.3,0.2-2.1,0.6-3.1,1.4
			c-0.9,0.7-1.4,1.2-2,2.2c-0.9-1.3-1-2.6-0.3-4C68.3,109.7,68.8,109.3,69.7,108.8z"/>
		<path id="_119677344" class="st4" d="M86,111.3c-0.5,0.9-0.8,1.3-1.6,1.9c-1.1,0.9-1.9,1.2-3.3,1.4c0.3-0.6,0.5-0.9,0.6-1.6
			c0.1-0.5,0.2-0.8,0.2-1.4c0.6,0.1,1,0.1,1.7,0C84.5,111.7,85,111.6,86,111.3z"/>
		<path id="_119678184" class="st4" d="M212.5,106.1c-0.7,0.4-1,0.8-1.4,1.5c-0.7,1.3-0.7,2.6,0,3.9c0.7-0.9,1.2-1.3,2.2-1.9
			c0.8-0.5,1.4-0.7,2.5-0.9c-0.7,0-1.1-0.2-1.7-0.5C213.2,107.7,212.8,107.1,212.5,106.1L212.5,106.1z"/>
		<path id="_119678160" class="st4" d="M222.4,111c-0.4-0.4-0.6-0.6-1.1-0.9c-1.5-0.9-3.2-0.8-4.5,0.4c-0.5,0.6-0.6,1.2-0.6,1.9
			c0.1,0.9,0.3,1.4,0.9,2c1.4-1.6,1.9-2,3.5-2.8C221.3,111.3,221.7,111.2,222.4,111L222.4,111z"/>
		<path id="_119678520" class="st4" d="M229,111.6c-0.1,0.6,0,1,0.2,1.6c0.3,0.6,0.5,1,1,1.4c0.2-0.9,0.5-1.4,1.1-2.1
			c0.5-0.4,0.8-0.7,1.4-0.9c0.5-0.2,0.9-0.2,1.3-0.3c0.3,0,0.5,0,0.8,0c-0.4-0.5-0.8-0.8-1.4-1.2c-1.5-0.8-3.8-1.3-4.4,0.4
			C228.9,110.9,228.9,111.2,229,111.6L229,111.6z"/>
	</g>
</g>
</svg>
